<svg xmlns="http://www.w3.org/2000/svg" width="89.782" height="133.223" viewBox="0 0 89.782 133.223">
  <g id="Group_472" data-name="Group 472" transform="translate(-154.1 -10198.618)">
    <path id="Path_499" data-name="Path 499" d="M594.661,436.58s23.921,18.794-11.961,58.373,20.785,50.109,12.814,74.315h31.039s-16.084-18.008-31.633-46.412C580.726,496.927,627.975,479.287,594.661,436.58Z" transform="translate(-416.584 9762.038)" fill="#242c5b"/>
    <path id="Path_500" data-name="Path 500" d="M643.122,436.58s-23.921,18.794,11.961,58.373-20.785,50.109-12.814,74.315H611.23s16.084-18.008,31.633-46.412C657.057,496.927,609.808,479.287,643.122,436.58Z" transform="translate(-423.217 9762.038)" fill="#a2a7d1"/>
    <path id="Path_502" data-name="Path 502" d="M601.776,570.381H636.8s-2.275-49.407-22.775-79.869,5.269-50.4,5.269-50.4-25.343,13.667-23.637,48.687S636.512,522.689,601.776,570.381Z" transform="translate(-420.656 9761.46)" fill="#242c5b"/>
  </g>
</svg>
