<svg xmlns="http://www.w3.org/2000/svg" width="141.498" height="263.724" viewBox="0 0 141.498 263.724">
  <g id="Group_207" data-name="Group 207" transform="translate(3474.266 -2626.181)">
    <path id="Path_505" data-name="Path 505" d="M234.958,299.628c2.295-15.731-28.8-19.262-28.628-38.357s-8.13-29.521-8.13-29.521c19.791,6.012,24.568,31.462,24.568,31.462,18.556,14.672,14.319,28.275,13.966,29.168Z" transform="translate(-3649.549 2412.343)" fill="#242c5b"/>
    <path id="Path_506" data-name="Path 506" d="M239.712,279.751c-1.236-15.845,30.04-17.289,31.141-36.343S280.945,214.5,280.945,214.5c-20.155,4.662-26.624,29.739-26.624,29.739-19.5,13.385-16.188,27.257-15.887,28.16Z" transform="translate(-3648.021 2411.681)" fill="#242c5b"/>
    <path id="Path_507" data-name="Path 507" d="M230.85,319.2c3.25-15.565,33.674-8.182,40.081-26.167s17.787-24.921,17.787-24.921c-20.653-1.163-33.892,21.089-33.892,21.089-22.47,7.393-23.166,21.629-23.145,22.584Z" transform="translate(-3648.297 2413.736)" fill="#242c5b"/>
    <path id="Path_508" data-name="Path 508" d="M228.83,363.886c1.641-15.814,32.667-11.578,37.194-30.123s15.15-26.6,15.15-26.6c-20.664.955-31.556,24.443-31.556,24.443-21.6,9.646-20.84,23.882-20.715,24.827Z" transform="translate(-3648.374 2415.236)" fill="#242c5b"/>
    <path id="Path_509" data-name="Path 509" d="M233.51,405.416c1.641-15.814,32.667-11.578,37.194-30.123s15.15-26.6,15.15-26.6c-20.664.955-31.556,24.443-31.556,24.443-21.6,9.646-20.84,23.882-20.715,24.827Z" transform="translate(-3648.195 2416.829)" fill="#242c5b"/>
    <path id="Path_510" data-name="Path 510" d="M249.5,444.87c-1.869-15.783,29.323-18.483,29.656-37.568s8.92-29.282,8.92-29.282c-19.947,5.472-25.409,30.788-25.409,30.788-18.95,14.163-15.077,27.88-14.745,28.773Z" transform="translate(-3647.663 2417.955)" fill="#242c5b"/>
    <path id="Path_511" data-name="Path 511" d="M252.47,466.228c4.641-15.2,34.276-5.109,42.272-22.449S314.7,420.561,314.7,420.561c-20.466-3.022-35.647,17.953-35.647,17.953-23.041,5.337-25.025,19.459-25.077,20.4Z" transform="translate(-3647.467 2419.575)" fill="#242c5b"/>
    <path id="Path_512" data-name="Path 512" d="M255.392,464.384c-7.85-13.831-34.567,2.482-46.145-12.689s-24.537-18.306-24.537-18.306c19.314-7.414,38.71,9.75,38.71,9.75,23.654.187,28.659,13.53,28.929,14.444Z" transform="translate(-3650.067 2420.008)" fill="#242c5b"/>
    <path id="Path_513" data-name="Path 513" d="M246.939,432.528c-4.642-15.2-34.276-5.109-42.272-22.449s-19.957-23.218-19.957-23.218c20.466-3.022,35.657,17.953,35.657,17.953,23.041,5.337,25.025,19.449,25.087,20.4Z" transform="translate(-3650.067 2418.282)" fill="#242c5b"/>
    <path id="Path_514" data-name="Path 514" d="M231.782,390.83c-1.859-15.783-32.812-11.142-37.589-29.625s-15.5-26.406-15.5-26.406c20.674.675,31.878,24.017,31.878,24.017,21.723,9.356,21.152,23.6,21.048,24.547Z" transform="translate(-3650.298 2416.296)" fill="#242c5b"/>
    <path id="Path_515" data-name="Path 515" d="M229.222,338.24c-1.859-15.783-32.812-11.142-37.589-29.625s-15.5-26.406-15.5-26.406c20.674.675,31.878,24.017,31.878,24.017,21.723,9.356,21.151,23.6,21.048,24.547Z" transform="translate(-3650.396 2414.279)" fill="#242c5b"/>
    <path id="Path_516" data-name="Path 516" d="M254.56,476.247h-3.177c.8,0,5.566-16.967-9.543-41.888s-21.733-82.654-8.878-138.352l7.393-23.363,5.462-6.625s-7.424,12.46-6.895,24.121c0,0-8.214,7.954-8.483,71.845S256.149,433.031,254.56,476.247Z" transform="translate(-3648.478 2413.657)" fill="#242c5b"/>
  </g>
</svg>
