<svg xmlns="http://www.w3.org/2000/svg" width="735.836" height="134.164" viewBox="0 0 735.836 134.164">
  <g id="Group_474" data-name="Group 474" transform="translate(-1184.125 -10200.677)">
    <path id="Path_1273" data-name="Path 1273" d="M45.11,649.47s180.655-167.872,610.835,0Z" transform="translate(1139.015 9685.371)" fill="#394fd4"/>
    <path id="Path_1274" data-name="Path 1274" d="M545.347,622.418s-147.945-107-500.237,0Z" transform="translate(1374.614 9712.423)" fill="#242c5b"/>
    <g id="Group_212" data-name="Group 212" transform="translate(1569.1 10200.677)">
      <path id="Path_498" data-name="Path 498" d="M613.091,436.58s-15.471,12.155,7.736,37.753-13.443,32.409-8.287,48.064H592.464a176.548,176.548,0,0,0,20.459-30.018C622.1,475.61,591.545,464.2,613.091,436.58Z" transform="translate(-582.313 -436.58)" fill="#394fd4"/>
      <path id="Path_499" data-name="Path 499" d="M591.311,436.58s-15.471,12.155,7.736,37.753S585.6,506.742,590.759,522.4H570.684a176.548,176.548,0,0,0,20.459-30.018C600.323,475.61,569.765,464.2,591.311,436.58Z" transform="translate(-548.75 -436.58)" fill="#394fd4"/>
      <path id="Path_500" data-name="Path 500" d="M626.737,436.58s15.471,12.155-7.736,37.753,13.443,32.409,8.287,48.064h20.075A176.546,176.546,0,0,1,626.9,492.38C617.724,475.61,648.283,464.2,626.737,436.58Z" transform="translate(-611.23 -436.58)" fill="#394fd4"/>
      <path id="Path_502" data-name="Path 502" d="M618.221,524.364h-22.65s1.471-31.954,14.73-51.656-3.408-32.6-3.408-32.6,16.391,8.839,15.287,31.489S595.755,493.519,618.221,524.364Z" transform="translate(-577.63 -438.2)" fill="#394fd4"/>
    </g>
  </g>
</svg>
