<svg id="Group_209" data-name="Group 209" xmlns="http://www.w3.org/2000/svg" width="100.89" height="188.039" viewBox="0 0 100.89 188.039">
  <path id="Path_505" data-name="Path 505" d="M199.936,280.148c-1.636-11.217,20.538-13.734,20.412-27.349s5.8-21.049,5.8-21.049c-14.111,4.287-17.517,22.433-17.517,22.433-13.23,10.461-10.21,20.16-9.958,20.8Z" transform="translate(-141.595 -218.979)" fill="#242c5b"/>
  <path id="Path_506" data-name="Path 506" d="M267.44,261.025c.881-11.3-21.419-12.327-22.2-25.913s-7.2-20.612-7.2-20.612c14.371,3.324,18.983,21.2,18.983,21.2,13.9,9.543,11.542,19.435,11.328,20.079Z" transform="translate(-213.578 -214.5)" fill="#242c5b"/>
  <path id="Path_507" data-name="Path 507" d="M272.111,304.525c-2.317-11.1-24.01-5.834-28.578-18.657S230.85,268.1,230.85,268.1c14.726-.829,24.166,15.037,24.166,15.037,16.022,5.271,16.518,15.422,16.5,16.1Z" transform="translate(-211.734 -228.408)" fill="#242c5b"/>
  <path id="Path_508" data-name="Path 508" d="M266.152,347.606c-1.17-11.276-23.292-8.255-26.52-21.478s-10.8-18.968-10.8-18.968c14.733.681,22.5,17.428,22.5,17.428,15.4,6.878,14.859,17.029,14.77,17.7Z" transform="translate(-204.279 -238.557)" fill="#242c5b"/>
  <path id="Path_509" data-name="Path 509" d="M270.832,389.136c-1.17-11.276-23.292-8.255-26.52-21.478s-10.8-18.968-10.8-18.968c14.733.681,22.5,17.428,22.5,17.428,15.4,6.878,14.859,17.029,14.77,17.7Z" transform="translate(-212.424 -249.34)" fill="#242c5b"/>
  <path id="Path_510" data-name="Path 510" d="M274.88,425.685c1.333-11.254-20.908-13.179-21.145-26.787s-6.36-20.878-6.36-20.878c14.222,3.9,18.117,21.952,18.117,21.952,13.512,10.1,10.75,19.879,10.513,20.516Z" transform="translate(-228.252 -256.954)" fill="#242c5b"/>
  <path id="Path_511" data-name="Path 511" d="M296.84,453.037c-3.309-10.839-24.44-3.643-30.14-16.007s-14.23-16.555-14.23-16.555c14.593-2.154,25.417,12.8,25.417,12.8,16.429,3.806,17.843,13.875,17.88,14.548Z" transform="translate(-252.47 -267.922)" fill="#242c5b"/>
  <path id="Path_512" data-name="Path 512" d="M184.71,454.955c5.6-9.862,24.647,1.77,32.9-9.047s17.495-13.053,17.495-13.053c-13.771-5.286-27.6,6.952-27.6,6.952-16.866.133-20.434,9.647-20.627,10.3Z" transform="translate(-140.569 -270.847)" fill="#242c5b"/>
  <path id="Path_513" data-name="Path 513" d="M184.71,419.337c3.309-10.839,24.44-3.643,30.14-16.007s14.23-16.555,14.23-16.555c-14.593-2.154-25.424,12.8-25.424,12.8-16.429,3.806-17.843,13.867-17.887,14.548Z" transform="translate(-134.543 -259.173)" fill="#242c5b"/>
  <path id="Path_514" data-name="Path 514" d="M178.69,374.75c1.325-11.254,23.4-7.944,26.8-21.123S216.545,334.8,216.545,334.8c-14.741.481-22.729,17.125-22.729,17.125-15.489,6.671-15.081,16.829-15.007,17.5Z" transform="translate(-117.55 -245.733)" fill="#242c5b"/>
  <path id="Path_515" data-name="Path 515" d="M176.13,322.16c1.325-11.254,23.4-7.944,26.8-21.123s11.054-18.828,11.054-18.828c-14.741.481-22.729,17.125-22.729,17.125-15.489,6.671-15.081,16.829-15.007,17.5Z" transform="translate(-113.095 -232.079)" fill="#242c5b"/>
  <path id="Path_516" data-name="Path 516" d="M226.186,415.915h2.266c-.57,0-3.968-12.1,6.8-29.867s15.5-58.934,6.33-98.647l-5.271-16.658-3.894-4.724s5.294,8.884,4.916,17.2c0,0,5.856,5.671,6.049,51.226S225.054,385.1,226.186,415.915Z" transform="translate(-182.586 -227.876)" fill="#242c5b"/>
</svg>
