<svg xmlns="http://www.w3.org/2000/svg" width="736.085" height="351.185" viewBox="0 0 736.085 351.185">
  <g id="Layer_1" transform="translate(-144.76 -224.81)">
    <g id="Group_96" data-name="Group 96" transform="translate(144.76 224.81)">
      <path id="Path_99" data-name="Path 99" d="M287.992,620.245s-64.354,45.149-143.232-6.939c0,0,74.8-64.8,82.072-73.171s52.817-19.563,75.161,19.921S287.992,620.245,287.992,620.245Z" transform="translate(-144.76 -320.545)" fill="#fad0da"/>
      <circle id="Ellipse_87" data-name="Ellipse 87" cx="128.955" cy="128.955" r="128.955" transform="translate(31.12 27.555)" fill="#fff"/>
      <circle id="Ellipse_88" data-name="Ellipse 88" cx="10.009" cy="10.009" r="10.009" transform="translate(82.292 116.875)" fill="#252a5f"/>
      <circle id="Ellipse_89" data-name="Ellipse 89" cx="102.543" cy="102.543" r="102.543" transform="translate(215.749 109.193)" fill="#fff"/>
      <circle id="Ellipse_90" data-name="Ellipse 90" cx="91.626" cy="91.626" r="91.626" transform="translate(363.593 135.426)" fill="#fff"/>
      <path id="Path_100" data-name="Path 100" d="M306.68,564.828s185.964,80.1,371.853,38.307L650.441,448.917,427.981,430.29Z" transform="translate(-195.223 -288.848)" fill="#fff"/>
      <path id="Path_101" data-name="Path 101" d="M457.47,362.883s57.594-26.77,134.187-17.993,149.151,60.664,159.435,135.57-89.6,133.657-262.178,117.5S260.65,519.09,260.65,519.09l194.472-70.941Z" transform="translate(-180.877 -261.682)" fill="#fff"/>
      <g id="Group_95" data-name="Group 95" transform="translate(525.383)">
        <path id="Path_102" data-name="Path 102" d="M1009.8,385.526s46.326-75.581-17.8-160.716c0,0-67.713,88.7-76.627,97.47s-18.331,60.809,27.665,83.2S1009.8,385.526,1009.8,385.526Z" transform="translate(-908.012 -224.81)" fill="#fff"/>
        <path id="Path_103" data-name="Path 103" d="M1005.486,427.629s88.646.427,127.241,99.776c0,0-111.058,10.841-123.214,13.8s-61.346-16.445-56.156-67.341S1005.486,427.629,1005.486,427.629Z" transform="translate(-922.024 -287.984)" fill="#fff"/>
      </g>
      <ellipse id="Ellipse_91" data-name="Ellipse 91" cx="8.893" cy="21.18" rx="8.893" ry="21.18" transform="translate(28.298 172.142)" fill="#f26e4e"/>
      <path id="Path_104" data-name="Path 104" d="M367.553,654.9S294.74,709.73,201.31,652.445c0,0,84.144-78,92.252-87.992s60.444-24.725,87.875,20.155S367.553,654.9,367.553,654.9Z" transform="translate(-162.384 -327.373)" fill="#f5f5f6"/>
      <ellipse id="Ellipse_92" data-name="Ellipse 92" cx="33.695" cy="33.344" rx="33.695" ry="33.344" transform="translate(2.093 129.093)" fill="#fad0da"/>
      <ellipse id="Ellipse_93" data-name="Ellipse 93" cx="33.695" cy="33.344" rx="33.695" ry="33.344" transform="translate(2.093 126.532)" fill="#f5f5f6"/>
      <circle id="Ellipse_94" data-name="Ellipse 94" cx="4.825" cy="4.825" r="4.825" transform="translate(13.967 138.475)" fill="#fad0da"/>
    </g>
  </g>
</svg>
