<svg xmlns="http://www.w3.org/2000/svg" xmlns:xlink="http://www.w3.org/1999/xlink" width="1623" height="1972" viewBox="0 0 1623 1972">
  <defs>
    <clipPath id="clip-path">
      <rect id="Rectangle_296" data-name="Rectangle 296" width="1623" height="1972" transform="translate(297 7528)" fill="#fff" stroke="#707070" stroke-width="1"/>
    </clipPath>
  </defs>
  <g id="Group_469" data-name="Group 469" transform="translate(-297 -7528)">
    <g id="Mask_Group_1" data-name="Mask Group 1" clip-path="url(#clip-path)">
      <g id="Layer_1" transform="translate(1088.567 6951.904) rotate(30)">
        <g id="Group_105" data-name="Group 105" transform="translate(187.05 190.768)">
          <path id="Path_125" data-name="Path 125" d="M200.441,1296.874l5.922-18.958,13.02-2.366,10.67,3.556,9.464,10.654-3.541,26.056-5.922,15.4h-22.5l-8.3-17.767Z" transform="translate(-180.385 401.876)" fill="#252a5f"/>
          <path id="Path_126" data-name="Path 126" d="M1586.845,622.289l10.654,24.865v28.421l-41.457,1.191-28.421,10.654-30.787-11.845-71.054,15.4-40.266,4.732-9.479-13.02-28.421-7.113-10.654,1.191-23.69,7.113-37.9,15.4-13.02-2.366-13.02-5.922-30.787,22.5L1191.3,725.336,1180.641,758.5l-14.211,47.379-40.266,15.4-18.943,34.344-20.133,3.556h-14.211l1.191,39.076,22.5,50.92,13.02,30.787-2.366,27.246,2.366,21.324H1101.3l1.191,8.288,33.169,26.056,35.535,36.71-4.732,11.845-10.654,2.366-1.191,15.4-3.557,14.211,3.557,20.133,23.69,36.71,20.133,45v26.055l-11.845,2.366-3.557-23.69-9.479-18.943-7.113-26.055-18.943-27.246-17.767-28.421-10.654,2.366,8.288,22.5,2.366,9.479-10.654-1.191-20.133-27.246-18.943-1.191-37.9-26.056-33.169-42.632-37.9-21.324-14.211-23.69-39.076,13.02-28.422,15.4-14.211-2.366-56.843-21.324-58.034,9.479-15.4-10.654-4.732-13.02,15.4-16.577,3.557-42.632L773.277,931.4l-7.113-18.943,23.69-28.421-18.942-5.922L738.933,879.3l-41.457-15.4-29.612,17.767-28.422-8.288-52.111,18.942-21.324,21.324L584.95,933.78l22.5,31.978-18.942,15.4-13.02,39.076-11.845,28.422,7.113,14.211,7.113,41.457,3.557,45L568.4,1167.09l-29.612,35.535v36.71l-22.5,34.344-14.211,27.246-17.767,15.4V1348.3l-13.02,8.288,5.922,17.767V1393.3l-15.4,13.02,5.922,9.479-1.191,13.02-16.577,18.942-24.865,30.787-7.113,11.845,9.479,14.211-4.732,5.922-5.922-3.557-14.211-4.732-5.922,9.479,18.943,16.576-3.557,9.479-11.845,3.557v11.845l-3.557,15.4,3.557,18.942-15.4,11.845,18.942,30.787,21.324,31.978-10.654,1.191v21.324s42.632,8.288,43.823,7.113c1.191-1.191,43.823-22.5,43.823-22.5l20.133-1.191,23.69,15.4,13.02,53.3,4.732,43.823,35.535,45,14.211-21.324,14.211,9.479,3.557,35.535,8.288,16.577,7.113,33.153,11.845,29.613,3.556,8.288,11.845,29.612,13.02,16.577,13.02,18.943-9.479,4.732-15.4-9.479-9.479-21.324-8.288-21.324-21.324,5.922-3.557-11.845,14.211-16.577-10.654-18.943-11.845-2.366-14.211,8.288v28.422l30.787,33.168,11.845-5.922,7.113,17.767,3.556,14.211,15.4,9.479,27.246,2.366,29.612,15.4,35.534,16.577,24.865,11.845,56.843-3.557,27.246,1.191,31.978,7.113,13.02,31.978,17.767,4.732,26.056,18.942,13.02,13.02,24.865,13.02,11.845,3.557,13.02,3.556-4.732,17.767-10.654,7.113L998.3,2193.9l-8.288,15.4-11.845,18.943-14.211,4.732-22.5-1.191-10.654-4.732-8.288-14.21-15.4-9.479-16.576,10.654-27.246,13.02-14.211,10.654-13.02,11.845-10.654,5.922-5.923-2.366-13.02-10.654-10.654-3.557-8.288-4.731-4.732-8.289,1.191-10.654,13.02-5.923,11.845-11.844,3.556-10.654-7.113-3.557-1.191-11.845,8.288-2.366V2161.9l-11.845-5.923-14.211-1.19-8.288-1.191-10.654,7.113-13.02-3.556-3.557-13.02,7.113-9.479-16.577-11.845-17.767,5.923-27.246-8.288-17.767-8.289-23.69,7.114-5.922-8.289-4.732-13.02-16.577-8.288-4.732,11.845-9.479,16.577v11.844l-9.479,4.732-7.113-9.479-9.479-8.288-4.732-3.557-11.845-7.113v-7.113l-14.211-9.479-5.922,2.366H543.54v-4.732l-10.654-13.02-13.02-7.113h-5.922l-8.288-4.732-5.922-9.479-2.366-14.21,11.845-11.845-5.922-9.479L495,2015.032l-2.366,16.577h-9.479l-5.923-10.654v-9.479l-7.113-5.922,2.366-15.4-13.02,2.366-7.113,7.113-1.191,11.845-10.654,2.366-7.113-8.288,10.654-10.654-5.922-2.366-10.654-5.922v-9.479l5.922-4.732,1.191-14.211-14.211-3.557-15.4-16.577-10.654-13.02-7.113,4.732,5.922,9.479,3.556,7.113v7.113l-8.288,8.288-8.288,4.732-5.922-3.557-7.113-10.654-4.732-11.845,4.732-7.113V1922.67l-4.732-8.289H350.5l-1.191-9.479,3.557-11.845-7.113-16.577H317.328l-10.654-4.732-2.366-13.02-3.557-13.02-7.113-7.113-9.479,7.113-8.288-1.191-1.191-14.211v-7.113l-16.577,4.732H240.336v10.655l5.922,11.845-13.02,8.288-16.577-2.366-5.922-7.113-4.732-20.133-15.4-24.865-3.557-16.577,13.02-34.344,2.366-34.344-2.366-15.4,2.366-15.4,21.324-4.732,10.654-16.577,2.366-16.577,21.324-37.9,3.557-27.246,39.076-60.4,15.4-14.211,7.113-33.153-7.113-13.02,17.767-16.577,20.133-4.732,11.845-7.113,2.366-9.479-2.366-7.113v-8.288l21.324-14.211,18.943-7.113,5.922-7.113,13.02-35.535,15.4-18.943,8.288-15.4,4.732-4.732,8.288-7.113,4.732-9.479-3.556-8.288V1277.2l8.288-3.557h9.479l8.288-11.845,9.479-7.113v-4.732L506.8,1239.3v-8.288l-9.479-8.288-5.922-9.479-2.366-17.767-2.366-11.845v-14.211l-8.288-8.288-8.288-11.845-8.288-14.211-8.288-15.4v-11.845l-7.113-17.767,11.845-9.479,3.557-8.288-1.191-5.922-16.577-7.113L422.71,1048.61l-8.288-20.133-8.288-4.732,2.366-31.978-9.479-11.845-8.288-15.4v-9.479l7.113-17.767h13.02v-5.922l-3.557-24.865,8.288-37.9-8.288-24.865V811.744L400.2,799.9l-20.133-17.767-28.421-34.344-20.133-24.865-43.823-30.787L269.918,664.89l-32.024-48.523-11.845-26.056-17.767-30.787V510.969l10.654-21.324,14.211-7.113,9.479,11.845h8.288l11.845-24.865h24.865l-24.865-21.324,2.366-23.69-2.366-21.324L314.869,355.8l-4.732-87.646,84.089-75.8s189.487-3.557,196.6,0,150.411,82.9,155.143,82.9,156.333-15.4,156.333-15.4L1092.98,285.9l59.209,28.421,72.244,88.821,114.876,30.787,85.264,23.69,99.49,11.845,33.153,41.457-1.191,17.767,1.191,21.324,40.266,27.246Z" transform="translate(-187.05 -190.768)" fill="#252a5f"/>
        </g>
      </g>
    </g>
    <rect id="Rectangle_127" data-name="Rectangle 127" width="418" height="288" transform="translate(1502 7528)" fill="#252a5f"/>
  </g>
</svg>
