<svg xmlns="http://www.w3.org/2000/svg" width="45.226" height="34.403" viewBox="0 0 45.226 34.403">
  <g id="Group_158" data-name="Group 158" transform="matrix(0.999, -0.052, 0.052, 0.999, -426.338, -3852.689)">
    <path id="Polygon_1" data-name="Polygon 1" d="M21.8,0l9.266,16.887L43.6,32.166,21.8,30.557,0,32.166,12.536,16.887Z" transform="translate(224 3872)" fill="#fff" opacity="0.6"/>
    <path id="Polygon_2" data-name="Polygon 2" d="M12.468,1.4A1,1,0,0,1,14.022,2.4L13.648,4.39a1,1,0,0,0,.673,1.136l2.06.671a1,1,0,0,1,0,1.9l-2.06.671a1,1,0,0,0-.673,1.136l.374,1.987A1,1,0,0,1,12.468,12.9l-2.247-1.565a1,1,0,0,0-1.143,0L6.831,12.9a1,1,0,0,1-1.554-1.006l.374-1.987A1,1,0,0,0,4.978,8.77L2.918,8.1a1,1,0,0,1,0-1.9l2.06-.671A1,1,0,0,0,5.651,4.39L5.277,2.4A1,1,0,0,1,6.831,1.4L9.078,2.962a1,1,0,0,0,1.143,0Z" transform="translate(241.155 3889.155)" fill="#a1a7d1" opacity="0.8"/>
    <ellipse id="Ellipse_182" data-name="Ellipse 182" cx="10.007" cy="1.43" rx="10.007" ry="1.43" transform="translate(251.04 3883.634) rotate(56)" fill="#fff"/>
  </g>
</svg>
