<svg xmlns="http://www.w3.org/2000/svg" width="2195.059" height="1216.412" viewBox="0 0 2195.059 1216.412">
  <g id="Group_492" data-name="Group 492" transform="translate(275.059 -17969.998)">
    <path id="Path_1185" data-name="Path 1185" d="M-4895.408,14100.331s-144.691,347.276-714.014,396.976-397.43,235-397.43,235,113.31,53.333,371.692,51.112,444.454,86.4,444.454,86.4,158.269,75.351,295.3,36.42C-4894.917,14824.25-4895.408,14100.331-4895.408,14100.331Z" transform="translate(6815.189 4269)" fill="#f5d26a"/>
    <path id="Path_1957" data-name="Path 1957" d="M-4925,18707.408s109.113,1.873,208.862-18.783,256.1-52.7,304.583-75.314,91.746-57.248,79.521-74.17-61.682-18.229-61.682-18.229l-548.862,92.4-68.047,26.189-8.007,49.125Z" transform="translate(6109.941 -48)" fill="#166161"/>
    <g id="ฉากประมง2-01" transform="translate(1183.941 17969.035)">
      <rect id="Rectangle_140" data-name="Rectangle 140" width="1096" height="807" transform="translate(-1459 0.963)" fill="none"/>
      <line id="Line_111" data-name="Line 111" x1="6.644" y2="161.617" transform="translate(90.619 336.581)" fill="none" stroke="#dc3f4f" stroke-miterlimit="10" stroke-width="6"/>
      <line id="Line_112" data-name="Line 112" x1="6.689" y2="154.883" transform="translate(130.978 350.049)" fill="none" stroke="#dc3f4f" stroke-miterlimit="10" stroke-width="6"/>
      <path id="Path_653" data-name="Path 653" d="M624.051,524.613c4.011-4.587,11.321-1.684,14.216,2.656a24.208,24.208,0,0,1,3.36,9.8c.606,3.831.89,7.722,1.242,11.583,1.541,17,2.319,34.059,2.828,51.119.284,9.645.479,19.3.673,28.941a1.123,1.123,0,0,0,2.245,0c-.366-17.957-.748-35.87-1.661-53.79-.471-8.979-1.077-18.017-1.908-27.011-.367-4.01-.674-8.066-1.354-12.039a24.528,24.528,0,0,0-3.651-9.981,13.236,13.236,0,0,0-8.552-5.6,9.562,9.562,0,0,0-9.016,2.739c-.943,1.085.636,2.679,1.586,1.586Z" transform="translate(-523.99 -131.07)" fill="#dc3f4f"/>
      <path id="Path_654" data-name="Path 654" d="M629.264,482.33c-3.741.928-5.567,4.624-5.986,8.171a43.445,43.445,0,0,0,0,6.547l.307,7.086,1.22,28.35q1.22,28.245,2.439,56.506l1.377,31.9c.06,1.437,2.3,1.444,2.245,0l-2.379-55.2-2.312-55.167q-.337-7.654-.666-15.294c-.157-3.741-.247-9.54,4.355-10.692a1.122,1.122,0,0,0-.6-2.162Z" transform="translate(-524.234 -121.559)" fill="#dc3f4f"/>
      <path id="Path_655" data-name="Path 655" d="M633.469,482.029a3.949,3.949,0,0,0-2.536,3.614,34.856,34.856,0,0,0,.12,6.308l.6,14.732,1.19,29.1q1.2,29.271,2.394,58.556l1.339,32.81c.06,1.437,2.3,1.444,2.245,0l-2.327-57.067-2.334-57.067-.658-16.057-.3-7.8c-.045-1.1-.643-4.489.883-4.961,1.369-.441.786-2.611-.6-2.162Z" transform="translate(-526.164 -121.468)" fill="#dc3f4f"/>
      <path id="Path_656" data-name="Path 656" d="M630.956,484.152c5.941-.359,11.889-.628,17.838-.748a16.034,16.034,0,0,1,6.569.748c2.245.928,3.3,2.993,4.07,5.133,3.674,10.34,5.372,21.339,6.2,32.241.831,11.1.748,22.237.748,33.363l-.09,35.167-.112,40.023a1.122,1.122,0,0,0,2.245,0q.1-36.468.195-72.937c.06-22.447.606-45.642-6.569-67.22-.838-2.514-1.781-5.14-3.981-6.794-2.065-1.549-4.721-1.915-7.235-1.96-3.143-.06-6.3.135-9.443.262q-5.238.2-10.4.524c-1.437.082-1.452,2.327,0,2.245Z" transform="translate(-525.933 -121.263)" fill="#dc3f4f"/>
      <path id="Path_657" data-name="Path 657" d="M626.847,522.988l34.785-1.743c1.437-.067,1.444-2.312,0-2.245l-34.785,1.721c-1.437.075-1.444,2.319,0,2.245Z" transform="translate(-524.892 -130.791)" fill="#dc3f4f"/>
      <path id="Path_658" data-name="Path 658" d="M653.412,483.018c5.522,6.36,7.781,14.733,8.979,22.888a245.562,245.562,0,0,1,2.17,29.181c.569,20.307-.382,40.6-.748,60.9-.21,11.44-.217,22.888.322,34.321.067,1.437,2.312,1.444,2.245,0-.98-20.666-.135-41.354.337-62.02.232-10.326.374-20.659.135-30.984a275.456,275.456,0,0,0-2.013-29.929c-1.22-9.285-3.584-18.75-9.869-25.986-.95-1.092-2.529.5-1.586,1.586Z" transform="translate(-531.772 -121.229)" fill="#dc3f4f"/>
      <path id="Path_659" data-name="Path 659" d="M632,559.288l-2.32-.681a1.152,1.152,0,0,0-.86.112,1.138,1.138,0,0,0-.516.673,1.115,1.115,0,0,0,.112.86,1.167,1.167,0,0,0,.673.516l2.312.681a1.122,1.122,0,0,0,1.272-1.646A1.19,1.19,0,0,0,632,559.288Z" transform="translate(-525.521 -140.754)" fill="#dc3f4f"/>
      <path id="Path_660" data-name="Path 660" d="M632.452,561.835a1.122,1.122,0,1,0-1.122-1.122A1.122,1.122,0,0,0,632.452,561.835Z" transform="translate(-526.293 -141.011)" fill="#dc3f4f"/>
      <path id="Path_661" data-name="Path 661" d="M628.14,561.353a77.2,77.2,0,0,0,15.99.531l16.371-.831c1.437-.067,1.444-2.319,0-2.245l-16.012.808a72.071,72.071,0,0,1-15.713-.434c-1.414-.239-2.02,1.923-.6,2.17Z" transform="translate(-525.295 -140.814)" fill="#dc3f4f"/>
      <path id="Path_662" data-name="Path 662" d="M669.26,524.4c2.634-1.414,5.9-.232,7.894,1.758,2.312,2.312,3.292,5.642,4.025,8.739a159.327,159.327,0,0,1,3.562,23.247c1.354,15.713,1.122,31.567,1.175,47.34l.09,27.422a1.122,1.122,0,0,0,2.245,0c-.06-16.843,0-33.67-.21-50.543-.21-16.244-.89-32.832-4.841-48.635-.9-3.591-2.282-7.482-5.238-9.847-2.761-2.245-6.577-3.128-9.809-1.392-1.272.681-.142,2.619,1.137,1.938Z" transform="translate(-535.423 -131.44)" fill="#dc3f4f"/>
      <path id="Path_663" data-name="Path 663" d="M629.759,596.963a114.482,114.482,0,0,1,19.835-1.811c3.172,0,6.33.187,9.5.307a20.537,20.537,0,0,0,8.777-1.167c1.317-.546.748-2.716-.6-2.162a20.151,20.151,0,0,1-8.672,1.063c-3.247-.142-6.487-.314-9.727-.277a118.437,118.437,0,0,0-19.708,1.878c-1.414.262-.816,2.424.6,2.17Z" transform="translate(-525.545 -149.181)" fill="#dc3f4f"/>
      <path id="Path_664" data-name="Path 664" d="M630.358,635.621c12.361,1.152,24.639-1.384,36.985-1.5a1.122,1.122,0,0,0,0-2.245c-12.346.082-24.624,2.619-36.985,1.5C628.922,633.242,628.929,635.486,630.358,635.621Z" transform="translate(-525.777 -159.212)" fill="#dc3f4f"/>
      <line id="Line_113" data-name="Line 113" x2="7" y2="161" transform="translate(165 343.964)" fill="none" stroke="#dc3f4f" stroke-miterlimit="10" stroke-width="6"/>
      <line id="Line_114" data-name="Line 114" x1="6.427" y2="141.43" transform="translate(43.743 350.049)" fill="none" stroke="#dc3f4f" stroke-miterlimit="10" stroke-width="6"/>
      <line id="Line_115" data-name="Line 115" x2="4.467" y2="141.504" transform="translate(-2.415 336.544)" fill="none" stroke="#dc3f4f" stroke-miterlimit="10" stroke-width="6"/>
      <line id="Line_116" data-name="Line 116" x2="4.467" y2="141.504" transform="translate(-51.05 329.81)" fill="none" stroke="#dc3f4f" stroke-miterlimit="10" stroke-width="6"/>
      <line id="Line_117" data-name="Line 117" x2="4.467" y2="141.504" transform="translate(-95.943 316.342)" fill="none" stroke="#dc3f4f" stroke-miterlimit="10" stroke-width="6"/>
      <path id="Path_665" data-name="Path 665" d="M733.34,612H666v40.4s46.764,6.36,67.34,0" transform="translate(-535.022 -154.206)" fill="none" stroke="#dc3f4f" stroke-miterlimit="10" stroke-width="3"/>
      <path id="Path_666" data-name="Path 666" d="M666,639s46.764,6.36,67.34,0" transform="translate(-535.022 -161.004)" fill="none" stroke="#dc3f4f" stroke-miterlimit="10" stroke-width="3"/>
      <line id="Line_118" data-name="Line 118" y2="46" transform="translate(415 249.963)" fill="none" stroke="#dc3f4f" stroke-miterlimit="10" stroke-width="4"/>
      <line id="Line_119" data-name="Line 119" y2="73" transform="translate(447 249.963)" fill="none" stroke="#dc3f4f" stroke-miterlimit="10" stroke-width="4"/>
      <path id="Path_667" data-name="Path 667" d="M1045.858,392.489a93.75,93.75,0,0,1,5.043-11.56c.6-1.16,1.548-4.033,3.277-3.636s2.245,2.7,2.634,4.168c2.005,7.886.314,16.147,1.414,24.138.494,3.539,1.377,8.679,5.3,9.974,1.377.449,1.968-1.713.6-2.17-1.661-.546-2.357-2.477-2.813-4a30.2,30.2,0,0,1-1.107-6.263c-.344-4.332-.068-8.679-.157-13.012-.083-3.973-.292-8.492-2.058-12.129a4.878,4.878,0,0,0-4.167-2.993c-1.953,0-3.12,1.541-3.966,3.1a97.624,97.624,0,0,0-6.166,13.79c-.494,1.362,1.676,1.945,2.162.6Z" transform="translate(-630.098 -94.538)" fill="#dc3f4f"/>
      <path id="Path_668" data-name="Path 668" d="M1088.413,339.394a21.589,21.589,0,0,1,1.115,6.135c.15,2.08.352,4.145.666,6.2a69.948,69.948,0,0,0,2.993,12.032c.673,1.975,1.429,3.921,2.245,5.836.381.883.748,1.766,1.182,2.641a18.041,18.041,0,0,1,1.264,2.8c.509,1.871,0,4.093-.419,5.933-.471,2.043-1.092,4.055-1.541,6.106a36.022,36.022,0,0,0-.688,6.816,19.3,19.3,0,0,1-1.07,6.846c-.539,1.339,1.631,1.923,2.17.6,1.586-3.943.793-8.231,1.5-12.331s2.447-8.141,2.469-12.406c0-2.117-.935-3.779-1.8-5.649s-1.669-3.741-2.387-5.7a72.411,72.411,0,0,1-3.442-12.436,67.778,67.778,0,0,1-.838-6.951,24.663,24.663,0,0,0-1.219-7.071c-.509-1.339-2.679-.748-2.163.6Z" transform="translate(-641.362 -85.23)" fill="#dc3f4f"/>
      <path id="Path_669" data-name="Path 669" d="M1109.564,414.09l-1.249-36.663c-.052-1.437-2.3-1.444-2.245,0l1.25,36.663C1107.372,415.526,1109.616,415.534,1109.564,414.09Z" transform="translate(-645.82 -94.875)" fill="#dc3f4f"/>
      <path id="Path_670" data-name="Path 670" d="M1107.437,392.725c8.043-1.5,16.259-.262,24.354.067,8.32.344,16.656,0,24.976-.292,2.245-.075,4.489-.187,6.734-.165a14.546,14.546,0,0,1,5.986,1.092l-.554-.965a55.939,55.939,0,0,1-1.384,13.468c-.322,1.407,1.841,2.005,2.162.591a58.155,58.155,0,0,0,1.5-14.066,1.115,1.115,0,0,0-.554-.973c-3.561-1.661-7.482-1.429-11.306-1.317-4.287.127-8.574.3-12.862.412s-8.575.15-12.862,0-8.537-.5-12.8-.748a59.78,59.78,0,0,0-14.014.658c-1.414.269-.816,2.432.6,2.17Z" transform="translate(-645.803 -98.232)" fill="#dc3f4f"/>
      <path id="Path_671" data-name="Path 671" d="M1140.8,391.952l1.167,12.016a1.152,1.152,0,0,0,1.122,1.122,1.13,1.13,0,0,0,1.122-1.122l-1.167-12.016a1.152,1.152,0,0,0-1.122-1.122A1.13,1.13,0,0,0,1140.8,391.952Z" transform="translate(-654.565 -98.521)" fill="#dc3f4f"/>
      <path id="Path_672" data-name="Path 672" d="M1051.373,397.808q.426-3.786.621-7.587a1.137,1.137,0,0,0-1.122-1.122c-6.495-.3-12.855,1.586-19.349,1.28a1.137,1.137,0,0,0-1.085,1.422,23.934,23.934,0,0,1,.322,5.619c-.082,1.444,2.162,1.437,2.245,0a26.253,26.253,0,0,0-.4-6.218l-1.078,1.422c6.495.307,12.854-1.579,19.349-1.279l-1.122-1.122q-.194,3.8-.621,7.587C1048.964,399.238,1051.209,399.23,1051.373,397.808Z" transform="translate(-626.769 -98.077)" fill="#dc3f4f"/>
      <path id="Path_673" data-name="Path 673" d="M1023.813,391a200.173,200.173,0,0,0-22.522,4.3,1.125,1.125,0,0,0,.591,2.17,193.463,193.463,0,0,1,21.931-4.227,1.167,1.167,0,0,0,1.122-1.122A1.122,1.122,0,0,0,1023.813,391Z" transform="translate(-619.238 -98.564)" fill="#dc3f4f"/>
      <path id="Path_674" data-name="Path 674" d="M942.37,390.229a56.119,56.119,0,0,1-18.511-.045,56.866,56.866,0,0,1-8.881-2.245,14.432,14.432,0,0,1-3.861-1.713,5.963,5.963,0,0,1-1.871-3.457c-3.382-12.563-7.235-24.968-11.792-37.164-.651-1.743-1.309-3.479-1.99-5.238a28,28,0,0,0-1.878-4.489,4.1,4.1,0,0,0-3.4-1.923c-1.235-.1-2.686.322-3.786-.4a1.13,1.13,0,0,0-1.684.973,461.663,461.663,0,0,0,2.679,50.535q.748,7.138,1.766,14.216c.194,1.422,2.357.816,2.162-.6a461.179,461.179,0,0,1-4.153-49.862q-.2-7.1-.187-14.216l-1.691.965a5.858,5.858,0,0,0,3.487.711c1.2-.037,2.372-.157,2.993,1.048a39.737,39.737,0,0,1,1.781,4.415q.875,2.245,1.728,4.542,3.5,9.36,6.51,18.893,1.5,4.811,2.911,9.66c.9,3.135,1.646,6.33,2.6,9.443a7.319,7.319,0,0,0,1.885,3.337,10.478,10.478,0,0,0,3.554,1.938,56.117,56.117,0,0,0,9.143,2.6,59.349,59.349,0,0,0,21.04.3c1.422-.232.816-2.4-.6-2.17Z" transform="translate(-590.09 -84.063)" fill="#dc3f4f"/>
      <path id="Path_675" data-name="Path 675" d="M873.46,331.962a150.535,150.535,0,0,0-39.185-4.2,1.137,1.137,0,0,0-1.122,1.122q1.5,29.226.4,58.511-.307,8.193-.808,16.379c-.082,1.444,2.162,1.437,2.245,0q1.8-29.181,1.04-58.5-.224-8.23-.636-16.394l-1.122,1.122a147.557,147.557,0,0,1,38.586,4.123c1.4.337,2-1.826.6-2.17Z" transform="translate(-577.004 -82.632)" fill="#dc3f4f"/>
      <path id="Path_676" data-name="Path 676" d="M772.885,406.014q20.875.426,41.759.374t41.758-.606q11.74-.314,23.479-.748c1.444-.06,1.452-2.3,0-2.245q-20.861.823-41.743,1.152t-41.766.18q-11.74-.09-23.487-.329a1.123,1.123,0,0,0,0,2.245Z" transform="translate(-561.66 -101.532)" fill="#dc3f4f"/>
      <path id="Path_677" data-name="Path 677" d="M285.37,693l13.468,26.936s-26.936,0-20.2-26.936Z" transform="translate(-437.221 -174.6)" fill="#dc3f4f"/>
      <path id="Path_678" data-name="Path 678" d="M783,422.936,971.553,396h20.2v60.606Z" transform="translate(-564.48 -99.823)" fill="#e37458"/>
      <path id="Path_679" data-name="Path 679" d="M922.261,400.439c9.368-2.349,19.05-3.158,28.68-3.958l7.235-.606a6.173,6.173,0,0,1,2.843.217,5.761,5.761,0,0,1,2.245,2.028,47.138,47.138,0,0,1,8.919,34.142,2.59,2.59,0,0,1-.449,1.354,2.68,2.68,0,0,1-2.312.576c-5.627-.389-11.268-1.085-16.887-.658s-11.35,2.073-15.563,5.814c-1.167-7.123-2.357-14.306-4.9-21.062s-6.554-13.146-12.421-17.351a6.068,6.068,0,0,1,5.073-1.354" transform="translate(-598.884 -99.772)" fill="#ea9140"/>
      <line id="Line_120" data-name="Line 120" x1="87.916" y1="7.108" transform="translate(501.35 403.921)" fill="none" stroke="#f6d36a" stroke-miterlimit="10" stroke-width="3"/>
      <line id="Line_121" data-name="Line 121" y2="33" transform="translate(172 471.964)" fill="none" stroke="#f6d36a" stroke-miterlimit="10" stroke-width="3"/>
      <path id="Path_680" data-name="Path 680" d="M445.61,612.584a247.846,247.846,0,0,1,14.411-39.162,11.971,11.971,0,0,1,2.851-4.3c1.309-1.092,3.128-1.7,3.943-3.2.711-1.309.434-2.925.748-4.385s2.013-2.866,3.21-1.968a2.715,2.715,0,0,1,.793,2.14,17.061,17.061,0,0,1-.411,4.355,4.132,4.132,0,0,0-.157,1.878c.277,1.062,1.407,1.616,2.245,2.334,2.911,2.514,2.245,7.123,1.287,10.857l-6.921,27.437c-.831,3.292-1.811,6.816-4.489,8.934a12.256,12.256,0,0,1-4.654,2.118,14.692,14.692,0,0,1-8.777,0c-2.791-1.04-5.163-3.577-5.238-6.547" transform="translate(-479.241 -140.934)" fill="#e37458"/>
      <path id="Path_681" data-name="Path 681" d="M446.339,612.519a247.71,247.71,0,0,1,9.787-28.627q1.459-3.554,2.993-7.056a32.885,32.885,0,0,1,3.105-6.173c1.22-1.654,3.315-2.245,4.617-3.741a5.238,5.238,0,0,0,1.145-2.738,10.315,10.315,0,0,1,.449-3.135c.254-.516,1.033-1.422,1.5-.673a3.058,3.058,0,0,1,.172,1.324,15.153,15.153,0,0,1-.09,2.02c-.112,1.085-.516,2.162-.546,3.247a3.471,3.471,0,0,0,1.2,2.634,17.443,17.443,0,0,1,2.035,1.751,5.418,5.418,0,0,1,1.055,2.559,14.962,14.962,0,0,1-.426,5.544c-1.122,5-2.5,9.959-3.741,14.964s-2.424,9.929-3.771,14.867a14.662,14.662,0,0,1-2.8,6.1c-1.721,1.93-4.325,2.686-6.786,3.15a11.362,11.362,0,0,1-7.527-.786,6.337,6.337,0,0,1-3.457-5.013c-.075-1.437-2.32-1.444-2.245,0,.247,4.811,4.6,7.842,9.083,8.23a19,19,0,0,0,7.594-1.025,11.013,11.013,0,0,0,5.791-4.093,19.042,19.042,0,0,0,2.514-5.986c.748-2.731,1.392-5.492,2.087-8.23l4.28-16.97c1.04-4.138,2.866-9.151.98-13.326a6.458,6.458,0,0,0-1.646-2.245c-.681-.6-1.953-1.13-1.968-2.17a11.734,11.734,0,0,1,.374-1.945c.1-.651.187-1.309.232-1.975a7.736,7.736,0,0,0-.344-3.562c-.928-2.125-3.427-2.005-4.841-.442a5.11,5.11,0,0,0-1.182,3.038c-.12,1.13,0,2.417-.748,3.352a9.629,9.629,0,0,1-2.379,1.736,9.413,9.413,0,0,0-2.6,2.506,39.985,39.985,0,0,0-3.449,7.026A250.439,250.439,0,0,0,444.184,611.9a1.122,1.122,0,0,0,2.162.6Z" transform="translate(-478.878 -140.569)" fill="#e37458"/>
      <path id="Path_682" data-name="Path 682" d="M478.36,621.456l11.4-39.289c.838-2.9,1.8-5.986,4.175-7.857a17.208,17.208,0,0,0,2.245-1.743c1.242-1.377,1.354-3.4,1.938-5.163s2.29-3.554,4.033-2.918a25.011,25.011,0,0,1-.943,7.662c2.828.861,4.609,3.808,4.983,6.734s-.374,5.874-1.115,8.732L498.854,611.5c-1.062,4.093-2.327,8.492-5.672,11.089-4.6,3.577-12.353,1.654-14.755-3.651" transform="translate(-487.779 -142.21)" fill="#e37458"/>
      <path id="Path_683" data-name="Path 683" d="M479.069,621.372l7.482-25.9,3.816-13.064a26.5,26.5,0,0,1,1.751-4.916,9.324,9.324,0,0,1,1.317-1.953,16.121,16.121,0,0,1,2.245-1.788,7.833,7.833,0,0,0,2.716-4.834c.329-1.347,1.107-4.362,3.1-3.741l-.831-1.085a24.691,24.691,0,0,1-.905,7.363,1.152,1.152,0,0,0,.786,1.384c4.8,1.579,4.579,7.729,3.689,11.672-1.234,5.425-2.783,10.789-4.19,16.169l-2.073,7.968c-.6,2.29-1.137,4.6-1.96,6.824-1.294,3.517-3.651,6.861-7.624,7.37a9.091,9.091,0,0,1-9.353-4.856c-.621-1.309-2.551-.164-1.938,1.13a11.1,11.1,0,0,0,19.761-.1,30.151,30.151,0,0,0,2.462-6.674c.793-2.993,1.549-5.948,2.327-8.926,1.579-6.046,3.3-12.076,4.714-18.167.688-2.993,1.122-6.24.037-9.188a8.575,8.575,0,0,0-5.238-5.417l.786,1.377a27.208,27.208,0,0,0,.98-7.961,1.152,1.152,0,0,0-.823-1.085,4.166,4.166,0,0,0-4.489,1.87c-1.07,1.429-1.227,3.367-1.833,5.1-.673,1.915-2.529,2.522-3.838,3.906a13.328,13.328,0,0,0-2.679,4.594c-.748,1.968-1.257,4.026-1.848,6.038l-2.02,6.966-3.936,13.61L476.9,620.773a1.122,1.122,0,0,0,2.162.6Z" transform="translate(-487.403 -141.828)" fill="#e37458"/>
      <path id="Path_684" data-name="Path 684" d="M493.36,624.456l11.4-39.289c.838-2.9,1.8-5.986,4.175-7.856a17.218,17.218,0,0,0,2.245-1.743c1.242-1.377,1.354-3.4,1.938-5.163s2.29-3.554,4.033-2.918a25,25,0,0,1-.943,7.662c2.828.86,4.609,3.808,4.983,6.734s-.374,5.874-1.115,8.732L513.854,614.5c-1.062,4.093-2.327,8.492-5.672,11.089-4.6,3.576-12.353,1.653-14.755-3.651" transform="translate(-491.555 -142.966)" fill="#e37458"/>
      <path id="Path_685" data-name="Path 685" d="M494.069,624.372l7.482-25.9,3.816-13.064a26.5,26.5,0,0,1,1.751-4.916,9.316,9.316,0,0,1,1.317-1.953,16.13,16.13,0,0,1,2.245-1.788,7.833,7.833,0,0,0,2.716-4.834c.329-1.347,1.107-4.362,3.1-3.741l-.831-1.085a24.691,24.691,0,0,1-.905,7.363,1.152,1.152,0,0,0,.748,1.384c4.8,1.579,4.579,7.729,3.689,11.672-1.235,5.425-2.783,10.789-4.19,16.169l-2.073,7.969c-.6,2.29-1.137,4.6-1.96,6.824-1.294,3.517-3.651,6.861-7.625,7.37a9.091,9.091,0,0,1-9.353-4.856c-.621-1.31-2.551-.165-1.938,1.13a11.1,11.1,0,0,0,19.761-.1,30.148,30.148,0,0,0,2.462-6.674c.793-2.993,1.549-5.949,2.327-8.926,1.579-6.046,3.3-12.076,4.714-18.167.688-2.993,1.122-6.24.037-9.188a8.574,8.574,0,0,0-5.237-5.417l.786,1.377a27.206,27.206,0,0,0,.98-7.961,1.152,1.152,0,0,0-.823-1.085,4.166,4.166,0,0,0-4.489,1.871c-1.07,1.429-1.227,3.367-1.833,5.1-.673,1.915-2.529,2.521-3.838,3.906a13.324,13.324,0,0,0-2.679,4.594c-.748,1.968-1.257,4.025-1.848,6.038l-2.02,6.966-3.9,13.61L491.9,623.773a1.122,1.122,0,0,0,2.162.6Z" transform="translate(-491.179 -142.583)" fill="#e37458"/>
      <path id="Path_686" data-name="Path 686" d="M568.174,640.26a172.875,172.875,0,0,0,18.878.681,71.744,71.744,0,0,0,9.3-.928c3.045-.516,6.046-1.392,9.151-1.452,2.948-.052,6.031.3,8.642-1.354,1.22-.748.09-2.716-1.137-1.938-2.245,1.414-4.991,1-7.482,1.048a49.055,49.055,0,0,0-8.507,1.309,80.86,80.86,0,0,1-18.287,1.033c-3.517-.135-7.026-.389-10.535-.643-1.444-.1-1.437,2.14,0,2.245Z" transform="translate(-510.125 -160.02)" fill="#dc3f4f"/>
      <path id="Path_687" data-name="Path 687" d="M577.724,642.4a18.047,18.047,0,0,0,.277,5.672,1.13,1.13,0,0,0,1.384.748,1.145,1.145,0,0,0,.748-1.377c-.045-.224-.082-.441-.12-.666s-.037-.239-.06-.359v-.112c-.052-.426-.09-.861-.1-1.294a17.276,17.276,0,0,1,.1-2.641,1.122,1.122,0,0,0-1.122-1.122,1.152,1.152,0,0,0-1.122,1.122Z" transform="translate(-512.769 -161.571)" fill="#dc3f4f"/>
      <path id="Path_688" data-name="Path 688" d="M504.36,624.456l11.4-39.289c.838-2.9,1.8-5.986,4.175-7.856a17.22,17.22,0,0,0,2.245-1.744c1.242-1.377,1.354-3.4,1.938-5.163s2.29-3.554,4.033-2.918a25,25,0,0,1-.943,7.662c2.828.861,4.609,3.809,4.983,6.734s-.374,5.874-1.115,8.732L524.854,614.5c-1.062,4.093-2.327,8.492-5.672,11.089-4.6,3.576-12.353,1.653-14.755-3.651" transform="translate(-494.325 -142.966)" fill="#e37458"/>
      <path id="Path_689" data-name="Path 689" d="M505.069,624.372l7.482-25.9,3.816-13.064a26.524,26.524,0,0,1,1.751-4.916,9.325,9.325,0,0,1,1.317-1.953,16.12,16.12,0,0,1,2.245-1.788,7.834,7.834,0,0,0,2.716-4.834c.329-1.347,1.107-4.362,3.1-3.741l-.83-1.085a24.693,24.693,0,0,1-.905,7.363,1.152,1.152,0,0,0,.748,1.384c4.8,1.579,4.579,7.729,3.689,11.672-1.234,5.425-2.783,10.789-4.19,16.169l-2.073,7.969c-.6,2.29-1.137,4.6-1.96,6.824-1.294,3.517-3.651,6.861-7.625,7.37a9.091,9.091,0,0,1-9.353-4.856c-.621-1.31-2.551-.165-1.938,1.13a11.1,11.1,0,0,0,19.761-.1,30.152,30.152,0,0,0,2.462-6.674c.793-2.993,1.549-5.949,2.327-8.926,1.579-6.046,3.3-12.076,4.714-18.167.688-2.993,1.122-6.24.037-9.188a8.574,8.574,0,0,0-5.237-5.417l.786,1.377a27.208,27.208,0,0,0,.98-7.961,1.153,1.153,0,0,0-.823-1.085,4.166,4.166,0,0,0-4.489,1.871c-1.07,1.429-1.227,3.367-1.833,5.1-.673,1.915-2.529,2.521-3.838,3.906a13.327,13.327,0,0,0-2.679,4.594c-.748,1.968-1.257,4.025-1.848,6.038l-2.02,6.966-3.9,13.61L502.9,623.773a1.122,1.122,0,0,0,2.162.6Z" transform="translate(-493.949 -142.583)" fill="#e37458"/>
      <path id="Path_690" data-name="Path 690" d="M433.444,610.147a69.741,69.741,0,0,0-2.5-27c4.25-.576,7.086,3.988,9.989,7.138,7.078,7.669,18.818,8.418,27.946,13.468,4.37,2.417,8.111,5.814,12.263,8.59,6.307,4.213,13.468,6.936,20.554,9.63,3.449,1.309,6.958,2.634,10.64,2.9s7.624-.688,10.183-3.345c3.352-3.472,3.569-8.814,3.591-13.64a5.171,5.171,0,0,0-.748-3.352,5.41,5.41,0,0,0-2.11-1.437c-7.445-3.479-14.882-6.958-22.5-10.034-18.661-7.542-38.526-12.72-55.369-23.824-4.594-3.03-8.926-6.472-13.775-9.076s-10.318-4.355-15.765-3.606a23.105,23.105,0,0,1,4.018-15.361c-2.761.247-4.489-3.315-7.25-3.741-2.207-.329-4.175,1.5-5.2,3.5s-1.5,4.257-2.851,6.053-4.01,2.941-5.806,1.624a10.4,10.4,0,0,1-1.392-1.5c-3.576-3.936-9.936-2.716-15.032-1.19a48.883,48.883,0,0,0,7.654,12.959,18.526,18.526,0,0,0-11.927-.853q4,22.911,8.545,45.7a41.149,41.149,0,0,1,12.428,1.347l-6.038-26.188c-.471-2.05-.943-4.213-.322-6.225s2.746-3.741,4.759-3.09,2.753,2.993,2.843,5.088-.18,4.287.845,6.09c2.574,4.489,10.153,2.327,13.977,5.851a11.7,11.7,0,0,1,1.99,2.716l5.686,9.622a14.291,14.291,0,0,1,2.028,4.587c.352,1.938-.1,4.026.651,5.844,1.25,2.993,5.986,3.651,8.021,1.092" transform="translate(-462.526 -135.429)" fill="#ea9140"/>
      <path id="Path_691" data-name="Path 691" d="M434.187,609.775a71.434,71.434,0,0,0-2.536-27.3l-1.085,1.422c3.3-.374,5.574,2.6,7.482,4.849a28.528,28.528,0,0,0,7.714,6.607c6.188,3.479,13.273,4.8,19.693,7.744a55.743,55.743,0,0,1,10.2,6.517,71.169,71.169,0,0,0,10.737,6.891A125.6,125.6,0,0,0,498.2,621.6c4.033,1.549,8.111,3.307,12.428,3.876a15.412,15.412,0,0,0,10.617-2.08c3.068-2.08,4.6-5.41,5.193-8.979a37.428,37.428,0,0,0,.441-5.492c0-1.773.217-3.816-.86-5.342s-3.434-2.245-5.14-3.075l-6.315-2.866q-11.972-5.484-24.385-10.041c-7.871-2.888-15.8-5.626-23.532-8.844a124.2,124.2,0,0,1-22.177-11.62c-7.071-4.789-14.037-10.535-22.724-11.927a22.228,22.228,0,0,0-6.3-.15l1.122,1.122a22.4,22.4,0,0,1,3.868-14.792,1.13,1.13,0,0,0-.973-1.691c-1.279.067-2.245-.816-3.2-1.579a8.844,8.844,0,0,0-3.532-2.065c-3.494-.748-6.046,2.357-7.258,5.238a20.911,20.911,0,0,1-2.245,4.789c-.793,1.01-2.342,2.005-3.674,1.571-.748-.239-1.19-.958-1.684-1.5a8.691,8.691,0,0,0-1.758-1.5,10.024,10.024,0,0,0-4.145-1.444c-3.472-.457-7.011.382-10.318,1.369a1.13,1.13,0,0,0-.786,1.377,51.63,51.63,0,0,0,7.924,13.423l1.092-1.871a19.843,19.843,0,0,0-12.5-.846,1.145,1.145,0,0,0-.786,1.377q4.041,22.836,8.53,45.642a1.129,1.129,0,0,0,1.077.83,41.152,41.152,0,0,1,12.129,1.309,1.137,1.137,0,0,0,1.377-1.384l-5.694-24.692c-.636-2.731-2.312-8.021,1.444-9.345,1.429-.509,2.469.636,2.9,1.878a16.172,16.172,0,0,1,.441,4.766c.12,2.993,1.317,5.507,4.13,6.734,2.387,1.04,5.028,1.107,7.535,1.721a8.178,8.178,0,0,1,3.27,1.5c1.392,1.16,2.245,3.038,3.113,4.564l3.225,5.447a33.169,33.169,0,0,1,2.888,5.238c.748,2.013.269,4.153.748,6.2a5.469,5.469,0,0,0,2.477,3.517,6.071,6.071,0,0,0,7.707-1c.913-1.1-.666-2.7-1.586-1.586a3.876,3.876,0,0,1-5.851-.135c-1.033-1.384-.666-3.419-.793-5.028a12.54,12.54,0,0,0-1.871-5.41c-2.1-3.644-4.242-7.28-6.427-10.872a9.577,9.577,0,0,0-3.12-3.374,12.164,12.164,0,0,0-3.741-1.354c-2.409-.524-5.2-.524-7.355-1.833-2.993-1.788-1.818-5.709-2.334-8.567s-2.993-5.709-6.2-4.489c-3.554,1.369-4.093,5.29-3.524,8.6.4,2.3,1.018,4.587,1.549,6.869l1.631,7.086,3.27,14.179,1.384-1.384a43.448,43.448,0,0,0-12.72-1.384l1.085.823q-4.542-22.8-8.552-45.694l-.748,1.377a17.794,17.794,0,0,1,11.313.845c1.152.479,1.7-1.122,1.092-1.878a48.04,48.04,0,0,1-7.355-12.428l-.748,1.377a24.4,24.4,0,0,1,9.091-1.362,7.909,7.909,0,0,1,3.853,1.347c1.287.935,1.983,2.469,3.539,3.038,3.128,1.13,6.068-1.444,7.355-4.063.748-1.541,1.2-3.232,2.05-4.736.748-1.272,1.968-2.724,3.554-2.739,1.429,0,2.6,1.212,3.644,2.043a6.191,6.191,0,0,0,4.153,1.721l-.965-1.684a24.347,24.347,0,0,0-4.22,15.907c.045.546.479,1.2,1.122,1.122,8.634-1.092,16.3,3.7,23.083,8.425,3.419,2.387,6.824,4.781,10.423,6.884,3.449,2.013,7.018,3.831,10.647,5.5,14.965,6.876,30.8,11.418,45.889,17.957,4.108,1.773,8.171,3.629,12.226,5.515a55.268,55.268,0,0,1,5.627,2.671c1.646,1,1.264,3.2,1.235,4.871-.075,3.382-.322,7.041-2.245,9.966s-5.529,4.3-8.979,4.355c-4.2.067-8.23-1.549-12.076-2.993s-7.871-2.993-11.687-4.789a63.687,63.687,0,0,1-10.722-6.36,91.815,91.815,0,0,0-9.936-6.929c-6.046-3.307-12.877-4.661-19.132-7.482a25.566,25.566,0,0,1-8.275-5.552c-2.177-2.289-3.973-5.14-6.786-6.734a6.855,6.855,0,0,0-4.19-.928,1.145,1.145,0,0,0-1.085,1.422,69.661,69.661,0,0,1,2.462,26.7c-.142,1.436,2.1,1.422,2.245,0Z" transform="translate(-462.146 -135.056)" fill="#ea9140"/>
      <line id="Line_122" data-name="Line 122" x1="87.916" y1="7.108" transform="translate(500.601 424.123)" fill="none" stroke="#f6d36a" stroke-miterlimit="10" stroke-width="3"/>
      <path id="Path_692" data-name="Path 692" d="M622.126,656.984l.254-42.035c0-3.367.164-7.056,2.424-9.547,1.624-1.788,4.355-3.1,4.347-5.514,0-1.279-.868-2.424-1.018-3.7a3.442,3.442,0,1,1,6.832-.838c.2,1.639-.749,3.472.149,4.864.7,1.107,2.245,1.339,3.172,2.245a5.126,5.126,0,0,1,1.257,2.566,40.477,40.477,0,0,1,.823,9.974q-.09,20.763-2.118,41.467a4.618,4.618,0,0,1-.561,2.11,4,4,0,0,1-1.684,1.309,13.3,13.3,0,0,1-14.575-2.245" transform="translate(-523.8 -149.254)" fill="#ea9140"/>
      <path id="Path_693" data-name="Path 693" d="M622.868,656.624l.2-33.85c0-2.828,0-5.649.052-8.477a17.012,17.012,0,0,1,.92-6.562c1.5-3.509,6.914-4.991,5.649-9.517-.262-.935-.913-1.9-.831-2.9a2.492,2.492,0,0,1,1.691-2.125,2.335,2.335,0,0,1,2.379.748c.748.905.546,2.013.4,3.1a5.164,5.164,0,0,0,.292,3.1,4.871,4.871,0,0,0,2.245,1.968,3.442,3.442,0,0,1,1.953,1.983,17.771,17.771,0,0,1,.748,3.891,71.7,71.7,0,0,1,.232,8.118q0,4.25-.15,8.522-.224,8.44-.748,16.858-.3,4.714-.748,9.428c-.135,1.6-.284,3.195-.441,4.8a4.137,4.137,0,0,1-.434,1.923,3.425,3.425,0,0,1-1.339.988,12.174,12.174,0,0,1-13.086-2.155c-1.055-.98-2.649.606-1.586,1.594a14.612,14.612,0,0,0,12.817,3.517c2.11-.434,4.826-1.377,5.589-3.614a18.073,18.073,0,0,0,.539-4.063q.224-2.4.419-4.8c1-12.151,1.624-24.4,1.5-36.6a31.115,31.115,0,0,0-1.01-8.679,5.336,5.336,0,0,0-1.8-2.836c-.748-.584-2.043-.868-2.589-1.684s-.082-2.245,0-3.113a4.737,4.737,0,0,0-.846-3.359,4.542,4.542,0,0,0-5.866-1.369,4.759,4.759,0,0,0-2.02,5.829c.337.98.965,2.035.509,3.075a6.734,6.734,0,0,1-2,2.245,11.274,11.274,0,0,0-3.883,5.38,24.615,24.615,0,0,0-.748,7.018q-.135,20.845-.254,41.669a1.122,1.122,0,1,0,2.245,0Z" transform="translate(-523.42 -148.894)" fill="#ea9140"/>
      <path id="Path_694" data-name="Path 694" d="M1148.776,598.468,926.553,585S764.936,652.34,738,652.34C738,652.34,1054.5,733.149,1148.776,598.468Z" transform="translate(-553.15 -147.409)" fill="#f6d36a" stroke="#f6d36a" stroke-miterlimit="10" stroke-width="1"/>
      <path id="Path_695" data-name="Path 695" d="M783,312.5s-.374-20.576,228.957,6.734V332.7L783,325.966Z" transform="translate(-564.48 -76.928)" fill="#f6d36a" stroke="#f6d36a" stroke-miterlimit="10" stroke-width="1"/>
      <path id="Path_696" data-name="Path 696" d="M765,439.617V304.937s6.36-7.108,13.468,0v94.276H933.35V304.937s6.36-7.108,13.468,0v101.01l141.415-26.936V547.362s-13.842,6.36-20.2,0V432.883L946.819,459.819V432.883Z" transform="translate(-559.947 -76.1)" fill="#dc3f4f"/>
      <path id="Path_697" data-name="Path 697" d="M234,540h40.4l13.468,40.4s437.712,101.01,532.362,87.916c0,0,141.04-.374,202.021-80.808,0,0-14.216,19.454-40.778,40.03l7.108.374,26.562,6.36v6.734S900.294,782.051,328.276,802.627Z" transform="translate(-426.255 -136.079)" fill="#f6d36a" stroke="#f6d36a" stroke-miterlimit="10" stroke-width="1"/>
      <path id="Path_698" data-name="Path 698" d="M270,594s451.18,80.808,471.382,80.808,188.553,26.936,289.563-74.074c0,0-74.074,127.947-316.5,80.808L276.734,620.936Z" transform="translate(-435.319 -149.675)" fill="#dc3f4f"/>
      <path id="Path_699" data-name="Path 699" d="M306,683.936s363.637,60.606,464.648,53.872,141.415,13.468,235.691-74.074V657h26.936v13.468s-60.606,94.277-303.031,80.808L312.734,704.138H306Z" transform="translate(-444.383 -165.536)" fill="#dc3f4f"/>
      <path id="Path_700" data-name="Path 700" d="M765,433.468s154.509-.374,181.819,6.734,127.572-7.108,141.415-20.2" transform="translate(-559.947 -105.866)" fill="none" stroke="#f6d36a" stroke-miterlimit="10" stroke-width="3"/>
      <path id="Path_701" data-name="Path 701" d="M765,451.468s154.509-.374,181.819,6.734,127.572-7.108,141.415-20.2" transform="translate(-559.947 -110.398)" fill="none" stroke="#f6d36a" stroke-miterlimit="10" stroke-width="3"/>
      <path id="Path_702" data-name="Path 702" d="M1088.233,405c-13.842,13.094-114.1,27.31-141.415,20.2S765,418.468,765,418.468" transform="translate(-559.947 -102.089)" fill="none" stroke="#f6d36a" stroke-miterlimit="10" stroke-width="3"/>
      <path id="Path_703" data-name="Path 703" d="M738,477s181.819,6.734,195.287,13.468V497.2l-6.734,13.468h6.734V638.617l-181.819-6.734V490.468H738Z" transform="translate(-553.15 -120.217)" fill="#dc3f4f"/>
      <path id="Path_704" data-name="Path 704" d="M1117.946,477V584.744s-80.808,47.138-121.212,53.872V510.67H990l6.734-13.468v-6.734Z" transform="translate(-616.597 -120.217)" fill="#ea9140"/>
      <path id="Path_705" data-name="Path 705" d="M369,432H624.893s215.489,53.872,242.425,47.138c0,0-208.755-26.936-228.957-20.2s-114.479,13.468-161.617,0S369,432,369,432Z" transform="translate(-460.245 -108.887)" fill="#dc3f4f"/>
      <path id="Path_706" data-name="Path 706" d="M351,411.776l13.468,13.468s181.445-.374,255.893,0c0,0,147.774,87.168,377.105,26.936V438.712s-141.789,46.764-343.435-13.468C654.031,425.244,566.115,391.2,351,411.776Z" transform="translate(-455.713 -102.131)" fill="#e37458" stroke="#e37458" stroke-miterlimit="10" stroke-width="1"/>
      <path id="Path_707" data-name="Path 707" d="M1103.167,414.691c.307-1.5,2.132-2.2,3.6-1.856a8.771,8.771,0,0,1,3.741,2.462c2.926,2.8,5.986,5.769,7.123,9.637.748,2.379.688,4.991,1.8,7.213,1.728,3.457,5.784,5.133,7.991,8.305,1.085,1.571,1.683,3.442,2.813,4.983.816,1.1,1.871,2,2.716,3.075,1.833,2.334,2.529,5.327,3.172,8.23l2.993,13.6a7.31,7.31,0,0,0,1.354,3.345c1.541,1.766,4.272,1.654,6.6,1.369,2.574-.314,5.417-.83,6.974-2.9a33.427,33.427,0,0,0,1.691-3.143c1.392-2.192,3.943-3.3,6.338-4.287l13.722-5.619c2.611-1.077,5.365-2.245,7-4.557,1.841-2.6,1.833-6.038,1.758-9.233l-.269-11.717a31.668,31.668,0,0,0-.8-7.617c-1.2-4.444-4.265-8.133-6.173-12.323-1.541-3.375-2.319-7.056-3.9-10.408s-4.228-6.525-7.849-7.318a16.366,16.366,0,0,0-5.724.112l-22.2,3.083c-8.1,1.122-16.274,2.245-23.876,5.275-3.233,1.279-6.4,2.911-9.854,3.277a10.333,10.333,0,0,0-3.943.748c-2.432,1.4-2.417,4.856-2.088,7.647a5.1,5.1,0,0,0,5.716-1.5" transform="translate(-643.719 -99.756)" fill="#f6d36a"/>
      <path id="Path_708" data-name="Path 708" d="M1103.841,414.6c.553-2.088,3.307-.748,4.31.082a41.139,41.139,0,0,1,4.556,4.489,15.769,15.769,0,0,1,3.315,5.365c.7,2.155.748,4.489,1.5,6.614,1.369,3.741,4.826,5.537,7.482,8.23,1.5,1.571,2.244,3.569,3.322,5.41s2.993,3.217,4.1,5.125a21.581,21.581,0,0,1,2.065,6.1c.561,2.462,1.1,4.931,1.646,7.4s1.048,4.841,1.616,7.243c.456,1.93,1.3,3.741,3.18,4.594a10.241,10.241,0,0,0,5.492.531,17.465,17.465,0,0,0,5.56-1.324,7.859,7.859,0,0,0,3.741-4.257,8.535,8.535,0,0,1,4.355-4c2.11-1.018,4.332-1.833,6.5-2.724l7.033-2.881c3.793-1.556,8.343-2.993,10.325-6.929s1.317-8.769,1.212-13c-.06-2.5-.112-5.006-.172-7.482a36.676,36.676,0,0,0-.666-7.243c-.995-4.355-3.741-7.961-5.769-11.852-2.11-4.063-2.873-8.664-5.028-12.72-1.818-3.412-4.811-6.495-8.784-7.078-2.484-.374-5.013.15-7.482.494l-7.774,1.077c-5.058.7-10.124,1.392-15.181,2.11A126.762,126.762,0,0,0,1120,400.642a60.209,60.209,0,0,0-6.981,2.245c-2.192.868-4.324,1.885-6.584,2.574a16.545,16.545,0,0,1-3.285.688,13.121,13.121,0,0,0-3.367.524,5.388,5.388,0,0,0-3.285,3.741,13.715,13.715,0,0,0-.187,5.237,1.19,1.19,0,0,0,.823,1.085,6.254,6.254,0,0,0,6.809-1.8c.928-1.092-.651-2.686-1.586-1.586a4.093,4.093,0,0,1-4.624,1.227l.823,1.077a10.79,10.79,0,0,1,.254-5.1c.793-2.028,2.783-2,4.654-2.2,4.49-.494,8.53-2.843,12.78-4.272,9.1-3.075,18.818-3.981,28.275-5.3l14.8-2.05c2.3-.322,4.736-.681,6.929.292a10.536,10.536,0,0,1,4.213,3.659c2.491,3.562,3.292,7.931,4.916,11.9s4.347,7.355,5.933,11.321c1.758,4.4,1.407,9.36,1.5,14.007.052,2.424.12,4.841.165,7.265a19.985,19.985,0,0,1-.486,5.986c-1.234,4.332-5.769,5.739-9.51,7.273-4.422,1.811-8.9,3.524-13.266,5.462a12.547,12.547,0,0,0-4.721,3.2c-1.22,1.452-1.571,3.569-3.09,4.751a10.129,10.129,0,0,1-5.156,1.639c-1.743.225-3.7.486-5.193-.4-1.766-1.047-1.893-3.823-2.29-5.619l-1.594-7.161c-.92-4.115-1.444-8.9-3.966-12.421-1.264-1.773-2.94-3.113-3.98-5.065a20.646,20.646,0,0,0-3.2-5.028c-2.567-2.641-6.135-4.384-7.168-8.171-.584-2.125-.659-4.347-1.5-6.4a18.862,18.862,0,0,0-3.225-5.193,51.011,51.011,0,0,0-4.272-4.355c-1.376-1.279-3.053-2.551-5.028-2.454a3.9,3.9,0,0,0-3.741,2.753,1.122,1.122,0,0,0,2.162.6Z" transform="translate(-643.322 -99.362)" fill="#f6d36a"/>
      <path id="Path_709" data-name="Path 709" d="M1031.11,428.427c3.629-.591,7.767-1.062,10.61,1.264,1.968,1.609,2.806,4.168,4.078,6.367,2.806,4.863,7.834,8.081,10.894,12.795a19.312,19.312,0,0,1,2.357,15.488,1.871,1.871,0,0,1-.748,1.2,1.9,1.9,0,0,1-1.025.172,23.493,23.493,0,0,1-9.727-2,12.653,12.653,0,0,1-6.675-7.1,33.051,33.051,0,0,1-.927-4.624,53.888,53.888,0,0,0-2.619-8.769,12.816,12.816,0,0,0-1.691-3.532c-1.033-1.377-2.559-2.245-3.883-3.4s-2.507-2.619-2.454-4.34,2-3.337,3.517-2.521" transform="translate(-626.491 -107.866)" fill="#f6d36a"/>
      <path id="Path_710" data-name="Path 710" d="M1031.063,429.1c2.881-.464,6.315-1,8.979.6s3.539,5.237,5.238,7.767c3.622,5.238,9.54,8.777,11.83,14.964a18.325,18.325,0,0,1,.875,9.727c-.075.4-.18,1.773-.554,2.013-.194.127-.748,0-.965,0-.5,0-1-.037-1.5-.075a22.912,22.912,0,0,1-5.238-1,12.945,12.945,0,0,1-7.31-5.559,14.029,14.029,0,0,1-1.444-4.916,39.962,39.962,0,0,0-1.235-5.432c-.606-1.983-1.287-3.973-2.057-5.9a10.634,10.634,0,0,0-3.24-4.489c-1.4-1.13-3.113-2.117-3.943-3.779a2.245,2.245,0,0,1-.113-2.185c.292-.494.973-1.107,1.586-.823,1.3.6,2.447-1.332,1.137-1.938a3.5,3.5,0,0,0-4.28,1.092,4.422,4.422,0,0,0-.336,4.863,12.183,12.183,0,0,0,3.868,3.973,11.277,11.277,0,0,1,2.02,1.848,9.752,9.752,0,0,1,1.422,2.813c.749,2.028,1.5,4.063,2.073,6.15s.815,4.272,1.287,6.412a13.258,13.258,0,0,0,6.315,8.4A22.394,22.394,0,0,0,1057,466.437c2.14,0,2.739-1.534,3.12-3.382a20.025,20.025,0,0,0,.374-5.746,20.381,20.381,0,0,0-3.89-10.512c-2.245-2.993-5.058-5.387-7.482-8.156a23.512,23.512,0,0,1-3.457-5.118,14.88,14.88,0,0,0-3.419-5.028c-3.277-2.731-7.8-2.185-11.7-1.556-1.422.232-.816,2.394.6,2.162Z" transform="translate(-626.145 -107.484)" fill="#f6d36a"/>
      <path id="Path_711" data-name="Path 711" d="M1052.315,428.468c2.14-1.107,4.37-2.245,6.779-2.32,3.891-.12,7.288,2.529,10,5.32a57.136,57.136,0,0,1,14.261,25.11c.352,1.324.509,3.038-.658,3.741a3.105,3.105,0,0,1-2.567,0c-8.283-2.761-13.879-10.647-16.925-18.825a13.2,13.2,0,0,0-2.185-4.332c-1.668-1.848-4.31-2.424-6.345-3.846a8.977,8.977,0,0,1-3.27-4.22" transform="translate(-632.058 -107.413)" fill="#f6d36a"/>
      <path id="Path_712" data-name="Path 712" d="M1052.486,429.083c2.993-1.549,5.986-2.888,9.36-1.609,2.933,1.115,5.238,3.509,7.34,5.784a55.717,55.717,0,0,1,10.3,16.207q.9,2.155,1.6,4.37a12.6,12.6,0,0,1,1,4.25c-.1,1.743-2.08.816-3.105.4a20.741,20.741,0,0,1-3.741-1.99c-4.759-3.2-8.118-8.171-10.423-13.341-1.407-3.157-2.065-6.607-5.178-8.582-1.377-.883-2.941-1.422-4.332-2.245a7.977,7.977,0,0,1-3.24-3.861c-.516-1.332-2.694-.748-2.162.591a10.413,10.413,0,0,0,2.776,4.1,18.75,18.75,0,0,0,4.325,2.551,7.482,7.482,0,0,1,3.651,3.18c.793,1.5,1.272,3.2,1.945,4.781,2.5,5.859,6.33,11.418,11.74,14.964a22.847,22.847,0,0,0,4.287,2.17c1.5.561,3.322,1.07,4.639-.12,1.16-1.048,1.16-2.686.89-4.108a34.046,34.046,0,0,0-1.5-5.051,58.879,58.879,0,0,0-10.655-18.406c-2.521-2.955-5.38-5.986-9.024-7.542a10.117,10.117,0,0,0-5.559-.748,19.933,19.933,0,0,0-6.076,2.349c-1.279.666-.142,2.6,1.137,1.938Z" transform="translate(-631.66 -107.055)" fill="#f6d36a"/>
      <rect id="Rectangle_141" data-name="Rectangle 141" width="26" height="74" transform="translate(340 430.964)" fill="#e37458"/>
      <rect id="Rectangle_142" data-name="Rectangle 142" width="26" height="74" transform="translate(307 430.964)" fill="#e37458"/>
      <path id="Path_713" data-name="Path 713" d="M1034.75,604.525c1.235-.748,2.776-.5,4.2-.4a22.332,22.332,0,0,0,6.974-.591,247.158,247.158,0,0,0,6.113,24.983l-12.72,1.2a1.377,1.377,0,0,1-1.227-.284,1.43,1.43,0,0,1-.232-.7q-1.107-8.478-2.245-16.94a52.215,52.215,0,0,1-.6-7.071" transform="translate(-627.864 -152.074)" fill="#ea9140"/>
      <path id="Path_714" data-name="Path 714" d="M1034.926,605.118c1.5-.748,3.592-.187,5.238-.187a24.762,24.762,0,0,0,5.694-.688l-1.384-.786a249.211,249.211,0,0,0,6.121,24.983l1.077-1.422-9.45.9-2.357.224a6.192,6.192,0,0,0-1.182.1h-.232c.217.15.262.067.12-.247a10.465,10.465,0,0,0-.314-2.394l-.314-2.394-1.264-9.577a71.549,71.549,0,0,1-.89-9.278,1.122,1.122,0,1,0-2.245,0,79.345,79.345,0,0,0,1.01,10.378l1.377,10.475c.127.92.247,1.841.366,2.761a3.149,3.149,0,0,0,.606,1.863c1.017,1.07,2.926.531,4.2.411l10.535-1a1.138,1.138,0,0,0,1.085-1.422,249.186,249.186,0,0,1-6.113-24.983,1.153,1.153,0,0,0-1.384-.748,21.526,21.526,0,0,1-6.151.584c-1.833-.082-3.591-.359-5.3.524-1.279.666-.149,2.6,1.13,1.938Z" transform="translate(-627.478 -151.701)" fill="#ea9140"/>
      <path id="Path_715" data-name="Path 715" d="M1058.971,601.423a33.577,33.577,0,0,1,9.226-2.334,1.122,1.122,0,0,1,.9.157,1.2,1.2,0,0,1,.277.539,122.367,122.367,0,0,1,4.819,23.749l-10.879,1.444a231.86,231.86,0,0,1-5.021-23.546" transform="translate(-633.791 -150.947)" fill="#ea9140"/>
      <path id="Path_716" data-name="Path 716" d="M1058.9,602.144a33.837,33.837,0,0,1,7.871-2.162,6.187,6.187,0,0,0,1.055-.135c.254,0,.307,0,.165-.075s-.135,0,0,.284c.15.7.412,1.377.606,2.058.389,1.369.748,2.753,1.107,4.138a121.1,121.1,0,0,1,2.993,16.918l1.122-1.122-10.879,1.444,1.085.823a236.161,236.161,0,0,1-5.021-23.547c-.224-1.422-2.394-.816-2.162.6a236.035,236.035,0,0,0,5.013,23.547,1.137,1.137,0,0,0,1.085.823l10.909-1.444c.554-.075,1.19-.456,1.122-1.122a125.366,125.366,0,0,0-3.479-19.244c-.412-1.549-.845-3.1-1.324-4.631a2.157,2.157,0,0,0-2.649-1.654,34.566,34.566,0,0,0-9.188,2.342c-1.317.531-.748,2.708.6,2.162Z" transform="translate(-633.422 -150.584)" fill="#ea9140"/>
      <path id="Path_717" data-name="Path 717" d="M1081.095,595.764q4.489-2.1,8.979-4.138c.277-.127.621-.247.868-.067a.852.852,0,0,1,.269.546q2.3,10.64,4.145,21.362a1.819,1.819,0,0,1-.045,1.13,1.737,1.737,0,0,1-.673.621,32.791,32.791,0,0,1-8.23,3.741.457.457,0,0,1-.4,0,.478.478,0,0,1-.15-.284q-2.709-11.4-4.9-22.9" transform="translate(-639.498 -149.037)" fill="#ea9140"/>
      <path id="Path_718" data-name="Path 718" d="M1081.273,596.357l4.983-2.312,2.327-1.063a4.918,4.918,0,0,0,1.332-.613q.658-.157-.18-.337l.083.359a5.461,5.461,0,0,0,.307,1.444c.1.486.2.965.307,1.444.172.846.352,1.683.524,2.529.352,1.743.7,3.494,1.04,5.238s.666,3.5.988,5.237c.157.846.307,1.7.456,2.544.09.479.172.965.262,1.452a4.153,4.153,0,0,1,.195,1.227c-.112.546-1.167.935-1.661,1.22-.681.381-1.384.748-2.1,1.085s-1.5.658-2.244.943c-.419.157-.846.307-1.272.449l-.636.2c-.4.09-.434.12-.127.1l.674.516a3.366,3.366,0,0,1-.292-1.085c-.112-.479-.225-.95-.329-1.429-.225-.95-.442-1.9-.658-2.851q-.674-2.94-1.3-5.9-1.242-5.814-2.357-11.65c-.269-1.422-2.432-.823-2.162.591q1.437,7.557,3.1,15.054c.553,2.5,1.092,5.006,1.713,7.482.24.935.749,1.631,1.811,1.5a14.782,14.782,0,0,0,3.374-1.167,31.223,31.223,0,0,0,2.993-1.4,12.963,12.963,0,0,0,2.941-1.8,2.671,2.671,0,0,0,.628-2.574c-.209-1.339-.464-2.664-.7-4q-1.385-7.617-2.993-15.2c-.2-.943-.239-2.521-1.025-3.21-1-.883-2.245-.112-3.225.344q-4,1.818-7.984,3.681c-1.3.613-.164,2.551,1.137,1.938Z" transform="translate(-639.108 -148.665)" fill="#ea9140"/>
      <path id="Path_719" data-name="Path 719" d="M1101.462,588.18a48.623,48.623,0,0,0,10.707-3.27c1.362,7.28,5.021,14.074,5.544,21.459a1.189,1.189,0,0,1-.928,1.5,53.921,53.921,0,0,1-10.318,3.217.748.748,0,0,1-1.055-.666l-3.973-20.95" transform="translate(-644.655 -147.386)" fill="#ea9140"/>
      <path id="Path_720" data-name="Path 720" d="M1101.39,588.884a50.781,50.781,0,0,0,10.976-3.382l-1.646-.666c1.3,6.786,4.594,13.109,5.395,20.008a10.143,10.143,0,0,1,.1,1.152c0,.434.09.322-.419.546-.853.374-1.736.7-2.611,1.01a53.816,53.816,0,0,1-5.178,1.564c-.4.1-.793.195-1.19.284a3.848,3.848,0,0,0-.681.15l-.344.075.374.337c.052,0-.479-2.514-.531-2.754l-1.055-5.612-2.432-12.847c-.269-1.414-2.432-.816-2.162.6l2.425,12.847,1.2,6.33a6.18,6.18,0,0,0,.748,2.731,2.248,2.248,0,0,0,2.365.456,51.472,51.472,0,0,0,6.06-1.653c.883-.3,1.758-.614,2.626-.958a6.777,6.777,0,0,0,2.529-1.3,2.671,2.671,0,0,0,.516-2.155c-.082-.973-.217-1.953-.389-2.91a46.079,46.079,0,0,0-1.437-5.769c-1.294-4.235-2.9-8.388-3.741-12.72a1.137,1.137,0,0,0-1.646-.673,48.42,48.42,0,0,1-10.475,3.157c-1.422.262-.823,2.424.591,2.162Z" transform="translate(-644.283 -147.013)" fill="#ea9140"/>
      <path id="Path_721" data-name="Path 721" d="M1122.563,580.252a20.2,20.2,0,0,0,9.255-3.352q1.953,9.921,3.053,19.993c-2.828,1.938-5.754,3.741-8.746,5.41l-4.415-21.384" transform="translate(-649.758 -145.369)" fill="#ea9140"/>
      <path id="Path_722" data-name="Path 722" d="M1122.184,581a21.839,21.839,0,0,0,9.824-3.509l-1.646-.673q1.908,9.787,2.993,19.7l.561-.965q-4.265,2.9-8.754,5.41l1.646.666-4.415-21.384c-.292-1.407-2.454-.815-2.162.6l4.414,21.384a1.13,1.13,0,0,0,1.646.673q4.489-2.514,8.754-5.41a1.115,1.115,0,0,0,.554-.973q-1.122-10.206-3.09-20.292a1.13,1.13,0,0,0-1.646-.673,19.5,19.5,0,0,1-8.694,3.2c-1.422.15-1.437,2.4,0,2.245Z" transform="translate(-649.379 -144.992)" fill="#ea9140"/>
      <path id="Path_723" data-name="Path 723" d="M1035.454,608.956a34.83,34.83,0,0,1,8.679-.688q.748,9.278,2.088,18.511a.7.7,0,0,1-.06.539.687.687,0,0,1-.464.209l-8.231,1.556a.8.8,0,0,1-.606-.045.747.747,0,0,1-.262-.456c-.748-2.656-.479-5.485-.584-8.231a29.53,29.53,0,0,0-.711-5.432c-.329-1.422-.748-3.038.075-4.25" transform="translate(-627.902 -153.257)" fill="#f6d36a"/>
      <path id="Path_724" data-name="Path 724" d="M1035.336,609.668a35.054,35.054,0,0,1,8.388-.651l-1.122-1.122q.382,4.736.913,9.45c.179,1.579.366,3.15.576,4.714.09.7.187,1.407.284,2.11a7.272,7.272,0,0,1,.292,2.477l.516-.666a4.856,4.856,0,0,1-1.624.367l-1.616.307-3.4.636a16.181,16.181,0,0,0-1.8.337l.516.284c-.052-.165-.1-.329-.135-.5s-.12-.554-.172-.838a21.288,21.288,0,0,1-.209-3.307,48.417,48.417,0,0,0-.322-6.5c-.15-1.048-.367-2.073-.591-3.105a3.741,3.741,0,0,1,.1-2.806,1.123,1.123,0,0,0-1.938-1.137,5.746,5.746,0,0,0-.389,4.242,38.659,38.659,0,0,1,.8,4.811c.135,1.729.067,3.457.112,5.185a13.385,13.385,0,0,0,.673,4.811c.748,1.676,2.581.95,3.943.7l5.38-1.018a3.539,3.539,0,0,0,2.035-.7c.539-.554.382-1.422.27-2.177q-.389-2.739-.748-5.492c-.5-4.048-.905-8.1-1.234-12.173a1.153,1.153,0,0,0-1.122-1.122,38.052,38.052,0,0,0-8.979.748c-1.414.292-.815,2.454.591,2.17Z" transform="translate(-627.515 -152.884)" fill="#f6d36a"/>
      <path id="Path_725" data-name="Path 725" d="M1058.4,605.593a33.525,33.525,0,0,0,10.273-3.883,99.446,99.446,0,0,0,2.993,16.154,2.911,2.911,0,0,1-1.085,2.851,8.4,8.4,0,0,1-2.873,1.392l-4.055,1.377a1.608,1.608,0,0,1-1.272.067,1.588,1.588,0,0,1-.606-.905,50.805,50.805,0,0,1-3.173-16.738c0-.135-.045-.307-.172-.314s0,.262,0,.142" transform="translate(-633.812 -151.616)" fill="#f6d36a"/>
      <path id="Path_726" data-name="Path 726" d="M1058.326,606.285a35.452,35.452,0,0,0,10.535-3.988l-1.683-.973q.471,4.6,1.347,9.143c.3,1.5.629,3.038,1,4.542.172.7.352,1.392.531,2.08a2.028,2.028,0,0,1-.075,1.856c-.651,1.025-2,1.384-3.083,1.751l-2.192.748a10.2,10.2,0,0,1-2.058.681c-.187,0-.09.045,0,.082a2.607,2.607,0,0,1-.239-.569c-.12-.329-.232-.658-.344-1-.247-.711-.472-1.437-.689-2.162q-.628-2.177-1.07-4.414a47.883,47.883,0,0,1-.748-5.058c-.067-.816-.12-1.624-.149-2.439s.1-1.631-.531-2.162a1.167,1.167,0,0,0-1.586,0l-.067.06a1.13,1.13,0,0,0-.292,1.092v.1a1.145,1.145,0,0,0,1.384.748h.052c1.414-.322.815-2.484-.591-2.17h-.06l1.377.785v-.1l-.292,1.092.067-.06h-1.586c-.329-.277-.135.5-.12.748a7.431,7.431,0,0,0,.067,1.22c.06.928.15,1.856.262,2.783.2,1.661.471,3.315.831,4.946a50.238,50.238,0,0,0,1.324,4.893c.419,1.287.748,3.359,2.327,3.741a3.555,3.555,0,0,0,1.961-.269l2.536-.853a15.1,15.1,0,0,0,4.093-1.729,4.361,4.361,0,0,0,1.945-3.479,9.712,9.712,0,0,0-.486-2.2c-.224-.868-.434-1.736-.636-2.611a97.678,97.678,0,0,1-1.975-11.867,1.137,1.137,0,0,0-1.691-.965,33.431,33.431,0,0,1-10,3.741c-1.414.292-.816,2.454.6,2.162Z" transform="translate(-633.438 -151.23)" fill="#f6d36a"/>
      <path id="Path_727" data-name="Path 727" d="M1081.79,599.453a23.079,23.079,0,0,1,8.38-3.082,46.944,46.944,0,0,0,.7,8.507c.464,2.649,1.16,5.35.673,8a2.388,2.388,0,0,1-.359.965,2.744,2.744,0,0,1-.838.651,32.442,32.442,0,0,0-5.02,3.7c-.217.135-.419-.187-.472-.426-1.391-6.15-2.783-12.346-2.993-18.646,0-.471.344-1.16.748-.861" transform="translate(-639.707 -150.271)" fill="#f6d36a"/>
      <path id="Path_728" data-name="Path 728" d="M1081.992,600.026a22.939,22.939,0,0,1,8.111-2.993l-1.422-1.077a49.374,49.374,0,0,0,.359,6.218c.262,2.1.748,4.168,1.033,6.263a13.754,13.754,0,0,1,.12,2.993,2.905,2.905,0,0,1-.285,1.332,3.742,3.742,0,0,1-1.055.7c-.748.494-1.556,1.018-2.3,1.579l-1.13.883c-.21.172-.427.352-.629.531s-.494.307-.284.277l.868.112c.24.329.277.284.12-.142-.052-.232-.1-.471-.165-.7-.075-.359-.157-.711-.239-1.07-.18-.83-.367-1.661-.546-2.491q-.494-2.312-.913-4.639t-.748-4.736c-.09-.846-.172-1.683-.232-2.529,0-.367-.052-.748-.067-1.092v-.748c0-.269-.067-.12-.269.15l-.868-.112.157.075c1.3.6,2.447-1.339,1.13-1.938-1.452-.666-2.4.636-2.387,2.005a45.665,45.665,0,0,0,.479,5.432c.479,3.644,1.22,7.25,2.02,10.842.254,1.16.359,3.9,2.1,3.741.748-.067,1.257-.748,1.8-1.2.688-.569,1.4-1.1,2.132-1.6,1.175-.8,2.776-1.392,3.255-2.843a11.653,11.653,0,0,0,.165-4.983c-.269-2.05-.748-4.063-1.017-6.113a48.1,48.1,0,0,1-.359-6.218,1.137,1.137,0,0,0-1.422-1.085,24.694,24.694,0,0,0-8.642,3.195,1.122,1.122,0,0,0,1.13,1.938Z" transform="translate(-639.34 -149.879)" fill="#f6d36a"/>
      <path id="Path_729" data-name="Path 729" d="M1102.13,593.665c2.859-.658,5.7-1.422,8.507-2.245a96.509,96.509,0,0,1,4.549,13.468,33.864,33.864,0,0,1-9.091,6.8,1.092,1.092,0,0,1-.913.15c-.329-.15-.412-.576-.449-.935l-1.841-17.374.1.681" transform="translate(-644.828 -149.025)" fill="#f6d36a"/>
      <path id="Path_730" data-name="Path 730" d="M1102.063,594.368q4.295-1,8.515-2.29l-1.377-.748a98.717,98.717,0,0,1,4.542,13.468l.292-1.093a32.99,32.99,0,0,1-5.065,4.347q-1.369.95-2.821,1.758a2.87,2.87,0,0,0-.7.374l-.277.142c.307.4.427.479.352.255a3.321,3.321,0,0,0-.1-.808l-.12-1.107-1.646-15.526-2.245.3.112.681c.217,1.422,2.387.816,2.162-.6l-.112-.681c-.187-1.235-2.335-.958-2.2.3l1.1,10.348.547,5.178c.12,1.152,0,3.12,1.2,3.741s2.9-.584,3.973-1.227a36.7,36.7,0,0,0,3.629-2.5,34.394,34.394,0,0,0,3.315-2.948,1.669,1.669,0,0,0,.636-1.893c-.194-.8-.427-1.6-.658-2.394a98.125,98.125,0,0,0-3.719-10.722,1.153,1.153,0,0,0-1.377-.785q-4.22,1.294-8.515,2.282c-1.407.329-.816,2.492.591,2.17Z" transform="translate(-644.469 -148.644)" fill="#f6d36a"/>
      <path id="Path_731" data-name="Path 731" d="M1122.26,586.235a28.645,28.645,0,0,0,8.694-3.105,60.923,60.923,0,0,1,1.961,15.331,1.7,1.7,0,0,1-.292,1.152,1.869,1.869,0,0,1-.8.419,14.583,14.583,0,0,0-5.9,3.741c-.928-2.821-.658-5.874-.988-8.829a21.705,21.705,0,0,0-2.207-7.392" transform="translate(-649.897 -146.938)" fill="#f6d36a"/>
      <path id="Path_732" data-name="Path 732" d="M1122.192,586.962a30.578,30.578,0,0,0,8.979-3.225l-1.646-.666a60.1,60.1,0,0,1,1.878,12.72v1.444c0,.217.149,1.122,0,1.332a5.061,5.061,0,0,1-.95.314c-.419.172-.845.344-1.25.546a15.986,15.986,0,0,0-4.422,3.21l1.878.5c-.868-2.776-.628-5.672-.95-8.53a23.8,23.8,0,0,0-2.364-7.961c-.643-1.287-2.581-.157-1.938,1.137a20.994,20.994,0,0,1,2.155,7.849c.2,2.724.112,5.469.935,8.1a1.137,1.137,0,0,0,1.878.5,13.613,13.613,0,0,1,5.1-3.345,2.992,2.992,0,0,0,1.953-1.362,6.745,6.745,0,0,0,.232-2.993,62.379,62.379,0,0,0-1.983-14.007,1.137,1.137,0,0,0-1.646-.673,28.555,28.555,0,0,1-8.425,2.993c-1.414.269-.815,2.432.6,2.162Z" transform="translate(-649.529 -146.579)" fill="#f6d36a"/>
      <rect id="Rectangle_143" data-name="Rectangle 143" width="26" height="74" transform="translate(266 430.964)" fill="#e37458"/>
      <rect id="Rectangle_144" data-name="Rectangle 144" width="27" height="74" transform="translate(232 430.964)" fill="#e37458"/>
      <path id="Path_733" data-name="Path 733" d="M798.734,603H926.68v74.074L792,663.606V623.2Z" transform="translate(-566.745 -151.941)" fill="#ea9140"/>
      <path id="Path_734" data-name="Path 734" d="M798.734,603,792,623.2H906.478l20.2-20.2Z" transform="translate(-566.745 -151.941)" fill="#f6d36a"/>
      <path id="Path_735" data-name="Path 735" d="M984.8,676.918a23.568,23.568,0,0,0,13.633-.082,3.248,3.248,0,0,0,1.736-1,3.592,3.592,0,0,0,.479-2.155q.134-24.647.277-49.3a11.051,11.051,0,0,0-.486-4.063c-.748-1.953-2.536-3.3-3.741-5.013-2.3-3.27-2.349-7.527-2.349-11.5-.658-.943-2.245-.621-2.926.307a5.4,5.4,0,0,0-.673,3.3l.1,10.3c-1.683-.434-3.427.816-4.168,2.387a11.893,11.893,0,0,0-.748,5.11,190.235,190.235,0,0,1-4.7,42.2c-.5,2.245-1.047,4.579-.426,6.779s2.9,4.13,5.1,3.509" transform="translate(-614.212 -152.001)" fill="#e37458"/>
      <path id="Path_736" data-name="Path 736" d="M1011.8,667.918a23.568,23.568,0,0,0,13.633-.082,3.246,3.246,0,0,0,1.736-1,3.589,3.589,0,0,0,.479-2.155q.135-24.647.277-49.3a11.048,11.048,0,0,0-.487-4.063c-.748-1.953-2.536-3.3-3.741-5.013-2.3-3.27-2.35-7.527-2.35-11.5-.658-.943-2.244-.621-2.925.307a5.4,5.4,0,0,0-.673,3.3l.1,10.3c-1.683-.434-3.427.816-4.168,2.387a11.9,11.9,0,0,0-.748,5.11,190.258,190.258,0,0,1-4.7,42.2c-.5,2.245-1.048,4.579-.426,6.779s2.9,4.13,5.1,3.509" transform="translate(-621.01 -149.735)" fill="#e37458"/>
      <path id="Path_737" data-name="Path 737" d="M720,632.138S928.381,692.37,1137.509,585" transform="translate(-548.617 -147.409)" fill="none" stroke="#f6d36a" stroke-miterlimit="10" stroke-width="3"/>
      <path id="Path_738" data-name="Path 738" d="M677.7,593.3a16.334,16.334,0,0,0,5.559,2.132,20.751,20.751,0,0,0,3.045.3,7.035,7.035,0,0,1,2.731.442,1.152,1.152,0,0,0,1.534-.4,1.13,1.13,0,0,0-.4-1.5c-1.9-.89-3.913-.6-5.926-.9a14.741,14.741,0,0,1-5.41-1.975,1.122,1.122,0,0,0-1.13,1.938Z" transform="translate(-537.833 -148.978)" fill="#dc3f4f"/>
      <rect id="Rectangle_145" data-name="Rectangle 145" width="19" height="40" transform="translate(213 377.964)" fill="#e37458"/>
      <rect id="Rectangle_146" data-name="Rectangle 146" width="19" height="40" transform="translate(240 377.964)" fill="#e37458"/>
      <rect id="Rectangle_147" data-name="Rectangle 147" width="19" height="40" transform="translate(273 377.964)" fill="#e37458"/>
      <rect id="Rectangle_148" data-name="Rectangle 148" width="19" height="40" transform="translate(307 377.964)" fill="#e37458"/>
      <rect id="Rectangle_149" data-name="Rectangle 149" width="19" height="40" transform="translate(347 377.964)" fill="#e37458"/>
      <path id="Path_739" data-name="Path 739" d="M777.771,508.719a121.5,121.5,0,0,1,14.007.045c1.354,10.879.5,21.9-.614,32.8a.951.951,0,0,1-.284.748.921.921,0,0,1-.449.127,101.941,101.941,0,0,1-13.341.666c.748-9.57.337-19.184.389-28.777a21.738,21.738,0,0,1,.337-4.414" transform="translate(-562.991 -128.158)" fill="#f6d36a"/>
      <path id="Path_740" data-name="Path 740" d="M777.393,509.466a124.934,124.934,0,0,1,14.007.045l-1.122-1.122a118.921,118.921,0,0,1,.269,22.963c-.142,1.953-.307,3.891-.486,5.836l-.247,2.551a4.546,4.546,0,0,1-.142,1.422c.329-.277-1-.1-1.1-.082a104.638,104.638,0,0,1-11.859.5l1.122,1.122c.434-5.522.486-11.059.456-16.6,0-2.708-.052-5.417-.067-8.126a40.867,40.867,0,0,1,.3-8.178c.284-1.407-1.878-2.013-2.162-.591a39.512,39.512,0,0,0-.382,8.036c0,2.828.045,5.657.06,8.492,0,5.657,0,11.321-.449,16.962a1.137,1.137,0,0,0,1.122,1.122q4.916.067,9.832-.322c.8-.06,1.6-.135,2.4-.217a5.127,5.127,0,0,0,2.125-.411c1.16-.748.965-2.873,1.077-4.048a185.546,185.546,0,0,0,1.07-19.334,98.442,98.442,0,0,0-.7-11.1,1.16,1.16,0,0,0-1.122-1.122,124.976,124.976,0,0,0-14.007-.045c-1.436.075-1.444,2.327,0,2.245Z" transform="translate(-562.614 -127.782)" fill="#f6d36a"/>
      <path id="Path_741" data-name="Path 741" d="M813.069,509.247c3.786-.3,7.587-.516,11.38-.651a1.706,1.706,0,0,1,2.245,1.968q.359,15.713.748,31.426a.636.636,0,0,1-.1.426.659.659,0,0,1-.411.165l-11.4,1.661c-1.452.217-3.322.2-3.9-1.145a3.561,3.561,0,0,1,0-2.035,51.627,51.627,0,0,0,.98-9.465c.082-7.041-1.28-14.134-.172-21.085a.606.606,0,0,1,.247-.479c.172-.082.411.15.277.277" transform="translate(-571.653 -128.147)" fill="#f6d36a"/>
      <path id="Path_742" data-name="Path 742" d="M812.681,510.047c3.786-.292,7.587-.576,11.38-.651.816,0,1.055,0,1.093.845.045.988.045,1.975.067,2.993l.135,5.731.262,11.463.135,5.731.067,2.956v1.5a3.256,3.256,0,0,1,0,1.235l.516-.673a6.528,6.528,0,0,1-2.17.352l-2.387.352-4.968.748a11.848,11.848,0,0,1-3.7.307c-1.422-.262-.838-1.668-.651-2.708a52.316,52.316,0,0,0,.875-9.6c0-3.165-.269-6.323-.449-9.48-.1-1.818-.18-3.636-.157-5.455,0-.845.045-1.691.1-2.537q.053-.748.135-1.437a10.99,10.99,0,0,1,.112-1.13l-.793.329h.18l-.793-.329.127.12-.292-1.092v.15c-.262,1.414,1.9,2.02,2.162.6a1.339,1.339,0,0,0-2.5-.935,5.828,5.828,0,0,0-.4,2.095q-.165,1.444-.225,2.9c-.15,3.741.172,7.4.389,11.1a63.7,63.7,0,0,1-.165,11.141c-.2,1.721-.748,3.464-.816,5.193a3.031,3.031,0,0,0,2.035,3.083,7.632,7.632,0,0,0,3.786.1c1.841-.262,3.674-.539,5.514-.808l2.761-.4a26.2,26.2,0,0,0,2.866-.427c1.728-.464,1.2-2.724,1.16-4.055l-.516-22.552c-.052-2.095-.09-4.19-.15-6.285-.045-1.654-.628-3.03-2.439-3.24a34.88,34.88,0,0,0-5.858.187q-3.21.179-6.42.426c-1.429.112-1.444,2.357,0,2.245Z" transform="translate(-571.265 -127.825)" fill="#f6d36a"/>
      <path id="Path_743" data-name="Path 743" d="M857.961,509.986c4.8-.112,9.615,0,14.4.352a195.423,195.423,0,0,1,2.117,31.141,1.5,1.5,0,0,1-.374,1.167,1.445,1.445,0,0,1-.748.224l-15.78,1.609q.352-17.127-.3-34.254" transform="translate(-583.181 -128.511)" fill="#f6d36a"/>
      <path id="Path_744" data-name="Path 744" d="M857.578,510.771q7.205-.157,14.4.352L870.9,510.3q1.362,9.121,1.833,18.346.232,4.684.262,9.368v2.207a3.072,3.072,0,0,1,0,1.048c-.135.254-.4.187-.748.217l-4.587.471-10.475,1.063,1.122,1.122q.337-17.127-.3-34.254c-.06-1.444-2.3-1.452-2.245,0q.643,17.119.3,34.254a1.122,1.122,0,0,0,1.122,1.122l10.273-1.047,5.14-.524c1.407-.142,2.454-.6,2.6-2.162a48.057,48.057,0,0,0,0-4.983c0-1.721-.06-3.434-.127-5.148q-.194-5.14-.659-10.273c-.344-3.816-.808-7.632-1.369-11.425a1.137,1.137,0,0,0-1.085-.823q-7.2-.516-14.4-.352a1.123,1.123,0,0,0,0,2.245Z" transform="translate(-582.798 -128.144)" fill="#f6d36a"/>
      <path id="Path_745" data-name="Path 745" d="M901.926,509.42l14.216.831a1.534,1.534,0,0,1,1.744,1.855q.7,15.054.913,30.131-8.358.464-16.745.142-.449-16.371-.7-32.757" transform="translate(-594.277 -128.379)" fill="#f6d36a"/>
      <path id="Path_746" data-name="Path 746" d="M901.546,510.164l11.3.666c.965.052,1.945.06,2.911.165.434.052.531,0,.606.464a9.485,9.485,0,0,1,.068,1.384c.09,1.923.172,3.839.247,5.761q.449,11.627.614,23.255l1.122-1.122q-8.358.464-16.745.142L902.788,542q-.449-16.371-.7-32.757a1.123,1.123,0,0,0-2.245,0q.262,16.371.7,32.757a1.137,1.137,0,0,0,1.122,1.122q8.373.314,16.745-.142a1.138,1.138,0,0,0,1.122-1.122q-.135-9.959-.486-19.9c-.12-3.285-.247-6.577-.4-9.862-.067-1.294-.269-2.649-1.661-3.135a15.748,15.748,0,0,0-4.325-.389l-11.111-.651c-1.444-.082-1.436,2.162,0,2.245Z" transform="translate(-593.897 -128.001)" fill="#f6d36a"/>
      <path id="Path_747" data-name="Path 747" d="M955.834,509.368l14.561-.4a1.631,1.631,0,0,1,1.4.411,1.578,1.578,0,0,1,.217,1q-.112,16.326-.232,32.653l-14.725-.382a.748.748,0,0,1-.913-.92l-.591-32" transform="translate(-607.923 -128.26)" fill="#f6d36a"/>
      <path id="Path_748" data-name="Path 748" d="M955.457,510.082l9.525-.262,4.669-.127a2.959,2.959,0,0,1,.853,0c.1.082,0,.7,0,.838v2.409l-.135,18.923-.075,10.759,1.122-1.122-11.777-.284h-1.5a4.845,4.845,0,0,1-1.5-.037c.232.314.3.254.2-.172v-2.245l-.1-5.769-.449-23.659a1.123,1.123,0,0,0-2.245,0l.374,20.1.18,9.862c0,1.22-.322,3.187,1.01,3.868a4.548,4.548,0,0,0,1.983.247l2.581.06,11.223.277a1.137,1.137,0,0,0,1.122-1.122l.15-20.591.075-10.393c0-1.309.314-3.09-1.047-3.876-1.219-.7-3.135-.292-4.489-.254l-11.762.322c-1.444.045-1.452,2.29,0,2.245Z" transform="translate(-607.546 -127.859)" fill="#f6d36a"/>
      <path id="Path_749" data-name="Path 749" d="M1030.941,509.532c1.354-.479,2.821,0,4.2.389a22.54,22.54,0,0,0,6.966.711,247.559,247.559,0,0,0,1.362,25.687l-12.72-1.182c-.434-.038-.943-.12-1.152-.509a1.355,1.355,0,0,1-.1-.748q.486-8.53.958-17.059a51.765,51.765,0,0,1,.748-7.056" transform="translate(-626.539 -128.357)" fill="#ea9140"/>
      <path id="Path_750" data-name="Path 750" d="M1030.863,510.208c1.721-.509,3.636.464,5.327.748a24.156,24.156,0,0,0,5.544.374l-1.122-1.122a251.765,251.765,0,0,0,1.362,25.687l1.122-1.122-9.45-.875-2.357-.225c-.247,0-.853-.2-1.062-.1h-.142c.157.277.209.254.165-.06a3.866,3.866,0,0,0,.067-1.115l.067-1.294.135-2.409.546-9.645a69.83,69.83,0,0,1,.83-9.353c.269-1.414-1.893-2.02-2.162-.6a78.072,78.072,0,0,0-.935,10.318l-.614,10.946-.157,2.776a2.67,2.67,0,0,0,.359,1.841c.845,1.152,2.738.965,3.988,1.085l10.722,1a1.122,1.122,0,0,0,1.122-1.122,251.722,251.722,0,0,1-1.362-25.686,1.137,1.137,0,0,0-1.122-1.122,22.053,22.053,0,0,1-5.986-.5c-1.818-.427-3.607-1.115-5.484-.561a1.123,1.123,0,0,0,.6,2.162Z" transform="translate(-626.162 -127.985)" fill="#ea9140"/>
      <path id="Path_751" data-name="Path 751" d="M1055.733,511.318a33.427,33.427,0,0,1,9.495-.576,1.16,1.16,0,0,1,.861.322,1.181,1.181,0,0,1,.172.576,123.142,123.142,0,0,1,.322,24.235l-10.991-.614a230.677,230.677,0,0,1-.554-24.07" transform="translate(-632.946 -128.684)" fill="#ea9140"/>
      <path id="Path_752" data-name="Path 752" d="M1055.6,512.033a33.018,33.018,0,0,1,8.14-.613,4.8,4.8,0,0,1,1.055.075v.875c.067.673.127,1.339.187,2.013q.187,2.11.3,4.22a124.939,124.939,0,0,1-.284,16.9l1.122-1.122-10.991-.614,1.122,1.122a234.882,234.882,0,0,1-.553-24.07,1.123,1.123,0,0,0-2.245,0,234.813,234.813,0,0,0,.554,24.07,1.152,1.152,0,0,0,1.122,1.122l10.991.614a1.152,1.152,0,0,0,1.122-1.122,123.572,123.572,0,0,0,.12-19.454c-.12-1.586-.24-3.18-.441-4.759s-1.1-1.945-2.507-2.05a34.481,34.481,0,0,0-9.443.651c-1.414.284-.815,2.447.6,2.162Z" transform="translate(-632.548 -128.314)" fill="#ea9140"/>
      <path id="Path_753" data-name="Path 753" d="M1078.4,509.873q4.789-1.22,9.592-2.394c.3-.075.659-.127.86.1a.845.845,0,0,1,.165.591q.284,10.879.1,21.751a1.856,1.856,0,0,1-.255,1.107,1.833,1.833,0,0,1-.748.486,33.124,33.124,0,0,1-8.807,2.162.344.344,0,0,1-.479-.389q-.554-11.695-.561-23.4" transform="translate(-638.821 -127.874)" fill="#ea9140"/>
      <path id="Path_754" data-name="Path 754" d="M1078.3,510.6q3.1-.793,6.211-1.564l1.6-.4a6.936,6.936,0,0,0,1.422-.352l.359-.082-.4-.4a6.483,6.483,0,0,0,0,.748V510.4q.134,6.457.112,12.907c0,2.065.1,4.205-.067,6.263-.045.546-.18.5-.7.7s-.883.322-1.324.464a31.186,31.186,0,0,1-3.2.891c-.92.2-1.856.374-2.8.5a4.091,4.091,0,0,0-.7.075l.643.748v-.367a13.98,13.98,0,0,0-.082-1.856c-.09-2.17-.172-4.34-.232-6.5q-.225-7.34-.225-14.68a1.122,1.122,0,1,0-2.245,0q0,7.8.254,15.608c.075,2.536.112,5.081.292,7.609.067.935.456,1.691,1.5,1.7a17.554,17.554,0,0,0,3.516-.509,32.479,32.479,0,0,0,3.382-.875,11.472,11.472,0,0,0,3.195-1.257,2.91,2.91,0,0,0,.98-2.6c0-1.347,0-2.7.045-4.055q.06-7.557-.1-15.122c0-1.062.277-2.753-.546-3.591s-2.057-.359-2.993-.127q-4.265,1.055-8.522,2.14a1.122,1.122,0,0,0,.6,2.162Z" transform="translate(-638.421 -127.512)" fill="#ea9140"/>
      <path id="Path_755" data-name="Path 755" d="M1099.81,506.28a48.9,48.9,0,0,0,11.134-1.22c0,7.4,2.3,14.762,1.452,22.118a1.614,1.614,0,0,1-.3.89,1.632,1.632,0,0,1-.883.4,54.607,54.607,0,0,1-10.737,1.242.98.98,0,0,1-.748-.224.949.949,0,0,1-.15-.629V507.5" transform="translate(-644.184 -127.282)" fill="#ea9140"/>
      <path id="Path_756" data-name="Path 756" d="M1099.414,507.033a51.483,51.483,0,0,0,11.426-1.265l-1.414-1.077c0,7.108,2.132,14.111,1.541,21.242,0,.232.037.89-.135,1.055a5.848,5.848,0,0,1-.846.142c-.943.195-1.893.367-2.843.509a51.136,51.136,0,0,1-5.439.531l-1.265.045h-.576l.21.142c.247.24.314.165.209-.232a14.233,14.233,0,0,0,0-2.761V507.13a1.122,1.122,0,1,0-2.245,0v19.155c0,1.541-.434,3.981,1.721,4.16a30.085,30.085,0,0,0,6.076-.374,26.735,26.735,0,0,0,5.761-1.025c1.8-.658,1.638-2.926,1.7-4.489a44.213,44.213,0,0,0-.277-6.135c-.471-4.572-1.339-9.1-1.347-13.708a1.145,1.145,0,0,0-1.422-1.085,48.847,48.847,0,0,1-10.834,1.182,1.122,1.122,0,0,0,0,2.245Z" transform="translate(-643.789 -126.913)" fill="#ea9140"/>
      <path id="Path_757" data-name="Path 757" d="M1122.025,502.371a20.157,20.157,0,0,0,9.727-1.571q.067,10.116-.748,20.2-4.729,2.05-9.607,3.689l-.367-21.833" transform="translate(-649.587 -126.209)" fill="#ea9140"/>
      <path id="Path_758" data-name="Path 758" d="M1121.647,503.12a21.75,21.75,0,0,0,10.288-1.728l-1.683-.965q.06,10.116-.749,20.2l.554-.973q-4.595,2-9.338,3.576l1.422,1.085-.367-21.833a1.123,1.123,0,0,0-2.245,0l.367,21.833a1.122,1.122,0,0,0,1.422,1.077c3.345-1.115,6.637-2.394,9.869-3.8a1.115,1.115,0,0,0,.561-.965q.748-10.094.748-20.2a1.145,1.145,0,0,0-1.691-.973,19.451,19.451,0,0,1-9.158,1.422c-1.437-.112-1.429,2.132,0,2.245Z" transform="translate(-649.209 -125.835)" fill="#ea9140"/>
      <path id="Path_759" data-name="Path 759" d="M1031.837,515.128h8.851a.841.841,0,0,1,1,.935,97.328,97.328,0,0,1,1.077,17.957,1.557,1.557,0,0,1-.591,1.451,1.593,1.593,0,0,1-.749.112,51.785,51.785,0,0,1-10.475-1.339,1.092,1.092,0,0,1-1.017-1.384c.224-5.8,2.417-11.493,1.8-17.261l.329.307" transform="translate(-626.642 -129.815)" fill="#f6d36a"/>
      <path id="Path_760" data-name="Path 760" d="M1031.483,515.864h5.716a15.568,15.568,0,0,0,2.768,0c.187,0,.479.142.247-.12a2.8,2.8,0,0,1,.1.591c.075.509.15,1.018.217,1.5a97.644,97.644,0,0,1,.808,11.358c0,.92,0,1.841,0,2.754v1.287a3.35,3.35,0,0,1,0,.606c-.052.269.1.112-.075.2a4.043,4.043,0,0,1-1.227-.045c-.486,0-.965-.052-1.451-.09-.988-.067-1.975-.172-2.993-.307s-1.8-.269-2.693-.442c-.516-.1-2.028-.255-2.155-.584a3.524,3.524,0,0,1,.06-1.182,10.978,10.978,0,0,1,.142-1.384c.1-.943.262-1.878.419-2.813.688-3.973,1.571-7.961,1.175-12.017l-1.915.793.329.307c1.055.988,2.641-.6,1.586-1.586l-.329-.307c-.651-.606-2.02-.232-1.915.793.434,4.489-.748,8.777-1.369,13.146-.15,1.018-.284,2.043-.367,3.068s-.217,2.088.5,2.851a4.136,4.136,0,0,0,2.349.9c1.182.247,2.379.456,3.584.628,1.063.15,2.125.269,3.195.359a16.849,16.849,0,0,0,3.419.127c2.2-.284,1.968-2.836,1.99-4.489a97.43,97.43,0,0,0-.8-13.932c-.142-1.048-.09-2.5-.681-3.412s-1.557-.831-2.492-.831h-8.118a1.122,1.122,0,0,0,0,2.245Z" transform="translate(-626.288 -129.429)" fill="#f6d36a"/>
      <path id="Path_761" data-name="Path 761" d="M1056.762,517.188c-.217-.262.247-.539.584-.561l8.62-.486a27.493,27.493,0,0,0,.419,5.986,35.6,35.6,0,0,1-.973,13.3.828.828,0,0,1-.2.434.867.867,0,0,1-.524.195,17.082,17.082,0,0,1-7.595-.748,1.581,1.581,0,0,1-.748-.4,1.655,1.655,0,0,1-.262-1.04q-.142-8.335.471-16.663l.18.688" transform="translate(-633.228 -130.071)" fill="#f6d36a"/>
      <path id="Path_762" data-name="Path 762" d="M1057.436,516.513l-.053-.157-.112.868c-.12.247.606.1.748.09l1.078-.06,2.155-.12,4.31-.247-1.122-1.122a27.557,27.557,0,0,0,.374,5.657,35.67,35.67,0,0,1,.269,5.29,34.185,34.185,0,0,1-.531,5.312,22.4,22.4,0,0,1-.531,2.417c-.075.4-.1.456-.09.187l-.7.06c-.464,0-.928.045-1.4.037a14.967,14.967,0,0,1-2.828-.284c-.5-.1-1.848-.209-2.17-.621-.165-.21,0-1.122,0-1.392v-4.085q.067-5.746.486-11.478l-2.2.3.172.681a1.122,1.122,0,0,0,2.162-.591l-.172-.688c-.329-1.279-2.117-.92-2.245.3-.247,3.449-.411,6.906-.471,10.363V532.6c0,1.5.075,2.806,1.683,3.4a16.829,16.829,0,0,0,4.714.92,16.618,16.618,0,0,0,2.439,0,3.591,3.591,0,0,0,2.08-.524,3.218,3.218,0,0,0,.823-1.871c.209-.861.382-1.728.524-2.6a37.78,37.78,0,0,0,.486-4.863,35.944,35.944,0,0,0-.239-5.462,28.257,28.257,0,0,1-.4-5.836,1.122,1.122,0,0,0-1.122-1.122l-6.465.367c-1.175.068-4.587-.075-3.823,2.1.472,1.354,2.641.748,2.163-.591Z" transform="translate(-632.854 -129.696)" fill="#f6d36a"/>
      <path id="Path_763" data-name="Path 763" d="M1079.648,514.229a18.223,18.223,0,0,0,7.437-1.4.748.748,0,0,1,.464-.082c.277.082.337.434.352.748l.748,15.414a2.185,2.185,0,0,1-2.147,2.754l-7.392,1.8.958-18.638" transform="translate(-639.033 -129.215)" fill="#f6d36a"/>
      <path id="Path_764" data-name="Path 764" d="M1079.271,515a20.313,20.313,0,0,0,4.093-.352,16.87,16.87,0,0,0,2.013-.5c.337-.1.666-.21.988-.329l.486-.194c.382-.1.232-.269-.449-.509a6.136,6.136,0,0,0,.052,1.1l.052,1.1.1,2.245.2,4.4.209,4.407c0,.748.075,1.5.1,2.2s.1,1.152-.539,1.452a21.321,21.321,0,0,1-3.741.95l-4.4,1.07,1.422,1.077.958-18.638c.067-1.444-2.178-1.444-2.245,0l-.958,18.638a1.137,1.137,0,0,0,1.422,1.085l5.283-1.279c1.324-.322,2.993-.464,4.093-1.4,1.294-1.13.987-2.888.92-4.422l-.24-5.14-.232-5.133-.127-2.754a3.851,3.851,0,0,0-.382-2.1c-.935-1.354-2.671-.195-3.861.142a17.518,17.518,0,0,1-5.178.673,1.123,1.123,0,0,0,0,2.245Z" transform="translate(-638.655 -128.861)" fill="#f6d36a"/>
      <path id="Path_765" data-name="Path 765" d="M1100.128,511.3a32.731,32.731,0,0,0,9.45-1.646,13.865,13.865,0,0,1,.838,5.02l.456,11.223a1.2,1.2,0,0,1-.875,1.5,27.686,27.686,0,0,1-10.146,2.162,1.137,1.137,0,0,1-.831-.21,1.159,1.159,0,0,1-.209-.943l1.219-16.985.082.314" transform="translate(-643.986 -128.437)" fill="#f6d36a"/>
      <path id="Path_766" data-name="Path 766" d="M1099.78,512.044a35.4,35.4,0,0,0,9.727-1.684l-1.377-.786a14.825,14.825,0,0,1,.808,5.088c.075,1.93.157,3.868.232,5.8l.12,2.9.045,1.092c0,.284.195,1.1.052,1.347-.3.509-1.788.748-2.342.965-.883.284-1.781.524-2.686.748a27.2,27.2,0,0,1-2.8.442c-.464.045-.928.075-1.384.1h-.7c-.337-.045-.307,0,.075.224.165,0,.352-5.013.381-5.417l.906-11.83-2.245.3.09.314a1.122,1.122,0,0,0,2.162-.6l-.089-.307a1.123,1.123,0,0,0-2.2.292l-.748,10.894-.389,5.357c-.1,1.459.112,2.918,1.886,2.993a25.12,25.12,0,0,0,9.727-1.818c1.5-.576,2.686-1.115,2.664-2.933s-.142-3.509-.217-5.237c-.082-1.99-.157-3.988-.24-5.986a15.833,15.833,0,0,0-.875-5.32,1.152,1.152,0,0,0-1.384-.786,32.844,32.844,0,0,1-9.151,1.609c-1.444.045-1.451,2.29,0,2.245Z" transform="translate(-643.638 -128.063)" fill="#f6d36a"/>
      <path id="Path_767" data-name="Path 767" d="M1121.307,508.348a40.647,40.647,0,0,0,8.1-1.938c1.01,1.549.876,3.547.7,5.38l-.883,9.66a1.629,1.629,0,0,1-.284.943,1.683,1.683,0,0,1-.861.434,31.557,31.557,0,0,0-7.879,3.434,87.881,87.881,0,0,0,.748-16.94c0-.157,0-.344.135-.419s.329.157.18.217" transform="translate(-649.378 -127.622)" fill="#f6d36a"/>
      <path id="Path_768" data-name="Path 768" d="M1121.27,509.053a42.948,42.948,0,0,0,8.1-1.938l-1.264-.516c.995,1.661.651,3.741.479,5.559l-.606,6.682c-.06.636.067,2.155-.412,2.484a6.748,6.748,0,0,1-1.391.426c-.472.15-.935.322-1.407.494a33.541,33.541,0,0,0-5.462,2.671l1.646,1.264c.412-2.9.7-5.821.838-8.747.067-1.444.1-2.888.1-4.34,0-.748,0-1.444-.037-2.162v-1.848l-.973.561h.142l-.8-.329.1.1-.179-1.354-.045.1c-.584,1.309,1.347,2.454,1.938,1.137l.045-.1a1.2,1.2,0,0,0-.172-1.362,1.272,1.272,0,0,0-1.818-.112,2.335,2.335,0,0,0-.426,1.938q.1,2.619.06,5.238a89.4,89.4,0,0,1-.838,10.677c-.127.905.748,1.826,1.646,1.272a30.689,30.689,0,0,1,6.338-2.941c.92-.3,2.065-.434,2.716-1.22s.568-2.117.659-3.105l.7-7.617c.2-2.245.389-4.489-.808-6.51a1.153,1.153,0,0,0-1.272-.516,42.978,42.978,0,0,1-8.1,1.945c-1.421.195-.815,2.357.6,2.162Z" transform="translate(-649.041 -127.242)" fill="#f6d36a"/>
      <path id="Path_769" data-name="Path 769" d="M720,609.732s309.765,47.138,417.884-60.232l-.374,40.03S982.253,703.634,720,636.668Z" transform="translate(-548.617 -138.471)" fill="none" stroke="#f6d36a" stroke-miterlimit="10" stroke-width="3"/>
    </g>
    <ellipse id="Ellipse_615" data-name="Ellipse 615" cx="27" cy="8" rx="27" ry="8" transform="translate(1167 18926)" fill="#ea913f"/>
    <ellipse id="Ellipse_627" data-name="Ellipse 627" cx="31.5" cy="15.5" rx="31.5" ry="15.5" transform="translate(990 18895)" fill="#ea913f"/>
    <ellipse id="Ellipse_618" data-name="Ellipse 618" cx="15" cy="9.5" rx="15" ry="9.5" transform="translate(1763 19007)" fill="#ea913f"/>
    <ellipse id="Ellipse_616" data-name="Ellipse 616" cx="5.5" cy="4.5" rx="5.5" ry="4.5" transform="translate(1052 18948)" fill="#ea913f"/>
    <ellipse id="Ellipse_619" data-name="Ellipse 619" cx="9.5" cy="6" rx="9.5" ry="6" transform="translate(1756 19031)" fill="#ea913f"/>
    <ellipse id="Ellipse_621" data-name="Ellipse 621" cx="9.5" cy="6" rx="9.5" ry="6" transform="translate(1701 18729)" fill="#ea913f"/>
    <ellipse id="Ellipse_622" data-name="Ellipse 622" cx="9.5" cy="6" rx="9.5" ry="6" transform="translate(1810 18673)" fill="#ea913f"/>
    <ellipse id="Ellipse_617" data-name="Ellipse 617" cx="21" cy="3.5" rx="21" ry="3.5" transform="translate(1246 18908)" fill="#ea913f"/>
    <g id="Layer_1" transform="translate(762.239 18381.676)">
      <path id="Path_1223" data-name="Path 1223" d="M531.047,845.469H513.569A9.6,9.6,0,0,1,504,835.9V651.569A9.6,9.6,0,0,1,513.569,642h17.478a9.6,9.6,0,0,1,9.569,9.569V835.9A9.6,9.6,0,0,1,531.047,845.469Z" transform="translate(-261.976 -311.145)" fill="#f26e4e"/>
      <path id="Path_1224" data-name="Path 1224" d="M362.761,250.826v125.53a13.867,13.867,0,0,1-13.826,13.826H176.826A13.867,13.867,0,0,1,163,376.355V250.826A13.867,13.867,0,0,1,176.826,237h172.11A13.867,13.867,0,0,1,362.761,250.826Z" fill="#f26e4e"/>
      <rect id="Rectangle_153" data-name="Rectangle 153" width="36.615" height="9.97" transform="translate(242.024 390.181)" fill="#ed284b"/>
    </g>
    <text id="ห้ามล่าสัตว์_บริเวณนี้" data-name="ห้ามล่าสัตว์
บริเวณนี้" transform="translate(1025 18687)" fill="#fff" font-size="32" font-family="Prompt-SemiBold, Prompt" font-weight="600"><tspan x="-73.92" y="0">ห้ามล่าสัตว์</tspan><tspan x="-58.928" y="49">บริเวณนี้</tspan></text>
  </g>
</svg>
