<svg xmlns="http://www.w3.org/2000/svg" width="935" height="844" viewBox="0 0 935 844">
  <g id="Group_491" data-name="Group 491" transform="translate(-69 -17086)">
    <ellipse id="Ellipse_539" data-name="Ellipse 539" cx="116.5" cy="30" rx="116.5" ry="30" transform="translate(292 17404)" fill="#166060" opacity="0.66"/>
    <ellipse id="Ellipse_544" data-name="Ellipse 544" cx="116.5" cy="30" rx="116.5" ry="30" transform="translate(507 17627)" fill="#166060" opacity="0.66"/>
    <ellipse id="Ellipse_541" data-name="Ellipse 541" cx="21" cy="5" rx="21" ry="5" transform="translate(247 17461)" fill="#166060" opacity="0.66"/>
    <ellipse id="Ellipse_546" data-name="Ellipse 546" cx="21" cy="5" rx="21" ry="5" transform="translate(458 17626)" fill="#166060" opacity="0.986"/>
    <ellipse id="Ellipse_583" data-name="Ellipse 583" cx="44" cy="10.5" rx="44" ry="10.5" transform="translate(97 17789)" fill="#166060" opacity="0.986"/>
    <ellipse id="Ellipse_588" data-name="Ellipse 588" cx="44" cy="10.5" rx="44" ry="10.5" transform="translate(737 17162)" fill="#166060" opacity="0.986"/>
    <ellipse id="Ellipse_592" data-name="Ellipse 592" cx="23" cy="8.5" rx="23" ry="8.5" transform="translate(196 17140)" fill="#166060" opacity="0.986"/>
    <ellipse id="Ellipse_585" data-name="Ellipse 585" cx="29.5" cy="7" rx="29.5" ry="7" transform="translate(327 17916)" fill="#166060" opacity="0.986"/>
    <ellipse id="Ellipse_587" data-name="Ellipse 587" cx="29.5" cy="7" rx="29.5" ry="7" transform="translate(902 17121)" fill="#166060" opacity="0.986"/>
    <ellipse id="Ellipse_584" data-name="Ellipse 584" cx="44" cy="8" rx="44" ry="8" transform="translate(252 17881)" fill="#166060" opacity="0.986"/>
    <ellipse id="Ellipse_595" data-name="Ellipse 595" cx="26" cy="5" rx="26" ry="5" transform="translate(558 17913)" fill="#166060" opacity="0.986"/>
    <ellipse id="Ellipse_596" data-name="Ellipse 596" cx="26" cy="5" rx="26" ry="5" transform="translate(69 17212)" fill="#166060" opacity="0.986"/>
    <ellipse id="Ellipse_586" data-name="Ellipse 586" cx="44" cy="8.5" rx="44" ry="8.5" transform="translate(827 17086)" fill="#166060" opacity="0.986"/>
    <ellipse id="Ellipse_589" data-name="Ellipse 589" cx="44" cy="10" rx="44" ry="10" transform="translate(916 17860)" fill="#166060" opacity="0.986"/>
    <ellipse id="Ellipse_591" data-name="Ellipse 591" cx="44" cy="10.5" rx="44" ry="10.5" transform="translate(103 17162)" fill="#56c3c4" opacity="0.986"/>
    <ellipse id="Ellipse_552" data-name="Ellipse 552" cx="13" cy="7" rx="13" ry="7" transform="translate(159 17724)" fill="#166060" opacity="0.986"/>
    <ellipse id="Ellipse_553" data-name="Ellipse 553" cx="13" cy="7" rx="13" ry="7" transform="translate(256 17753)" fill="#166060" opacity="0.986"/>
    <ellipse id="Ellipse_554" data-name="Ellipse 554" cx="13" cy="7" rx="13" ry="7" transform="translate(330 17789)" fill="#166060" opacity="0.986"/>
    <ellipse id="Ellipse_555" data-name="Ellipse 555" cx="13" cy="7" rx="13" ry="7" transform="translate(407 17822)" fill="#166060" opacity="0.986"/>
    <ellipse id="Ellipse_556" data-name="Ellipse 556" cx="13" cy="7" rx="13" ry="7" transform="translate(507 17849)" fill="#166060" opacity="0.986"/>
    <ellipse id="Ellipse_557" data-name="Ellipse 557" cx="13" cy="7" rx="13" ry="7" transform="translate(636 17846)" fill="#166060" opacity="0.986"/>
    <ellipse id="Ellipse_558" data-name="Ellipse 558" cx="13" cy="7" rx="13" ry="7" transform="translate(735 17815)" fill="#166060" opacity="0.986"/>
    <ellipse id="Ellipse_559" data-name="Ellipse 559" cx="13" cy="7" rx="13" ry="7" transform="translate(802 17790)" fill="#166060" opacity="0.986"/>
    <ellipse id="Ellipse_560" data-name="Ellipse 560" cx="13" cy="7" rx="13" ry="7" transform="translate(869 17764)" fill="#166060" opacity="0.986"/>
    <ellipse id="Ellipse_561" data-name="Ellipse 561" cx="13" cy="7" rx="13" ry="7" transform="translate(948 17684)" fill="#166060" opacity="0.986"/>
    <ellipse id="Ellipse_562" data-name="Ellipse 562" cx="13" cy="7" rx="13" ry="7" transform="translate(945 17597)" fill="#166060" opacity="0.986"/>
    <ellipse id="Ellipse_563" data-name="Ellipse 563" cx="13" cy="7" rx="13" ry="7" transform="translate(924 17556)" fill="#166060" opacity="0.986"/>
    <ellipse id="Ellipse_564" data-name="Ellipse 564" cx="13" cy="7" rx="13" ry="7" transform="translate(892 17502)" fill="#166060" opacity="0.986"/>
    <ellipse id="Ellipse_565" data-name="Ellipse 565" cx="13" cy="7" rx="13" ry="7" transform="translate(889 17428)" fill="#166060" opacity="0.986"/>
    <ellipse id="Ellipse_566" data-name="Ellipse 566" cx="13" cy="7" rx="13" ry="7" transform="translate(892 17366)" fill="#166060" opacity="0.986"/>
    <ellipse id="Ellipse_567" data-name="Ellipse 567" cx="13" cy="7" rx="13" ry="7" transform="translate(851 17294)" fill="#166060" opacity="0.986"/>
    <ellipse id="Ellipse_568" data-name="Ellipse 568" cx="13" cy="7" rx="13" ry="7" transform="translate(799 17252)" fill="#166060" opacity="0.986"/>
    <ellipse id="Ellipse_569" data-name="Ellipse 569" cx="13" cy="7" rx="13" ry="7" transform="translate(703 17227)" fill="#166060" opacity="0.986"/>
    <ellipse id="Ellipse_570" data-name="Ellipse 570" cx="13" cy="7" rx="13" ry="7" transform="translate(653 17178)" fill="#166060" opacity="0.986"/>
    <ellipse id="Ellipse_571" data-name="Ellipse 571" cx="13" cy="7" rx="13" ry="7" transform="translate(598 17136)" fill="#166060" opacity="0.986"/>
    <ellipse id="Ellipse_572" data-name="Ellipse 572" cx="13" cy="7" rx="13" ry="7" transform="translate(501 17122)" fill="#166060" opacity="0.986"/>
    <ellipse id="Ellipse_573" data-name="Ellipse 573" cx="13" cy="7" rx="13" ry="7" transform="translate(443 17131)" fill="#166060" opacity="0.986"/>
    <ellipse id="Ellipse_574" data-name="Ellipse 574" cx="13" cy="7" rx="13" ry="7" transform="translate(396 17150)" fill="#166060" opacity="0.986"/>
    <ellipse id="Ellipse_575" data-name="Ellipse 575" cx="13" cy="7" rx="13" ry="7" transform="translate(354 17183)" fill="#166060" opacity="0.986"/>
    <ellipse id="Ellipse_576" data-name="Ellipse 576" cx="13" cy="7" rx="13" ry="7" transform="translate(306 17205)" fill="#166060" opacity="0.986"/>
    <ellipse id="Ellipse_577" data-name="Ellipse 577" cx="13" cy="7" rx="13" ry="7" transform="translate(252 17231)" fill="#166060" opacity="0.986"/>
    <ellipse id="Ellipse_578" data-name="Ellipse 578" cx="13" cy="7" rx="13" ry="7" transform="translate(210 17272)" fill="#166060" opacity="0.986"/>
    <ellipse id="Ellipse_579" data-name="Ellipse 579" cx="13" cy="7" rx="13" ry="7" transform="translate(163 17346)" fill="#166060" opacity="0.986"/>
    <ellipse id="Ellipse_580" data-name="Ellipse 580" cx="13" cy="7" rx="13" ry="7" transform="translate(134 17435)" fill="#166060" opacity="0.986"/>
    <ellipse id="Ellipse_581" data-name="Ellipse 581" cx="13" cy="7" rx="13" ry="7" transform="translate(119 17522)" fill="#166060" opacity="0.986"/>
    <ellipse id="Ellipse_582" data-name="Ellipse 582" cx="13" cy="7" rx="13" ry="7" transform="translate(123 17625)" fill="#166060" opacity="0.986"/>
    <ellipse id="Ellipse_549" data-name="Ellipse 549" cx="15" cy="3.5" rx="15" ry="3.5" transform="translate(512 17699)" fill="#166060" opacity="0.986"/>
    <ellipse id="Ellipse_550" data-name="Ellipse 550" cx="15" cy="3.5" rx="15" ry="3.5" transform="translate(492 17482)" fill="#166060" opacity="0.986"/>
    <ellipse id="Ellipse_551" data-name="Ellipse 551" cx="15" cy="3.5" rx="15" ry="3.5" transform="translate(302 17363)" fill="#166060" opacity="0.986"/>
    <ellipse id="Ellipse_543" data-name="Ellipse 543" cx="15" cy="3.5" rx="15" ry="3.5" transform="translate(539 17387)" fill="#166060" opacity="0.986"/>
    <ellipse id="Ellipse_547" data-name="Ellipse 547" cx="15" cy="3.5" rx="15" ry="3.5" transform="translate(487 17619)" fill="#166060" opacity="0.986"/>
    <ellipse id="Ellipse_548" data-name="Ellipse 548" cx="15" cy="3.5" rx="15" ry="3.5" transform="translate(752 17672)" fill="#166060" opacity="0.986"/>
    <ellipse id="Ellipse_540" data-name="Ellipse 540" cx="104" cy="25" rx="104" ry="25" transform="translate(302 17406)" fill="#e6eaf5" opacity="0.66"/>
    <ellipse id="Ellipse_545" data-name="Ellipse 545" cx="104" cy="25" rx="104" ry="25" transform="translate(517 17629)" fill="#e6eaf5" opacity="0.66"/>
    <g id="Group_481" data-name="Group 481" transform="translate(132.858 17124.662)">
      <g id="Group_305" data-name="Group 305" transform="translate(391.121 403.578)">
        <path id="Path_1876" data-name="Path 1876" d="M715.1,703.913c0,.83,0,1.7-.01,2.605a96.484,96.484,0,0,1-13.5,1.327s-4.791-1.775-15.164-2.739c-9.915-.916-24.927-1.1-45.712,1.708-11.919,1.613-24.65,1.183-36.8-.286A244.267,244.267,0,0,1,577.98,701.9c.153-6.356.592-10.24.592-10.24.3-12.8,3.684-22.78,8.083-30.414a56.335,56.335,0,0,1,11.347-14,57.959,57.959,0,0,1,10.049-64.865,51.845,51.845,0,0,1,75.859,0,57.905,57.905,0,0,1,9.753,65.466,55.084,55.084,0,0,1,12.463,13.971,58.285,58.285,0,0,1,8.512,29.842C714.619,691.669,715.058,696.383,715.1,703.913Z" transform="translate(-547.346 -565.88)" fill="#fff"/>
        <g id="Group_303" data-name="Group 303" transform="translate(62.346 37.989)">
          <path id="Path_1877" data-name="Path 1877" d="M615.907,616.78a19.939,19.939,0,0,0-4.667,11.309A18,18,0,0,1,615.907,616.78Z" transform="translate(-611.211 -606.194)" fill="#fbd1db"/>
          <path id="Path_1878" data-name="Path 1878" d="M683.452,628.412A18.055,18.055,0,0,1,665.4,646.468a38.386,38.386,0,0,1-4.275-.506c-11.051-1.985-13.79-8.207-13.79-8.207-2.806,7.157-13.952,8.255-13.952,8.255a18.074,18.074,0,0,1-22.159-17.588c0-.248.01-.5.019-.735a.326.326,0,0,1,.01-.1,19.961,19.961,0,0,1,4.667-11.309l.019-.019c4.581-5.487,13.618-10.717,31.407-10.574,14.954.124,23.715,3.855,28.859,8.255l.01.01a19.979,19.979,0,0,1,7.234,13.647.3.3,0,0,0,.01.1C683.443,627.935,683.452,628.174,683.452,628.412Z" transform="translate(-611.21 -605.687)" fill="#fbd1db"/>
          <path id="Path_1879" data-name="Path 1879" d="M663.51,647.89a38.142,38.142,0,0,0,4.275.506A18.021,18.021,0,0,1,663.51,647.89Z" transform="translate(-613.599 -607.615)" fill="#fbd1db"/>
          <path id="Path_1880" data-name="Path 1880" d="M686.544,627.987a19.961,19.961,0,0,0-7.234-13.647A18.022,18.022,0,0,1,686.544,627.987Z" transform="translate(-614.321 -606.082)" fill="#fbd1db"/>
          <path id="Path_1881" data-name="Path 1881" d="M611.229,628.73c-.01.248-.019.5-.019.735C611.22,629.465,611.21,629.2,611.229,628.73Z" transform="translate(-611.21 -606.74)" fill="#fbd1db"/>
          <path id="Path_1882" data-name="Path 1882" d="M686.909,629.465c0-.239-.01-.487-.019-.725C686.919,629.208,686.909,629.465,686.909,629.465Z" transform="translate(-614.667 -606.74)" fill="#fbd1db"/>
        </g>
        <g id="Group_304" data-name="Group 304" transform="translate(62.345 36.117)">
          <path id="Path_1883" data-name="Path 1883" d="M615.907,614.82a19.939,19.939,0,0,0-4.667,11.309A18,18,0,0,1,615.907,614.82Z" transform="translate(-611.211 -604.233)" fill="#f5f5f5"/>
          <path id="Path_1884" data-name="Path 1884" d="M683.433,625.736a.429.429,0,0,0-.01-.1c-.01-.153-.019-.305-.038-.458-.029-.267-.067-.573-.115-.907-.029-.191-.067-.391-.1-.6-.019-.1-.048-.219-.067-.334-.038-.162-.067-.324-.115-.5q-.114-.5-.286-1.059c-.057-.191-.115-.382-.181-.573-.086-.258-.181-.525-.286-.792-.181-.477-.391-.973-.639-1.479v-.01a21.223,21.223,0,0,0-1.221-2.176c-.153-.239-.315-.487-.487-.725-.219-.305-.448-.611-.7-.926-.076-.1-.153-.2-.239-.3-.286-.353-.6-.716-.935-1.069-.076-.086-.153-.162-.239-.248-.219-.229-.439-.449-.668-.668q-.429-.415-.916-.83a30.549,30.549,0,0,0-10.746-5.726,57.6,57.6,0,0,0-14.926-2.443h-.01c-.01.01-.01.01-.019,0-1.021-.048-2.071-.076-3.159-.086a70.161,70.161,0,0,0-11.041.706h-.01c-10.707,1.594-16.844,5.659-20.356,9.868-.01,0-.01.01-.019.01-.239.286-.468.582-.687.868a.13.13,0,0,1-.029.038l-.01.01c-.01,0-.01,0-.01.019-.191.267-.382.534-.563.8-.162.239-.324.477-.468.716-.019.038-.038.067-.057.105-.181.305-.353.6-.515.9-.134.248-.258.5-.382.744-.038.076-.067.143-.1.219-.115.229-.219.468-.315.7-.219.515-.4,1-.563,1.47q-.143.429-.258.83c-.067.229-.124.449-.181.659-.038.153-.076.305-.1.458s-.067.3-.1.429-.057.286-.086.42v.01c-.076.4-.124.763-.162,1.078-.019.162-.038.315-.048.449s-.019.277-.029.391a.358.358,0,0,0-.01.1c-.01.248-.019.5-.019.744,0,.344.01.7.029,1.031v.01a18.086,18.086,0,0,0,22.14,16.548s11.146-1.088,13.952-8.255c0,0,2.624,5.964,13.074,8.074h.01c.229.057.468.1.706.143a40.312,40.312,0,0,0,4.266.506,18.054,18.054,0,0,0,18.027-17.073h.01c.01-.324.019-.649.019-.983C683.442,626.462,683.452,626.2,683.433,625.736Zm-36.121-.067c-.01-.267-.029-.525-.048-.783l.134-.01c-.029.258-.038.525-.048.783a4.638,4.638,0,0,0-.01.515c-.01.1-.01.191-.01.286a2.858,2.858,0,0,0-.01-.286A4.426,4.426,0,0,0,647.312,625.67Z" transform="translate(-611.21 -603.726)" fill="#f5f5f5"/>
          <path id="Path_1885" data-name="Path 1885" d="M663.51,645.93a38.157,38.157,0,0,0,4.275.506A17.542,17.542,0,0,1,663.51,645.93Z" transform="translate(-613.599 -605.654)" fill="#f5f5f5"/>
          <path id="Path_1886" data-name="Path 1886" d="M686.544,626.027a19.961,19.961,0,0,0-7.234-13.647A18.022,18.022,0,0,1,686.544,626.027Z" transform="translate(-614.321 -604.121)" fill="#f5f5f5"/>
          <path id="Path_1887" data-name="Path 1887" d="M649.124,625.89c-.048.515-.067,1.05-.067,1.584,0-.525-.019-1.059-.067-1.575Z" transform="translate(-612.936 -604.739)" fill="#f5f5f5"/>
          <path id="Path_1888" data-name="Path 1888" d="M611.229,626.77c-.01.248-.019.5-.019.735C611.22,627.5,611.21,627.247,611.229,626.77Z" transform="translate(-611.21 -604.779)" fill="#f5f5f5"/>
          <path id="Path_1889" data-name="Path 1889" d="M648.99,625.9l.134-.01c-.048.515-.067,1.05-.067,1.584C649.057,626.94,649.038,626.415,648.99,625.9Z" transform="translate(-612.936 -604.739)" fill="#f5f5f5"/>
          <path id="Path_1890" data-name="Path 1890" d="M686.909,627.505c0-.239-.01-.487-.019-.725C686.919,627.248,686.909,627.505,686.909,627.505Z" transform="translate(-614.667 -604.779)" fill="#f5f5f5"/>
        </g>
        <ellipse id="Ellipse_475" data-name="Ellipse 475" cx="2.176" cy="2.338" rx="2.176" ry="2.338" transform="translate(86.022 47.325)" fill="#fbd1db"/>
        <ellipse id="Ellipse_476" data-name="Ellipse 476" cx="2.176" cy="2.338" rx="2.176" ry="2.338" transform="translate(105.319 47.325)" fill="#fbd1db"/>
        <path id="Path_1891" data-name="Path 1891" d="M615.673,610.33l-2.853.687a1.49,1.49,0,0,1-1.794-1.107l-.048-.2a1.49,1.49,0,0,1,1.107-1.794l2.853-.687a1.49,1.49,0,0,1,1.794,1.107l.048.2A1.494,1.494,0,0,1,615.673,610.33Z" transform="translate(-548.852 -567.767)" fill="#242b5f"/>
        <path id="Path_1892" data-name="Path 1892" d="M604.4,709.451s-.668.639-1.956,1.651a244.279,244.279,0,0,1-25.929-4.628,284.752,284.752,0,0,1-30.634-8.913c9.095-10.765,18.886-22.493,20.5-25.032,1.746-2.748,9.629-6.871,18.81-6.709,7.262.124,15.345,2.93,21.835,11.242C621.7,695.862,604.4,709.451,604.4,709.451Z" transform="translate(-545.88 -570.445)" fill="#f5f5f5"/>
        <path id="Path_1893" data-name="Path 1893" d="M744.415,699.382C739.873,706.348,728.9,709.6,719.9,711.12a96.5,96.5,0,0,1-13.5,1.327s-4.791-1.775-15.164-2.739a40.969,40.969,0,0,1-3.2-4.046s-13.895-17.445,4.981-32.581a28.488,28.488,0,0,1,17.9-6.671c12.1-.067,21.93,7.883,23.247,11.681C734.958,680.362,739.4,689.419,744.415,699.382Z" transform="translate(-552.149 -570.472)" fill="#f5f5f5"/>
        <path id="Path_1894" data-name="Path 1894" d="M612.115,614.458l-1.355.21a2.116,2.116,0,0,1-2.414-1.765l-.067-.429a2.116,2.116,0,0,1,1.765-2.414l1.355-.21a2.116,2.116,0,0,1,2.414,1.765l.067.429A2.119,2.119,0,0,1,612.115,614.458Z" transform="translate(-548.729 -567.888)" fill="#03b1bb"/>
        <path id="Path_1895" data-name="Path 1895" d="M681.025,610.02l2.853.687a1.49,1.49,0,0,0,1.794-1.107l.048-.2a1.49,1.49,0,0,0-1.107-1.794l-2.853-.687a1.49,1.49,0,0,0-1.794,1.107l-.048.2A1.494,1.494,0,0,0,681.025,610.02Z" transform="translate(-552.001 -567.753)" fill="#242b5f"/>
        <path id="Path_1896" data-name="Path 1896" d="M684.594,614.148l1.355.21a2.116,2.116,0,0,0,2.414-1.766l.067-.43a2.116,2.116,0,0,0-1.765-2.414l-1.355-.21A2.116,2.116,0,0,0,682.9,611.3l-.067.429A2.126,2.126,0,0,0,684.594,614.148Z" transform="translate(-552.135 -567.873)" fill="#03b1bb"/>
      </g>
    </g>
    <g id="Group_290" data-name="Group 290" transform="translate(309.334 17304.5)">
      <path id="Path_1795" data-name="Path 1795" d="M490.177,469.463c0,.83,0,1.7-.01,2.605a96.482,96.482,0,0,1-13.5,1.327s-4.791-1.775-15.164-2.739c-9.915-.916-24.927-1.1-45.712,1.708-11.919,1.613-24.65,1.183-36.8-.286a244.26,244.26,0,0,1-25.929-4.628c.153-6.356.592-10.24.592-10.24.3-12.8,3.684-22.78,8.083-30.414a56.336,56.336,0,0,1,11.347-14,57.959,57.959,0,0,1,10.049-64.865,51.845,51.845,0,0,1,75.859,0,57.905,57.905,0,0,1,9.753,65.466,55.082,55.082,0,0,1,12.463,13.971,58.285,58.285,0,0,1,8.513,29.842C489.7,457.219,490.138,461.933,490.177,469.463Z" transform="translate(-322.426 -331.43)" fill="#fff"/>
      <g id="Group_288" data-name="Group 288" transform="translate(62.344 37.989)">
        <path id="Path_1796" data-name="Path 1796" d="M390.987,382.33a19.939,19.939,0,0,0-4.667,11.309A17.924,17.924,0,0,1,390.987,382.33Z" transform="translate(-386.29 -371.744)" fill="#fbd1db"/>
        <path id="Path_1797" data-name="Path 1797" d="M458.522,393.962a18.055,18.055,0,0,1-18.056,18.056,38.418,38.418,0,0,1-4.275-.506c-11.051-1.985-13.79-8.207-13.79-8.207-2.806,7.157-13.952,8.255-13.952,8.255a18.075,18.075,0,0,1-22.159-17.588c0-.248.01-.5.019-.735a.325.325,0,0,1,.01-.1,19.962,19.962,0,0,1,4.667-11.309l.019-.019c4.581-5.487,13.618-10.717,31.407-10.574,14.954.124,23.715,3.855,28.859,8.255l.01.01a19.978,19.978,0,0,1,7.234,13.647.294.294,0,0,0,.01.1Q458.522,393.59,458.522,393.962Z" transform="translate(-386.288 -371.237)" fill="#fbd1db"/>
        <path id="Path_1798" data-name="Path 1798" d="M438.58,413.44a38.146,38.146,0,0,0,4.275.506A18.078,18.078,0,0,1,438.58,413.44Z" transform="translate(-388.677 -373.165)" fill="#fbd1db"/>
        <path id="Path_1799" data-name="Path 1799" d="M461.614,393.537a19.961,19.961,0,0,0-7.234-13.647A18.022,18.022,0,0,1,461.614,393.537Z" transform="translate(-389.399 -371.632)" fill="#fbd1db"/>
        <path id="Path_1800" data-name="Path 1800" d="M386.309,394.28c-.01.248-.019.5-.019.735C386.29,395.015,386.28,394.748,386.309,394.28Z" transform="translate(-386.288 -372.29)" fill="#fbd1db"/>
        <path id="Path_1801" data-name="Path 1801" d="M461.979,395.015c0-.239-.01-.487-.019-.725C461.989,394.758,461.979,395.015,461.979,395.015Z" transform="translate(-389.745 -372.29)" fill="#fbd1db"/>
      </g>
      <g id="Group_289" data-name="Group 289" transform="translate(62.344 36.117)">
        <path id="Path_1802" data-name="Path 1802" d="M390.987,380.37a19.939,19.939,0,0,0-4.667,11.309A17.946,17.946,0,0,1,390.987,380.37Z" transform="translate(-386.29 -369.783)" fill="#f5f5f5"/>
        <path id="Path_1803" data-name="Path 1803" d="M458.513,391.286a.428.428,0,0,0-.01-.1c-.01-.153-.019-.305-.038-.458-.029-.267-.067-.573-.115-.907-.029-.191-.067-.391-.1-.6-.019-.1-.048-.219-.067-.334-.038-.162-.067-.324-.115-.5q-.115-.5-.286-1.059c-.057-.191-.114-.382-.181-.573-.086-.258-.181-.525-.286-.792-.181-.477-.391-.973-.639-1.479v-.01a21.209,21.209,0,0,0-1.222-2.176c-.153-.239-.315-.487-.487-.725-.22-.305-.449-.611-.7-.926-.076-.1-.153-.2-.239-.3-.286-.353-.6-.716-.935-1.069-.076-.086-.153-.162-.239-.248-.22-.229-.439-.449-.668-.668q-.429-.415-.916-.83a30.549,30.549,0,0,0-10.746-5.726,57.6,57.6,0,0,0-14.926-2.443h-.01c-.01.01-.01.01-.019,0-1.021-.048-2.071-.076-3.159-.086a70.173,70.173,0,0,0-11.041.706h-.01c-10.707,1.594-16.844,5.659-20.356,9.868-.01,0-.01.01-.019.01-.239.286-.468.582-.687.868a.132.132,0,0,1-.029.038l-.01.01c-.01,0-.01,0-.01.019-.191.267-.382.534-.563.8-.162.239-.324.477-.468.716-.019.038-.038.067-.057.1-.181.305-.353.6-.515.9-.134.248-.258.5-.382.744-.038.076-.067.143-.1.219-.115.229-.22.468-.315.7-.22.515-.4,1-.563,1.47q-.143.429-.258.83c-.067.229-.124.449-.181.658-.038.153-.076.305-.1.458s-.067.3-.1.429-.057.286-.086.42v.01c-.076.4-.124.763-.162,1.078-.019.162-.038.315-.048.449s-.019.277-.029.391a.358.358,0,0,0-.01.1c-.01.248-.019.5-.019.744,0,.344.01.7.029,1.031v.01a18.086,18.086,0,0,0,22.14,16.548s11.146-1.088,13.952-8.255c0,0,2.624,5.965,13.074,8.074h.01c.229.057.468.1.706.143a40.322,40.322,0,0,0,4.266.506,18.054,18.054,0,0,0,18.027-17.073h.01c.01-.324.019-.649.019-.983C458.522,392.012,458.532,391.754,458.513,391.286Zm-36.121-.067c-.01-.267-.029-.525-.048-.783l.134-.01c-.029.258-.038.525-.048.783a4.64,4.64,0,0,0-.01.515c-.01.1-.01.191-.01.286a2.857,2.857,0,0,0-.01-.286A4.42,4.42,0,0,0,422.392,391.22Z" transform="translate(-386.288 -369.276)" fill="#f5f5f5"/>
        <path id="Path_1804" data-name="Path 1804" d="M438.58,411.48a38.153,38.153,0,0,0,4.275.506A18.081,18.081,0,0,1,438.58,411.48Z" transform="translate(-388.677 -371.204)" fill="#f5f5f5"/>
        <path id="Path_1805" data-name="Path 1805" d="M461.614,391.577a19.961,19.961,0,0,0-7.234-13.647A18.022,18.022,0,0,1,461.614,391.577Z" transform="translate(-389.399 -369.671)" fill="#f5f5f5"/>
        <path id="Path_1806" data-name="Path 1806" d="M424.2,391.43c-.048.515-.067,1.05-.067,1.584,0-.525-.019-1.059-.067-1.575Z" transform="translate(-388.014 -370.288)" fill="#f5f5f5"/>
        <path id="Path_1807" data-name="Path 1807" d="M386.309,392.32c-.01.248-.019.5-.019.735C386.29,393.055,386.28,392.788,386.309,392.32Z" transform="translate(-386.288 -370.329)" fill="#f5f5f5"/>
        <path id="Path_1808" data-name="Path 1808" d="M424.07,391.44l.134-.01c-.048.515-.067,1.05-.067,1.584C424.137,392.489,424.118,391.964,424.07,391.44Z" transform="translate(-388.014 -370.288)" fill="#f5f5f5"/>
        <path id="Path_1809" data-name="Path 1809" d="M461.979,393.055c0-.239-.01-.487-.019-.725C461.989,392.8,461.979,393.055,461.979,393.055Z" transform="translate(-389.745 -370.329)" fill="#f5f5f5"/>
      </g>
      <ellipse id="Ellipse_435" data-name="Ellipse 435" cx="2.176" cy="2.338" rx="2.176" ry="2.338" transform="translate(86.013 47.325)" fill="#fbd1db"/>
      <ellipse id="Ellipse_436" data-name="Ellipse 436" cx="2.176" cy="2.338" rx="2.176" ry="2.338" transform="translate(105.319 47.325)" fill="#fbd1db"/>
      <circle id="Ellipse_437" data-name="Ellipse 437" cx="3.111" cy="3.111" r="3.111" transform="translate(61.697 37.524)" fill="#242b5f"/>
      <circle id="Ellipse_438" data-name="Ellipse 438" cx="3.111" cy="3.111" r="3.111" transform="translate(129.472 37.524)" fill="#242b5f"/>
      <path id="Path_1810" data-name="Path 1810" d="M387.2,380.008l-1.355.21a2.116,2.116,0,0,1-2.414-1.766l-.067-.43a2.116,2.116,0,0,1,1.766-2.414l1.355-.21a2.116,2.116,0,0,1,2.414,1.766l.067.429A2.126,2.126,0,0,1,387.2,380.008Z" transform="translate(-323.809 -333.437)" fill="#03b1bb"/>
      <path id="Path_1811" data-name="Path 1811" d="M462.124,379.678l1.355.21a2.116,2.116,0,0,0,2.414-1.766l.067-.429a2.116,2.116,0,0,0-1.765-2.414l-1.355-.21a2.116,2.116,0,0,0-2.414,1.766l-.067.429A2.109,2.109,0,0,0,462.124,379.678Z" transform="translate(-327.327 -333.422)" fill="#03b1bb"/>
      <path id="Path_1812" data-name="Path 1812" d="M391.44,369.017l-4.209,1.012a.8.8,0,0,1-.964-.592l-.038-.162a.8.8,0,0,1,.592-.964l4.209-1.012a.8.8,0,0,1,.964.592l.038.162A.814.814,0,0,1,391.44,369.017Z" transform="translate(-323.941 -333.068)" fill="#242b5f"/>
      <path id="Path_1813" data-name="Path 1813" d="M457.841,369.017l4.209,1.012a.8.8,0,0,0,.964-.592l.038-.162a.8.8,0,0,0-.592-.964l-4.209-1.012a.8.8,0,0,0-.964.592l-.038.162A.814.814,0,0,0,457.841,369.017Z" transform="translate(-327.185 -333.068)" fill="#242b5f"/>
      <path id="Path_1814" data-name="Path 1814" d="M379.479,475s-.668.639-1.956,1.651a244.258,244.258,0,0,1-25.929-4.628,284.745,284.745,0,0,1-30.634-8.913c9.095-10.765,18.886-22.493,20.5-25.032,1.746-2.748,9.629-6.871,18.81-6.709,7.262.124,15.345,2.93,21.835,11.242C396.771,461.412,379.479,475,379.479,475Z" transform="translate(-320.96 -335.995)" fill="#f5f5f5"/>
      <path id="Path_1815" data-name="Path 1815" d="M519.485,464.932c-4.543,6.967-15.517,10.221-24.516,11.738a96.487,96.487,0,0,1-13.5,1.327s-4.791-1.775-15.164-2.739a40.977,40.977,0,0,1-3.2-4.046s-13.895-17.445,4.982-32.58a28.488,28.488,0,0,1,17.9-6.671c12.1-.067,21.93,7.883,23.247,11.681C510.038,445.912,514.475,454.959,519.485,464.932Z" transform="translate(-327.228 -336.022)" fill="#f5f5f5"/>
    </g>
  </g>
</svg>
