<svg xmlns="http://www.w3.org/2000/svg" xmlns:xlink="http://www.w3.org/1999/xlink" width="183.21" height="91.023" viewBox="0 0 183.21 91.023">
  <defs>
    <clipPath id="clip-path">
      <rect width="50.785" height="37.059" fill="none"/>
    </clipPath>
    <clipPath id="clip-path-2">
      <rect id="Rectangle_200" data-name="Rectangle 200" width="129" height="91" transform="translate(992.36 15867)" fill="#4bb0ba"/>
    </clipPath>
    <clipPath id="clip-path-3">
      <rect width="11.321" height="75.075" fill="none"/>
    </clipPath>
  </defs>
  <g id="Group_497" data-name="Group 497" transform="translate(-938.15 -15867)">
    <g id="Repeat_Grid_26" data-name="Repeat Grid 26" transform="translate(938.15 15920.965)" clip-path="url(#clip-path)">
      <g id="Group_337" data-name="Group 337">
        <path id="Path_1033" data-name="Path 1033" d="M13.223,0s13.193,10.365-6.6,32.193S18.09,59.829,13.694,73.179H30.812a150.546,150.546,0,0,1-17.446-25.6C5.538,33.282,31.6,23.553,13.223,0Z" transform="matrix(1, 0.017, -0.017, 1, 1.277, 0)" fill="#5967af"/>
        <path id="Path_1035" data-name="Path 1035" d="M17.589,0S4.4,10.365,24.186,32.193,12.722,59.829,17.119,73.179H0a150.547,150.547,0,0,0,17.446-25.6C25.274,33.282-.784,23.553,17.589,0Z" transform="matrix(1, 0.017, -0.017, 1, 19.977, 0.326)" fill="#858fc7"/>
        <path id="Path_1034" data-name="Path 1034" d="M3.422,71.846H22.737S21.482,44.6,10.175,27.8,13.082,0,13.082,0-.9,7.537.045,26.852,22.58,45.543,3.422,71.846Z" transform="matrix(1, 0.017, -0.017, 1, 12.727, 1.827)" fill="#858fc7"/>
      </g>
    </g>
    <g id="Mask_Group_4" data-name="Mask Group 4" clip-path="url(#clip-path-2)">
      <g id="Group_496" data-name="Group 496">
        <ellipse id="Ellipse_678" data-name="Ellipse 678" cx="39" cy="38" rx="39" ry="38" transform="translate(1016.36 15907)" fill="#f3d2db"/>
        <path id="Path_2022" data-name="Path 2022" d="M-5632.8,16522.535l-41.295-23.623-41.7,29.3s-3.182-44.418,41.7-44.939S-5632.8,16522.535-5632.8,16522.535Z" transform="translate(6729.642 -579.356)" fill="#242c5b"/>
        <ellipse id="Ellipse_679" data-name="Ellipse 679" cx="3.5" cy="3.5" rx="3.5" ry="3.5" transform="translate(1067.36 15944)" fill="#242c5b"/>
        <ellipse id="Ellipse_680" data-name="Ellipse 680" cx="3.5" cy="3.5" rx="3.5" ry="3.5" transform="translate(1038.36 15944)" fill="#242c5b"/>
        <path id="Path_2023" data-name="Path 2023" d="M-5653.664,16538.2l2.294,5.643-4.774,20.8,8.524-2.7" transform="translate(6708.964 -601.556)" fill="none" stroke="#d5795f" stroke-width="1"/>
        <path id="Path_2024" data-name="Path 2024" d="M-5634.53,16541.688c-1.405-2.414-76.814-.732-76.814-.732s.979,22.551,24.941,22.678c5.571-.127,15.429-4.473,16.434-14.572-.227,8.607,8.628,16.631,19.806,14.572S-5633.125,16544.1-5634.53,16541.688Z" transform="translate(6728.56 -602.439)" fill="#fff" opacity="0.692"/>
        <path id="Path_2025" data-name="Path 2025" d="M3,0H8a3,3,0,0,1,3,3V79a3,3,0,0,1-3,3H3a3,3,0,0,1-3-3V3A3,3,0,0,1,3,0Z" transform="translate(1092.36 15876)" fill="#f5d26a"/>
        <g id="Repeat_Grid_32" data-name="Repeat Grid 32" transform="translate(1092.54 15880.516)" clip-path="url(#clip-path-3)">
          <g transform="translate(-303.5 -16435)">
            <line id="Line_179" data-name="Line 179" x2="19" transform="translate(303.5 16435.5)" fill="none" stroke="#252d58" stroke-width="1"/>
          </g>
          <g transform="translate(-303.5 -16425)">
            <line id="Line_179-2" data-name="Line 179" x2="19" transform="translate(303.5 16435.5)" fill="none" stroke="#252d58" stroke-width="1"/>
          </g>
          <g transform="translate(-303.5 -16415)">
            <line id="Line_179-3" data-name="Line 179" x2="19" transform="translate(303.5 16435.5)" fill="none" stroke="#252d58" stroke-width="1"/>
          </g>
          <g transform="translate(-303.5 -16405)">
            <line id="Line_179-4" data-name="Line 179" x2="19" transform="translate(303.5 16435.5)" fill="none" stroke="#252d58" stroke-width="1"/>
          </g>
          <g transform="translate(-303.5 -16395)">
            <line id="Line_179-5" data-name="Line 179" x2="19" transform="translate(303.5 16435.5)" fill="none" stroke="#252d58" stroke-width="1"/>
          </g>
          <g transform="translate(-303.5 -16385)">
            <line id="Line_179-6" data-name="Line 179" x2="19" transform="translate(303.5 16435.5)" fill="none" stroke="#252d58" stroke-width="1"/>
          </g>
          <g transform="translate(-303.5 -16375)">
            <line id="Line_179-7" data-name="Line 179" x2="19" transform="translate(303.5 16435.5)" fill="none" stroke="#252d58" stroke-width="1"/>
          </g>
          <g transform="translate(-303.5 -16365)">
            <line id="Line_179-8" data-name="Line 179" x2="19" transform="translate(303.5 16435.5)" fill="none" stroke="#252d58" stroke-width="1"/>
          </g>
        </g>
      </g>
    </g>
  </g>
</svg>
