<svg xmlns="http://www.w3.org/2000/svg" width="1919.725" height="392.126" viewBox="0 0 1919.725 392.126">
  <g id="Group_484" data-name="Group 484" transform="translate(3 -15297.263)">
    <path id="Path_32" data-name="Path 32" d="M-4111.275,12611.063s-922.377-363.472-1919.3-348.131c-1.292,366.276.785,391.653.785,391.653l1918.516-3.162Z" transform="translate(6028 3034.804)" fill="#f5d26a"/>
    <ellipse id="Ellipse_601" data-name="Ellipse 601" cx="15" cy="9.5" rx="15" ry="9.5" transform="translate(12 15569)" fill="#ea913f"/>
    <ellipse id="Ellipse_624" data-name="Ellipse 624" cx="15" cy="9.5" rx="15" ry="9.5" transform="translate(150 15358)" fill="#ea913f"/>
    <ellipse id="Ellipse_602" data-name="Ellipse 602" cx="9.5" cy="6" rx="9.5" ry="6" transform="translate(30 15593)" fill="#ea913f"/>
    <ellipse id="Ellipse_623" data-name="Ellipse 623" cx="9.5" cy="6" rx="9.5" ry="6" transform="translate(143 15382)" fill="#ea913f"/>
    <ellipse id="Ellipse_603" data-name="Ellipse 603" cx="9.5" cy="6" rx="9.5" ry="6" transform="translate(67 15551)" fill="#ea913f"/>
    <ellipse id="Ellipse_625" data-name="Ellipse 625" cx="9.5" cy="6" rx="9.5" ry="6" transform="translate(106 15340)" fill="#ea913f"/>
    <ellipse id="Ellipse_650" data-name="Ellipse 650" cx="13.5" cy="3.5" rx="13.5" ry="3.5" transform="translate(291 15504)" fill="#ea913f"/>
    <ellipse id="Ellipse_652" data-name="Ellipse 652" cx="13.5" cy="3.5" rx="13.5" ry="3.5" transform="translate(831 15433)" fill="#ea913f"/>
    <ellipse id="Ellipse_651" data-name="Ellipse 651" cx="14.5" cy="4.5" rx="14.5" ry="4.5" transform="translate(340 15351)" fill="#ea913f"/>
  </g>
</svg>
