<svg xmlns="http://www.w3.org/2000/svg" xmlns:xlink="http://www.w3.org/1999/xlink" width="204.403" height="209.367" viewBox="0 0 204.403 209.367">
  <defs>
    <linearGradient id="linear-gradient" x1="0.274" y1="0.154" x2="0.981" y2="1.048" gradientUnits="objectBoundingBox">
      <stop offset="0" stop-color="#171543"/>
      <stop offset="0.53" stop-color="#232c5a"/>
    </linearGradient>
  </defs>
  <g id="Group_487" data-name="Group 487" transform="translate(-1802.719 -15458.744)">
    <path id="Path_1964" data-name="Path 1964" d="M0,82.2c.254.1,12.713,4.89,33.031-10.9,20.559-15.946,8.245-53.313,8.245-53.313S54.493,13.571,68.464,8.94l.159-.05C82.612,4.3,95.865,0,95.865,0s12.313,37.367,38.325,37.962c25.739.595,32.89-10.647,33.036-10.9-.127.454-8.409,28.6-50.466,20.7,0,0,27.973,26.139,49.844,17.094,0,0-16.963,23.928-58.117.608.309.531,20.177,34.734,35.047,41.267,0,0-28.836,13.29-56.673-42.579v.227l-.145-.177a.05.05,0,0,1,0,.023c10.8,61.472-20.286,67.946-20.286,67.946,8.073-14.075,3.714-53.408,3.632-54.03C50.838,121.373,22.97,112.2,22.97,112.2c22.965-5.712,29.9-43.36,29.9-43.36C23.769,100.206.363,82.48,0,82.2Z" transform="matrix(-0.978, 0.208, -0.208, -0.978, 2007.122, 15588.034)" fill="#1a5654"/>
    <path id="Path_1965" data-name="Path 1965" d="M0,82.2c.254.1,12.713,4.89,33.031-10.9,20.559-15.946,8.245-53.313,8.245-53.313S54.493,13.571,68.464,8.94l.159-.05C82.612,4.3,95.865,0,95.865,0s12.313,37.367,38.325,37.962c25.739.595,32.89-10.647,33.036-10.9-.127.454-8.409,28.6-50.466,20.7,0,0,27.973,26.139,49.844,17.094,0,0-16.963,23.928-58.117.608.309.531,20.177,34.734,35.047,41.267,0,0-28.836,13.29-56.673-42.579v.227l-.145-.177a.05.05,0,0,1,0,.023c10.8,61.472-20.286,67.946-20.286,67.946,8.073-14.075,3.714-53.408,3.632-54.03C50.838,121.373,22.97,112.2,22.97,112.2c22.965-5.712,29.9-43.36,29.9-43.36C23.769,100.206.363,82.48,0,82.2Z" transform="translate(1969.945 15668.111) rotate(-180)" fill="url(#linear-gradient)"/>
  </g>
</svg>
