<svg xmlns="http://www.w3.org/2000/svg" xmlns:xlink="http://www.w3.org/1999/xlink" width="296.177" height="254.329" viewBox="0 0 296.177 254.329">
  <defs>
    <linearGradient id="linear-gradient" x1="0.274" y1="0.846" x2="0.981" y2="-0.048" gradientUnits="objectBoundingBox">
      <stop offset="0" stop-color="#171543"/>
      <stop offset="0.53" stop-color="#232c5a"/>
    </linearGradient>
  </defs>
  <path id="Path_1961" data-name="Path 1961" d="M47.56,915.481c.394-.155,19.708-7.581,51.206,16.893,31.871,24.72,12.782,82.647,12.782,82.647s20.489,6.849,42.147,14.028l.246.077c21.686,7.109,42.232,13.781,42.232,13.781s19.089-57.928,59.413-58.85c39.9-.922,50.988,16.505,51.213,16.893-.2-.7-13.035-44.343-78.234-32.1,0,0,43.365-40.521,77.27-26.5,0,0-26.3-37.094-90.094-.943.479-.823,31.28-53.845,54.331-63.974,0,0-44.7-20.6-87.856,66.008v-.352l-.225.275a.077.077,0,0,0,0-.035C198.735,848.037,150.542,838,150.542,838c12.515,21.82,5.758,82.8,5.631,83.759-29.8-67.008-73-52.79-73-52.79,35.6,8.855,46.349,67.219,46.349,67.219C84.407,887.566,48.123,915.045,47.56,915.481Z" transform="matrix(0.978, 0.208, -0.208, 0.978, 170.312, -829.576)" fill="url(#linear-gradient)"/>
</svg>
