<svg xmlns="http://www.w3.org/2000/svg" width="842.473" height="742.221" viewBox="0 0 842.473 742.221">
  <g id="น้องโบ้-02" transform="translate(-128.85 -135.25)">
    <g id="Layer_1" transform="translate(135.709 142.63)">
      <path id="Path_1794" data-name="Path 1794" d="M968.025,668.447a144.382,144.382,0,0,1-3.941,22.369,137,137,0,0,1-4.924,15.4,138.574,138.574,0,0,1-6.795,14.964q-2.863,5.44-6.346,10.8a144.891,144.891,0,0,1-17.979,22.455,167.129,167.129,0,0,1-27.064,22.35q-6.313,4.223-13.36,8.159a.337.337,0,0,1-.076.048A232.926,232.926,0,0,1,856.684,799.3a303.941,303.941,0,0,1-36.4,11.213h-.01q-16.72,4.08-35.844,6.938s-.573.41-1.7,1.174h-.01c-5.2,3.474-22.131,14.238-48.508,25.4-1.46.62-2.93,1.231-4.447,1.851h-.01c-10.1,4.132-21.463,8.255-33.983,12.043-9.448,2.863-19.544,5.535-30.252,7.854a387.612,387.612,0,0,1-50.932,7.6c-.668.057-1.336.115-2.014.162-11.757.907-23.982,1.307-36.655,1.069-1.785-.029-3.579-.076-5.382-.134-.659-.019-1.317-.038-1.985-.067q-13.957-.515-28.582-2.109-5.726-.63-11.547-1.441h-.01q-6.7-.945-13.5-2.138-13.356-2.348-27.169-5.726-9.1-2.248-18.38-4.972c-13.866-4.085-26.425-8.007-37.839-11.757-11.547-3.808-21.93-7.444-31.3-10.917H400.2c-5.115-1.9-9.915-3.75-14.458-5.554-7.644-3.035-14.525-5.936-20.776-8.723-4.7-2.08-9.047-4.1-13.093-6.05-12.339-5.936-21.883-11.232-30.242-15.947-8.656-4.886-16.033-9.152-23.906-12.855a144.408,144.408,0,0,0-30.949-10.478c-1.517-.344-3.073-.678-4.686-1a340.219,340.219,0,0,0-33.9-4.829c-1.508-.153-3.044-.3-4.619-.439-26.807-2.433-46.666-21.415-60.618-49.729-8.446-17.1-14.725-37.6-19.077-59.922q-.888-4.495-1.661-9.085c-2.166-12.817-3.741-26.139-4.753-39.69-.1-1.3-.191-2.605-.277-3.913q-.415-6.012-.668-12.063c-.1-2.5-.2-5-.258-7.51q-.344-11.251-.181-22.493c.067-5.268.21-10.526.429-15.746.277-6.852.687-13.656,1.222-20.365q.515-6.642,1.2-13.16c.076-.744.153-1.489.239-2.233.725-6.737,1.584-13.351,2.558-19.793.1-.658.191-1.317.3-1.966,1.775-11.471,3.932-22.407,6.423-32.59q1.159-4.81,2.443-9.381a213.045,213.045,0,0,1,9.181-26.673A114.136,114.136,0,0,1,169,406.038s.019-1.737.372-4.905v-.01a128.2,128.2,0,0,1,2.939-16.223c0-.01.01-.01.01-.019v-.019a172.258,172.258,0,0,1,9.648-28.1,200.918,200.918,0,0,1,18.876-33.487q3.321-4.8,7.129-9.7a241.359,241.359,0,0,1,24.917-27.3v-.01c.382-.363.763-.725,1.145-1.078a.009.009,0,0,0,.01-.01,280.455,280.455,0,0,1,22.694-19,1.308,1.308,0,0,1,.2-.143c.019-.01.029-.029.038-.038h.01q7.229-5.425,15.25-10.755,11.752-7.787,25.318-15.231h.01c1.279-.706,2.567-1.412,3.875-2.1q13.084-6.971,27.923-13.5,4.724-2.076,9.648-4.1,15.761-6.5,33.516-12.4c.3-.1.592-.2.887-.3a99.864,99.864,0,0,1,20.346-23.009,135.68,135.68,0,0,1,16.2-11.729,177.581,177.581,0,0,1,30.777-15.04,225.37,225.37,0,0,1,41.78-11.28q2.534-.444,5.1-.821a245.4,245.4,0,0,1,31.034-2.682h.01q9.3-.229,18.638.267a228.257,228.257,0,0,1,28.505,3.292q4.838.859,9.61,1.956a200.011,200.011,0,0,1,22.1,6.365,174.238,174.238,0,0,1,30.529,14.124,150.689,150.689,0,0,1,26.282,19.506,141.032,141.032,0,0,1,11.481,12.005c.124.143.258.3.382.449a143.132,143.132,0,0,0,18.161,25.767,113.727,113.727,0,0,0,13.093,12.559c.01,0,.01.01.019.01a98.753,98.753,0,0,0,11.71,8.226,90.361,90.361,0,0,0,13.7,6.709,86.86,86.86,0,0,0,9.9,3.178,95.914,95.914,0,0,0,36.331,1.975,38.033,38.033,0,0,1,4.466-.286h.01c10.984-.115,23.514,4.17,36.445,11.748a161.464,161.464,0,0,1,22.15,15.823,223.174,223.174,0,0,1,22.636,22.083A252.017,252.017,0,0,1,873.9,332.966l.916,1.317c3.817,5.564,7.434,11.29,10.774,17.149,2.672,4.648,5.163,9.381,7.472,14.162v.01c2.376,4.953,4.562,9.944,6.5,14.983a173.49,173.49,0,0,1,5.678,17.254v.01c1,3.7,1.861,7.4,2.548,11.08a115.141,115.141,0,0,1,1.928,30.491c-.1,1.431-.248,2.863-.429,4.275a86.418,86.418,0,0,1-1.47,8.618,221,221,0,0,0-4.829,31.2A161.272,161.272,0,0,0,902.616,503a120.233,120.233,0,0,0,3.8,25.585c.1.4.21.8.324,1.193a97.246,97.246,0,0,0,5.382,14.744A99.381,99.381,0,0,0,930.911,571.9a142.642,142.642,0,0,0,12.2,11.309c1.937,1.613,3.855,3.149,5.735,4.619a28.3,28.3,0,0,1,6.174,7.434,66.16,66.16,0,0,1,4.676,9.324q.873,2.061,1.661,4.323l.01.01a119.713,119.713,0,0,1,5.01,18.972,144.506,144.506,0,0,1,2.042,16.7v.01A150.946,150.946,0,0,1,968.025,668.447Z" transform="translate(-136.037 -142.983)" fill="none" stroke="#242b5f" stroke-miterlimit="10" stroke-width="0.85"/>
      <g id="Group_291" data-name="Group 291" transform="translate(230.032 553.993)">
        <ellipse id="Ellipse_439" data-name="Ellipse 439" cx="19.01" cy="41.933" rx="19.01" ry="41.933" transform="translate(12.382 34.636) rotate(-65.649)" fill="#f78c25"/>
        <path id="Path_1816" data-name="Path 1816" d="M397.178,744.7l-20.1,2.977,9.61-10.373.534-12.034,13.99,12.473Z" transform="translate(-377.08 -723.576)" fill="#f78c25"/>
        <ellipse id="Ellipse_440" data-name="Ellipse 440" cx="6.394" cy="6.852" rx="6.394" ry="6.852" transform="translate(70.077 48.143) rotate(-65.649)" fill="#fff"/>
        <ellipse id="Ellipse_441" data-name="Ellipse 441" cx="5.115" cy="5.478" rx="5.115" ry="5.478" transform="translate(71.856 47.545) rotate(-65.649)" fill="#f78c25"/>
        <path id="Path_1817" data-name="Path 1817" d="M432.43,777.258l.057-7.3,7.759-6.308-.382-9.992,8.78-5.85-.41-5.058" transform="translate(-379.608 -724.374)" fill="none" stroke="#fbd1db" stroke-miterlimit="10" stroke-width="1.469"/>
        <path id="Path_1818" data-name="Path 1818" d="M420.7,771.4l.048-6.738,7.759-6.308-.391-9.992,8.789-5.841-.382-4.542" transform="translate(-379.073 -724.156)" fill="none" stroke="#fbd1db" stroke-miterlimit="10" stroke-width="1.469"/>
        <path id="Path_1819" data-name="Path 1819" d="M408.98,763.173l.019-3.712,7.768-6.308-.391-9.992,8.78-5.84-.181-2.281" transform="translate(-378.537 -724.022)" fill="none" stroke="#fbd1db" stroke-miterlimit="10" stroke-width="1.469"/>
        <path id="Path_1820" data-name="Path 1820" d="M399.68,752.5l5.459-4.437-.391-10,5.43-3.607v-.01" transform="translate(-378.112 -723.994)" fill="none" stroke="#fbd1db" stroke-miterlimit="10" stroke-width="1.469"/>
      </g>
      <g id="Group_292" data-name="Group 292" transform="translate(615.835 490.885)">
        <ellipse id="Ellipse_442" data-name="Ellipse 442" cx="8.923" cy="19.688" rx="8.923" ry="19.688" transform="translate(5.79 16.257) rotate(-65.649)" fill="#f78c25"/>
        <path id="Path_1821" data-name="Path 1821" d="M790.779,667.313l-9.429,1.393,4.5-4.877.258-5.65,6.566,5.859Z" transform="translate(-781.35 -657.403)" fill="#f78c25"/>
        <ellipse id="Ellipse_443" data-name="Ellipse 443" cx="2.997" cy="3.216" rx="2.997" ry="3.216" transform="translate(32.882 22.608) rotate(-65.649)" fill="#fff"/>
        <ellipse id="Ellipse_444" data-name="Ellipse 444" cx="2.405" cy="2.577" rx="2.405" ry="2.577" transform="translate(33.709 22.332) rotate(-65.649)" fill="#f78c25"/>
        <path id="Path_1822" data-name="Path 1822" d="M807.34,682.594l.019-3.426L811,676.21l-.181-4.7,4.123-2.748-.191-2.376" transform="translate(-782.537 -657.778)" fill="none" stroke="#fbd1db" stroke-miterlimit="10" stroke-width="0.69"/>
        <path id="Path_1823" data-name="Path 1823" d="M801.83,679.839l.019-3.159,3.646-2.958-.181-4.7,4.123-2.739-.181-2.138" transform="translate(-782.286 -657.675)" fill="none" stroke="#fbd1db" stroke-miterlimit="10" stroke-width="0.69"/>
        <path id="Path_1824" data-name="Path 1824" d="M796.32,675.987l.019-1.746,3.645-2.968-.181-4.686,4.123-2.748-.086-1.069" transform="translate(-782.034 -657.612)" fill="none" stroke="#fbd1db" stroke-miterlimit="10" stroke-width="0.69"/>
        <path id="Path_1825" data-name="Path 1825" d="M791.96,670.964l2.558-2.08-.181-4.7,2.548-1.689v-.01" transform="translate(-781.835 -657.6)" fill="none" stroke="#fbd1db" stroke-miterlimit="10" stroke-width="0.69"/>
      </g>
      <g id="Group_293" data-name="Group 293" transform="translate(625.731 547.274)">
        <ellipse id="Ellipse_445" data-name="Ellipse 445" cx="24.927" cy="11.299" rx="24.927" ry="11.299" transform="translate(3.383 33.153) rotate(-41.684)" fill="#ed2b4c"/>
        <path id="Path_1826" data-name="Path 1826" d="M804.68,760.934l-3.235,11.633-3.321-7.72-6.4-3.2,10.154-4.6Z" transform="translate(-791.72 -718.309)" fill="#ed2b4c"/>
        <ellipse id="Ellipse_446" data-name="Ellipse 446" cx="4.075" cy="3.798" rx="4.075" ry="3.798" transform="translate(34.629 16.273) rotate(-41.684)" fill="#fff"/>
        <ellipse id="Ellipse_447" data-name="Ellipse 447" cx="3.254" cy="3.044" rx="3.254" ry="3.044" transform="translate(35.743 16.29) rotate(-41.684)" fill="#ed2b4c"/>
        <path id="Path_1827" data-name="Path 1827" d="M830.946,749.711l-3.951-1.794-1.555-5.735-5.526-2.2-1.05-6.184-2.844-.992" transform="translate(-792.83 -717.201)" fill="none" stroke="#242b5f" stroke-miterlimit="10" stroke-width="0.65"/>
        <path id="Path_1828" data-name="Path 1828" d="M824.934,754.672l-3.655-1.651-1.546-5.735-5.526-2.2-1.05-6.184L810.6,738" transform="translate(-792.583 -717.439)" fill="none" stroke="#242b5f" stroke-miterlimit="10" stroke-width="0.65"/>
        <path id="Path_1829" data-name="Path 1829" d="M817.633,759.049l-2.014-.907-1.546-5.745-5.526-2.2-1.059-6.184-1.279-.449" transform="translate(-792.382 -717.693)" fill="none" stroke="#242b5f" stroke-miterlimit="10" stroke-width="0.65"/>
        <path id="Path_1830" data-name="Path 1830" d="M809.522,761.668l-1.1-4.037-5.516-2.2-.649-3.817-.01-.01" transform="translate(-792.201 -718.06)" fill="none" stroke="#242b5f" stroke-miterlimit="10" stroke-width="0.65"/>
      </g>
      <g id="Group_294" data-name="Group 294" transform="translate(515.831 275.791)">
        <ellipse id="Ellipse_448" data-name="Ellipse 448" cx="23.161" cy="10.498" rx="23.161" ry="10.498" transform="matrix(0.995, -0.1, 0.1, 0.995, 8.148, 4.642)" fill="#ed2b4c"/>
        <path id="Path_1831" data-name="Path 1831" d="M686.695,449.438l-8.78,7,1.718-7.625-3.073-5.9,10.144,2.08Z" transform="translate(-676.56 -432.476)" fill="#ed2b4c"/>
        <ellipse id="Ellipse_449" data-name="Ellipse 449" cx="3.779" cy="3.531" rx="3.779" ry="3.531" transform="matrix(0.995, -0.1, 0.1, 0.995, 40.871, 8.972)" fill="#fff"/>
        <ellipse id="Ellipse_450" data-name="Ellipse 450" cx="3.025" cy="2.825" rx="3.025" ry="2.825" transform="matrix(0.995, -0.1, 0.1, 0.995, 41.692, 9.599)" fill="#ed2b4c"/>
        <path id="Path_1832" data-name="Path 1832" d="M712.647,455.161l-1.994-3.512,1.966-5.163-2.958-4.667,2.577-5.23-1.594-2.3" transform="translate(-678.072 -432.082)" fill="none" stroke="#242b5f" stroke-miterlimit="10" stroke-width="0.604"/>
        <path id="Path_1833" data-name="Path 1833" d="M705.414,455.606l-1.851-3.226,1.966-5.163-2.949-4.676,2.577-5.22-1.441-2.071" transform="translate(-677.749 -432.126)" fill="none" stroke="#242b5f" stroke-miterlimit="10" stroke-width="0.604"/>
        <path id="Path_1834" data-name="Path 1834" d="M697.5,454.924l-1.021-1.785,1.966-5.163-2.958-4.667,2.577-5.23-.716-1.04" transform="translate(-677.425 -432.208)" fill="none" stroke="#242b5f" stroke-miterlimit="10" stroke-width="0.604"/>
        <path id="Path_1835" data-name="Path 1835" d="M689.985,452.468l1.374-3.636-2.949-4.667L690,440.94v-.01" transform="translate(-677.101 -432.385)" fill="none" stroke="#242b5f" stroke-miterlimit="10" stroke-width="0.604"/>
      </g>
      <g id="Group_295" data-name="Group 295" transform="translate(150.28 330.932)">
        <ellipse id="Ellipse_451" data-name="Ellipse 451" cx="21.673" cy="9.82" rx="21.673" ry="9.82" transform="matrix(0.995, -0.1, 0.1, 0.995, 7.618, 4.343)" fill="#ed2b4c"/>
        <path id="Path_1836" data-name="Path 1836" d="M303,506.078l-8.207,6.537,1.6-7.129-2.882-5.516,9.5,1.947Z" transform="translate(-293.51 -490.223)" fill="#ed2b4c"/>
        <ellipse id="Ellipse_452" data-name="Ellipse 452" cx="3.541" cy="3.302" rx="3.541" ry="3.302" transform="matrix(0.995, -0.1, 0.1, 0.995, 38.222, 8.401)" fill="#fff"/>
        <ellipse id="Ellipse_453" data-name="Ellipse 453" cx="2.834" cy="2.643" rx="2.834" ry="2.643" transform="matrix(0.995, -0.1, 0.1, 0.995, 38.991, 8.986)" fill="#ed2b4c"/>
        <path id="Path_1837" data-name="Path 1837" d="M327.276,511.426l-1.87-3.273,1.842-4.838-2.768-4.361,2.414-4.9-1.5-2.147" transform="translate(-294.925 -489.855)" fill="none" stroke="#242b5f" stroke-miterlimit="10" stroke-width="0.565"/>
        <path id="Path_1838" data-name="Path 1838" d="M320.5,511.849l-1.718-3.025,1.832-4.829-2.768-4.371,2.414-4.886-1.346-1.928" transform="translate(-294.622 -489.896)" fill="none" stroke="#242b5f" stroke-miterlimit="10" stroke-width="0.565"/>
        <path id="Path_1839" data-name="Path 1839" d="M313.11,511.209l-.954-1.67,1.832-4.829-2.758-4.371,2.4-4.886-.668-.973" transform="translate(-294.319 -489.972)" fill="none" stroke="#242b5f" stroke-miterlimit="10" stroke-width="0.565"/>
        <path id="Path_1840" data-name="Path 1840" d="M306.07,508.913l1.3-3.4-2.767-4.371,1.489-3.025h0" transform="translate(-294.017 -490.139)" fill="none" stroke="#242b5f" stroke-miterlimit="10" stroke-width="0.565"/>
      </g>
      <g id="Group_296" data-name="Group 296" transform="translate(168.097 526.79)">
        <ellipse id="Ellipse_454" data-name="Ellipse 454" cx="11.299" cy="24.927" rx="11.299" ry="24.927" transform="matrix(0.808, -0.589, 0.589, 0.808, 3.351, 17.691)" fill="#ed2b4c"/>
        <path id="Path_1841" data-name="Path 1841" d="M323.441,707.959,312.18,703.6l8.007-2.548L324,694.99l3.569,10.555Z" transform="translate(-312.18 -694.99)" fill="#ed2b4c"/>
        <ellipse id="Ellipse_455" data-name="Ellipse 455" cx="3.798" cy="4.075" rx="3.798" ry="4.075" transform="matrix(0.808, -0.589, 0.589, 0.808, 29.221, 41.608)" fill="#fff"/>
        <ellipse id="Ellipse_456" data-name="Ellipse 456" cx="3.044" cy="3.254" rx="3.044" ry="3.254" transform="matrix(0.808, -0.589, 0.589, 0.808, 30.313, 41.827)" fill="#ed2b4c"/>
        <path id="Path_1842" data-name="Path 1842" d="M331.95,735.218l2.166-3.76,5.869-.983,2.729-5.277,6.26-.448,1.269-2.729" transform="translate(-313.083 -696.225)" fill="none" stroke="#242b5f" stroke-miterlimit="10" stroke-width="0.65"/>
        <path id="Path_1843" data-name="Path 1843" d="M327.62,728.745l1.995-3.464,5.86-.983,2.739-5.287,6.251-.439,1.145-2.462" transform="translate(-312.885 -695.955)" fill="none" stroke="#242b5f" stroke-miterlimit="10" stroke-width="0.65"/>
        <path id="Path_1844" data-name="Path 1844" d="M324.04,721.058l1.107-1.918,5.859-.983,2.739-5.277,6.251-.449.573-1.231" transform="translate(-312.722 -695.731)" fill="none" stroke="#242b5f" stroke-miterlimit="10" stroke-width="0.65"/>
        <path id="Path_1845" data-name="Path 1845" d="M322.51,712.731l4.123-.7,2.739-5.277,3.855-.277h.01" transform="translate(-312.652 -695.515)" fill="none" stroke="#242b5f" stroke-miterlimit="10" stroke-width="0.65"/>
      </g>
      <g id="Group_297" data-name="Group 297" transform="translate(89.881 272.169)">
        <ellipse id="Ellipse_457" data-name="Ellipse 457" cx="11.299" cy="24.927" rx="11.299" ry="24.927" transform="matrix(0.808, -0.589, 0.589, 0.808, 3.345, 17.694)" fill="#ed2b4c"/>
        <path id="Path_1846" data-name="Path 1846" d="M241.481,441.149l-11.261-4.361,8.016-2.548,3.808-6.06,3.569,10.555Z" transform="translate(-230.22 -428.18)" fill="#ed2b4c"/>
        <ellipse id="Ellipse_458" data-name="Ellipse 458" cx="3.798" cy="4.075" rx="3.798" ry="4.075" transform="matrix(0.808, -0.589, 0.589, 0.808, 29.214, 41.611)" fill="#fff"/>
        <ellipse id="Ellipse_459" data-name="Ellipse 459" cx="3.044" cy="3.254" rx="3.044" ry="3.254" transform="matrix(0.808, -0.589, 0.589, 0.808, 30.307, 41.83)" fill="#ed2b4c"/>
        <path id="Path_1847" data-name="Path 1847" d="M249.99,468.408l2.166-3.76,5.869-.983,2.729-5.277,6.26-.449,1.269-2.739" transform="translate(-231.123 -429.414)" fill="none" stroke="#242b5f" stroke-miterlimit="10" stroke-width="0.65"/>
        <path id="Path_1848" data-name="Path 1848" d="M245.66,461.935l1.995-3.464,5.869-.983,2.729-5.287,6.26-.439,1.136-2.462" transform="translate(-230.925 -429.145)" fill="none" stroke="#242b5f" stroke-miterlimit="10" stroke-width="0.65"/>
        <path id="Path_1849" data-name="Path 1849" d="M242.08,454.248l1.107-1.918,5.86-.983,2.739-5.277,6.251-.449.582-1.231" transform="translate(-230.762 -428.92)" fill="none" stroke="#242b5f" stroke-miterlimit="10" stroke-width="0.65"/>
        <path id="Path_1850" data-name="Path 1850" d="M240.55,445.92l4.123-.7,2.739-5.287,3.865-.267v-.01" transform="translate(-230.692 -428.704)" fill="none" stroke="#242b5f" stroke-miterlimit="10" stroke-width="0.65"/>
      </g>
      <g id="Group_298" data-name="Group 298" transform="translate(578.721 263.961)">
        <ellipse id="Ellipse_460" data-name="Ellipse 460" cx="8.847" cy="19.506" rx="8.847" ry="19.506" transform="translate(5.129 15.347) rotate(-58.54)" fill="#ed2b4c"/>
        <path id="Path_1851" data-name="Path 1851" d="M751.908,429.123l-9.448.22L747.5,425.1l.935-5.516,5.745,6.556Z" transform="translate(-742.46 -419.58)" fill="#ed2b4c"/>
        <ellipse id="Ellipse_461" data-name="Ellipse 461" cx="2.977" cy="3.187" rx="2.977" ry="3.187" transform="translate(30.987 24.909) rotate(-58.54)" fill="#fff"/>
        <ellipse id="Ellipse_462" data-name="Ellipse 462" cx="2.376" cy="2.548" rx="2.376" ry="2.548" transform="translate(31.846 24.73) rotate(-58.54)" fill="#ed2b4c"/>
        <path id="Path_1852" data-name="Path 1852" d="M766.28,446.2l.449-3.369,3.941-2.472.4-4.628,4.39-2.195.1-2.357" transform="translate(-743.548 -420.11)" fill="none" stroke="#242b5f" stroke-miterlimit="10" stroke-width="0.509"/>
        <path id="Path_1853" data-name="Path 1853" d="M761.21,442.815l.4-3.1,3.951-2.472.391-4.628,4.39-2.195.1-2.119" transform="translate(-743.317 -419.978)" fill="none" stroke="#242b5f" stroke-miterlimit="10" stroke-width="0.509"/>
        <path id="Path_1854" data-name="Path 1854" d="M756.28,438.343l.229-1.708,3.941-2.472.4-4.628,4.39-2.195.048-1.059" transform="translate(-743.091 -419.886)" fill="none" stroke="#242b5f" stroke-miterlimit="10" stroke-width="0.509"/>
        <path id="Path_1855" data-name="Path 1855" d="M752.63,432.86l2.777-1.727.391-4.638,2.72-1.355v-.01" transform="translate(-742.925 -419.833)" fill="none" stroke="#242b5f" stroke-miterlimit="10" stroke-width="0.509"/>
      </g>
      <g id="Group_299" data-name="Group 299" transform="translate(304.898 140.091)">
        <ellipse id="Ellipse_463" data-name="Ellipse 463" cx="8.847" cy="19.506" rx="8.847" ry="19.506" transform="translate(5.13 15.345) rotate(-58.54)" fill="#ed2b4c"/>
        <path id="Path_1856" data-name="Path 1856" d="M464.987,299.323l-9.457.22,5.039-4.247.935-5.516,5.745,6.556Z" transform="translate(-455.53 -289.78)" fill="#ed2b4c"/>
        <ellipse id="Ellipse_464" data-name="Ellipse 464" cx="2.977" cy="3.187" rx="2.977" ry="3.187" transform="translate(30.988 24.907) rotate(-58.54)" fill="#fff"/>
        <ellipse id="Ellipse_465" data-name="Ellipse 465" cx="2.376" cy="2.548" rx="2.376" ry="2.548" transform="translate(31.847 24.728) rotate(-58.54)" fill="#ed2b4c"/>
        <path id="Path_1857" data-name="Path 1857" d="M479.35,316.391l.448-3.369,3.941-2.462.4-4.638,4.39-2.185.1-2.357" transform="translate(-456.618 -290.31)" fill="none" stroke="#242b5f" stroke-miterlimit="10" stroke-width="0.509"/>
        <path id="Path_1858" data-name="Path 1858" d="M474.28,313.015l.4-3.1,3.951-2.472.4-4.628,4.39-2.195.086-2.119" transform="translate(-456.387 -290.178)" fill="none" stroke="#242b5f" stroke-miterlimit="10" stroke-width="0.509"/>
        <path id="Path_1859" data-name="Path 1859" d="M469.35,308.542l.229-1.708,3.941-2.472.4-4.628,4.39-2.195.048-1.069" transform="translate(-456.161 -290.086)" fill="none" stroke="#242b5f" stroke-miterlimit="10" stroke-width="0.509"/>
        <path id="Path_1860" data-name="Path 1860" d="M465.7,303.06l2.777-1.737.4-4.628,2.71-1.355v-.01" transform="translate(-455.995 -290.034)" fill="none" stroke="#242b5f" stroke-miterlimit="10" stroke-width="0.509"/>
      </g>
      <g id="Group_300" data-name="Group 300" transform="translate(499.503 576.422)">
        <ellipse id="Ellipse_466" data-name="Ellipse 466" cx="38.621" cy="17.502" rx="38.621" ry="17.502" transform="matrix(0.998, -0.06, 0.06, 0.998, 13.849, 4.604)" fill="#f78c25"/>
        <path id="Path_1861" data-name="Path 1861" d="M675.9,772.886l-15.1,11.051,3.369-12.587-4.724-10.03,16.758,4.161Z" transform="translate(-659.45 -747.652)" fill="#f78c25"/>
        <ellipse id="Ellipse_467" data-name="Ellipse 467" cx="6.308" cy="5.888" rx="6.308" ry="5.888" transform="matrix(0.998, -0.06, 0.06, 0.998, 68.068, 14.052)" fill="#fff"/>
        <ellipse id="Ellipse_468" data-name="Ellipse 468" cx="5.048" cy="4.714" rx="5.048" ry="4.714" transform="matrix(0.998, -0.06, 0.06, 0.998, 69.395, 15.149)" fill="#f78c25"/>
        <path id="Path_1862" data-name="Path 1862" d="M718.715,784.169l-3.092-5.974,3.626-8.465-4.609-7.978,4.657-8.532-2.51-3.951" transform="translate(-661.971 -747.101)" fill="none" stroke="#fbd1db" stroke-miterlimit="10" stroke-width="1.353"/>
        <path id="Path_1863" data-name="Path 1863" d="M706.636,784.422l-2.853-5.5,3.617-8.474-4.6-7.978,4.648-8.532-2.262-3.531" transform="translate(-661.43 -747.154)" fill="none" stroke="#fbd1db" stroke-miterlimit="10" stroke-width="1.353"/>
        <path id="Path_1864" data-name="Path 1864" d="M693.508,782.754l-1.575-3.035,3.617-8.474-4.6-7.978,4.648-8.532-1.126-1.775" transform="translate(-660.889 -747.27)" fill="none" stroke="#fbd1db" stroke-miterlimit="10" stroke-width="1.353"/>
        <path id="Path_1865" data-name="Path 1865" d="M681.161,778.151,683.7,772.2l-4.6-7.978,2.872-5.268v-.01" transform="translate(-660.348 -747.543)" fill="none" stroke="#fbd1db" stroke-miterlimit="10" stroke-width="1.353"/>
      </g>
      <g id="Group_301" data-name="Group 301" transform="translate(256.658 383.137)">
        <ellipse id="Ellipse_469" data-name="Ellipse 469" cx="14.038" cy="30.977" rx="14.038" ry="30.977" transform="matrix(0.553, -0.834, 0.834, 0.553, 7.802, 24.288)" fill="#f78c25"/>
        <path id="Path_1866" data-name="Path 1866" d="M419.982,559.805l-15-.2,8.226-6.432,1.813-8.713,8.732,10.746Z" transform="translate(-404.98 -544.46)" fill="#f78c25"/>
        <ellipse id="Ellipse_470" data-name="Ellipse 470" cx="4.724" cy="5.058" rx="4.724" ry="5.058" transform="matrix(0.553, -0.834, 0.834, 0.553, 48.289, 40.962)" fill="#fff"/>
        <ellipse id="Ellipse_471" data-name="Ellipse 471" cx="3.779" cy="4.046" rx="3.779" ry="4.046" transform="matrix(0.553, -0.834, 0.834, 0.553, 49.654, 40.733)" fill="#f78c25"/>
        <path id="Path_1867" data-name="Path 1867" d="M441.78,587.735l.9-5.316,6.413-3.684.9-7.329,7.091-3.226.3-3.741" transform="translate(-406.661 -545.373)" fill="none" stroke="#fbd1db" stroke-miterlimit="10" stroke-width="1.085"/>
        <path id="Path_1868" data-name="Path 1868" d="M433.93,582.083l.821-4.905,6.4-3.684.9-7.329,7.091-3.226.267-3.359" transform="translate(-406.302 -545.151)" fill="none" stroke="#fbd1db" stroke-miterlimit="10" stroke-width="1.085"/>
        <path id="Path_1869" data-name="Path 1869" d="M426.37,574.708l.458-2.71,6.4-3.684.9-7.329,7.1-3.226.134-1.689" transform="translate(-405.957 -544.99)" fill="none" stroke="#fbd1db" stroke-miterlimit="10" stroke-width="1.085"/>
        <path id="Path_1870" data-name="Path 1870" d="M420.91,565.789l4.5-2.6.9-7.329,4.38-1.995.01-.01" transform="translate(-405.708 -544.889)" fill="none" stroke="#fbd1db" stroke-miterlimit="10" stroke-width="1.085"/>
      </g>
      <g id="Group_302" data-name="Group 302" transform="translate(566.458 304.471)">
        <ellipse id="Ellipse_472" data-name="Ellipse 472" cx="14.334" cy="31.617" rx="14.334" ry="31.617" transform="translate(9.662 26.552) rotate(-67.852)" fill="#f78c25"/>
        <path id="Path_1871" data-name="Path 1871" d="M744.66,478.243l-15.05,2.825,6.938-8.1.048-9.076,10.908,8.99Z" transform="translate(-729.61 -462.114)" fill="#f78c25"/>
        <ellipse id="Ellipse_473" data-name="Ellipse 473" cx="4.819" cy="5.163" rx="4.819" ry="5.163" transform="translate(53.542 35.064) rotate(-67.852)" fill="#fff"/>
        <ellipse id="Ellipse_474" data-name="Ellipse 474" cx="3.855" cy="4.132" rx="3.855" ry="4.132" transform="translate(54.86 34.56) rotate(-67.852)" fill="#f78c25"/>
        <path id="Path_1872" data-name="Path 1872" d="M772.172,501.743,772,496.237l5.669-4.982-.582-7.51,6.451-4.657-.458-3.808" transform="translate(-731.547 -462.634)" fill="none" stroke="#fbd1db" stroke-miterlimit="10" stroke-width="1.107"/>
        <path id="Path_1873" data-name="Path 1873" d="M763.172,497.663,763,492.6l5.669-4.982-.582-7.52,6.451-4.657-.42-3.407" transform="translate(-731.135 -462.486)" fill="none" stroke="#fbd1db" stroke-miterlimit="10" stroke-width="1.107"/>
        <path id="Path_1874" data-name="Path 1874" d="M754.1,491.813l-.1-2.806,5.669-4.972-.582-7.52,6.451-4.657-.21-1.718" transform="translate(-730.724 -462.4)" fill="none" stroke="#fbd1db" stroke-miterlimit="10" stroke-width="1.107"/>
        <path id="Path_1875" data-name="Path 1875" d="M746.77,484.044l3.979-3.512-.582-7.51,3.979-2.882h.01" transform="translate(-730.394 -462.4)" fill="none" stroke="#fbd1db" stroke-miterlimit="10" stroke-width="1.107"/>
      </g>
    </g>
    <g id="Layer_2" transform="translate(128.85 135.25)">
      <path id="Path_1897" data-name="Path 1897" d="M143.25,490.407s36.751-28.143,83-17.254,53.738-6.948,62.928-14.954,20.785-23.705,54.282-28.038,26.1-34.308,26.53-39.843-10.459-49.338,38.23-63.443c22.35-6.232,46.38,13.017,50.732,17.636s41.694,24.44,55.513-18.867,34.317-62.68,77.748-63.338,51.705-18.657,51.705-18.657,17.979-18.2,44.061-9.247" transform="translate(-129.508 -139.666)" fill="none" stroke="#242b5f" stroke-miterlimit="10" stroke-width="0.881"/>
      <path id="Path_1898" data-name="Path 1898" d="M139.08,521.37s31-24.726,91.319-10.412,83.827-11.5,92.521-26.96,38.631-34.766,69.913-30.481,42.563-16.5,47.153-26.043,17.913-13.5,27.513-10.02a44.788,44.788,0,0,1,15.24,9.123s31.1,12.7,39.852-15.985,45.616-42.963,77.243-35.949,50.14-12.931,57.25-31,24.774-35.72,60.9-35.72,49.558-35.224,51.266-42.9" transform="translate(-129.317 -141.179)" fill="none" stroke="#242b5f" stroke-miterlimit="10" stroke-width="0.881"/>
      <path id="Path_1899" data-name="Path 1899" d="M910.313,473.112c-26.082-8.952-44.061,9.247-44.061,9.247s-8.274,18-51.705,18.657-63.92,20.022-77.748,63.338-51.171,23.5-55.513,18.867-28.381-23.877-50.732-17.636c-48.689,14.1-37.81,57.908-38.23,63.443s6.966,35.52-26.53,39.843S520.7,688.9,511.513,696.909s-16.682,25.843-62.928,14.954-83,17.254-83,17.254-29.517,35.348-70.725,26.263S219.1,783.113,219.1,783.113" transform="translate(-132.973 -150.571)" fill="none" stroke="#242b5f" stroke-miterlimit="10" stroke-width="0.881"/>
      <path id="Path_1900" data-name="Path 1900" d="M279.76,796.167c2.777-12.721,19.773-13.332,29.622-11.738,40.024,11.118,59.006-21.2,59.006-21.2s10.268-8.188,30.481-12.416c1.947-.4,3.989-.773,6.127-1.1a122.931,122.931,0,0,1,17-1.346q5.268-.072,11.032.315a163.361,163.361,0,0,1,26.673,4.132c2.376.563,4.7,1.069,6.957,1.5,55.2,10.793,77.214-13.609,85.564-28.467,4.151-7.386,13.141-15.641,24.822-21.787a82.145,82.145,0,0,1,21.549-7.787,69.756,69.756,0,0,1,23.543-.907c31.292,4.285,42.563-16.491,47.153-26.043,3.617-7.511,12.635-11.557,20.995-11.242a21.266,21.266,0,0,1,6.518,1.222,45.089,45.089,0,0,1,15.24,9.123s31.092,12.7,39.852-15.985,45.616-42.963,77.243-35.949,50.13-12.931,57.25-31a53.1,53.1,0,0,1,29.145-29.851" transform="translate(-135.744 -154.454)" fill="none" stroke="#242b5f" stroke-miterlimit="10" stroke-width="0.881"/>
      <path id="Path_1901" data-name="Path 1901" d="M136.62,553.682s32.046-24.287,92.97-7.854,91.252-17.34,106.55-25.671,36.751-34.8,96.825-29.011,71.832-18.323,88.656-31.6,48.813-40.415,102.169-35.825c26.062,2.529,49.243-.573,74.122-27.179s46.542-37.572,68.7-35.081,36.76-6.738,42.706-15.966,31.063-24.812,54.2-18.38" transform="translate(-129.205 -143.946)" fill="none" stroke="#242b5f" stroke-miterlimit="10" stroke-width="0.879"/>
      <path id="Path_1902" data-name="Path 1902" d="M136.03,586.9s32.752-25.394,95.022-8.217,93.275-18.132,108.907-26.845,37.562-36.4,98.972-30.338,73.425-19.153,90.622-33.039,49.892-42.267,104.431-37.457c26.645,2.643,50.331-.6,75.763-28.42S757.32,383.3,779.966,385.9s37.572-7.043,43.651-16.7,31.75-25.948,55.4-19.22" transform="translate(-129.178 -144.987)" fill="none" stroke="#242b5f" stroke-miterlimit="10" stroke-width="0.909"/>
      <path id="Path_1903" data-name="Path 1903" d="M137.96,626.9s33.42-26.206,96.959-8.474,95.165-18.7,111.121-27.694,38.325-37.562,100.977-31.3,74.914-19.764,92.464-34.1,50.9-43.612,106.55-38.65c27.179,2.729,51.352-.62,77.3-29.336S771.876,416.8,794.98,419.5s38.335-7.272,44.538-17.235,32.39-26.778,56.524-19.831" transform="translate(-129.266 -146.467)" fill="none" stroke="#242b5f" stroke-miterlimit="10" stroke-width="0.932"/>
      <path id="Path_1904" data-name="Path 1904" d="M142,659.875s33.745-25.881,97.894-8.369,96.09-18.476,112.2-27.351,38.7-37.094,101.959-30.92,75.639-19.525,93.361-33.678,51.4-43.078,107.59-38.173c27.446,2.7,51.848-.611,78.044-28.973s49.014-40.043,72.347-37.381,38.707-7.176,44.968-17.015,32.7-26.444,57.068-19.592" transform="translate(-129.451 -148.112)" fill="none" stroke="#242b5f" stroke-miterlimit="10" stroke-width="0.931"/>
      <path id="Path_1905" data-name="Path 1905" d="M316.32,812.594s27.389-21.835,80.926-9.018,79.208-17.206,92.349-24.793,31.244-31.082,83.789-27.465,62.241-17.6,76.6-29.517,41.637-36.235,88.294-33.506c22.8,1.584,42.944-1.661,64.025-25.347s39.728-33.707,59.11-32.065,31.912-6.718,36.884-14.868,26.511-22.274,46.857-17.235" transform="translate(-137.414 -156.376)" fill="none" stroke="#242b5f" stroke-miterlimit="10" stroke-width="0.765"/>
      <path id="Path_1906" data-name="Path 1906" d="M353.57,832.382s26.5-22.446,78.388-9.152,76.708-17.6,89.439-25.394,30.223-31.97,81.136-28.162,60.275-18.027,74.17-30.29,40.282-37.257,85.488-34.375c22.092,1.67,41.608-1.641,61.993-26.005s38.43-34.67,57.221-32.943,30.91-6.862,35.711-15.26,25.652-22.9,45.368-17.674" transform="translate(-139.115 -157.029)" fill="none" stroke="#242b5f" stroke-miterlimit="10" stroke-width="0.764"/>
      <path id="Path_1907" data-name="Path 1907" d="M385.43,847.011s25.1-21.51,75.887-11.013,74.007-18.714,86.156-26.3,28.448-30.386,78.016-28.572,58.032-18.562,71.183-30.3,38.058-35.587,82.062-34.422c21.51.8,40.368-2.882,59.473-25.958s36.341-33.143,54.644-32.18,29.823-7.329,34.251-15.212,24.259-21.9,43.565-17.75" transform="translate(-140.571 -157.602)" fill="none" stroke="#242b5f" stroke-miterlimit="10" stroke-width="0.723"/>
      <path id="Path_1908" data-name="Path 1908" d="M431.08,864.135s23.333-22.159,70.887-10.956,69.093-18.953,80.392-26.759,26.406-31.349,72.767-29.154,54.148-18.905,66.373-30.987,35.367-36.684,76.517-35.2c20.117.964,37.734-2.748,55.446-26.559s33.773-34.155,50.894-33.039,27.847-7.425,31.932-15.565,22.551-22.57,40.625-18.151" transform="translate(-142.656 -158.168)" fill="none" stroke="#242b5f" stroke-miterlimit="10" stroke-width="0.712"/>
      <path id="Path_1909" data-name="Path 1909" d="M507.43,887.665s2.052-13.208,29.03-14.086,61.878-6.012,76.536-24.555,50.121-39.719,92.731-33.191,64.941-23.658,74.437-41.8,45.7-31.817,81.127-26.215,47.42-35.968,47.42-35.968,4.142-25.786,48.861-24.583c0,0,21.176-.468,27.809-18.647" transform="translate(-146.144 -159.615)" fill="none" stroke="#242b5f" stroke-miterlimit="10" stroke-width="0.723"/>
      <path id="Path_1910" data-name="Path 1910" d="M559.31,899.084s9.992-14.821,33.678-14.162,46.113-8.866,53.68-25.127,34.126-28.925,66.7-20.308,65.075-10.1,71.011-28.219,32.027-44.557,88.3-38.373,60.6-21.339,64.006-29.994,23.238-19,41.923-10.278" transform="translate(-148.514 -162.388)" fill="none" stroke="#242b5f" stroke-miterlimit="10" stroke-width="0.723"/>
      <path id="Path_1911" data-name="Path 1911" d="M635.39,903.089s18.781-1.985,31.34-22.379,39.108-25.261,64.044-17.483,68.51-21.7,71.822-35.625S852,793.934,884.381,802.38s60.456-12.54,60.456-12.54" transform="translate(-151.989 -165.152)" fill="none" stroke="#242b5f" stroke-miterlimit="10" stroke-width="0.723"/>
      <path id="Path_1912" data-name="Path 1912" d="M814.5,849.374c1.355-2.014,2.5-3.941,3.512-5.7,7.425-12.883,30.195-23.209,59.149-9.333" transform="translate(-160.171 -166.883)" fill="none" stroke="#242b5f" stroke-miterlimit="10" stroke-width="0.723"/>
      <path id="Path_1913" data-name="Path 1913" d="M755.934,878.84a131.05,131.05,0,0,1-14.439.286c-.429-.01-.859-.019-1.3-.038-49.4-1.928-66.077,23.438-66.077,23.438" transform="translate(-153.759 -169.218)" fill="none" stroke="#242b5f" stroke-miterlimit="10" stroke-width="0.723"/>
      <path id="Path_1914" data-name="Path 1914" d="M149.98,458.311s50.569,6.413,76.575-20.356,34.67-35.081,60.408-33.716,36.884-16.567,53-44.481,34.251-44.328,72.376-43.374,74.084-10.545,79.352-33.077,22.531-41.227,72.385-38.354S628.8,211.4,628.8,211.4s10.87-16.882,38.03-7.72" transform="translate(-129.815 -138.252)" fill="none" stroke="#242b5f" stroke-miterlimit="10" stroke-width="0.723"/>
      <path id="Path_1915" data-name="Path 1915" d="M161.23,424.685s11.213-10.221,37.438-8.007,47.038-29.565,50.741-40.33,18.39-27.532,40.8-25.757,50.617-18.981,56.963-39.9,44.051-30.51,69.255-21.2,56.133-6.213,64.98-40.52,50.016-42.028,85.173-31.731,71.717-40.845,71.717-40.845" transform="translate(-130.329 -137.129)" fill="none" stroke="#242b5f" stroke-miterlimit="10" stroke-width="0.723"/>
      <path id="Path_1916" data-name="Path 1916" d="M173.68,387.214s10.326-9.3,34.48-7.291,43.317-26.9,46.723-36.7,16.93-25.051,37.572-23.438,46.609-17.273,52.459-36.312,40.568-27.771,63.777-19.3,51.7-5.65,59.836-36.865,46.055-38.24,78.435-28.878S613,161.26,613,161.26" transform="translate(-130.898 -136.438)" fill="none" stroke="#242b5f" stroke-miterlimit="10" stroke-width="0.662"/>
      <path id="Path_1917" data-name="Path 1917" d="M185.21,354.926s9.429-8.388,31.483-6.575,39.566-24.268,42.677-33.1,15.47-22.6,34.317-21.138,42.572-15.574,47.907-32.743,37.047-25.041,58.252-17.407,47.21-5.1,54.644-33.248,42.057-34.489,71.641-26.043,60.313-33.516,60.313-33.516" transform="translate(-131.425 -135.977)" fill="none" stroke="#242b5f" stroke-miterlimit="10" stroke-width="0.6"/>
      <path id="Path_1918" data-name="Path 1918" d="M211.42,313.749s35.8-6.652,52.449-30.519,34.375-28.114,53.156-27.761,25.518-13.819,37.915-23.39,32.848-11.337,49.2-8.856,46.494-16.987,55.828-45.006,67.146,3.016,85.65-11.576,22.551-20.05,22.551-20.05" transform="translate(-132.622 -135.768)" fill="none" stroke="#242b5f" stroke-miterlimit="10" stroke-width="0.6"/>
      <path id="Path_1919" data-name="Path 1919" d="M484.211,147.67s-13.465,14.544-28.515,15.393S413.238,175.2,405.184,188.9s-22.551,30.414-43.336,32.7-32.189,9.381-42.839,19.516-39.089,13.618-39.089,13.618" transform="translate(-135.751 -135.817)" fill="none" stroke="#242b5f" stroke-miterlimit="10" stroke-width="0.6"/>
      <path id="Path_1920" data-name="Path 1920" d="M146.46,683.792s67.365-18.676,107.781,0,108.353-19.382,121.1-35.128S441.287,614.3,505.236,616.57s60.847-38.335,82.587-55.541,58.061-18.762,82.587-9.963,53.919-14.038,62.708-32.6,42.076-44.748,83.923-38.421,38.8-12.282,52.258-24.182,40.883-2.424,40.883-2.424" transform="translate(-129.654 -149.622)" fill="none" stroke="#242b5f" stroke-miterlimit="10" stroke-width="0.6"/>
      <path id="Path_1921" data-name="Path 1921" d="M158.19,729.393S215.9,709.6,274.207,724.88s106.435-21.348,123.308-36.646,53.222-33.182,103.524-30.872,58.385-5.993,73.941-17.1" transform="translate(-130.19 -158.319)" fill="none" stroke="#242b5f" stroke-miterlimit="10" stroke-width="0.6"/>
      <path id="Path_1922" data-name="Path 1922" d="M705.44,621.676s21.234,8.99,35.968-6.852,37.705-44.948,65.085-49.367,41.007-25.051,52.058-36.1,39.06-35.09,70.448-29.574" transform="translate(-155.189 -151.865)" fill="none" stroke="#242b5f" stroke-miterlimit="10" stroke-width="0.6"/>
      <path id="Path_1923" data-name="Path 1923" d="M180.57,768.444s13.809-19.678,50.073-16.185c0,0,19.2,6.48,33.764-2.481s26.606-5.554,35.243-1.6,22.9.029,28.725-7.386,21.806-14.887,41.961-17.7S401.781,710.9,406.152,706.1s35.93-23.381,85.688-20.632,57.059-12.2,57.059-12.2" transform="translate(-131.213 -159.827)" fill="none" stroke="#242b5f" stroke-miterlimit="10" stroke-width="0.599"/>
      <path id="Path_1924" data-name="Path 1924" d="M699.19,646.583s36.98,12.855,57.173-14.181,27.666-36.006,75.773-45.731,53.843-21.682,59.072-35.644,28.439-14.964,39.394-10.965" transform="translate(-154.904 -153.649)" fill="none" stroke="#242b5f" stroke-miterlimit="10" stroke-width="0.6"/>
      <path id="Path_1925" data-name="Path 1925" d="M478.79,398.9s27.647,9.944,41.637-16.758,20.709-49.768,75.42-58.433,71.679-35.539,71.679-35.539,19.335-33.821,60.723-33.535" transform="translate(-144.836 -140.704)" fill="none" stroke="#242b5f" stroke-miterlimit="10" stroke-width="0.6"/>
      <path id="Path_1926" data-name="Path 1926" d="M142,514.214s21.024-18.5,58.414-12.893,60.981,6.633,75.1,0,45.9-30.109,55.446-30.681" transform="translate(-129.451 -150.571)" fill="none" stroke="#242b5f" stroke-miterlimit="10" stroke-width="0.6"/>
      <path id="Path_1927" data-name="Path 1927" d="M227.81,302.8s13.733,6.089,17.7,21.768,17.254,30.3,21.768,33.229,26.454,21.157,29.727,35.873,16.214,31.454,29.775,33.64,38.287,23.018,46.485,43.469,27.618,52.087,46.218,62.642,63.09,35.042,80.984,69.007,41.3,44.137,53.518,51.457c0,0,18.495,6.909,33.926,40.635s33.038,45.855,33.038,45.855,36.083,11.709,48.842,57.8,58.834,57.145,58.834,57.145" transform="translate(-133.371 -142.904)" fill="none" stroke="#242b5f" stroke-miterlimit="10" stroke-width="0.6"/>
      <path id="Path_1928" data-name="Path 1928" d="M210.12,323.43a32.861,32.861,0,0,1,8.36,14.868,60.318,60.318,0,0,0,7.854,17.273c5.163,8.054,11.166,14.172,13.914,15.956.382.248.9.6,1.508,1.059a116.023,116.023,0,0,1,10.431,9.047c7.491,7.253,15.861,17.121,17.788,25.767q.429,1.9,1.059,3.836c4.457,13.656,16.328,27.809,28.716,29.8,3.445.554,7.606,2.309,12.043,4.962a79.379,79.379,0,0,1,9.009,6.337,101.539,101.539,0,0,1,11.729,11.127l.01.01c.162.191.324.372.5.573a88.188,88.188,0,0,1,6.432,8.169,62.879,62.879,0,0,1,6.766,12.292,176.316,176.316,0,0,0,11.6,23.161,170.52,170.52,0,0,0,16.223,23.123c5.926,7,12.206,12.845,18.39,16.357q1.775,1,3.846,2.176c.1.067.21.124.324.191,4.027,2.281,8.808,5.029,14.009,8.217.83.506,1.661,1.012,2.51,1.536,1.231.773,2.491,1.565,3.76,2.386q3.708,2.362,7.568,5c2.491,1.689,5.01,3.474,7.53,5.325,4.9,3.6,9.8,7.491,14.515,11.643l.01.01c1.8,1.594,3.56,3.216,5.3,4.877a117.167,117.167,0,0,1,19.125,23.276c.888,1.441,1.718,2.892,2.491,4.371a116,116,0,0,0,18.857,26.54c13.227,13.809,26.473,20,34.67,24.917,0,0,.172.067.487.21a35.006,35.006,0,0,1,6.518,4.008c.935.7,1.937,1.5,3.006,2.424a78.347,78.347,0,0,1,12.177,13.513,115.393,115.393,0,0,1,9.6,16q1.074,2.161,2.138,4.476a153.621,153.621,0,0,0,18.466,30.939c8.322,10.612,14.573,14.916,14.573,14.916a46.867,46.867,0,0,1,5.974,2.615h.01a78.266,78.266,0,0,1,15.536,10.593,84.468,84.468,0,0,1,14.143,15.88,92.335,92.335,0,0,1,11.061,21.959c.763,2.166,1.47,4.409,2.119,6.747a78.291,78.291,0,0,0,4.829,12.96,76.979,76.979,0,0,0,14.172,20.413,87.354,87.354,0,0,0,17.474,13.9,93.927,93.927,0,0,0,16.529,8.007" transform="translate(-132.563 -143.846)" fill="none" stroke="#242b5f" stroke-miterlimit="10" stroke-width="0.6"/>
      <path id="Path_1929" data-name="Path 1929" d="M193.37,348.71a32.244,32.244,0,0,1,5.029,9.715q.3.916.544,1.89c2.815,11.156,10.354,21.787,16.1,28.038a34.14,34.14,0,0,0,5.659,5.2,110.362,110.362,0,0,1,15.326,13.513c5.125,5.363,10.154,11.652,12.826,17.693a24.958,24.958,0,0,1,1.584,4.667,44.721,44.721,0,0,0,2.739,8.226c.534,1.231,1.126,2.453,1.775,3.655a55.391,55.391,0,0,0,3.665,5.955,51.615,51.615,0,0,0,4.838,5.879,39.967,39.967,0,0,0,7.072,5.965,25.3,25.3,0,0,0,9.677,3.951,30.3,30.3,0,0,1,8.6,3.063,80.386,80.386,0,0,1,17.512,12.616,98.7,98.7,0,0,1,7.253,7.415c1.746,1.994,3.416,4.046,4.972,6.155.687.935,1.355,1.87,1.995,2.825a64.692,64.692,0,0,1,5.115,8.99c.382.8.725,1.6,1.05,2.4a167.04,167.04,0,0,0,8.14,17.073,189.878,189.878,0,0,0,15.05,23.438c7.215,9.515,15.193,17.693,23.028,22.14.926.525,1.909,1.078,2.958,1.67a374.969,374.969,0,0,1,34.184,21.415,184.932,184.932,0,0,1,28.973,25.194A101.364,101.364,0,0,1,453.9,638.184c1.7,3.226,3.445,6.232,5.23,9.047a108.013,108.013,0,0,0,19.153,22.846c11.3,10.164,22.083,15.336,29.135,19.563a21.714,21.714,0,0,1,3.063,1.565c5.678,3.359,18.3,12.96,29.622,36.417.41.859.83,1.746,1.241,2.643q2.376,5.211,4.819,9.744a145.939,145.939,0,0,0,12.883,20.2,89.4,89.4,0,0,0,13.847,14.763c.954.782,1.489,1.145,1.489,1.145s12.177,3.951,24.889,16.3a86.856,86.856,0,0,1,17.96,25.309,99.626,99.626,0,0,1,5.993,16.195,78.772,78.772,0,0,0,4.552,12.378,76.815,76.815,0,0,0,14.143,20.661,84.271,84.271,0,0,0,11.328,9.925c.458.344.916.668,1.374.983" transform="translate(-131.797 -145.001)" fill="none" stroke="#242b5f" stroke-miterlimit="10" stroke-width="0.6"/>
      <path id="Path_1930" data-name="Path 1930" d="M178.85,380.42c.239.716.458,1.451.649,2.214a52.339,52.339,0,0,0,3.646,9.81c5.6,11.585,14.572,21.119,18.123,23.419a94.391,94.391,0,0,1,10.507,8.742c6.06,5.7,13.055,13.351,16.834,20.785a27.039,27.039,0,0,1,2.386,6.346c2.768,12.425,12.406,26.272,23.5,31.617a23.176,23.176,0,0,0,6.279,2.023c5.363.859,12.482,4.657,19.63,10.192a97.591,97.591,0,0,1,9.8,8.684c.439.449.868.9,1.3,1.346a93.31,93.31,0,0,1,6.881,8.064,66.734,66.734,0,0,1,8.875,15.183c1.346,3.35,2.987,7,4.886,10.812a195.73,195.73,0,0,0,14.382,24.307c7.205,10.326,15.4,19.707,23.591,25.4,1.117.773,2.243,1.489,3.359,2.119,6.079,3.445,14.906,8.379,24.669,14.639a242.841,242.841,0,0,1,29.021,21.52c9.686,8.493,18.581,18.122,24.975,28.744q1.217,2.033,2.319,4.113a124.442,124.442,0,0,0,9.562,15.422c14.286,19.573,30.013,28.067,40.435,33.993h.01c1.25.706,2.424,1.384,3.512,2.033,0,0,15.212,5.678,29.555,31.884.573,1.059,1.145,2.147,1.718,3.273.9,1.737,1.775,3.569,2.653,5.478a168.158,168.158,0,0,0,10.946,20.27,120.985,120.985,0,0,0,14.42,18.647,57.073,57.073,0,0,0,7.673,6.938s9.591,3.111,20.632,12.435a85.411,85.411,0,0,1,20.985,26.673,98.273,98.273,0,0,1,7.224,18.685,77.415,77.415,0,0,0,2.481,7.491,76.36,76.36,0,0,0,11.414,20.031c.086.115.181.229.277.344" transform="translate(-131.134 -146.45)" fill="none" stroke="#242b5f" stroke-miterlimit="10" stroke-width="0.6"/>
      <path id="Path_1931" data-name="Path 1931" d="M168.08,422.71a80.478,80.478,0,0,0,5.344,7.386,45.848,45.848,0,0,0,8.57,8.57c3.283,2.128,15.794,12.358,23.629,23.438,2.93,4.151,5.211,8.427,6.1,12.435a39.818,39.818,0,0,0,1.508,5.125c3.13,8.723,9.19,17.483,16.4,23.009a26.953,26.953,0,0,0,11.872,5.506c6.575,1.059,15.765,6.5,24.431,14.153,9.161,8.083,17.722,18.638,21.968,29.107l.086.2a181.356,181.356,0,0,0,14.343,27.647c6.776,10.812,14.83,21.291,23.1,28.591a52.873,52.873,0,0,0,8.77,6.413c4.7,2.672,11.07,6.232,18.237,10.612a282.157,282.157,0,0,1,27.475,18.915c10.039,7.921,19.764,17.025,27.408,27.179a92.36,92.36,0,0,1,7.864,12.3q1.045,1.99,2.119,3.875a115.525,115.525,0,0,0,14.515,20.27c13.952,15.508,28.238,22.121,36.884,27.313,0,0,8.7,3.245,19.144,16.166a100.494,100.494,0,0,1,7.606,10.86,129.818,129.818,0,0,1,7.186,13.609,172.033,172.033,0,0,0,7.959,15.355,133.065,133.065,0,0,0,13.924,19.726c6.556,7.6,11.156,10.765,11.156,10.765s7.768,2.519,17.369,9.829a84.194,84.194,0,0,1,20.461,22.57,93.124,93.124,0,0,1,8.379,17.206c.954,2.605,1.842,5.335,2.634,8.2a78.219,78.219,0,0,0,2.834,8.408" transform="translate(-130.642 -148.382)" fill="none" stroke="#242b5f" stroke-miterlimit="10" stroke-width="0.6"/>
      <path id="Path_1932" data-name="Path 1932" d="M154.93,453.44a43.441,43.441,0,0,0,7.682,7.5,97.773,97.773,0,0,1,11.022,9.228,103.988,103.988,0,0,1,11.471,12.664c3.483,4.628,6.241,9.476,7.243,13.981.21.945.458,1.909.754,2.863a52.794,52.794,0,0,0,7.854,15.565c5.678,7.806,13.313,13.943,21.157,15.2,9.515,1.536,24.516,12.244,35.462,25.566a70.362,70.362,0,0,1,11.022,17.9c1.68,4.18,3.817,8.818,6.337,13.656,6.05,11.681,14.248,24.488,23.133,34.527,5.43,6.155,11.127,11.271,16.748,14.458,3.226,1.832,7.215,4.075,11.719,6.718a314.769,314.769,0,0,1,30.681,20.241c10.02,7.606,19.907,16.4,27.942,26.225a96.829,96.829,0,0,1,9.868,14.4q.4.716.773,1.431c1.126,2.138,2.271,4.17,3.436,6.127,2.071,3.474,4.2,6.671,6.365,9.62,1.431,1.956,2.892,3.8,4.342,5.535A104.258,104.258,0,0,0,427.293,743.3c.353.267.716.534,1.069.792a135.436,135.436,0,0,0,12.253,7.93c.41.239.811.468,1.212.7,2.8,1.6,5.325,3,7.5,4.3a17.458,17.458,0,0,1,1.823.868c.363.191.763.42,1.222.687a51.914,51.914,0,0,1,9.3,7.2A83.707,83.707,0,0,1,472.728,778.9a122.493,122.493,0,0,1,10.526,18.752q2.519,5.5,5.087,10.249a148.768,148.768,0,0,0,11.165,17.76c9.4,12.759,16.787,17.846,16.787,17.846a46.116,46.116,0,0,1,5.955,2.615h.01a79.687,79.687,0,0,1,21.033,15.813,86.033,86.033,0,0,1,10.975,14.2,91.3,91.3,0,0,1,6.251,12.015" transform="translate(-130.041 -149.785)" fill="none" stroke="#242b5f" stroke-miterlimit="10" stroke-width="0.6"/>
      <path id="Path_1933" data-name="Path 1933" d="M146.5,485.52a124.9,124.9,0,0,1,9.791,8.732,104.513,104.513,0,0,1,8.627,9.562c3.76,4.791,6.852,9.868,8.093,14.611l.172.716c2.309,10.364,9.4,21.711,18.123,28.305a26.815,26.815,0,0,0,11.652,5.335c11.729,1.88,31.817,17.741,42.334,35.224a58.026,58.026,0,0,1,4.151,8.245,184.721,184.721,0,0,0,16.968,31.731c8.026,12.091,17.5,23.285,26.912,29.479h.01c.773.515,1.556.992,2.329,1.431,7.816,4.438,20.2,11.337,33.277,20.365,10.946,7.558,22.36,16.615,31.96,26.969,2.481,2.672,4.838,5.43,7.043,8.274a95.576,95.576,0,0,1,5.764,8.293q1.174,1.875,2.224,3.789.372.658.716,1.317,1.875,3.55,3.817,6.766a116.723,116.723,0,0,0,9.553,13.57c14.945,18.275,30.815,25.528,40.148,31.12,0,0,8.322,3.111,18.447,15.326a111.685,111.685,0,0,1,15.031,24.345c.153.315.3.639.449.964,1.975,4.314,3.989,8.274,5.984,11.9,2.548,4.609,5.087,8.675,7.52,12.244,10.669,15.6,19.535,21.711,19.535,21.711a43.484,43.484,0,0,1,5.592,2.433h.01a79.8,79.8,0,0,1,23.056,17.779" transform="translate(-129.656 -151.251)" fill="none" stroke="#242b5f" stroke-miterlimit="10" stroke-width="0.6"/>
      <path id="Path_1934" data-name="Path 1934" d="M140.64,520.2a88.06,88.06,0,0,1,6.661,7.959c3.283,4.466,5.869,9.1,6.833,13.437a47.505,47.505,0,0,0,4.275,11.433c5.678,10.908,15.412,20.575,25.5,22.2,3.684.592,8.188,2.567,12.969,5.535h.01c12.807,7.959,27.532,23.047,33.506,37.934q1.045,2.62,2.338,5.459v.01a191.6,191.6,0,0,0,20.9,35.109v.01c7.224,9.476,15.174,17.626,22.98,22.064,4.352,2.472,10.125,5.707,16.634,9.639,6.47,3.913,13.675,8.522,20.957,13.771,2.214,1.594,4.447,3.254,6.661,4.972,2.128,1.651,4.247,3.35,6.337,5.106q2.419,2.033,4.781,4.151c.1.1.2.181.3.277,2.071,1.871,4.1,3.8,6.069,5.774.229.229.458.458.678.687.334.344.668.678,1,1.021.639.668,1.269,1.336,1.9,2.014l.973,1.059c1.785,1.975,3.512,4,5.153,6.069q1.99,2.505,3.8,5.106a86.744,86.744,0,0,1,5.745,9.362q2.892,5.483,5.965,10.173c16.844,25.948,36.655,34.756,47.554,41.284a20.159,20.159,0,0,1,2.7,1.365h.01c3.77,2.166,11.013,7.3,18.905,18.008v.01c1.775,2.4,3.579,5.077,5.382,8.064a131.461,131.461,0,0,1,6.928,13.179c.573,1.26,1.155,2.481,1.737,3.674a150.5,150.5,0,0,0,16.825,27.37" transform="translate(-129.389 -152.835)" fill="none" stroke="#242b5f" stroke-miterlimit="10" stroke-width="0.6"/>
      <path id="Path_1935" data-name="Path 1935" d="M136.51,569.36a53.425,53.425,0,0,0,13.141,20.527c4.619,4.428,9.906,7.587,15.288,8.455,8.808,1.422,22.322,10.7,32.962,22.636,5.745,6.442,10.65,13.656,13.523,20.833,1.479,3.693,3.331,7.749,5.468,11.977a190.182,190.182,0,0,0,18.59,29.66c7,9.028,14.649,16.739,22.159,21,7.806,4.438,20.174,11.328,33.22,20.327h.01A218.526,218.526,0,0,1,314.6,743.542a140.8,140.8,0,0,1,12.988,13.618,95.413,95.413,0,0,1,11.041,16.309q2.176,4.123,4.447,7.8a113.468,113.468,0,0,0,12.759,16.987,108.349,108.349,0,0,0,23.763,19.373h.01c4.819,2.968,9.114,5.239,12.54,7.291,0,0,4.543,1.7,11,7.51,5.487,4.934,12.368,12.855,19.02,25.232,1.012,1.89,2.023,3.875,3.016,5.974" transform="translate(-129.2 -155.081)" fill="none" stroke="#242b5f" stroke-miterlimit="10" stroke-width="0.6"/>
      <path id="Path_1936" data-name="Path 1936" d="M136.58,617.52a25.063,25.063,0,0,0,9.581,3.894c3.913.63,8.77,2.815,13.885,6.108a96.2,96.2,0,0,1,27.389,27.4,59.659,59.659,0,0,1,5.22,9.954,166.421,166.421,0,0,0,8.866,18.38c6.871,12.406,15.851,25.471,25.3,34.8a59.68,59.68,0,0,0,12.053,9.467c6.842,3.884,17.187,9.648,28.429,17.092A239.989,239.989,0,0,1,290.6,761.975h.01c9.524,8.131,18.409,17.33,25.07,27.494,1.517,2.309,2.92,4.657,4.18,7.062,1.641,3.121,3.331,6.031,5.048,8.761a107.359,107.359,0,0,0,21.73,25.223,117.44,117.44,0,0,0,15.441,10.937h.01" transform="translate(-129.203 -157.281)" fill="none" stroke="#242b5f" stroke-miterlimit="10" stroke-width="0.6"/>
      <path id="Path_1937" data-name="Path 1937" d="M138.86,648.25a89.892,89.892,0,0,1,18.227,14.487c7.167,7.281,13.465,15.88,16.891,24.411a.34.34,0,0,0,.038.086,186.794,186.794,0,0,0,18.934,34.6c8.255,11.919,17.855,22.627,27.246,27.952.487.277.983.554,1.5.849,7.129,4.037,17.388,9.849,28.391,17.225a215.653,215.653,0,0,1,29.784,23.591A126.887,126.887,0,0,1,294.128,807.6a.009.009,0,0,0,.01.01" transform="translate(-129.307 -158.684)" fill="none" stroke="#242b5f" stroke-miterlimit="10" stroke-width="0.6"/>
      <path id="Path_1938" data-name="Path 1938" d="M146.36,694.54l.286.372a67.2,67.2,0,0,1,8.894,15.221,169.6,169.6,0,0,0,9.515,19.544c6.346,11.261,14.372,22.951,22.875,31.817a62.785,62.785,0,0,0,13.828,11.28c5.573,3.159,13.465,7.568,22.264,13.112,4.953,3.121,10.183,6.594,15.469,10.4a.009.009,0,0,0,.01.01" transform="translate(-129.65 -160.799)" fill="none" stroke="#242b5f" stroke-miterlimit="10" stroke-width="0.6"/>
      <path id="Path_1939" data-name="Path 1939" d="M500.27,146.53a86.9,86.9,0,0,0,14.267,21.138,26.175,26.175,0,0,0,3.436,3.168,110.29,110.29,0,0,1,12.177,11.29v.01a123.574,123.574,0,0,1,10.039,11.91c4.266,5.821,7.759,12.005,8.99,17.674.076.344.143.7.2,1.04,1.727,10.24,7.539,21.558,15.288,29.517,4.848,4.982,10.459,8.646,16.3,9.906,4.161.9,9.2,3.416,14.477,7.091,13.943,9.686,29.574,27.4,35.4,44.338.582,1.689,1.231,3.445,1.928,5.268,5.917,15.288,15.985,34.508,27.551,49.281,6.022,7.7,12.464,14.191,18.934,18.3,6.919,4.4,17.111,10.765,28.267,18.81,6.7,4.819,13.742,10.23,20.632,16.176,1.584,1.365,3.149,2.758,4.714,4.17.42.391.849.783,1.269,1.174a180.734,180.734,0,0,1,17.178,18.075,113.1,113.1,0,0,1,15.231,23.7l.029.057q.816,1.761,1.66,3.464c.5,1,1,1.985,1.517,2.958q3.121,5.955,6.47,11.042c.181.286.363.563.553.84.048.076.1.153.153.229,1.489,2.243,3.006,4.361,4.533,6.365.21.277.41.534.62.8,1.451,1.87,2.92,3.645,4.38,5.325,1.241,1.412,2.472,2.758,3.712,4.046,12.826,13.351,25.576,20.222,33.707,25.662,0,0,4.829,2.09,11.547,8.646,6.174,6.022,13.943,15.813,21.062,31.244q1.646,3.593,3.254,7.6a182.908,182.908,0,0,0,13.418,27.2,136.745,136.745,0,0,0,10.927,15.555,70.251,70.251,0,0,0,10.2,10.526,55.623,55.623,0,0,1,7.749,3.979,87.465,87.465,0,0,1,13.57,10.078,91.741,91.741,0,0,1,10.841,11.566A96.665,96.665,0,0,1,938.2,664.8a108.725,108.725,0,0,1,7.749,22.913,86.651,86.651,0,0,0,20,39.1" transform="translate(-145.817 -135.765)" fill="none" stroke="#242b5f" stroke-miterlimit="10" stroke-width="0.676"/>
      <path id="Path_1940" data-name="Path 1940" d="M471.23,153.2c.134.534.248,1.078.363,1.641a50.846,50.846,0,0,0,1.746,6.48,70.03,70.03,0,0,0,3.941,9.381,90.877,90.877,0,0,0,10.555,16.166,39.949,39.949,0,0,0,6.327,6.451A92.107,92.107,0,0,1,502.9,201.1a124.874,124.874,0,0,1,15.489,18.285c3.569,5.316,6.327,10.822,7.186,15.861a53.585,53.585,0,0,0,4.867,14.592c5.84,11.843,15.775,22.36,26.521,24.774.067.019.134.029.2.048,13.36,2.882,35.606,22.426,46.218,42.992a62.063,62.063,0,0,1,3.655,8.446,208.812,208.812,0,0,0,22.484,44.834c7.892,11.853,16.882,22.264,25.929,28.019,5.506,3.5,13.084,8.245,21.577,14.1,4.38,3.006,9,6.318,13.7,9.887q1.66,1.26,3.321,2.558c1.68,1.317,3.369,2.653,5.058,4.037l.01.01q1.775,1.446,3.55,2.949,4.337,3.679,8.57,7.635a181.308,181.308,0,0,1,13.523,13.962q1.5,1.732,2.949,3.5c1.613,1.985,3.178,4,4.667,6.05.1.153.21.3.315.449,1,1.393,1.975,2.806,2.9,4.228a97.876,97.876,0,0,1,5.106,8.627v.01q1.088,2.033,2.042,4.094c.515,1.107,1.031,2.185,1.565,3.245a136.877,136.877,0,0,0,7.787,13.78,120.057,120.057,0,0,0,12.731,16.472c13.341,14.439,26.8,21.644,35.253,27.294a35.084,35.084,0,0,1,7.234,4.791c4.819,3.922,11.49,10.66,18.227,21.682a136.506,136.506,0,0,1,10.4,21.024q1.932,4.838,3.932,9.19v.01c2.538,5.583,5.144,10.555,7.692,14.964A140.062,140.062,0,0,0,859.657,631.3c6.365,7.892,10.822,11.3,10.822,11.3s.277.1.792.334h.01a76.31,76.31,0,0,1,16.147,10.02,94.36,94.36,0,0,1,23.3,27.246A107.141,107.141,0,0,1,922.146,710.2a86.437,86.437,0,0,0,23.247,42.553" transform="translate(-144.49 -136.07)" fill="none" stroke="#242b5f" stroke-miterlimit="10" stroke-width="0.676"/>
      <path id="Path_1941" data-name="Path 1941" d="M442.13,164.09a34.028,34.028,0,0,1,2.357,3.97,35.49,35.49,0,0,1,3.3,9.457c1.68,8.446,5.745,16.748,10.078,23.514a86.338,86.338,0,0,0,8.188,10.86,31.294,31.294,0,0,0,4.3,4.1A103.02,103.02,0,0,1,481.2,225.9a114.3,114.3,0,0,1,14.5,17.855c3.025,4.781,5.316,9.658,6.069,14.153a54.841,54.841,0,0,0,5.621,16.042c5.955,11.318,15.593,21.138,25.977,23.381a25.654,25.654,0,0,1,4.333,1.384c9.7,3.951,22.245,14.248,32.065,26.606,5.86,7.377,10.746,15.489,13.475,23.438a183.355,183.355,0,0,0,8.226,19.716c8.331,17.264,20.174,36.026,32.714,47.382h.01a56.564,56.564,0,0,0,7.463,5.755c7.73,4.915,19.554,12.3,32.237,21.711,11.671,8.646,24.058,19,34.68,30.72,8.035,8.866,15.05,18.514,19.955,28.8.153.286.286.582.42.868a135.548,135.548,0,0,0,12.11,21.109,116.4,116.4,0,0,0,17.769,20.05,153.443,153.443,0,0,0,21.2,15.613c2.29,1.451,4.39,2.777,6.251,4.018,0,0,6.613,2.863,15.145,12.425a104.278,104.278,0,0,1,14.391,21.243A148.909,148.909,0,0,1,812.138,612a190.57,190.57,0,0,0,8.455,18.418,147.739,147.739,0,0,0,13.561,21.377,87.963,87.963,0,0,0,11.175,12.339c.868.773,1.346,1.136,1.346,1.136a68.549,68.549,0,0,1,14.563,8.532,95.064,95.064,0,0,1,30.681,39.079,111,111,0,0,1,6.423,19.993,88.172,88.172,0,0,0,3.932,12.95A85.958,85.958,0,0,0,917.4,770.875c.926,1.1,1.889,2.157,2.872,3.188" transform="translate(-143.161 -136.567)" fill="none" stroke="#242b5f" stroke-miterlimit="10" stroke-width="0.676"/>
      <path id="Path_1942" data-name="Path 1942" d="M413.22,180.97a41.71,41.71,0,0,1,3.044,3.3,36.486,36.486,0,0,1,7.73,16.185,67.9,67.9,0,0,0,8.169,20.4c5.277,9.018,11.471,15.956,14.4,18.075q.215.157.487.372a129.512,129.512,0,0,1,16.414,16.157c5.85,6.814,11.433,14.782,13.7,22.1v.01a24.15,24.15,0,0,1,.8,3.283,52.339,52.339,0,0,0,4.094,12.941,54.963,54.963,0,0,0,2.5,4.9c.754,1.336,1.575,2.653,2.433,3.922.754,1.117,1.546,2.214,2.357,3.264.239.305.468.6.716.9l.01.01c.372.458.744.907,1.126,1.355.258.3.515.592.783.878a46.24,46.24,0,0,0,4.39,4.275,30.687,30.687,0,0,0,13.189,6.976c4.438.964,9.868,3.76,15.517,7.825a104.694,104.694,0,0,1,15.546,13.952c8.159,8.875,15.288,19.4,18.81,29.66.6,1.746,1.269,3.569,1.995,5.449a209.825,209.825,0,0,0,24.707,45.426c6.8,9.3,14.238,17.225,21.711,21.978.41.258.83.525,1.269.8,10.66,6.766,28.028,17.712,44.891,31.855,11.8,9.9,23.371,21.367,32.189,34.05a103.011,103.011,0,0,1,8.942,15.393,142.087,142.087,0,0,0,6.986,13.227,118.748,118.748,0,0,0,29.345,33.334c4.657,3.646,9.085,6.585,13.036,9.123,2.958,1.89,5.65,3.56,7.969,5.106,0,0,3.731,1.613,9.209,6.48A84,84,0,0,1,776,610.852a133.386,133.386,0,0,1,12.339,24.087c.973,2.453,1.975,4.81,2.968,7.071v.01c.076.172.153.324.229.487v.01c.907,2.033,1.813,3.979,2.72,5.859.887,1.8,1.766,3.541,2.653,5.2.515.973,1.031,1.928,1.536,2.853v.01c.563,1.012,1.117,1.985,1.68,2.939v.01c.782,1.365,1.575,2.672,2.357,3.932a138.207,138.207,0,0,0,7.93,11.509A91.233,91.233,0,0,0,821.2,686.788c1.078.973,1.68,1.432,1.68,1.432s7.176,2.748,16.347,9.877a94.243,94.243,0,0,1,24.03,27.952,104.624,104.624,0,0,1,9.4,22.4c.7,2.367,1.327,4.829,1.89,7.367a86.039,86.039,0,0,0,16.977,35.51" transform="translate(-141.84 -137.339)" fill="none" stroke="#242b5f" stroke-miterlimit="10" stroke-width="0.676"/>
      <path id="Path_1943" data-name="Path 1943" d="M756.29,261.5a205.99,205.99,0,0,0,20.585,35.482c6.737,9.152,14.076,16.949,21.472,21.644,8.856,5.63,23.085,14.506,37.839,25.948,6.461,5.01,13.007,10.517,19.258,16.452a157.19,157.19,0,0,1,22.4,26,99.554,99.554,0,0,1,7.8,13.7,141.907,141.907,0,0,0,9.161,16.739,118.193,118.193,0,0,0,20.06,23.829,149.834,149.834,0,0,0,21.4,15.909" transform="translate(-157.512 -141.017)" fill="none" stroke="#242b5f" stroke-miterlimit="10" stroke-width="0.676"/>
      <path id="Path_1944" data-name="Path 1944" d="M786.4,265.92c2.529,3.8,5.172,7.444,7.892,10.841,5.755,7.186,11.862,13.227,18,17.13,10.784,6.852,29.527,18.5,47.477,33.754a207.693,207.693,0,0,1,20.48,19.821c7.826,8.8,14.62,18.352,19.344,28.515.219.468.439.935.658,1.393a127.389,127.389,0,0,0,21.9,32.619,121.41,121.41,0,0,0,16.882,14.926" transform="translate(-158.888 -141.219)" fill="none" stroke="#242b5f" stroke-miterlimit="10" stroke-width="0.676"/>
      <path id="Path_1945" data-name="Path 1945" d="M809.05,264.95c5.287,6.318,10.832,11.624,16.4,15.164,12.8,8.131,36.827,23.047,57.421,42.715a163.689,163.689,0,0,1,19.5,21.968,105.578,105.578,0,0,1,10.373,17.416,141.5,141.5,0,0,0,7.205,13.58v.01a122.052,122.052,0,0,0,13.055,17.874l.01.01" transform="translate(-159.922 -141.175)" fill="none" stroke="#242b5f" stroke-miterlimit="10" stroke-width="0.676"/>
      <path id="Path_1946" data-name="Path 1946" d="M636.87,162.57a33.975,33.975,0,0,1,3.665,10.011,55.685,55.685,0,0,0,6.747,18.1,56.649,56.649,0,0,0,10.183,13.026c4.457,4.151,9.467,7.176,14.668,8.293,7.224,1.556,17.054,8,26.244,16.834a106.328,106.328,0,0,1,18.733,23.839,65.532,65.532,0,0,1,4.9,10.755,208.3,208.3,0,0,0,19.239,39.8c8.627,13.895,18.857,26.5,29.174,33.058,6.728,4.275,16.548,10.421,27.351,18.142a288.768,288.768,0,0,1,26.816,21.52A163.767,163.767,0,0,1,849.5,404.06a101.425,101.425,0,0,1,8.207,14.324,141.039,141.039,0,0,0,8.417,15.555,119.786,119.786,0,0,0,16.185,20.575,117.82,117.82,0,0,0,9.629,8.761c8.971,7.31,17.235,11.977,23.1,15.9a35.066,35.066,0,0,1,7.138,4.724h.01c1.078.878,2.252,1.89,3.493,3.054" transform="translate(-152.057 -136.498)" fill="none" stroke="#242b5f" stroke-miterlimit="10" stroke-width="0.676"/>
      <path id="Path_1947" data-name="Path 1947" d="M577.42,145.36a56.327,56.327,0,0,0,4.209,4.676,21.936,21.936,0,0,0,2.309,2.014,104.023,104.023,0,0,1,10.86,9.915c5.526,5.678,11.824,13.046,16.023,20.432a36.647,36.647,0,0,1,4.523,11.576,54.032,54.032,0,0,0,5.268,15.355,55.564,55.564,0,0,0,13.78,17.607,30.1,30.1,0,0,0,12.549,6.451c4.5.973,10.011,3.836,15.746,8a109.81,109.81,0,0,1,24.268,24.841,75.911,75.911,0,0,1,9.858,18.6A191.258,191.258,0,0,0,706.8,308.09c9.925,19.669,24.087,40.482,38.421,49.586,1.689,1.069,3.579,2.262,5.621,3.56,7.186,4.59,16.376,10.574,26.1,17.75A245.053,245.053,0,0,1,810.56,408.38c8.923,9.581,16.72,20.117,21.959,31.387.515,1.117,1.04,2.214,1.575,3.283a130.851,130.851,0,0,0,15.431,24.335,115.745,115.745,0,0,0,13.294,13.923,138.031,138.031,0,0,0,15.651,11.91c4.323,2.863,8.207,5.211,11.385,7.339,0,0,9.753,4.218,20.852,19.535a120.411,120.411,0,0,1,11.69,20.232q1.689,3.65,3.321,7.73a179.065,179.065,0,0,0,14.954,29.679,126.8,126.8,0,0,0,10.965,14.945,64.653,64.653,0,0,0,8.617,8.656,41.454,41.454,0,0,1,4.38,2.09h.01a84.631,84.631,0,0,1,16.243,11.337h.01c1.107.992,2.243,2.042,3.378,3.149l.01.01" transform="translate(-149.341 -135.712)" fill="none" stroke="#242b5f" stroke-miterlimit="10" stroke-width="0.676"/>
      <path id="Path_1948" data-name="Path 1948" d="M539.2,143.02a85.52,85.52,0,0,0,15.622,26.33,33.582,33.582,0,0,0,4.9,4.772,87.483,87.483,0,0,1,7.94,7,132.349,132.349,0,0,1,14.448,16.424c4.447,6.117,8.026,12.607,9.018,18.485.057.324.115.639.181.964a58.838,58.838,0,0,0,11.232,24.1c5.611,7.205,12.7,12.75,20.174,14.362a25.882,25.882,0,0,1,4.571,1.489h.01c11.385,4.743,26.6,18.084,36.732,33.229v.01a72.98,72.98,0,0,1,8.57,16.7,184.806,184.806,0,0,0,8.513,20.3c9.973,20.508,24.831,42.983,39.891,52.554.706.449,1.441.916,2.214,1.393,6,3.817,13.924,8.846,22.608,14.945A296.923,296.923,0,0,1,774,418.341a169.631,169.631,0,0,1,24.526,26.94,104.06,104.06,0,0,1,9.772,16.557q.973,2.09,1.975,4.085A131.659,131.659,0,0,0,822.843,486.3a120.019,120.019,0,0,0,28.124,26.769c5.64,3.922,10.7,6.909,14.668,9.562,0,0,7.444,3.226,16.739,14.258A114.579,114.579,0,0,1,899.131,564.5q1.2,2.706,2.367,5.621a187.356,187.356,0,0,0,10.049,21.367,143.639,143.639,0,0,0,12.912,19.659,90.546,90.546,0,0,0,9.4,10.354c1.384,1.288,2.176,1.89,2.176,1.89a58.236,58.236,0,0,1,9.018,4.753,92.807,92.807,0,0,1,29.822,30.471,101.871,101.871,0,0,1,9.906,21.711v.01" transform="translate(-147.595 -135.605)" fill="none" stroke="#242b5f" stroke-miterlimit="10" stroke-width="0.676"/>
      <path id="Path_1949" data-name="Path 1949" d="M238.73,292s14.735,23.591,29.04,26.32,27.981,27.513,27.981,27.513,10.078,33.716,31.407,44.509,32.456,26.826,36.064,37.419,22.36,38.058,38.049,43.841,30.032,21.949,48.518,47.849a97.979,97.979,0,0,0,45.368,34.375s29.889,27.026,44.233,52.612,31.731,50.331,39.27,51.008,54,35.071,79.228,80.984,41.713,60.9,41.713,60.9,32.6,23.476,39.3,51.514" transform="translate(-133.869 -142.411)" fill="none" stroke="#242b5f" stroke-miterlimit="10" stroke-width="0.676"/>
      <path id="Path_1950" data-name="Path 1950" d="M262.78,271.89s11.213,28.448,29.336,39.91,36.9,34.728,47.468,60.656,34.928,40.377,34.928,40.377,24.669,6.728,51.886,36.913,53.509,68,53.509,68,40.129,41.933,62.307,44.968,48.871,83.512,48.871,83.512,46.495,49.644,71.3,48.918c0,0,24.287,14.3,45.779,60.752s42.963,55.608,42.963,55.608,11.022,0,22.913,21.8" transform="translate(-134.968 -141.492)" fill="none" stroke="#242b5f" stroke-miterlimit="10" stroke-width="0.676"/>
      <path id="Path_1951" data-name="Path 1951" d="M275.08,263.09s17.2,4.209,39.662,33.229,24.307,39.709,44.815,46.275,21,11.127,21,11.127,18.313,53.824,37.486,57.116,25.919,20.88,25.919,20.88,25.595,61.639,67.155,74.427S560.5,546.933,560.5,546.933s5.955,19.21,19.831,20.413a27.117,27.117,0,0,1,20.222,12.072s12.549,57.984,53.89,95.575c0,0,27.36-1.393,46.819,26.921s31.779,55.427,53.375,74.866,31.951,28.62,36.14,46.16" transform="translate(-135.53 -141.09)" fill="none" stroke="#242b5f" stroke-miterlimit="10" stroke-width="0.6"/>
      <path id="Path_1952" data-name="Path 1952" d="M306.86,243.08s17.235,4.3,39.757,34,24.364,40.644,44.929,47.363,21.062,11.395,21.062,11.395S430.969,390.923,450.2,394.3s25.986,21.367,25.986,21.367,25.662,63.09,67.337,76.174,49.5,41.742,49.5,41.742S599,553.243,612.9,554.474a27.192,27.192,0,0,1,20.279,12.358s12.578,59.349,54.034,97.818c0,0,27.437-1.422,46.943,27.561s31.865,56.725,53.518,76.632,32.036,29.3,36.236,47.239" transform="translate(-136.982 -140.176)" fill="none" stroke="#242b5f" stroke-miterlimit="10" stroke-width="0.608"/>
      <path id="Path_1953" data-name="Path 1953" d="M344.29,225.85a44.021,44.021,0,0,1,4.915,2.367h.01a74.607,74.607,0,0,1,11.3,7.883,117.3,117.3,0,0,1,11.251,10.746,165.465,165.465,0,0,1,10.927,13.208q1.789,2.4,3.426,4.648c7.138,9.829,12.015,17.454,16.309,23.486,7.434,10.469,13.074,16.157,25.518,20.279,9.553,3.168,14.811,5.9,17.693,7.911,3.378,2.348,3.521,3.741,3.521,3.741s1.909,5.8,5.125,13.79v.01c1.069,2.643,2.281,5.516,3.617,8.5v.01c3.989,8.942,9.085,18.857,14.725,26.263,4.543,5.965,9.438,10.3,14.391,11.185a33.5,33.5,0,0,1,19.544,11.27,37.954,37.954,0,0,1,6.623,10.574,199.851,199.851,0,0,0,10.154,20.69,194.951,194.951,0,0,0,16.825,25.48,120.082,120.082,0,0,0,19.077,19.621A68.6,68.6,0,0,0,581,479.6a99.464,99.464,0,0,1,17.607,7.453c16.223,8.837,24.641,19.945,28.744,27.294a38.987,38.987,0,0,1,3.512,7.921,45.062,45.062,0,0,0,7.253,13.7c3.14,3.865,7.358,7.167,12.769,7.654a27.427,27.427,0,0,1,20.422,12.635s.382,1.842,1.241,5.1c.487,1.851,1.136,4.161,1.947,6.862v.01a242.974,242.974,0,0,0,14.477,36.722l.01.01q1.245,2.548,2.615,5.134a196.811,196.811,0,0,0,15.641,25.137,155.9,155.9,0,0,0,18.1,20.651c.124.124.258.248.391.372,0,0,18.18-.954,35.529,14.5a69.849,69.849,0,0,1,11.748,13.675c.706,1.069,1.4,2.128,2.09,3.2q3.493,5.368,6.7,10.66c2.892,4.714,5.659,9.371,8.379,13.933.172.3.353.592.525.888,2.042,3.436,4.056,6.8,6.069,10.116.878,1.431,1.746,2.834,2.624,4.237v.01c.554.887,1.107,1.765,1.661,2.643.429.678.859,1.355,1.3,2.023a.2.2,0,0,0,.038.057,190.5,190.5,0,0,0,15,20.566,119.282,119.282,0,0,0,9.515,10.011c5.125,4.781,9.62,8.971,13.561,12.826,10.8,10.545,17.388,18.542,21.129,29.193" transform="translate(-138.692 -139.389)" fill="none" stroke="#242b5f" stroke-miterlimit="10" stroke-width="0.617"/>
      <path id="Path_1954" data-name="Path 1954" d="M883.13,795.972c-4.228-6.909-10.116-13.456-18.17-21.6-3.092-3.14-6.518-6.518-10.288-10.24a128.193,128.193,0,0,1-13.4-15.7,251.374,251.374,0,0,1-14.3-22.188c-2.262-3.884-4.514-7.854-6.795-11.91q-1.274-2.248-2.558-4.543c-.143-.267-.3-.525-.448-.792-.449-.811-.907-1.622-1.374-2.443q-1.789-3.178-3.626-6.4-1.847-3.207-3.76-6.451-3.035-5.182-6.318-10.421c-.477-.763-.954-1.5-1.451-2.224a65.151,65.151,0,0,0-17.33-17.788C768.975,653.482,756,654.208,756,654.208q-2.978-2.963-5.745-6.079a169.491,169.491,0,0,1-16.72-22.283,211.492,211.492,0,0,1-11.337-20.317,251.277,251.277,0,0,1-10.879-25.757,221.8,221.8,0,0,1-8.4-28.773,27.868,27.868,0,0,0-8.57-9.009A24.582,24.582,0,0,0,683,537.962c-13.666-1.3-19.535-22.045-19.535-22.045a33.224,33.224,0,0,0-1.565-4.3c-3.063-7.129-11.337-21.692-30.882-32.609a94.844,94.844,0,0,0-16.176-7.129c-10.44-3.521-19.859-10.488-28.1-18.9a149.022,149.022,0,0,1-17.9-22.694,225.35,225.35,0,0,1-20.136-38.793,31.949,31.949,0,0,0-1.823-3.97c-3.073-5.764-10.316-16.042-23.705-18.571a10.943,10.943,0,0,1-1.307-.334c-6.089-1.947-12.053-9.324-17.3-18.323-6.47-11.1-11.853-24.66-15.078-33.554q-.716-1.99-1.288-3.636c-.067-.2-.134-.391-.2-.582-.773-2.224-1.3-3.865-1.555-4.676-.124-.382-.191-.582-.191-.582s-.1-.954-1.918-2.624a24.865,24.865,0,0,0-4.323-3.073,53.749,53.749,0,0,0-5.211-2.663c-1.46-.668-3.1-1.365-4.953-2.08q-1.975-.773-4.285-1.584c-.239-.086-.468-.162-.7-.248-.735-.267-1.441-.534-2.119-.821-.267-.1-.534-.219-.792-.324a44.466,44.466,0,0,1-4.724-2.348c-.248-.143-.5-.286-.735-.439-7.892-4.791-12.549-11.566-19.621-22.57-3.521-5.459-7.625-11.958-13.036-19.773-.773-1.117-1.575-2.271-2.4-3.445a153.137,153.137,0,0,0-16.557-19.964,87.043,87.043,0,0,0-13.761-11.442h-.01a45.176,45.176,0,0,0-6.26-3.512,17.31,17.31,0,0,0-2.472-.964" transform="translate(-140.432 -138.637)" fill="none" stroke="#242b5f" stroke-miterlimit="10" stroke-width="0.619"/>
      <g id="Group_306" data-name="Group 306" transform="translate(474.44 15.174)">
        <circle id="Ellipse_477" data-name="Ellipse 477" cx="7.415" cy="7.415" r="7.415" fill="#f36e4f"/>
        <circle id="Ellipse_478" data-name="Ellipse 478" cx="4.447" cy="4.447" r="4.447" transform="translate(2.968 2.968)" fill="#242b5f"/>
      </g>
      <g id="Group_307" data-name="Group 307" transform="translate(529.599 57.603)">
        <circle id="Ellipse_479" data-name="Ellipse 479" cx="7.415" cy="7.415" r="7.415" fill="#f36e4f"/>
        <circle id="Ellipse_480" data-name="Ellipse 480" cx="4.447" cy="4.447" r="4.447" transform="translate(2.968 2.968)" fill="#242b5f"/>
      </g>
      <g id="Group_308" data-name="Group 308" transform="translate(578.165 106.512)">
        <circle id="Ellipse_481" data-name="Ellipse 481" cx="7.415" cy="7.415" r="7.415" fill="#f36e4f"/>
        <circle id="Ellipse_482" data-name="Ellipse 482" cx="4.447" cy="4.447" r="4.447" transform="translate(2.968 2.968)" fill="#242b5f"/>
      </g>
      <g id="Group_309" data-name="Group 309" transform="translate(726.886 174.249)">
        <circle id="Ellipse_483" data-name="Ellipse 483" cx="7.415" cy="7.415" r="7.415" fill="#f36e4f"/>
        <circle id="Ellipse_484" data-name="Ellipse 484" cx="4.447" cy="4.447" r="4.447" transform="translate(2.968 2.968)" fill="#242b5f"/>
      </g>
      <g id="Group_310" data-name="Group 310" transform="translate(679.924 130.379)">
        <circle id="Ellipse_485" data-name="Ellipse 485" cx="7.415" cy="7.415" r="7.415" fill="#f36e4f"/>
        <circle id="Ellipse_486" data-name="Ellipse 486" cx="4.447" cy="4.447" r="4.447" transform="translate(2.968 2.968)" fill="#242b5f"/>
      </g>
      <g id="Group_311" data-name="Group 311" transform="translate(384.19)">
        <circle id="Ellipse_487" data-name="Ellipse 487" cx="7.415" cy="7.415" r="7.415" fill="#f36e4f"/>
        <circle id="Ellipse_488" data-name="Ellipse 488" cx="4.447" cy="4.447" r="4.447" transform="translate(2.968 2.968)" fill="#242b5f"/>
      </g>
      <g id="Group_312" data-name="Group 312" transform="translate(319.325 9.715)">
        <circle id="Ellipse_489" data-name="Ellipse 489" cx="7.415" cy="7.415" r="7.415" fill="#f36e4f"/>
        <circle id="Ellipse_490" data-name="Ellipse 490" cx="4.447" cy="4.447" r="4.447" transform="translate(2.968 2.968)" fill="#242b5f"/>
      </g>
      <g id="Group_313" data-name="Group 313" transform="translate(234.533 63.338)">
        <circle id="Ellipse_491" data-name="Ellipse 491" cx="7.415" cy="7.415" r="7.415" fill="#f36e4f"/>
        <circle id="Ellipse_492" data-name="Ellipse 492" cx="4.447" cy="4.447" r="4.447" transform="translate(2.968 2.968)" fill="#242b5f"/>
      </g>
      <g id="Group_314" data-name="Group 314" transform="translate(273.374 29.861)">
        <circle id="Ellipse_493" data-name="Ellipse 493" cx="7.415" cy="7.415" r="7.415" fill="#f36e4f"/>
        <circle id="Ellipse_494" data-name="Ellipse 494" cx="4.447" cy="4.447" r="4.447" transform="translate(2.968 2.968)" fill="#242b5f"/>
      </g>
      <g id="Group_315" data-name="Group 315" transform="translate(136.763 111.493)">
        <circle id="Ellipse_495" data-name="Ellipse 495" cx="7.415" cy="7.415" r="7.415" fill="#f36e4f"/>
        <circle id="Ellipse_496" data-name="Ellipse 496" cx="4.447" cy="4.447" r="4.447" transform="translate(2.968 2.968)" fill="#242b5f"/>
      </g>
      <g id="Group_316" data-name="Group 316" transform="translate(183.325 84.858)">
        <circle id="Ellipse_497" data-name="Ellipse 497" cx="7.415" cy="7.415" r="7.415" fill="#f36e4f"/>
        <circle id="Ellipse_498" data-name="Ellipse 498" cx="4.447" cy="4.447" r="4.447" transform="translate(2.968 2.968)" fill="#242b5f"/>
      </g>
      <g id="Group_317" data-name="Group 317" transform="translate(87.024 152.481)">
        <circle id="Ellipse_499" data-name="Ellipse 499" cx="7.415" cy="7.415" r="7.415" fill="#f36e4f"/>
        <circle id="Ellipse_500" data-name="Ellipse 500" cx="4.447" cy="4.447" r="4.447" transform="translate(2.968 2.968)" fill="#242b5f"/>
      </g>
      <g id="Group_318" data-name="Group 318" transform="translate(40.301 226.555)">
        <circle id="Ellipse_501" data-name="Ellipse 501" cx="7.415" cy="7.415" r="7.415" fill="#f36e4f"/>
        <circle id="Ellipse_502" data-name="Ellipse 502" cx="4.447" cy="4.447" r="4.447" transform="translate(2.968 2.968)" fill="#242b5f"/>
      </g>
      <g id="Group_319" data-name="Group 319" transform="translate(12.75 312.644)">
        <circle id="Ellipse_503" data-name="Ellipse 503" cx="7.415" cy="7.415" r="7.415" fill="#f36e4f"/>
        <circle id="Ellipse_504" data-name="Ellipse 504" cx="4.447" cy="4.447" r="4.447" transform="translate(2.968 2.968)" fill="#242b5f"/>
      </g>
      <g id="Group_320" data-name="Group 320" transform="translate(0 402.322)">
        <circle id="Ellipse_505" data-name="Ellipse 505" cx="7.415" cy="7.415" r="7.415" fill="#f36e4f"/>
        <circle id="Ellipse_506" data-name="Ellipse 506" cx="4.447" cy="4.447" r="4.447" transform="translate(2.968 2.968)" fill="#242b5f"/>
      </g>
      <g id="Group_321" data-name="Group 321" transform="translate(5.134 504.348)">
        <circle id="Ellipse_507" data-name="Ellipse 507" cx="7.415" cy="7.415" r="7.415" fill="#f36e4f"/>
        <circle id="Ellipse_508" data-name="Ellipse 508" cx="4.447" cy="4.447" r="4.447" transform="translate(2.968 2.968)" fill="#242b5f"/>
      </g>
      <g id="Group_322" data-name="Group 322" transform="translate(40.301 601.364)">
        <circle id="Ellipse_509" data-name="Ellipse 509" cx="7.415" cy="7.415" r="7.415" transform="translate(0 0)" fill="#f36e4f"/>
        <circle id="Ellipse_510" data-name="Ellipse 510" cx="4.447" cy="4.447" r="4.447" transform="translate(2.968 2.968)" fill="#242b5f"/>
      </g>
      <g id="Group_323" data-name="Group 323" transform="translate(134.635 632.723)">
        <circle id="Ellipse_511" data-name="Ellipse 511" cx="7.415" cy="7.415" r="7.415" fill="#f36e4f"/>
        <circle id="Ellipse_512" data-name="Ellipse 512" cx="4.447" cy="4.447" r="4.447" transform="translate(2.968 2.968)" fill="#242b5f"/>
      </g>
      <g id="Group_324" data-name="Group 324" transform="translate(207.039 667.937)">
        <circle id="Ellipse_513" data-name="Ellipse 513" cx="7.415" cy="7.415" r="7.415" fill="#f36e4f"/>
        <circle id="Ellipse_514" data-name="Ellipse 514" cx="4.447" cy="4.447" r="4.447" transform="translate(2.968 2.968)" fill="#242b5f"/>
      </g>
      <g id="Group_325" data-name="Group 325" transform="translate(284.788 701.138)">
        <circle id="Ellipse_515" data-name="Ellipse 515" cx="7.415" cy="7.415" r="7.415" fill="#f36e4f"/>
        <circle id="Ellipse_516" data-name="Ellipse 516" cx="4.447" cy="4.447" r="4.447" transform="translate(2.968 2.968)" fill="#242b5f"/>
      </g>
      <g id="Group_326" data-name="Group 326" transform="translate(387.845 727.391)">
        <circle id="Ellipse_517" data-name="Ellipse 517" cx="7.415" cy="7.415" r="7.415" transform="translate(0 0)" fill="#f36e4f"/>
        <circle id="Ellipse_518" data-name="Ellipse 518" cx="4.447" cy="4.447" r="4.447" transform="translate(2.968 2.968)" fill="#242b5f"/>
      </g>
      <g id="Group_327" data-name="Group 327" transform="translate(514.54 725.454)">
        <circle id="Ellipse_519" data-name="Ellipse 519" cx="7.415" cy="7.415" r="7.415" fill="#f36e4f"/>
        <circle id="Ellipse_520" data-name="Ellipse 520" cx="4.447" cy="4.447" r="4.447" transform="translate(2.968 2.968)" fill="#242b5f"/>
      </g>
      <g id="Group_328" data-name="Group 328" transform="translate(613.026 694.792)">
        <circle id="Ellipse_521" data-name="Ellipse 521" cx="7.415" cy="7.415" r="7.415" transform="translate(0 0)" fill="#f36e4f"/>
        <circle id="Ellipse_522" data-name="Ellipse 522" cx="4.447" cy="4.447" r="4.447" transform="translate(2.968 2.968)" fill="#242b5f"/>
      </g>
      <g id="Group_329" data-name="Group 329" transform="translate(680.286 667.956)">
        <circle id="Ellipse_523" data-name="Ellipse 523" cx="7.415" cy="7.415" r="7.415" transform="translate(0 0)" fill="#f36e4f"/>
        <circle id="Ellipse_524" data-name="Ellipse 524" cx="4.447" cy="4.447" r="4.447" transform="translate(2.968 2.968)" fill="#242b5f"/>
      </g>
      <g id="Group_330" data-name="Group 330" transform="translate(746.077 644.404)">
        <circle id="Ellipse_525" data-name="Ellipse 525" cx="7.415" cy="7.415" r="7.415" fill="#f36e4f"/>
        <circle id="Ellipse_526" data-name="Ellipse 526" cx="4.447" cy="4.447" r="4.447" transform="translate(2.968 2.968)" fill="#242b5f"/>
      </g>
      <g id="Group_331" data-name="Group 331" transform="translate(822.671 562.838)">
        <circle id="Ellipse_527" data-name="Ellipse 527" cx="7.415" cy="7.415" r="7.415" fill="#f36e4f"/>
        <circle id="Ellipse_528" data-name="Ellipse 528" cx="4.447" cy="4.447" r="4.447" transform="translate(2.968 2.968)" fill="#242b5f"/>
      </g>
      <g id="Group_332" data-name="Group 332" transform="translate(827.643 474.421)">
        <circle id="Ellipse_529" data-name="Ellipse 529" cx="7.415" cy="7.415" r="7.415" fill="#f36e4f"/>
        <circle id="Ellipse_530" data-name="Ellipse 530" cx="4.447" cy="4.447" r="4.447" transform="translate(2.968 2.968)" fill="#242b5f"/>
      </g>
      <g id="Group_333" data-name="Group 333" transform="translate(800.34 434.988)">
        <circle id="Ellipse_531" data-name="Ellipse 531" cx="7.415" cy="7.415" r="7.415" fill="#f36e4f"/>
        <circle id="Ellipse_532" data-name="Ellipse 532" cx="4.447" cy="4.447" r="4.447" transform="translate(2.968 2.968)" fill="#242b5f"/>
      </g>
      <g id="Group_334" data-name="Group 334" transform="translate(768.294 378.178)">
        <circle id="Ellipse_533" data-name="Ellipse 533" cx="7.415" cy="7.415" r="7.415" fill="#f36e4f"/>
        <circle id="Ellipse_534" data-name="Ellipse 534" cx="4.447" cy="4.447" r="4.447" transform="translate(2.968 2.968)" fill="#242b5f"/>
      </g>
      <g id="Group_335" data-name="Group 335" transform="translate(771.328 307.949)">
        <circle id="Ellipse_535" data-name="Ellipse 535" cx="7.415" cy="7.415" r="7.415" fill="#f36e4f"/>
        <circle id="Ellipse_536" data-name="Ellipse 536" cx="4.447" cy="4.447" r="4.447" transform="translate(2.968 2.968)" fill="#242b5f"/>
      </g>
      <g id="Group_336" data-name="Group 336" transform="translate(765.679 245.098)">
        <circle id="Ellipse_537" data-name="Ellipse 537" cx="7.415" cy="7.415" r="7.415" fill="#f36e4f"/>
        <circle id="Ellipse_538" data-name="Ellipse 538" cx="4.447" cy="4.447" r="4.447" transform="translate(2.968 2.968)" fill="#242b5f"/>
      </g>
    </g>
  </g>
</svg>
