<svg xmlns="http://www.w3.org/2000/svg" width="397.731" height="302.019" viewBox="0 0 397.731 302.019">
  <g id="Group_477" data-name="Group 477" transform="translate(-180.413 -14563.528)">
    <path id="Path_543" data-name="Path 543" d="M390.5,235.441c-5.383,10.016-12.766,16.267,18.782,38.8s1.132,17.649,4.133,34.166,30.048,12.766,22.532,33.049S415.665,351.971,421.68,376s11.266,18.782-2.25,41.314,13.517,48.065,13.517,48.065h32.048s-34.049-17.517-22.532-40.55,9.016-37.549,2-54.081,34.049-26.533,17.017-53.581,10.016-45.565-26.033-57.081,5.251-42.315-20.282-48.565S394.559,227.881,390.5,235.441Z" transform="translate(-62.369 14400.163)" fill="#242c5b"/>
    <path id="Path_544" data-name="Path 544" d="M529.068,240.057c6.377,11.866,15.124,19.271-22.25,45.965s-1.342,20.909-4.9,40.476-35.6,15.124-26.694,39.152,24.028,12.458,16.9,40.929-13.347,22.251,2.666,48.944-16.013,56.942-16.013,56.942h-37.95s40.337-20.752,26.694-48.038-10.681-44.484-2.37-64.068S424.819,368.925,445,336.882c20.16-32.025-11.866-53.98,30.841-67.623s-6.22-50.129,24.028-57.534S524.259,231.1,529.068,240.057Z" transform="translate(-25.01 14353.082)" fill="#e6eaf5"/>
    <path id="Path_646" data-name="Path 646" d="M513.038,234.724c5.229,9.729,12.4,15.8-18.244,37.688s-1.1,17.144-4.014,33.187-29.187,12.4-21.887,32.1,19.7,10.215,13.858,33.559-10.943,18.244,2.186,40.131-13.129,46.688-13.129,46.688H440.692s33.073-17.015,21.887-39.388-8.758-36.473-1.943-52.531-33.073-25.773-16.529-52.046-9.729-44.259,25.287-55.446-5.1-41.1,19.7-47.174S509.1,227.381,513.038,234.724Z" transform="translate(-206.01 14406.468)" fill="#e6eaf5"/>
    <path id="Path_545" data-name="Path 545" d="M467.2,240.057c-6.377,11.866-15.124,19.271,22.25,45.965s1.342,20.909,4.9,40.476,35.6,15.124,26.694,39.152-24.028,12.458-16.9,40.929,13.347,22.251-2.666,48.944,16.013,56.942,16.013,56.942h37.967s-40.337-20.752-26.694-48.038,10.681-44.484,2.37-64.068,40.337-31.433,20.16-63.476c-20.16-32.025,11.866-53.98-30.841-67.623s6.22-50.129-24.028-57.534C466.152,204.32,472.007,231.1,467.2,240.057Z" transform="translate(21.913 14353.082)" fill="#cfc9e4"/>
    <path id="Path_645" data-name="Path 645" d="M465.312,230.255c-4.266,7.938-10.118,12.892,14.886,30.75s.9,13.988,3.276,27.079,23.815,10.118,17.858,26.193-16.075,8.335-11.307,27.382,8.929,14.886-1.783,32.744S498.953,412.5,498.953,412.5h25.4s-26.985-13.883-17.858-32.138,7.146-29.76,1.585-42.862,26.985-21.029,13.487-42.465,7.938-36.113-20.632-45.24,4.161-33.536-16.075-38.49S468.529,224.264,465.312,230.255Z" transform="translate(-281.087 14452.05)" fill="#cfc9e4"/>
  </g>
</svg>
