<svg xmlns="http://www.w3.org/2000/svg" width="216.823" height="303.019" viewBox="0 0 216.823 303.019">
  <g id="Group_476" data-name="Group 476" transform="translate(20.679 -14562.528)">
    <path id="Path_536" data-name="Path 536" d="M391.388,240.057c-6.377,11.866-15.124,19.271,22.251,45.965s1.342,20.909,4.9,40.476,35.6,15.124,26.694,39.152-24.028,12.458-16.9,40.929,13.347,22.251-2.666,48.944,16.013,56.942,16.013,56.942h37.967s-40.337-20.752-26.694-48.038,10.681-44.484,2.37-64.068,40.337-31.433,20.16-63.476c-20.16-32.025,11.866-53.98-30.841-67.623s6.22-50.129-24.028-57.534C390.342,204.32,396.2,231.1,391.388,240.057Z" transform="translate(-406.369 14352.082)" fill="#e6eaf5"/>
    <path id="Path_537" data-name="Path 537" d="M529.068,240.057c6.377,11.866,15.124,19.271-22.25,45.965s-1.342,20.909-4.9,40.476-35.6,15.124-26.694,39.152,24.028,12.458,16.9,40.929-13.347,22.251,2.666,48.944-16.013,56.942-16.013,56.942h-37.95s40.337-20.752,26.694-48.038-10.681-44.484-2.37-64.068S424.819,368.925,445,336.882c20.16-32.025-11.866-53.98,30.841-67.623s-6.22-50.129,24.028-57.534S524.259,231.1,529.068,240.057Z" transform="translate(-376.01 14352.082)" fill="#cfc9e4"/>
    <path id="Path_538" data-name="Path 538" d="M467.2,240.057c-6.377,11.866-15.124,19.271,22.25,45.965s1.342,20.909,4.9,40.476,35.6,15.124,26.694,39.152-24.028,12.458-16.9,40.929,13.347,22.251-2.666,48.944,16.013,56.942,16.013,56.942h37.967s-40.337-20.752-26.694-48.038,10.681-44.484,2.37-64.068,40.337-31.433,20.16-63.476c-20.16-32.025,11.866-53.98-30.841-67.623s6.22-50.129-24.028-57.534C466.152,204.32,472.007,231.1,467.2,240.057Z" transform="translate(-360.087 14353.082)" fill="#242c5b"/>
  </g>
</svg>
