<svg xmlns="http://www.w3.org/2000/svg" width="493.321" height="527.829" viewBox="0 0 493.321 527.829">
  <g id="Group_388" data-name="Group 388" transform="translate(-358.276 -338.291)">
    <g id="Layer_1" transform="translate(358.276 338.291)">
      <g id="Group_133" data-name="Group 133" transform="translate(0 0)">
        <g id="Group_120" data-name="Group 120" transform="translate(49.543)">
          <path id="Path_572" data-name="Path 572" d="M565.65,488.758a193.611,193.611,0,0,1-4.2,40.211c-10.634,50.19-40.793,93.425-82.386,121.825a204.136,204.136,0,0,1-49.12,24.59c-.358.121-.712.242-1.07.358h0a205.8,205.8,0,0,1-43.789,9.546q-1.5.16-3.005.3-9.5.872-19.25.879-9.9,0-19.571-.912c-.856-.074-1.712-.163-2.563-.256a205.511,205.511,0,0,1-44.408-9.723c-.7-.233-1.386-.47-2.079-.716a203.862,203.862,0,0,1-51.32-26.656c-38.5-27.563-66.658-68.063-77.72-114.926a193.71,193.71,0,0,1,34.829-162.414A203.639,203.639,0,0,1,312.24,297.251a209.626,209.626,0,0,1,88.164-2.81,204.642,204.642,0,0,1,52.5,17.133,202.485,202.485,0,0,1,72.436,58.875,195.337,195.337,0,0,1,30.2,56.507A192.935,192.935,0,0,1,565.65,488.758Z" transform="translate(-160 -291.05)" fill="#252a5f"/>
          <path id="Path_573" data-name="Path 573" d="M575.424,294.441,557.1,685.587q-9.5.872-19.25.879-9.9,0-19.571-.912l-31.015-388.3a209.628,209.628,0,0,1,88.164-2.81Z" transform="translate(-335.02 -291.05)" fill="#dc3f50"/>
          <path id="Path_574" data-name="Path 574" d="M784.1,394.045,687.633,699.339h0a205.811,205.811,0,0,1-43.789,9.546L711.665,335.17A202.485,202.485,0,0,1,784.1,394.045Z" transform="translate(-418.76 -314.646)" fill="#dc3f50"/>
          <path id="Path_575" data-name="Path 575" d="M875.987,645a193.612,193.612,0,0,1-4.2,40.211L789.4,807.038a204.137,204.137,0,0,1-49.12,24.59L865.878,583.2A192.936,192.936,0,0,1,875.987,645Z" transform="translate(-470.337 -447.293)" fill="#dc3f50"/>
          <path id="Path_576" data-name="Path 576" d="M386.668,708.835a205.51,205.51,0,0,1-44.407-9.723L245.97,394.4a202.487,202.487,0,0,1,72.859-59.34Z" transform="translate(-205.977 -314.587)" fill="#dc3f50"/>
          <path id="Path_577" data-name="Path 577" d="M169.616,586.37,294.2,832.8a203.862,203.862,0,0,1-51.32-26.656l-77.72-114.926a194.235,194.235,0,0,1,4.452-104.846Z" transform="translate(-160 -448.989)" fill="#dc3f50"/>
        </g>
        <g id="Group_121" data-name="Group 121" transform="translate(397.917 442.118)">
          <ellipse id="Ellipse_138" data-name="Ellipse 138" cx="13.012" cy="28.707" rx="13.012" ry="28.707" transform="translate(0 24.076) rotate(-67.692)" fill="#f68c23"/>
          <path id="Path_578" data-name="Path 578" d="M1030.666,1305.686l13.672-2.526-6.317,7.336-.074,8.243-9.876-8.192Z" transform="translate(-972.622 -1274.449)" fill="#f68c23"/>
          <ellipse id="Ellipse_139" data-name="Ellipse 139" cx="4.377" cy="4.689" rx="4.377" ry="4.689" transform="translate(11.188 18.492) rotate(-67.692)" fill="#fff"/>
          <ellipse id="Ellipse_140" data-name="Ellipse 140" cx="3.503" cy="3.749" rx="3.503" ry="3.749" transform="translate(12.39 18.04) rotate(-67.692)" fill="#f68c23"/>
          <path id="Path_579" data-name="Path 579" d="M971.924,1263.6l.14,5-5.154,4.5.507,6.824-5.866,4.215.4,3.452" transform="translate(-937.047 -1253.293)" fill="none" stroke="#fad0da" stroke-miterlimit="10" stroke-width="2.063"/>
          <path id="Path_580" data-name="Path 580" d="M988.674,1271.31l.14,4.61-5.159,4.5.507,6.824-5.861,4.215.367,3.1" transform="translate(-946.005 -1257.416)" fill="none" stroke="#fad0da" stroke-miterlimit="10" stroke-width="2.063"/>
          <path id="Path_581" data-name="Path 581" d="M1005.484,1282.62l.07,2.545-5.154,4.5.507,6.824-5.866,4.215.181,1.554" transform="translate(-954.958 -1263.464)" fill="none" stroke="#fad0da" stroke-miterlimit="10" stroke-width="2.063"/>
          <path id="Path_582" data-name="Path 582" d="M1023.345,1297.82l-3.629,3.173.512,6.824-3.624,2.6,0,0" transform="translate(-966.488 -1271.594)" fill="none" stroke="#fad0da" stroke-miterlimit="10" stroke-width="2.063"/>
        </g>
        <g id="Group_122" data-name="Group 122" transform="translate(323.276 448.303)">
          <ellipse id="Ellipse_141" data-name="Ellipse 141" cx="10.811" cy="23.846" rx="10.811" ry="23.846" transform="matrix(0.5, -0.866, 0.866, 0.5, 0, 18.725)" fill="#f68c23"/>
          <path id="Path_583" data-name="Path 583" d="M846.37,1320.863l11.537-.563-6.02,5.336-.977,6.782-7.22-7.843Z" transform="translate(-799.373 -1289.8)" fill="#f68c23"/>
          <ellipse id="Ellipse_142" data-name="Ellipse 142" cx="3.633" cy="3.894" rx="3.633" ry="3.894" transform="matrix(0.5, -0.866, 0.866, 0.5, 9.834, 15.368)" fill="#fff"/>
          <ellipse id="Ellipse_143" data-name="Ellipse 143" cx="2.907" cy="3.117" rx="2.907" ry="3.117" transform="matrix(0.5, -0.866, 0.866, 0.5, 10.87, 15.128)" fill="#f68c23"/>
          <path id="Path_584" data-name="Path 584" d="M800.946,1278.92l-.437,4.131-4.745,3.135-.344,5.68-5.3,2.814-.051,2.884" transform="translate(-770.697 -1267.67)" fill="none" stroke="#fad0da" stroke-miterlimit="10" stroke-width="1.714"/>
          <path id="Path_585" data-name="Path 585" d="M813.945,1287.14l-.4,3.805-4.745,3.135-.344,5.68-5.294,2.815-.042,2.591" transform="translate(-777.676 -1272.066)" fill="none" stroke="#fad0da" stroke-miterlimit="10" stroke-width="1.714"/>
          <path id="Path_586" data-name="Path 586" d="M826.81,1298.32l-.223,2.1-4.745,3.135-.34,5.68-5.3,2.814-.023,1.3" transform="translate(-784.661 -1278.046)" fill="none" stroke="#fad0da" stroke-miterlimit="10" stroke-width="1.714"/>
          <path id="Path_587" data-name="Path 587" d="M840.555,1312.36l-3.34,2.205-.34,5.68-3.275,1.735v0" transform="translate(-793.977 -1285.554)" fill="none" stroke="#fad0da" stroke-miterlimit="10" stroke-width="1.714"/>
        </g>
        <g id="Group_123" data-name="Group 123" transform="translate(450.343 365.825)">
          <ellipse id="Ellipse_144" data-name="Ellipse 144" cx="8.062" cy="17.784" rx="8.062" ry="17.784" transform="matrix(0.056, -0.998, 0.998, 0.056, 0, 16.098)" fill="#f68c23"/>
          <path id="Path_588" data-name="Path 588" d="M1097.235,1090.862l7.494-4.252-2.214,5.578,1.628,4.843-7.443-2.8Z" transform="translate(-1061.751 -1082.345)" fill="#f68c23"/>
          <ellipse id="Ellipse_145" data-name="Ellipse 145" cx="2.712" cy="2.903" rx="2.712" ry="2.903" transform="matrix(0.056, -0.998, 0.998, 0.056, 5.419, 10.562)" fill="#fff"/>
          <ellipse id="Ellipse_146" data-name="Ellipse 146" cx="2.168" cy="2.326" rx="2.168" ry="2.326" transform="matrix(0.056, -0.998, 0.998, 0.056, 6.026, 10.051)" fill="#f68c23"/>
          <path id="Path_589" data-name="Path 589" d="M1057.372,1079.5l1.1,2.9-2.107,3.684,1.679,3.894-2.582,3.656.94,1.935" transform="translate(-1039.696 -1078.542)" fill="none" stroke="#fad0da" stroke-miterlimit="10" stroke-width="1.278"/>
          <path id="Path_590" data-name="Path 590" d="M1068.651,1080.62l1.014,2.67-2.108,3.685,1.684,3.894-2.582,3.656.842,1.735" transform="translate(-1045.686 -1079.141)" fill="none" stroke="#fad0da" stroke-miterlimit="10" stroke-width="1.278"/>
          <path id="Path_591" data-name="Path 591" d="M1080.307,1083.82l.558,1.475-2.107,3.68,1.684,3.9-2.582,3.652.423.874" transform="translate(-1051.676 -1080.853)" fill="none" stroke="#fad0da" stroke-miterlimit="10" stroke-width="1.278"/>
          <path id="Path_592" data-name="Path 592" d="M1092.469,1089.96l-1.479,2.591,1.679,3.9-1.591,2.256v0" transform="translate(-1058.697 -1084.136)" fill="none" stroke="#fad0da" stroke-miterlimit="10" stroke-width="1.278"/>
        </g>
        <g id="Group_124" data-name="Group 124" transform="translate(43.156 378.562)">
          <ellipse id="Ellipse_147" data-name="Ellipse 147" cx="36.35" cy="16.477" rx="36.35" ry="16.477" transform="translate(12.443 15.391) rotate(-12.222)" fill="#f68c23"/>
          <path id="Path_593" data-name="Path 593" d="M162.761,1158.447l-16.491-6.187,6.252,10.546-1.735,10.295,14.133-8.02Z" transform="translate(-146.27 -1130.192)" fill="#f68c23"/>
          <ellipse id="Ellipse_148" data-name="Ellipse 148" cx="5.936" cy="5.54" rx="5.936" ry="5.54" transform="translate(63.815 14.444) rotate(-12.222)" fill="#fff"/>
          <ellipse id="Ellipse_149" data-name="Ellipse 149" cx="4.75" cy="4.433" rx="4.75" ry="4.433" transform="translate(65.209 15.275) rotate(-12.222)" fill="#f68c23"/>
          <path id="Path_594" data-name="Path 594" d="M259.412,1152.632l1.27-4.21-6.378-6.554,2.149-8.4-5.433-6.759,1.284-6.2" transform="translate(-202.291 -1113.212)" fill="none" stroke="#fad0da" stroke-miterlimit="10" stroke-width="2.612"/>
          <path id="Path_595" data-name="Path 595" d="M237.138,1157.611l1.144-3.777-6.378-6.555,2.145-8.4-5.429-6.755,1.191-5.713" transform="translate(-190.311 -1116.367)" fill="none" stroke="#fad0da" stroke-miterlimit="10" stroke-width="2.612"/>
          <path id="Path_596" data-name="Path 596" d="M215.31,1163.517l.572-1.9-6.382-6.554,2.149-8.4-5.429-6.759.651-3.159" transform="translate(-178.332 -1121.897)" fill="none" stroke="#fad0da" stroke-miterlimit="10" stroke-width="2.612"/>
          <path id="Path_597" data-name="Path 597" d="M192.895,1169.9l0-.009-3.94-4.042,2.149-8.4-3.819-4.759" transform="translate(-168.202 -1130.422)" fill="none" stroke="#fad0da" stroke-miterlimit="10" stroke-width="2.612"/>
        </g>
        <g id="Group_125" data-name="Group 125" transform="translate(23.683 439.37)">
          <ellipse id="Ellipse_150" data-name="Ellipse 150" cx="28.707" cy="13.012" rx="28.707" ry="13.012" transform="translate(8.759 21.794) rotate(-22.308)" fill="#252a5f"/>
          <path id="Path_598" data-name="Path 598" d="M118.087,1299.686l-13.677-2.526,6.322,7.336.07,8.243,9.881-8.192Z" transform="translate(-104.41 -1268.493)" fill="#252a5f"/>
          <ellipse id="Ellipse_151" data-name="Ellipse 151" cx="4.689" cy="4.377" rx="4.689" ry="4.377" transform="translate(48.568 13.953) rotate(-22.308)" fill="#fff"/>
          <ellipse id="Ellipse_152" data-name="Ellipse 152" cx="3.749" cy="3.503" rx="3.749" ry="3.503" transform="translate(49.769 14.405) rotate(-22.308)" fill="#252a5f"/>
          <path id="Path_599" data-name="Path 599" d="M193.409,1281.595l.4-3.452-5.866-4.215.512-6.824-5.159-4.5.14-5" transform="translate(-146.601 -1247.335)" fill="none" stroke="#fad053" stroke-miterlimit="10" stroke-width="2"/>
          <path id="Path_600" data-name="Path 600" d="M176.7,1288.56l.367-3.1-5.866-4.215.507-6.824-5.159-4.5.14-4.61" transform="translate(-137.643 -1251.459)" fill="none" stroke="#fad053" stroke-miterlimit="10" stroke-width="2"/>
          <path id="Path_601" data-name="Path 601" d="M160.142,1296.26l.181-1.554-5.866-4.215.507-6.824-5.154-4.5.07-2.545" transform="translate(-128.69 -1257.507)" fill="none" stroke="#fad053" stroke-miterlimit="10" stroke-width="2"/>
          <path id="Path_602" data-name="Path 602" d="M143.1,1304.427v0l-3.624-2.605.507-6.824-3.629-3.173" transform="translate(-121.492 -1265.636)" fill="none" stroke="#fad053" stroke-miterlimit="10" stroke-width="2"/>
        </g>
        <g id="Group_126" data-name="Group 126" transform="translate(364.61 385.432)">
          <ellipse id="Ellipse_153" data-name="Ellipse 153" cx="17.398" cy="38.379" rx="17.398" ry="38.379" transform="matrix(0.258, -0.966, 0.966, 0.258, 0, 33.62)" fill="#252a5f"/>
          <path id="Path_603" data-name="Path 603" d="M1002.39,1184.294l17.7-5.694-7.122,10.811,1.316,10.941-14.5-9.164Z" transform="translate(-924.186 -1151.148)" fill="#252a5f"/>
          <ellipse id="Ellipse_154" data-name="Ellipse 154" cx="5.852" cy="6.266" rx="5.852" ry="6.266" transform="matrix(0.258, -0.966, 0.966, 0.258, 13.88, 24.297)" fill="#fff"/>
          <ellipse id="Ellipse_155" data-name="Ellipse 155" cx="4.68" cy="5.015" rx="4.68" ry="5.015" transform="matrix(0.258, -0.966, 0.966, 0.258, 15.392, 23.488)" fill="#252a5f"/>
          <path id="Path_604" data-name="Path 604" d="M919.894,1139.72l1.042,6.606-6.066,6.852,1.842,8.964-7.052,6.592,1.126,4.508" transform="translate(-875.989 -1130.355)" fill="none" stroke="#fad053" stroke-miterlimit="10" stroke-width="2.674"/>
          <path id="Path_605" data-name="Path 605" d="M943.344,1147.08l.972,6.085-6.066,6.852,1.842,8.969-7.052,6.587,1.019,4.042" transform="translate(-888.493 -1134.291)" fill="none" stroke="#fad053" stroke-miterlimit="10" stroke-width="2.674"/>
          <path id="Path_606" data-name="Path 606" d="M967.166,1159.17l.53,3.364-6.066,6.852,1.847,8.969-7.057,6.587.507,2.033" transform="translate(-900.996 -1140.757)" fill="none" stroke="#fad053" stroke-miterlimit="10" stroke-width="2.674"/>
          <path id="Path_607" data-name="Path 607" d="M992.373,1177l-4.266,4.824,1.847,8.969-4.359,4.066,0,.01" transform="translate(-916.597 -1150.293)" fill="none" stroke="#fad053" stroke-miterlimit="10" stroke-width="2.674"/>
        </g>
        <g id="Group_127" data-name="Group 127" transform="translate(111.507 445.511)">
          <ellipse id="Ellipse_156" data-name="Ellipse 156" cx="23.846" cy="10.811" rx="23.846" ry="10.811" transform="matrix(0.866, -0.5, 0.5, 0.866, 6.454, 23.851)" fill="#f68c23"/>
          <path id="Path_608" data-name="Path 608" d="M304.742,1314.863,293.2,1314.3l6.02,5.336.977,6.782,7.22-7.843Z" transform="translate(-293.2 -1283.8)" fill="#f68c23"/>
          <ellipse id="Ellipse_157" data-name="Ellipse 157" cx="3.894" cy="3.633" rx="3.894" ry="3.633" transform="matrix(0.866, -0.5, 0.5, 0.866, 38.362, 12.969)" fill="#fff"/>
          <ellipse id="Ellipse_158" data-name="Ellipse 158" cx="3.117" cy="2.907" rx="3.117" ry="2.907" transform="matrix(0.866, -0.5, 0.5, 0.866, 39.397, 13.209)" fill="#f68c23"/>
          <path id="Path_609" data-name="Path 609" d="M364.876,1291.565l-.051-2.884-5.3-2.814-.34-5.68-4.75-3.135L354,1272.92" transform="translate(-325.716 -1261.67)" fill="none" stroke="#fad0da" stroke-miterlimit="10" stroke-width="1.714"/>
          <path id="Path_610" data-name="Path 610" d="M351.89,1299.166l-.042-2.591-5.3-2.814-.344-5.68-4.745-3.135-.4-3.805" transform="translate(-318.796 -1266.066)" fill="none" stroke="#fad0da" stroke-miterlimit="10" stroke-width="1.714"/>
          <path id="Path_611" data-name="Path 611" d="M339.054,1307.35l-.028-1.3-5.294-2.814-.344-5.68-4.745-3.135-.223-2.1" transform="translate(-312.036 -1272.045)" fill="none" stroke="#fad0da" stroke-miterlimit="10" stroke-width="1.714"/>
          <path id="Path_612" data-name="Path 612" d="M325.859,1315.985l0,0-3.275-1.735-.34-5.68-3.34-2.2" transform="translate(-306.945 -1279.554)" fill="none" stroke="#fad0da" stroke-miterlimit="10" stroke-width="1.714"/>
        </g>
        <g id="Group_128" data-name="Group 128" transform="translate(0 363.029)">
          <ellipse id="Ellipse_159" data-name="Ellipse 159" cx="17.784" cy="8.062" rx="17.784" ry="8.062" transform="matrix(0.998, -0.056, 0.056, 0.998, 6.5, 1.992)" fill="#f68c23"/>
          <path id="Path_613" data-name="Path 613" d="M60.994,1084.862,53.5,1080.61l2.21,5.578-1.628,4.843,7.448-2.8Z" transform="translate(-53.5 -1076.34)" fill="#f68c23"/>
          <ellipse id="Ellipse_160" data-name="Ellipse 160" cx="2.903" cy="2.712" rx="2.903" ry="2.712" transform="matrix(0.998, -0.056, 0.056, 0.998, 31.398, 5.472)" fill="#fff"/>
          <ellipse id="Ellipse_161" data-name="Ellipse 161" cx="2.326" cy="2.168" rx="2.326" ry="2.168" transform="matrix(0.998, -0.056, 0.056, 0.998, 32.005, 5.983)" fill="#f68c23"/>
          <path id="Path_614" data-name="Path 614" d="M107.6,1089.568l.94-1.935-2.582-3.656,1.679-3.894-2.1-3.684,1.093-2.9" transform="translate(-81.326 -1072.537)" fill="none" stroke="#fad0da" stroke-miterlimit="10" stroke-width="1.278"/>
          <path id="Path_615" data-name="Path 615" d="M96.493,1090.26l.842-1.735-2.582-3.657,1.684-3.893-2.107-3.684,1.014-2.67" transform="translate(-75.336 -1073.136)" fill="none" stroke="#fad0da" stroke-miterlimit="10" stroke-width="1.278"/>
          <path id="Path_616" data-name="Path 616" d="M85.716,1091.4l.419-.875-2.577-3.652,1.679-3.9-2.107-3.68.558-1.475" transform="translate(-69.346 -1074.848)" fill="none" stroke="#fad0da" stroke-miterlimit="10" stroke-width="1.278"/>
          <path id="Path_617" data-name="Path 617" d="M74.446,1092.71v0l-1.6-2.256,1.679-3.9-1.479-2.591" transform="translate(-63.848 -1078.131)" fill="none" stroke="#fad0da" stroke-miterlimit="10" stroke-width="1.278"/>
        </g>
        <g id="Group_129" data-name="Group 129" transform="translate(232.244 424.125)">
          <path id="Path_618" data-name="Path 618" d="M646.913,1207.2q-9.413,1.068-19.073,1.33c.186-.079.372-.163.563-.237l0,0a27.852,27.852,0,0,1,17.868-1.261h0C646.49,1207.079,646.7,1207.135,646.913,1207.2Z" transform="translate(-592.904 -1204.555)" fill="#fff"/>
          <path id="Path_619" data-name="Path 619" d="M578.144,1206.791a222.838,222.838,0,0,1-25.4-1.851c.121-.051.247-.1.367-.144a29.143,29.143,0,0,1,3.21-1.056h0a28.115,28.115,0,0,1,21.436,2.828C577.888,1206.637,578.014,1206.712,578.144,1206.791Z" transform="translate(-552.74 -1202.764)" fill="#fff"/>
        </g>
        <path id="Path_620" data-name="Path 620" d="M452.614,740.15S411,759.618,409.32,818.083l97.467.691.494-78.287Z" transform="translate(-243.794 -531.231)" fill="#fff"/>
        <path id="Path_621" data-name="Path 621" d="M663.522,747.688s39.732,19.131,40.653,74.889l-93.616-.688.456-74.63Z" transform="translate(-351.418 -535.033)" fill="#fff"/>
        <path id="Path_622" data-name="Path 622" d="M595.814,915.475v.009c-.023,1.358-.056,2.773-.112,4.229a274,274,0,0,1-2.982,32.517q-.321,2.1-.693,4.224v0a197.813,197.813,0,0,1-6.75,27.623,139.9,139.9,0,0,1-9.467,22.5v0q-1.737,3.273-3.689,6.4a89.738,89.738,0,0,1-18.8,21.943l0,0-.437.368a219.611,219.611,0,0,1-24.046,4.089h0q-9.413,1.068-19.073,1.33h0q-3.747.1-7.527.079c-.67,0-1.33-.014-2-.023h0a222.892,222.892,0,0,1-25.4-1.851,218.887,218.887,0,0,1-23.1-4.284c-.107-.079-.214-.158-.316-.242q-2.442-1.905-4.708-3.954a97.808,97.808,0,0,1-19.743-25.139,139.859,139.859,0,0,1-12.416-30.87,202.2,202.2,0,0,1-5.927-31.252,254.139,254.139,0,0,1-1.558-30.224c0-.712.014-1.4.023-2.089.172-11.341,1.019-18.524,1.019-18.524l187.232,1.256s.558,6.494.54,16.859Q595.873,912.837,595.814,915.475Z" transform="translate(-242.578 -612.628)" fill="#fff"/>
        <path id="Path_623" data-name="Path 623" d="M599.034,599.43A79.072,79.072,0,0,1,581,649.378q-1.94,2.344-4.047,4.522a72.092,72.092,0,0,1-52.348,22.367c-22.339-.149-42.379-10.8-55.847-27.419A79.609,79.609,0,0,1,473.3,543.965a71.325,71.325,0,0,1,104.394.7A78.938,78.938,0,0,1,599.034,599.43Z" transform="translate(-266.201 -414.347)" fill="#fff"/>
        <g id="Group_130" data-name="Group 130" transform="translate(208.969 159.506)">
          <ellipse id="Ellipse_162" data-name="Ellipse 162" cx="24.851" cy="24.851" rx="24.851" ry="24.851" transform="translate(0.002 6.275)" fill="#fad0da"/>
          <ellipse id="Ellipse_163" data-name="Ellipse 163" cx="24.851" cy="24.851" rx="24.851" ry="24.851" transform="translate(49.699 6.606)" fill="#fad0da"/>
          <path id="Path_624" data-name="Path 624" d="M554.716,721.022s15.356-1.4,19.278-11.225c0,0,4.643,10.741,24.767,12.165L598.1,693.25l-54.865,3.489Z" transform="translate(-524.378 -665.655)" fill="#fad0da"/>
          <path id="Path_625" data-name="Path 625" d="M502.708,664.889s-1.075-31.712,49.911-30.945,49.492,31.61,49.492,31.61Z" transform="translate(-502.706 -633.931)" fill="#fad0da"/>
        </g>
        <g id="Group_131" data-name="Group 131" transform="translate(208.984 156.934)">
          <ellipse id="Ellipse_164" data-name="Ellipse 164" cx="24.851" cy="24.851" rx="24.851" ry="24.851" transform="translate(0 6.275)" fill="#f5f5f6"/>
          <ellipse id="Ellipse_165" data-name="Ellipse 165" cx="24.851" cy="24.851" rx="24.851" ry="24.851" transform="translate(49.701 6.61)" fill="#f5f5f6"/>
          <path id="Path_626" data-name="Path 626" d="M554.746,715.5s15.356-1.4,19.278-11.225c0,0,4.643,10.741,24.767,12.165l-.665-28.712-54.865,3.489Z" transform="translate(-524.41 -660.13)" fill="#f5f5f6"/>
          <path id="Path_627" data-name="Path 627" d="M502.748,659.359s-1.075-31.712,49.911-30.945,49.487,31.61,49.487,31.61Z" transform="translate(-502.743 -628.4)" fill="#f5f5f6"/>
        </g>
        <ellipse id="Ellipse_166" data-name="Ellipse 166" cx="3.214" cy="3.001" rx="3.214" ry="3.001" transform="translate(241.618 178.682) rotate(-89.616)" fill="#fad0da"/>
        <ellipse id="Ellipse_167" data-name="Ellipse 167" cx="3.214" cy="3.001" rx="3.214" ry="3.001" transform="translate(268.18 178.86) rotate(-89.616)" fill="#fad0da"/>
        <ellipse id="Ellipse_168" data-name="Ellipse 168" cx="4.284" cy="4.284" rx="4.284" ry="4.284" transform="translate(208.259 158.571)" fill="#252a5f"/>
        <ellipse id="Ellipse_169" data-name="Ellipse 169" cx="4.284" cy="4.284" rx="4.284" ry="4.284" transform="translate(301.521 159.194)" fill="#252a5f"/>
        <path id="Path_628" data-name="Path 628" d="M329.9,874.617S278.31,898.612,228.73,851.488c0,0,61.517-36.671,67.765-41.714s40.114-7.229,51.023,23.739S329.9,874.617,329.9,874.617Z" transform="translate(-147.214 -566.877)" fill="#f5f5f6"/>
        <path id="Path_629" data-name="Path 629" d="M790.048,803.77s49.86-29.009,39.388-97.57c0,0-66.16,29.926-73.975,32.2s-29.265,29.186-9.82,56.209S790.048,803.77,790.048,803.77Z" transform="translate(-419.418 -513.074)" fill="#f5f5f6"/>
        <g id="Group_132" data-name="Group 132" transform="translate(164.651 424.915)">
          <path id="Path_630" data-name="Path 630" d="M556.876,1269.092s9.588,45.608,64.834,54.981c0,0-6.154-58.345-5.917-64.913s-14.951-29.856-40.616-21.8S556.876,1269.092,556.876,1269.092Z" transform="translate(-486.836 -1221.16)" fill="#fff"/>
          <path id="Path_631" data-name="Path 631" d="M492.091,1253.824s-34.024,31.847-84.652,7.82c0,0,38.523-44.245,42.1-49.762s29.377-15.868,45.775,5.452S492.091,1253.824,492.091,1253.824Z" transform="translate(-407.44 -1204.463)" fill="#fff"/>
        </g>
        <path id="Path_632" data-name="Path 632" d="M788.143,545.968l-10.695-19.645-19.6-10.769L777.5,504.859l10.769-19.6,10.69,19.645,19.6,10.769-19.645,10.69Z" transform="translate(-430.19 -394.914)" fill="#fff"/>
        <path id="Path_633" data-name="Path 633" d="M324.109,759.758,317.9,748.351,306.52,742.1l11.407-6.21,6.252-11.379,6.21,11.407,11.379,6.252-11.4,6.206Z" transform="translate(-188.816 -522.866)" fill="#fff"/>
        <path id="Path_634" data-name="Path 634" d="M392.75,550.831l-3.61-6.634-6.62-3.638,6.634-3.61,3.638-6.62,3.61,6.634,6.62,3.638-6.634,3.61Z" transform="translate(-229.461 -419.018)" fill="#fff"/>
        <path id="Path_635" data-name="Path 635" d="M503.44,1167.943s22.278,28.279,48.413,28.279,56.177-30.87,56.177-30.87L539,1141.38Z" transform="translate(-294.13 -745.81)" fill="#fff"/>
      </g>
    </g>
    <path id="Icon_awesome-heart" data-name="Icon awesome-heart" d="M20.307,3.593a6.007,6.007,0,0,0-8.2.6l-.865.892-.865-.892a6.007,6.007,0,0,0-8.2-.6,6.308,6.308,0,0,0-.435,9.132l8.5,8.777a1.377,1.377,0,0,0,1.99,0l8.5-8.777a6.3,6.3,0,0,0-.43-9.132Z" transform="translate(372.523 744.739)" fill="#dc3f50"/>
    <path id="Icon_awesome-heart-2" data-name="Icon awesome-heart" d="M20.307,3.593a6.007,6.007,0,0,0-8.2.6l-.865.892-.865-.892a6.007,6.007,0,0,0-8.2-.6,6.308,6.308,0,0,0-.435,9.132l8.5,8.777a1.377,1.377,0,0,0,1.99,0l8.5-8.777a6.3,6.3,0,0,0-.43-9.132Z" transform="translate(705.996 744.739)" fill="#dc3f50"/>
    <path id="Icon_awesome-heart-3" data-name="Icon awesome-heart" d="M20.307,3.593a6.007,6.007,0,0,0-8.2.6l-.865.892-.865-.892a6.007,6.007,0,0,0-8.2-.6,6.308,6.308,0,0,0-.435,9.132l8.5,8.777a1.377,1.377,0,0,0,1.99,0l8.5-8.777a6.3,6.3,0,0,0-.43-9.132Z" transform="translate(441.749 664.348)" fill="#dc3f50"/>
    <path id="Icon_awesome-heart-4" data-name="Icon awesome-heart" d="M20.307,3.593a6.007,6.007,0,0,0-8.2.6l-.865.892-.865-.892a6.007,6.007,0,0,0-8.2-.6,6.308,6.308,0,0,0-.435,9.132l8.5,8.777a1.377,1.377,0,0,0,1.99,0l8.5-8.777a6.3,6.3,0,0,0-.43-9.132Z" transform="translate(753.635 674.769)" fill="#dc3f50"/>
    <path id="Icon_awesome-heart-5" data-name="Icon awesome-heart" d="M20.307,3.593a6.007,6.007,0,0,0-8.2.6l-.865.892-.865-.892a6.007,6.007,0,0,0-8.2-.6,6.308,6.308,0,0,0-.435,9.132l8.5,8.777a1.377,1.377,0,0,0,1.99,0l8.5-8.777a6.3,6.3,0,0,0-.43-9.132Z" transform="translate(506.508 735.062)" fill="#dc3f50"/>
    <path id="Icon_awesome-heart-6" data-name="Icon awesome-heart" d="M20.307,3.593a6.007,6.007,0,0,0-8.2.6l-.865.892-.865-.892a6.007,6.007,0,0,0-8.2-.6,6.308,6.308,0,0,0-.435,9.132l8.5,8.777a1.377,1.377,0,0,0,1.99,0l8.5-8.777a6.3,6.3,0,0,0-.43-9.132Z" transform="translate(820.627 747.716)" fill="#dc3f50"/>
  </g>
</svg>
