<svg xmlns="http://www.w3.org/2000/svg" width="279.058" height="258.789" viewBox="0 0 279.058 258.789">
  <g id="Group_480" data-name="Group 480" transform="translate(-1658.321 -14604.757)">
    <path id="Path_568" data-name="Path 568" d="M389.964,232.657c-4.784,8.9-11.345,14.455,16.69,34.478s1.006,15.684,3.673,30.361,26.7,11.345,20.023,29.368-18.023,9.345-12.678,30.7,10.012,16.69-2,36.713,12.011,42.712,12.011,42.712h28.479s-30.257-15.566-20.023-36.034,8.012-33.367,1.777-48.058,30.257-23.578,15.122-47.614,8.9-40.491-23.134-50.724,4.666-37.6-18.023-43.157S393.571,225.939,389.964,232.657Z" transform="translate(1480.631 14426.554)" fill="#242c5b"/>
    <path id="Path_567" data-name="Path 567" d="M389.478,230.131c-4.24,7.888-10.055,12.811,14.792,30.558s.892,13.9,3.255,26.909,23.665,10.055,17.746,26.028-15.974,8.282-11.236,27.21,8.873,14.792-1.772,32.538,10.645,37.855,10.645,37.855h25.241s-26.816-13.8-17.746-31.936,7.1-29.573,1.575-42.593,26.816-20.9,13.4-42.2,7.888-35.886-20.5-44.956,4.135-33.326-15.974-38.249S392.675,224.177,389.478,230.131Z" transform="translate(1272.631 14439.422)" fill="#a2a7d1"/>
    <path id="Path_641" data-name="Path 641" d="M388.538,225.246c-3.187,5.931-7.559,9.632,11.122,22.975s.671,10.451,2.447,20.231,17.793,7.559,13.342,19.569-12.01,6.227-8.448,20.458,6.671,11.122-1.332,24.464,8,28.461,8,28.461h18.977s-20.162-10.373-13.342-24.011,5.339-22.234,1.184-32.023,20.162-15.711,10.076-31.727,5.931-26.981-15.415-33.8,3.109-25.056-12.01-28.757S390.942,220.77,388.538,225.246Z" transform="translate(1402.631 14489.247)" fill="#a2a7d1"/>
    <path id="Path_566" data-name="Path 566" d="M512.5,234.544c5.19,9.657,12.308,15.683-18.108,37.407s-1.092,17.016-3.985,32.94-28.97,12.308-21.724,31.863,19.554,10.139,13.755,33.309-10.862,18.108,2.17,39.832-13.032,46.34-13.032,46.34H440.687s32.827-16.888,21.724-39.094-8.692-36.2-1.928-52.14-32.827-25.581-16.406-51.658-9.657-43.93,25.1-55.033-5.062-40.8,19.554-46.823S508.581,227.255,512.5,234.544Z" transform="translate(1259.152 14395.311)" fill="#e6eaf5"/>
    <path id="Path_640" data-name="Path 640" d="M512.5,234.544c5.19,9.657,12.308,15.683-18.108,37.407s-1.092,17.016-3.985,32.94-28.97,12.308-21.724,31.863,19.554,10.139,13.755,33.309-10.862,18.108,2.17,39.832-13.032,46.34-13.032,46.34H440.687s32.827-16.888,21.724-39.094-8.692-36.2-1.928-52.14-32.827-25.581-16.406-51.658-9.657-43.93,25.1-55.033-5.062-40.8,19.554-46.823S508.581,227.255,512.5,234.544Z" transform="translate(1395.152 14394.311)" fill="#e6eaf5"/>
  </g>
</svg>
