<svg xmlns="http://www.w3.org/2000/svg" width="555.153" height="370.162" viewBox="0 0 555.153 370.162">
  <g id="Group_389" data-name="Group 389" transform="translate(17.153 -13731.225)">
    <path id="Path_1999" data-name="Path 1999" d="M162.7,365.3c.251,7.432-1.632,16.223.142,23.331,1.93,7.692,10.835,13.707,14.492,20.841,2.709,5.266,3.792,12.272,4.063,18.1.5,11.154,4.916,20.117,8.8,30.553,4.74,12.615,5.668,24.372,5.668,37.635,0,9.846-.4,19.348,1.612,28.933,2.086,9.947.46,21.482.46,31.664,0,4.345.244,8.753.047,13.091-.223,4.916-3.088,9.826-2.032,14.692.968,4.5,5.343,8.258,6.237,12.983,1.023,5.418-.047,12.113-.088,17.62-.047,5.285.874,8.658,2.086,13.669l-.237,2.973a5.183,5.183,0,0,0,3.914,4.37c.366.489,2.587,3.989,2.58,3.983,1.774,1.575.264,2.763,4.1,1.658,2.438-.7,3.6-4.446,4.063-6.4,1.4-5.793.074-13.11.081-19.056,0-11.287,2.418-21.9,4.151-32.865.63-4.014,2.032-7.241,2.12-11.484.1-5.869.061-11.8-.041-17.671-.095-5.38,1.321-8.359,3.684-13.136,2.451-4.955,2.567-9.141,2.533-14.483,0-3.64-.874-8.258.3-11.732,1-2.973,3.684-3.271,4.781-5.577,1.415-2.966,1.165-5.647,1.131-9.134-.041-4.351-.955-9.852-.1-14.044.907-4.446,2.221-6.936,2.187-11.637-.068-9.052-1.07-18.624,1.571-27.142.935-3.024,1.185-5.082,2.573-7.984,1.185-2.452,1.8-3.043,2.594-5.717,1.869-6.352,4.849-4.923,9.955-8.137,5.966-3.754,1.666-9.331,5.986-13.409,3.386-3.227,12.007-2.433,16.415-1.62.846,2.884-.284,5.793.474,8.639a26.542,26.542,0,0,0,2.939,5.761c1.293,2.23,3.765,4.446,4.8,6.714,1.307,2.846,1.53,6.739,2.485,9.776a46.514,46.514,0,0,1,2.032,15.626c-.074,5.78,2.065,10.646,2.086,16.61,0,5.291-2.16,9.293-2.086,14.527a46.458,46.458,0,0,0,2.35,14.762c1.842,5.755,1.9,10.913,1.828,16.909-.034,3-.589,5.66,1.111,8.257,2.35,3.583,5.418,4.548,7,8.8.894,2.376-.176,4.237,3.21,4.847,4.131.737,5.052-3.379,5.418-6.352.718-5.787-.149-12.189-.149-18.04v-15.48c0-6.1-1.293-13.746.42-19.6,1.828-6.244,5.939-9.642,5.824-16.515-.135-7.54-.731-10.976,4.063-16.934,8.079-10,8.329-19.691,8.343-31.7,0-3.074-.589-6.5-.149-9.528.549-3.811,3.84-6.257,4.442-10.036.481-3.017-1.239-4.478,2.248-6.447,1.51-.851,8.174-1.073,10.09-.476,6.528,2.02,3.752,10.347,4.063,15.753.162,2.719,1.354,4.4,1.943,6.987.8,3.481-.576,7.076.535,10.474,4.131-.915,3.271-5.812,4.93-8.645,2.336-3.97,7.266-6.936,8.885-11.281.549-1.48-.034-3.436.677-4.878.935-1.842,3.664-3.036,4.74-5.082,1.666-3.125,1.084-5.965,1.09-9.426,0-4.5-.345-6.473,4.612-7.445,3.46-.673,7.449-1.486,10.991-1.906,8.18-1.029,15.745,1.073,20.065-7.521,6.332-.1,12.718,5.082,17.532,8.474,3.528,2.5,5.648,4.326,6.643,8.423.928,3.862-.3,7.273,1.564,10.97,2.966,5.876,8.959,10.684,10.835,17.15.907,3.125.264,6.307.339,9.483.095,4.1,1.862,7.476,2.2,11.434.508,5.882.19,12.069,1.876,17.671,1.09,3.646,5.126,5.641,7.063,9.185,1.618,2.966,1.849,7.514,6.576,6.117,10-2.947,4-29.721,6.691-37.248,4-11.186,3.738-27.428,15.508-34.7,3.271-2.02,7.063-3.811,10.415-5.793a92.235,92.235,0,0,1,8.8-4.656c5.269-2.268,16.6-6.352,18.711-1.124,27.088,66.7,31.151,0,46.726,0,6.271,0,11.1.591,16.442-1.944,6.3-2.992,13.686-1.906,20.756-1.944,8.126-.038,15.447,1.906,23.431,1.906,3.223,0,6.095.591,8.9-1.029,1.293-.75,1.5-1.906,2.465-2.852,2.641-2.668,3.772-2.268,6.846-4.262,2.445-1.588,4.266-4.6,6.156-6.676,2.39-2.642,5.5-4.18,7.977-6.581,5.187-5.024,9.345-12.52,16.93-15.245,5.539-1.969,11.742-.133,17.607-2.268,6.04-2.185,15.575-4.211,17.553-10.894.758-2.541,1.483-45.131-.183-47.24-2.966-3.773-16.449-4.224-20.959-4.18-20.316.178-40.631,0-60.947,0-8.092,0-17.282,1.124-25.3.1-10.483-1.34-20.207-6.085-30.988-5.977-10.429.108-20.871.051-31.3.044-6.515,0-13.232.483-19.72.1-7.449-.432-14.39-2.172-21.975-2.09-9.481.1-18.921.038-28.381.044-13.036,0-24.663,1.759-37.523,3.678-7.679,1.143-15.325,2.541-23.024,3.716-7.53,1.131-15.223.083-22.808.292-8.614.235-16.625,2.122-25.293,2.064-6.562-.044-13.205-.33-19.754-.121-16.456.527-32.349,4.014-48.92,3.989-12.955,0-25.923-.108-38.871.051-6.433.076-12.189-1.823-18.487-2.064-6.061-.235-12.189.07-18.284.07-9.183,0-18.792-.762-27.948-.083-10.97.813-19.191,41.529-26.607,48.376C166.209,334.6,162.471,359.237,162.7,365.3Z" transform="translate(-179.226 13459.559)" fill="#242c5b"/>
  </g>
</svg>
