<svg xmlns="http://www.w3.org/2000/svg" width="1714.634" height="158.41" viewBox="0 0 1714.634 158.41">
  <g id="Group_477" data-name="Group 477" transform="translate(78.634 -14706.846)">
    <path id="Path_644" data-name="Path 644" d="M541.284,500.793c-17.478-9.465-43.447,5.012-62.2,18.866,6.209-8.491,21.532-28.22,35.019-35.434,17.4-9.321,9.146-14.349,9.146-14.349-18.627-2.219-36.408,18.148-48.682,37.078,3.926-11.556,10.566-28.2,18.723-37.126,13.312-14.541,3.879-16.568,3.879-16.568-18.116,4.038-28.124,28.683-33.487,50.454-1.149-8.667-4.214-36.344,1.069-51.97,6.321-18.675-3.128-16.712-3.128-16.712-13.232,9.721-14.158,31.62-11.524,51.827-5.874-17.605-15.179-34.014-29.672-37.254,0,0-9.449,2.011,3.863,16.568,9.146,9.992,16.424,29.752,20.064,41.117C432.076,488.551,414.5,468.695,396.1,470.9c0,0-8.236,5.028,9.146,14.333,12.881,6.911,27.454,25.2,34.126,34.237-18.707-13.743-44.357-27.869-61.691-18.483,0,0-5.794,7.709,13.791,9.96,9.018,1.022,20.271,5.906,29.784,10.886-13.2-3.911-26.544-4.9-35.1,2.187,0,0-3.527,7.326,13.041,5.97s44.82,10.6,44.82,10.6l8.97,1.357h13.152l8.97-1.357s28.252-11.955,44.82-10.6c16.584,1.357,13.056-5.97,13.056-5.97-8.811-7.294-22.7-6.033-36.28-1.836,9.721-5.156,21.452-10.343,30.79-11.428C547.093,508.518,541.284,500.793,541.284,500.793Zm-81.531,35.466-.032-.032.1-.064Zm-1.756.958a1.123,1.123,0,0,0,.048-.128v.1a.49.49,0,0,0-.016.144l-.112.064s.016-.048.064-.16A.016.016,0,0,0,458,537.217Zm-.08,1.341.048.016-.048.048v-.032c-.032-.016-.048-.032-.08-.048Zm3.942-.335-.048.016.032-.032A.016.016,0,0,0,461.86,538.223Z" transform="translate(-455.513 14323.313)" fill="#fff"/>
    <path id="Path_642" data-name="Path 642" d="M515.833,490.6c-14.772-8-36.721,4.236-52.572,15.946,5.248-7.177,18.2-23.851,29.6-29.949,14.7-7.878,7.73-12.128,7.73-12.128-15.743-1.875-30.772,15.339-41.146,31.338,3.319-9.767,8.931-23.838,15.824-31.379,11.251-12.29,3.278-14,3.278-14-15.312,3.413-23.77,24.242-28.3,42.643-.971-7.325-3.561-30.718.9-43.925,5.342-15.784-2.644-14.125-2.644-14.125-11.184,8.216-11.966,26.725-9.74,43.8-4.964-14.88-12.829-28.748-25.079-31.487,0,0-7.986,1.7,3.265,14,7.73,8.445,13.882,25.146,16.958,34.751-10.374-15.838-25.227-32.62-40.782-30.758,0,0-6.961,4.249,7.73,12.114,10.887,5.841,23.2,21.3,28.843,28.937-15.811-11.615-37.49-23.554-52.141-15.622,0,0-4.9,6.516,11.656,8.418,7.622.863,17.133,4.992,25.173,9.2-11.157-3.305-22.435-4.142-29.666,1.848,0,0-2.981,6.192,11.022,5.045s37.881,8.958,37.881,8.958l7.582,1.147h11.116l7.582-1.147s23.878-10.1,37.881-8.958,11.035-5.045,11.035-5.045c-7.447-6.165-19.183-5.1-30.664-1.551,8.216-4.357,18.131-8.742,26.023-9.659C520.743,497.133,515.833,490.6,515.833,490.6ZM446.923,520.58l-.027-.027.081-.054Zm-1.484.81a.945.945,0,0,0,.04-.108v.081a.414.414,0,0,0-.014.121l-.094.054s.013-.041.054-.135A.013.013,0,0,0,445.439,521.389Zm-.067,1.133.04.013-.04.041v-.027c-.027-.014-.04-.027-.067-.041Zm3.332-.283-.04.013.027-.027A.013.013,0,0,0,448.7,522.239Z" transform="translate(1119.487 14287.873)" fill="#fff"/>
    <path id="Path_647" data-name="Path 647" d="M515.833,490.6c-14.772-8-36.721,4.236-52.572,15.946,5.248-7.177,18.2-23.851,29.6-29.949,14.7-7.878,7.73-12.128,7.73-12.128-15.743-1.875-30.772,15.339-41.146,31.338,3.319-9.767,8.931-23.838,15.824-31.379,11.251-12.29,3.278-14,3.278-14-15.312,3.413-23.77,24.242-28.3,42.643-.971-7.325-3.561-30.718.9-43.925,5.342-15.784-2.644-14.125-2.644-14.125-11.184,8.216-11.966,26.725-9.74,43.8-4.964-14.88-12.829-28.748-25.079-31.487,0,0-7.986,1.7,3.265,14,7.73,8.445,13.882,25.146,16.958,34.751-10.374-15.838-25.227-32.62-40.782-30.758,0,0-6.961,4.249,7.73,12.114,10.887,5.841,23.2,21.3,28.843,28.937-15.811-11.615-37.49-23.554-52.141-15.622,0,0-4.9,6.516,11.656,8.418,7.622.863,17.133,4.992,25.173,9.2-11.157-3.305-22.435-4.142-29.666,1.848,0,0-2.981,6.192,11.022,5.045s37.881,8.958,37.881,8.958l7.582,1.147h11.116l7.582-1.147s23.878-10.1,37.881-8.958,11.035-5.045,11.035-5.045c-7.447-6.165-19.183-5.1-30.664-1.551,8.216-4.357,18.131-8.742,26.023-9.659C520.743,497.133,515.833,490.6,515.833,490.6ZM446.923,520.58l-.027-.027.081-.054Zm-1.484.81a.945.945,0,0,0,.04-.108v.081a.414.414,0,0,0-.014.121l-.094.054s.013-.041.054-.135A.013.013,0,0,0,445.439,521.389Zm-.067,1.133.04.013-.04.041v-.027c-.027-.014-.04-.027-.067-.041Zm3.332-.283-.04.013.027-.027A.013.013,0,0,0,448.7,522.239Z" transform="translate(347.487 14271.873)" fill="#fff"/>
    <path id="Path_550" data-name="Path 550" d="M557.153,507.147c-19.165-10.379-47.641,5.5-68.206,20.688,6.808-9.311,23.61-30.944,38.4-38.855,19.077-10.221,10.029-15.734,10.029-15.734-20.425-2.433-39.922,19.9-53.381,40.657,4.305-12.672,11.586-30.926,20.53-40.71,14.6-15.944,4.253-18.167,4.253-18.167-19.865,4.428-30.839,31.451-36.72,55.324-1.26-9.5-4.621-39.852,1.173-56.987,6.931-20.477-3.43-18.325-3.43-18.325-14.509,10.659-15.524,34.672-12.637,56.829-6.441-19.3-16.645-37.3-32.536-40.85,0,0-10.361,2.205,4.236,18.167,10.029,10.956,18.01,32.624,22,45.086-13.459-20.548-32.729-42.32-52.909-39.9,0,0-9.031,5.513,10.029,15.717,14.124,7.578,30.1,27.636,37.42,37.542-20.513-15.069-48.638-30.559-67.646-20.268,0,0-6.353,8.454,15.122,10.921,9.889,1.12,22.228,6.476,32.659,11.936-14.474-4.288-29.106-5.373-38.487,2.4,0,0-3.868,8.034,14.3,6.546S450.5,550.78,450.5,550.78l9.836,1.488h14.422l9.836-1.488s30.979-13.109,49.146-11.621c18.185,1.488,14.317-6.546,14.317-6.546-9.661-8-24.888-6.616-39.782-2.013,10.659-5.653,23.523-11.341,33.762-12.532C563.524,515.618,557.153,507.147,557.153,507.147Zm-89.4,38.89-.035-.035.105-.07Zm-1.925,1.05a1.225,1.225,0,0,0,.052-.14v.1a.539.539,0,0,0-.018.157l-.122.07s.017-.053.07-.175A.017.017,0,0,0,465.827,547.087Zm-.088,1.47.052.017-.052.053v-.035c-.035-.018-.052-.035-.087-.053Zm4.323-.368-.052.017.035-.035A.017.017,0,0,0,470.063,548.189Z" transform="translate(-154.513 14312.988)" fill="#242c5b"/>
  </g>
</svg>
