<svg xmlns="http://www.w3.org/2000/svg" width="368.106" height="302.019" viewBox="0 0 368.106 302.019">
  <g id="Group_479" data-name="Group 479" transform="translate(-844.139 -14563.528)">
    <path id="Path_546" data-name="Path 546" d="M390.5,235.441c-5.383,10.016-12.766,16.267,18.782,38.8s1.132,17.649,4.133,34.166,30.048,12.766,22.532,33.049S415.665,351.971,421.68,376s11.266,18.782-2.25,41.314,13.517,48.065,13.517,48.065h32.048s-34.049-17.517-22.532-40.55,9.016-37.549,2-54.081,34.049-26.533,17.017-53.581,10.016-45.565-26.033-57.081,5.251-42.315-20.282-48.565S394.559,227.881,390.5,235.441Z" transform="translate(512.631 14400.163)" fill="#242c5b"/>
    <path id="Path_548" data-name="Path 548" d="M389.926,232.461c-4.741,8.822-11.245,14.328,16.543,34.174s1,15.545,3.64,30.093,26.466,11.245,19.846,29.109-17.864,9.262-12.566,30.43,9.923,16.543-1.982,36.389,11.905,42.335,11.905,42.335h28.228s-29.99-15.429-19.846-35.716,7.941-33.073,1.762-47.634,29.99-23.37,14.988-47.193,8.822-40.133-22.93-50.277,4.625-37.27-17.864-42.776S393.5,225.8,389.926,232.461Z" transform="translate(694.631 14429.554)" fill="#a2a7d1"/>
    <path id="Path_547" data-name="Path 547" d="M529.068,240.057c6.377,11.866,15.124,19.271-22.25,45.965s-1.342,20.909-4.9,40.476-35.6,15.124-26.694,39.152,24.028,12.458,16.9,40.929-13.347,22.251,2.666,48.944-16.013,56.942-16.013,56.942h-37.95s40.337-20.752,26.694-48.038-10.681-44.484-2.37-64.068S424.819,368.925,445,336.882c20.16-32.025-11.866-53.98,30.841-67.623s-6.22-50.129,24.028-57.534S524.259,231.1,529.068,240.057Z" transform="translate(549.99 14353.082)" fill="#e6eaf5"/>
    <path id="Path_549" data-name="Path 549" d="M521.069,237.4c5.8,10.8,13.765,17.539-20.251,41.834s-1.221,19.03-4.456,36.839-32.4,13.765-24.3,35.634,21.869,11.339,15.383,37.251S475.3,409.2,489.875,433.5,475.3,485.325,475.3,485.325H440.762s36.712-18.887,24.295-43.721-9.721-40.486-2.157-58.311-36.712-28.608-18.348-57.772c18.348-29.148-10.8-49.129,28.069-61.546S466.96,218.35,494.49,211.61,516.692,229.244,521.069,237.4Z" transform="translate(685.99 14380.222)" fill="#e6eaf5"/>
    <path id="Path_643" data-name="Path 643" d="M466.673,238.295c-5.79,11.16-13.731,18.124,20.2,43.23s1.218,19.665,4.445,38.068,32.318,14.224,24.235,36.822-21.814,11.717-15.344,38.494,12.117,20.927-2.42,46.032S512.326,494.5,512.326,494.5H546.8s-36.621-19.517-24.235-45.18,9.7-41.837,2.151-60.256,36.621-29.563,18.3-59.7c-18.3-30.12,10.773-50.768-28-63.6s5.647-47.147-21.814-54.111C465.724,204.684,471.039,229.872,466.673,238.295Z" transform="translate(382.64 14368.051)" fill="#cfc9e4"/>
  </g>
</svg>
