<svg xmlns="http://www.w3.org/2000/svg" width="686.51" height="433.065" viewBox="0 0 686.51 433.065">
  <g id="Layer_1" transform="translate(-400.574 32.416) rotate(-16)">
    <g id="Group_118" data-name="Group 118">
      <path id="Path_552" data-name="Path 552" d="M387.58,434.15s12.22,72.5,98.71,90.79c0,0-6-92.36-5.21-102.7s-21.68-48.01-62.64-36.95S387.58,434.15,387.58,434.15Z" fill="#fad0da"/>
      <circle id="Ellipse_130" data-name="Ellipse 130" cx="120.61" cy="120.61" r="120.61" transform="translate(356.28 210.77)" fill="#fff"/>
      <circle id="Ellipse_131" data-name="Ellipse 131" cx="9.36" cy="9.36" r="9.36" transform="translate(456.69 293.25)" fill="#252a5f"/>
      <circle id="Ellipse_132" data-name="Ellipse 132" cx="9.36" cy="9.36" r="9.36" transform="translate(352.25 281.69)" fill="#252a5f"/>
      <circle id="Ellipse_133" data-name="Ellipse 133" cx="95.91" cy="95.91" r="95.91" transform="translate(521.49 304.92)" fill="#fff"/>
      <circle id="Ellipse_134" data-name="Ellipse 134" cx="85.69" cy="85.69" r="85.69" transform="translate(657.04 345.1)" fill="#fff"/>
      <path id="Path_553" data-name="Path 553" d="M418.03,436.68s163.39,95.73,340.74,78.31l-8.34-146.37L546.09,325.75Z" fill="#fff"/>
      <path id="Path_554" data-name="Path 554" d="M591.4,293.44s56.53-18.23,126.61-1.27S849.47,365.63,850.4,436.34,751.87,550.1,593.54,515.26s-202.8-99.45-202.8-99.45l188.67-43.49Z" fill="#fff"/>
      <g id="Group_116" data-name="Group 116">
        <path id="Path_555" data-name="Path 555" d="M904.34,383.57s51.69-64.82,1.96-151.22c0,0-73.05,74.54-82.33,81.66s-24,54.33,16.11,80.41S904.34,383.57,904.34,383.57Z" fill="#fff"/>
        <path id="Path_556" data-name="Path 556" d="M889.74,361.9s82.23,10.59,106.63,107.24c0,0-104.33-2.71-115.95-1.36s-55.05-22.32-44.38-68.96S889.74,361.9,889.74,361.9Z" fill="#fff"/>
      </g>
      <path id="Path_557" data-name="Path 557" d="M470.51,467.35s28.94,80.18,131.39,83.16c0,0-25.95-104.13-27.18-116.09s-34.66-50.29-79.11-29.2S470.51,467.35,470.51,467.35Z" fill="#f5f5f6"/>
      <g id="Group_117" data-name="Group 117">
        <path id="Path_558" data-name="Path 558" d="M402.18,380.08s8.29,7.81,13.78,10.77l-8.05-16.37-8.06.68Z" fill="#fad0da"/>
        <path id="Path_559" data-name="Path 559" d="M419.01,294.94s45.06,6.14,54.5,58.3l-42.23-23.16Z" fill="#fad0da"/>
        <path id="Path_560" data-name="Path 560" d="M411.79,357.59a37.436,37.436,0,0,1-5.86,17.6,34.829,34.829,0,0,1-2.05,2.88,37.556,37.556,0,0,1-67-25.9c.07-.92.16-1.83.3-2.74a37.324,37.324,0,0,1,2.19-8.29l61.13,3.34a37.269,37.269,0,0,1,4.76-10.9c.59.84,1.14,1.72,1.66,2.61a37.721,37.721,0,0,1,3.67,8.86,36.96,36.96,0,0,1,1.31,9.8C411.89,355.75,411.86,356.67,411.79,357.59Z" fill="#fad0da"/>
        <circle id="Ellipse_135" data-name="Ellipse 135" cx="37.55" cy="37.55" r="37.55" transform="translate(398.91 321.83)" fill="#fad0da"/>
        <path id="Path_561" data-name="Path 561" d="M408.29,345.86a37.036,37.036,0,0,0-3.11-11.27q-.735-1.62-1.62-3.15a37.576,37.576,0,0,0-66.83,3.28.37.37,0,0,0-.05.11,37.479,37.479,0,0,0-3.16,12.6c-.07.93-.1,1.85-.1,2.76a37.555,37.555,0,0,0,65.09,25.49c.71-.75,1.37-1.53,2.02-2.35a37.431,37.431,0,0,0,7.61-17.74c.14-.9.23-1.82.3-2.75A37.687,37.687,0,0,0,408.29,345.86Zm-72.67-3.98a37.567,37.567,0,0,1,65.89-7.56,37.5,37.5,0,0,0-4.76,10.9Z" fill="#f5f5f6"/>
        <path id="Path_562" data-name="Path 562" d="M470.56,357.33c-.07.93-.16,1.84-.3,2.75a37.553,37.553,0,0,1-68.08,15.86c-.59-.84-1.14-1.72-1.66-2.62a37.506,37.506,0,0,1-4.98-18.65c0-.91.03-1.83.1-2.76a37.822,37.822,0,0,1,1.1-6.69,37.269,37.269,0,0,1,4.76-10.9c.64-1,1.32-1.96,2.05-2.89a37.568,37.568,0,0,1,66.71,17.75A36.8,36.8,0,0,1,470.56,357.33Z" fill="#f5f5f6"/>
        <path id="Path_563" data-name="Path 563" d="M401.5,334.32a37.5,37.5,0,0,0-4.76,10.9l-61.13-3.34a37.568,37.568,0,0,1,65.89-7.56Z" fill="#f5f5f6"/>
        <path id="Path_564" data-name="Path 564" d="M470.27,349.25l-1.64-.09-60.35-3.3-1.46-.08-8.64-.47-1.45-.08a37.269,37.269,0,0,1,4.76-10.9,37.567,37.567,0,0,0-65.89,7.56l-1.27-.07a38.086,38.086,0,0,1,2.33-7,.37.37,0,0,1,.05-.11c6.62-14.69,25.83-46.76,66.06-42.86,51.81,5.02,67.12,49.07,67.49,57.34A.047.047,0,0,1,470.27,349.25Z" fill="#f5f5f6"/>
        <circle id="Ellipse_136" data-name="Ellipse 136" cx="7.12" cy="7.12" r="7.12" transform="translate(362.49 342.91)" fill="#fad0da"/>
        <circle id="Ellipse_137" data-name="Ellipse 137" cx="7.12" cy="7.12" r="7.12" transform="translate(413.91 345.22)" fill="#fad0da"/>
      </g>
    </g>
  </g>
</svg>
