<svg xmlns="http://www.w3.org/2000/svg" width="139.634" height="90.409" viewBox="0 0 139.634 90.409">
  <path id="Path_648" data-name="Path 648" d="M515.833,490.6c-14.772-8-36.721,4.236-52.572,15.946,5.248-7.177,18.2-23.851,29.6-29.949,14.7-7.878,7.73-12.128,7.73-12.128-15.743-1.875-30.772,15.339-41.146,31.338,3.319-9.767,8.931-23.838,15.824-31.379,11.251-12.29,3.278-14,3.278-14-15.312,3.413-23.77,24.242-28.3,42.643-.971-7.325-3.561-30.718.9-43.925,5.342-15.784-2.644-14.125-2.644-14.125-11.184,8.216-11.966,26.725-9.74,43.8-4.964-14.88-12.829-28.748-25.079-31.487,0,0-7.986,1.7,3.265,14,7.73,8.445,13.882,25.146,16.958,34.751-10.374-15.838-25.227-32.62-40.782-30.758,0,0-6.961,4.249,7.73,12.114,10.887,5.841,23.2,21.3,28.843,28.937-15.811-11.615-37.49-23.554-52.141-15.622,0,0-4.9,6.516,11.656,8.418,7.622.863,17.133,4.992,25.173,9.2-11.157-3.305-22.435-4.142-29.666,1.848,0,0-2.981,6.192,11.022,5.045s37.881,8.958,37.881,8.958l7.582,1.147h11.116l7.582-1.147s23.878-10.1,37.881-8.958,11.035-5.045,11.035-5.045c-7.447-6.165-19.183-5.1-30.664-1.551,8.216-4.357,18.131-8.742,26.023-9.659C520.743,497.133,515.833,490.6,515.833,490.6ZM446.923,520.58l-.027-.027.081-.054Zm-1.484.81a.945.945,0,0,0,.04-.108v.081a.414.414,0,0,0-.014.121l-.094.054s.013-.041.054-.135A.013.013,0,0,0,445.439,521.389Zm-.067,1.133.04.013-.04.041v-.027c-.027-.014-.04-.027-.067-.041Zm3.332-.283-.04.013.027-.027A.013.013,0,0,0,448.7,522.239Z" transform="translate(-376.878 -434.973)" fill="#fff"/>
</svg>
