<svg xmlns="http://www.w3.org/2000/svg" width="308.608" height="575.185" viewBox="0 0 308.608 575.185">
  <g id="Group_115" data-name="Group 115" transform="translate(3474.266 -2626.181)">
    <path id="Path_505" data-name="Path 505" d="M278.37,379.792c5.005-34.31-62.822-42.01-62.437-83.657S198.2,231.75,198.2,231.75c43.165,13.113,53.582,68.62,53.582,68.62,40.47,32,31.23,61.667,30.46,63.615Z" transform="translate(-3622.484 2433.497)" fill="#56609a"/>
    <path id="Path_506" data-name="Path 506" d="M241.686,356.813c-2.7-34.559,65.517-37.707,67.918-79.264S331.617,214.5,331.617,214.5c-43.958,10.168-58.067,64.861-58.067,64.861-42.531,29.192-35.306,59.448-34.65,61.418Z" transform="translate(-3572.099 2411.681)" fill="#56609a"/>
    <path id="Path_507" data-name="Path 507" d="M230.85,379.586c7.089-33.948,73.444-17.846,87.417-57.07,13.951-39.224,38.794-54.352,38.794-54.352-45.045-2.536-73.919,46-73.919,46-49.008,16.125-50.525,47.173-50.48,49.257Z" transform="translate(-3581.192 2479.427)" fill="#56609a"/>
    <path id="Path_508" data-name="Path 508" d="M228.83,430.88c3.578-34.491,71.247-25.251,81.121-65.7s33.042-58.021,33.042-58.021c-45.067,2.083-68.824,53.311-68.824,53.311-47.105,21.039-45.452,52.088-45.18,54.149Z" transform="translate(-3583.747 2528.867)" fill="#56609a"/>
    <path id="Path_509" data-name="Path 509" d="M233.51,472.41c3.578-34.491,71.247-25.251,81.121-65.7s33.042-58.021,33.042-58.021C302.605,350.773,278.849,402,278.849,402c-47.105,21.039-45.452,52.088-45.18,54.149Z" transform="translate(-3577.828 2581.389)" fill="#56609a"/>
    <path id="Path_510" data-name="Path 510" d="M252.005,523.82c-4.076-34.423,63.955-40.311,64.679-81.936.747-41.625,19.454-63.864,19.454-63.864-43.5,11.935-55.417,67.148-55.417,67.148-41.331,30.89-32.883,60.807-32.159,62.754Z" transform="translate(-3560.293 2618.482)" fill="#56609a"/>
    <path id="Path_511" data-name="Path 511" d="M252.47,520.513c10.123-33.155,74.757-11.142,92.2-48.962,17.438-37.8,43.527-50.638,43.527-50.638-44.637-6.59-77.747,39.156-77.747,39.156-50.253,11.641-54.579,42.44-54.692,44.5Z" transform="translate(-3553.85 2671.907)" fill="#56609a"/>
    <path id="Path_512" data-name="Path 512" d="M338.867,503.184c-17.121-30.166-75.391,5.413-100.643-27.674s-53.515-39.926-53.515-39.926c42.123-16.17,84.427,21.265,84.427,21.265,51.59.408,62.505,29.509,63.094,31.5Z" transform="translate(-3639.545 2686.156)" fill="#56609a"/>
    <path id="Path_513" data-name="Path 513" d="M320.433,486.813c-10.123-33.155-74.757-11.142-92.2-48.962-17.438-37.8-43.527-50.638-43.527-50.638,44.637-6.59,77.769,39.156,77.769,39.156,50.253,11.641,54.579,42.418,54.715,44.5Z" transform="translate(-3639.545 2629.287)" fill="#56609a"/>
    <path id="Path_514" data-name="Path 514" d="M294.483,457c-4.054-34.423-71.564-24.3-81.982-64.611S178.69,334.8,178.69,334.8c45.09,1.472,69.526,52.382,69.526,52.382,47.377,20.4,46.132,51.476,45.905,53.537Z" transform="translate(-3647.158 2563.823)" fill="#56609a"/>
    <path id="Path_515" data-name="Path 515" d="M291.923,404.412c-4.054-34.423-71.564-24.3-81.982-64.611S176.13,282.21,176.13,282.21c45.09,1.472,69.526,52.382,69.526,52.382,47.377,20.4,46.132,51.476,45.905,53.537Z" transform="translate(-3650.396 2497.313)" fill="#56609a"/>
    <path id="Path_516" data-name="Path 516" d="M288.129,724.528H281.2c1.744,0,12.139-37-20.812-91.357s-47.4-180.269-19.363-301.747l16.125-50.955L269.06,266.02s-16.193,27.176-15.037,52.609c0,0-17.914,17.348-18.5,156.694S291.594,630.272,288.129,724.528Z" transform="translate(-3587.154 2476.838)" fill="#56609a"/>
  </g>
</svg>
