<svg xmlns="http://www.w3.org/2000/svg" width="190.665" height="282.92" viewBox="0 0 190.665 282.92">
  <g id="Group_119" data-name="Group 119" transform="translate(3150.725 -3009.122)">
    <path id="Path_498" data-name="Path 498" d="M643.382,436.58s50.8,39.912-25.4,123.964C541.8,644.6,662.121,666.959,645.193,718.363H711.11s-34.157-38.243-67.178-98.564C613.789,564.736,714.129,527.275,643.382,436.58Z" transform="translate(-3704.502 2572.542)" fill="#56609a"/>
    <path id="Path_499" data-name="Path 499" d="M621.6,436.58s50.8,39.912-25.4,123.964c-76.183,84.052,44.14,106.415,27.212,157.819H689.33s-34.157-38.243-67.178-98.564C592.009,564.736,692.349,527.275,621.6,436.58Z" transform="translate(-3721.409 2572.542)" fill="#5967af"/>
    <path id="Path_500" data-name="Path 500" d="M678.958,436.58s-50.8,39.912,25.4,123.964c76.183,84.052-44.14,106.415-27.212,157.819H611.23s34.157-38.243,67.178-98.564C708.551,564.736,608.21,527.275,678.958,436.58Z" transform="translate(-3689.936 2572.542)" fill="#858fc7"/>
    <path id="Path_502" data-name="Path 502" d="M608.749,716.76H683.12s-4.831-104.923-48.367-169.614c-43.536-64.709,11.19-107.037,11.19-107.037s-53.82,29.024-50.2,103.4S682.516,615.479,608.749,716.76Z" transform="translate(-3702.091 2575.282)" fill="#858fc7"/>
  </g>
</svg>
