<svg xmlns="http://www.w3.org/2000/svg" width="72.453" height="72.453" viewBox="0 0 72.453 72.453">
  <path id="Icon_metro-cancel" data-name="Icon metro-cancel" d="M38.8,1.928A36.227,36.227,0,1,0,75.024,38.155,36.227,36.227,0,0,0,38.8,1.928Zm0,65.661A29.434,29.434,0,1,1,68.232,38.155,29.434,29.434,0,0,1,38.8,67.589ZM50.118,20.041,38.8,31.362,27.477,20.041l-6.792,6.792L32,38.155,20.684,49.476l6.792,6.792L38.8,44.947,50.118,56.268l6.793-6.792L45.59,38.155,56.911,26.834Z" transform="translate(-2.571 -1.928)" fill="#242c5b"/>
</svg>
