<svg xmlns="http://www.w3.org/2000/svg" width="200.834" height="349.244" viewBox="0 0 200.834 349.244">
  <path id="Path_569" data-name="Path 569" d="M392.216,243c-7.3,13.045-17.322,21.186,25.484,50.532s1.537,22.987,5.608,44.5,40.771,16.627,30.573,43.042-27.52,13.7-19.358,45,15.287,24.461-3.053,53.808,18.34,62.6,18.34,62.6H493.3s-46.2-22.814-30.573-52.812,12.233-48.9,2.714-70.435,46.2-34.557,23.09-69.783c-23.09-35.208,13.59-59.344-35.323-74.343s7.125-55.11-27.52-63.251C391.019,203.711,397.724,233.153,392.216,243Z" transform="translate(-430.365 -56.764) rotate(-17)" fill="#cfc9e4"/>
</svg>
