<svg xmlns="http://www.w3.org/2000/svg" width="237.021" height="155.841" viewBox="0 0 237.021 155.841">
  <path id="Path_570" data-name="Path 570" d="M610.145,528.362c-24.8-13.43-61.645,7.111-88.255,26.769,8.81-12.048,30.551-40.04,49.687-50.276,24.685-13.226,12.977-20.359,12.977-20.359-26.429-3.148-51.657,25.75-69.073,52.609,5.571-16.4,14.992-40.017,26.565-52.677,18.887-20.631,5.5-23.507,5.5-23.507-25.7,5.73-39.9,40.7-47.513,71.587-1.631-12.3-5.979-51.567,1.517-73.738,8.968-26.5-4.439-23.711-4.439-23.711-18.774,13.792-20.088,44.863-16.351,73.534-8.334-24.979-21.537-48.26-42.1-52.858,0,0-13.407,2.854,5.481,23.508,12.977,14.177,23.3,42.214,28.467,58.338-17.415-26.587-42.35-54.76-68.461-51.635,0,0-11.686,7.134,12.977,20.337,18.276,9.806,38.953,35.759,48.419,48.578-26.542-19.5-62.936-39.541-87.53-26.225,0,0-8.221,10.938,19.567,14.132,12.8,1.449,28.762,8.379,42.259,15.445-18.729-5.548-37.662-6.953-49.8,3.1,0,0-5,10.395,18.5,8.47s63.592,15.038,63.592,15.038l12.728,1.925h18.661l12.728-1.925s40.085-16.963,63.592-15.038c23.53,1.925,18.525-8.47,18.525-8.47-12.5-10.35-32.2-8.561-51.476-2.6,13.792-7.315,30.437-14.675,43.686-16.215C618.388,539.323,610.145,528.362,610.145,528.362Zm-115.68,50.321-.045-.045.136-.091Zm-2.491,1.359a1.576,1.576,0,0,0,.068-.181V580a.7.7,0,0,0-.023.2l-.159.091s.023-.068.091-.227A.022.022,0,0,0,491.973,580.042Zm-.113,1.9.068.023-.068.068v-.045c-.045-.023-.068-.045-.113-.068Zm5.594-.476-.068.023.045-.045A.022.022,0,0,0,497.454,581.469Z" transform="translate(-366.581 -441.484) rotate(1)" fill="#1a254b"/>
</svg>
