<svg xmlns="http://www.w3.org/2000/svg" width="193.486" height="350.381" viewBox="0 0 193.486 350.381">
  <path id="Path_551" data-name="Path 551" d="M495.3,243c7.851,13.045,18.62,21.186-27.393,50.532s-1.652,22.987-6.028,44.5-43.825,16.627-32.863,43.042,29.581,13.7,20.808,45-16.432,24.461,3.282,53.808-19.714,62.6-19.714,62.6H386.649s49.659-22.814,32.863-52.812-13.15-48.9-2.917-70.435-49.659-34.557-24.819-69.783C416.6,314.238,377.168,290.1,429.745,275.1s-7.658-55.11,29.581-63.251C496.586,203.711,489.379,233.153,495.3,243Z" transform="translate(-242.996 -297.502) rotate(14)" fill="#cfc9e4"/>
</svg>
