<svg xmlns="http://www.w3.org/2000/svg" width="101.868" height="324.773" viewBox="0 0 101.868 324.773">
  <path id="Path_530" data-name="Path 530" d="M391.817,242.287c-6.858,12.76-16.264,20.723,23.927,49.428s1.443,22.484,5.265,43.526,38.279,16.264,28.7,42.1-25.838,13.4-18.175,44.013,14.352,23.927-2.867,52.632,17.219,61.232,17.219,61.232h40.828s-43.376-22.316-28.7-51.658,11.486-47.835,2.548-68.9,43.376-33.8,21.679-68.258C460.563,311.97,495,288.361,449.077,273.69s6.689-53.906-25.838-61.869C390.693,203.858,396.989,232.657,391.817,242.287Z" transform="translate(-385.69 -210.446)" fill="#6871c3"/>
</svg>
