<svg xmlns="http://www.w3.org/2000/svg" width="66.554" height="61.368" viewBox="0 0 66.554 61.368">
  <g id="tap" transform="matrix(-0.978, -0.208, 0.208, -0.978, 57.254, 61.368)">
    <g id="Group_382" data-name="Group 382" transform="translate(0 0)">
      <g id="Group_381" data-name="Group 381" transform="translate(0)">
        <path id="Path_2008" data-name="Path 2008" d="M4.139,31.158,15.022,43.117a5.54,5.54,0,0,0,7.835-.017,5.417,5.417,0,0,0,1.4-2.394,5.545,5.545,0,0,0,8.686-2.891,5.546,5.546,0,0,0,7.279-.5,5.478,5.478,0,0,0,1.389-2.336L46.741,40.1a5.54,5.54,0,0,0,7.835-7.835l-19.7-19.7,11.687-1.835A6.483,6.483,0,0,0,52.1,4.342,4.347,4.347,0,0,0,47.757,0H20.466A15.814,15.814,0,0,0,9.21,4.663L4.657,9.216a15.9,15.9,0,0,0-.518,21.942ZM6.7,11.262l4.553-4.553a12.939,12.939,0,0,1,9.21-3.815H47.757A1.448,1.448,0,0,1,49.2,4.342a3.581,3.581,0,0,1-3.077,3.525L31.612,10.148a1.446,1.446,0,0,0-.8,2.451L52.53,34.315a2.646,2.646,0,0,1-3.743,3.742L34.307,23.577a1.447,1.447,0,1,0-2.044,2.049l5.913,5.913a2.646,2.646,0,0,1-3.742,3.742l-5.916-5.916a1.447,1.447,0,1,0-2.044,2.049l3.019,3.019a2.646,2.646,0,0,1-3.742,3.742l-3.033-3.033c-.006,0,0,0,0,0l0,0,0,0,0,0h0a0,0,0,0,1,0,0A1.447,1.447,0,0,0,20.683,37.2l.124.124a2.647,2.647,0,0,1-3.693,3.792L6.278,29.21A13.008,13.008,0,0,1,6.7,11.262Z" fill="#fff"/>
      </g>
    </g>
    <g id="Group_384" data-name="Group 384" transform="translate(38.667 24.194)">
      <g id="Group_383" data-name="Group 383" transform="translate(0)">
        <path id="Path_2009" data-name="Path 2009" d="M.129,17.331A13.012,13.012,0,1,0,17.33.127a1.448,1.448,0,1,0-1.193,2.64A10.117,10.117,0,1,1,2.766,16.139,1.447,1.447,0,1,0,.129,17.331Z" transform="translate(0 0)" fill="#fff"/>
      </g>
    </g>
  </g>
</svg>
