<svg xmlns="http://www.w3.org/2000/svg" xmlns:xlink="http://www.w3.org/1999/xlink" width="604.96" height="411.6" viewBox="0 0 604.96 411.6">
  <defs>
    <linearGradient id="linear-gradient" x1="0.429" y1="1.007" x2="0.429" y2="0.4" gradientUnits="objectBoundingBox">
      <stop offset="0.045" stop-color="#171543"/>
      <stop offset="1" stop-color="#232c5a"/>
    </linearGradient>
    <linearGradient id="linear-gradient-2" x1="-123.942" y1="-1.861" x2="-123.196" y2="-1.861" gradientUnits="objectBoundingBox">
      <stop offset="0" stop-color="#171543"/>
      <stop offset="0.527" stop-color="#232c5a"/>
    </linearGradient>
    <linearGradient id="linear-gradient-3" x1="0.274" y1="0.846" x2="0.981" y2="-0.049" xlink:href="#linear-gradient-2"/>
    <linearGradient id="linear-gradient-4" x1="0.002" y1="0.5" x2="0.993" y2="0.5" gradientUnits="objectBoundingBox">
      <stop offset="0" stop-color="#171543"/>
      <stop offset="1" stop-color="#232c5a"/>
    </linearGradient>
  </defs>
  <g id="Group_229" data-name="Group 229" transform="translate(189.1 -723.612)">
    <g id="Group_79" data-name="Group 79" transform="translate(-189.1 723.612)">
      <path id="Path_66" data-name="Path 66" d="M-189.1,889.61c.66-.41,32.97-19.9,97.47,14.05,65.18,34.3,44.81,176.54,44.81,176.54s39.03,5.78,80.26,11.79l.47.07c41.26,5.87,80.32,11.34,80.32,11.34s20.37-142.24,92.59-156.75c71.45-14.36,96.94,13.45,97.46,14.03-.57-1.17-37.56-75.61-150.91-32.8,0,0,65.08-86.68,130.51-72.27,0,0-59.1-58.32-162.36,27.01.6-1.64,39.09-106.8,77.32-132.35,0,0-86.95-22.81-136.96,146.68,0,.02-.02.04-.02.06,0,0-.04-.22-.14-.63-.2.37-.31.57-.31.57v-.06c-.13-176.72-90-179.38-90-179.38C.9,752.82,8.15,864.57,8.26,866.31c-74.98-111.01-148.14-71.74-148.14-71.74,66.85,4.65,104.82,106.17,104.82,106.17C-131.72,827.68-188.22,888.65-189.1,889.61Z" transform="translate(189.1 -717.51)" fill="url(#linear-gradient)"/>
      <path id="Path_67" data-name="Path 67" d="M61.74,896.4c.1.41.14.63.14.63,0-.02.02-.04.02-.06l.16-1.15C61.94,896.05,61.82,896.24,61.74,896.4Z" transform="translate(189.1 -717.51)" fill="url(#linear-gradient-2)"/>
    </g>
    <g id="Group_80" data-name="Group 80" transform="translate(47.56 844.152)">
      <path id="Path_68" data-name="Path 68" d="M47.56,948.08c.56-.22,27.95-10.77,72.76,23.99,45.27,35.12,18.15,117.42,18.15,117.42s29.11,9.72,59.88,19.92l.35.12c30.81,10.09,59.99,19.58,59.99,19.58s27.12-82.3,84.41-83.62c56.68-1.31,72.44,23.46,72.76,23.97-.28-.97-18.51-63.02-111.15-45.6,0,0,61.61-57.57,109.78-37.65,0,0-37.36-52.69-128.04-1.33.68-1.17,44.43-76.51,77.19-90.89,0,0-63.51-29.27-124.82,93.78,0,.01-.02.03-.02.05,0,0,0-.17-.02-.5-.2.26-.32.39-.32.39s0-.04.01-.05c23.87-135.39-44.6-149.61-44.6-149.61,17.78,31.04,8.18,117.62,8.03,118.97-42.37-95.21-103.75-75.05-103.75-75.05,50.58,12.63,65.89,95.55,65.89,95.55C99.91,908.42,48.36,947.46,47.56,948.08Z" transform="translate(-47.56 -838.05)" fill="url(#linear-gradient-3)"/>
      <path id="Path_69" data-name="Path 69" d="M265.53,1031.09c-.03.33-.06.5-.06.5s.02-.03.03-.04l.42-.8C265.77,1030.88,265.63,1031,265.53,1031.09Z" transform="translate(-47.56 -838.05)" fill="url(#linear-gradient-4)"/>
    </g>
    <g id="Group_81" data-name="Group 81" transform="translate(-40.61 859.062)">
      <path id="Path_70" data-name="Path 70" d="M19.34,968.6c-17.48-13.89-32.9-13.59-40.43-4.11s-4.33,24.56,13.15,38.45,45.29,7.97,45.29,7.97S36.82,982.49,19.34,968.6Z" transform="translate(40.61 -852.96)" fill="#484d66"/>
      <path id="Path_71" data-name="Path 71" d="M35.23,943.06c-18.37-4.87-30.29.61-32.93,10.58s5,20.63,23.36,25.5,38.04-9.22,38.04-9.22S53.6,947.93,35.23,943.06Z" transform="translate(40.61 -852.96)" fill="#5c637f"/>
      <path id="Path_72" data-name="Path 72" d="M1.4,925.39c6.28,20.61.56,34.34-10.63,37.74s-23.59-4.81-29.86-25.42,8.88-43.48,8.88-43.48S-4.88,904.78,1.4,925.39Z" transform="translate(40.61 -852.96)" fill="#484d66"/>
      <path id="Path_73" data-name="Path 73" d="M32.05,911.07c1.96,18.52-5.14,29.24-15.18,30.3s-19.23-7.93-21.2-26.45S10.3,879.46,10.3,879.46,30.08,892.55,32.05,911.07Z" transform="translate(40.61 -852.96)" fill="#5c637f"/>
      <path id="Path_74" data-name="Path 74" d="M56.74,914.54c-16.76,1.12-25.18,9.08-24.58,18.17s10.02,15.86,26.78,14.74,29.24-18.49,29.24-18.49S73.5,913.42,56.74,914.54Z" transform="translate(40.61 -852.96)" fill="#6e7499"/>
      <path id="Path_75" data-name="Path 75" d="M30.56,892.68c-1.98,15.06,3.58,23.95,11.75,25.03s15.85-6.07,17.83-21.13-11.2-29.22-11.2-29.22S32.55,877.62,30.56,892.68Z" transform="translate(40.61 -852.96)" fill="#6e7499"/>
      <path id="Path_76" data-name="Path 76" d="M76.55,891.32C63,893.28,56.64,900.28,57.7,907.63s9.14,12.27,22.69,10.31,22.62-16.85,22.62-16.85S90.11,889.37,76.55,891.32Z" transform="translate(40.61 -852.96)" fill="#8a92b7"/>
      <path id="Path_77" data-name="Path 77" d="M66.98,864.76c-8.2,10.96-7.74,20.41-1.8,24.86s15.14,2.22,23.34-8.75,4.08-27.91,4.08-27.91S75.18,853.8,66.98,864.76Z" transform="translate(40.61 -852.96)" fill="#8a92b7"/>
    </g>
    <g id="Group_82" data-name="Group 82" transform="translate(99.08 949.122)">
      <path id="Path_78" data-name="Path 78" d="M187.68,1074.26c-21.96,4.03-31.88,15.83-29.69,27.74s15.65,19.42,37.61,15.4,35.8-28.86,35.8-28.86S209.64,1070.23,187.68,1074.26Z" transform="translate(-99.08 -943.02)" fill="#484d66"/>
      <path id="Path_79" data-name="Path 79" d="M178.89,1045.48c-15.75,10.63-19.46,23.21-13.7,31.76s18.83,9.81,34.58-.81,18.08-34.71,18.08-34.71S194.64,1034.86,178.89,1045.48Z" transform="translate(-99.08 -943.02)" fill="#5c637f"/>
      <path id="Path_80" data-name="Path 80" d="M143.33,1059.34c19.65,8.83,26.23,22.18,21.44,32.84s-19.14,14.6-38.79,5.77-26.9-35.29-26.9-35.29S123.68,1050.5,143.33,1059.34Z" transform="translate(-99.08 -943.02)" fill="#484d66"/>
      <path id="Path_81" data-name="Path 81" d="M152.71,1026.84c15.24,10.7,18.64,23.1,12.83,31.37s-18.63,9.27-33.86-1.44-17.07-34.35-17.07-34.35S137.47,1016.13,152.71,1026.84Z" transform="translate(-99.08 -943.02)" fill="#5c637f"/>
      <path id="Path_82" data-name="Path 82" d="M171.57,1010.52c-10.18,13.35-9.73,24.94-2.48,30.47s18.54,2.89,28.72-10.47,5.31-34.18,5.31-34.18S181.75,997.17,171.57,1010.52Z" transform="translate(-99.08 -943.02)" fill="#6e7499"/>
      <path id="Path_83" data-name="Path 83" d="M137.89,1015.86c10.04,11.4,20.4,13.06,26.58,7.61s5.86-15.93-4.18-27.33-29.38-10.79-29.38-10.79S127.85,1004.45,137.89,1015.86Z" transform="translate(-99.08 -943.02)" fill="#6e7499"/>
      <path id="Path_84" data-name="Path 84" d="M167.12,980.33c-7.44,11.49-6.35,20.88-.12,24.92s15.25,1.19,22.69-10.3,2.19-28.12,2.19-28.12S174.56,968.84,167.12,980.33Z" transform="translate(-99.08 -943.02)" fill="#8a92b7"/>
      <path id="Path_85" data-name="Path 85" d="M140.82,970.07c2.86,13.39,10.28,19.26,17.54,17.71s11.63-9.94,8.76-23.33-18.33-21.43-18.33-21.43S137.95,956.68,140.82,970.07Z" transform="translate(-99.08 -943.02)" fill="#8a92b7"/>
    </g>
  </g>
</svg>
