<svg xmlns="http://www.w3.org/2000/svg" width="80.621" height="99.045" viewBox="0 0 80.621 99.045">
  <g id="Group_343" data-name="Group 343" transform="translate(0 16.978) rotate(-17)">
    <path id="Path_498" data-name="Path 498" d="M613.091,436.58s-15.471,12.155,7.736,37.753-13.443,32.409-8.287,48.064H592.464a176.548,176.548,0,0,0,20.459-30.018C622.1,475.61,591.545,464.2,613.091,436.58Z" transform="translate(-582.313 -436.58)" fill="#4c5694"/>
    <path id="Path_499" data-name="Path 499" d="M591.311,436.58s-15.471,12.155,7.736,37.753S585.6,506.742,590.759,522.4H570.684a176.548,176.548,0,0,0,20.459-30.018C600.323,475.61,569.765,464.2,591.311,436.58Z" transform="translate(-548.75 -436.58)" fill="#4c5694"/>
    <path id="Path_500" data-name="Path 500" d="M626.737,436.58s15.471,12.155-7.736,37.753,13.443,32.409,8.287,48.064h20.075A176.546,176.546,0,0,1,626.9,492.38C617.724,475.61,648.283,464.2,626.737,436.58Z" transform="translate(-611.23 -436.58)" fill="#4c5694"/>
    <path id="Path_502" data-name="Path 502" d="M618.221,524.364h-22.65s1.471-31.954,14.73-51.656-3.408-32.6-3.408-32.6,16.391,8.839,15.287,31.489S595.755,493.519,618.221,524.364Z" transform="translate(-577.63 -438.2)" fill="#4c5694"/>
  </g>
</svg>
