<svg xmlns="http://www.w3.org/2000/svg" xmlns:xlink="http://www.w3.org/1999/xlink" width="1920" height="696.222" viewBox="0 0 1920 696.222"><defs><linearGradient id="a" y1="0.5" x2="1" y2="0.5" gradientUnits="objectBoundingBox"><stop offset="0.059" stop-color="#f5d26a"/><stop offset="0.665" stop-color="#4ab0b9"/></linearGradient></defs><g transform="translate(-1073.955 -267.718)"><rect width="1920" height="696.222" transform="translate(1073.955 267.718)" fill="url(#a)"/><ellipse cx="14.72" cy="3.66" rx="14.72" ry="3.66" transform="translate(2878.735 327.739)" fill="#267272"/><ellipse cx="19.06" cy="4.74" rx="19.06" ry="4.74" transform="translate(2721.525 381.668)" fill="#1a5654"/><ellipse cx="19.06" cy="4.74" rx="19.06" ry="4.74" transform="translate(2026.945 318.21)" fill="#267272"/><ellipse cx="53.69" cy="3.66" rx="53.69" ry="3.66" transform="translate(2869.875 755.754)" fill="#267272"/><ellipse cx="13.84" cy="4.11" rx="13.84" ry="4.11" transform="translate(2067.785 714.489)" fill="#267272"/><ellipse cx="24.77" cy="3.73" rx="24.77" ry="3.73" transform="translate(2935.125 439.734)" fill="#267272"/><ellipse cx="24.77" cy="4.61" rx="24.77" ry="4.61" transform="translate(2071.885 473.91)" fill="#1a5654"/><ellipse cx="18.04" cy="5.36" rx="18.04" ry="5.36" transform="translate(2166.615 622.813)" fill="#267272"/><ellipse cx="29.44" cy="7.32" rx="29.44" ry="7.32" transform="translate(2148.335 860.19)" fill="#267272"/><ellipse cx="40.12" cy="8.96" rx="40.12" ry="8.96" transform="translate(2502.285 837.79)" fill="#267272"/><ellipse cx="38.68" cy="8.64" rx="38.68" ry="8.64" transform="translate(2752.805 874.83)" fill="#1a5654"/><ellipse cx="60.56" cy="4.32" rx="60.56" ry="4.32" transform="translate(2339.365 866.19)" fill="#267272"/><ellipse cx="9.67" cy="2.16" rx="9.67" ry="2.16" transform="translate(2208.145 292.284)" fill="#267272"/><ellipse cx="9.67" cy="2.16" rx="9.67" ry="2.16" transform="translate(2216.125 294.454)" fill="#267272"/><ellipse cx="9.67" cy="2.16" rx="9.67" ry="2.16" transform="translate(2347.715 311.781)" fill="#267272"/><ellipse cx="38.68" cy="8.64" rx="38.68" ry="8.64" transform="translate(2483.695 826.98)" fill="#267272"/><ellipse cx="29.44" cy="7.32" rx="29.44" ry="7.32" transform="translate(2671.725 758.089)" fill="#267272"/><ellipse cx="40.68" cy="3.52" rx="40.68" ry="3.52" transform="translate(2641.825 354.443)" fill="#56c3c4"/><ellipse cx="40.68" cy="2.55" rx="40.68" ry="2.55" transform="translate(2579.525 349.498)" fill="#56c3c4"/><ellipse cx="22.72" cy="7.06" rx="22.72" ry="7.06" transform="translate(2820.325 646.757)" fill="#93d5da"/><ellipse cx="15.23" cy="2.04" rx="15.23" ry="2.04" transform="translate(2422.785 664.068)" fill="#93d5da"/></g></svg>