<svg xmlns="http://www.w3.org/2000/svg" width="966.045" height="690.942" viewBox="0 0 966.045 690.942">
  <g id="Group_235" data-name="Group 235" transform="translate(7275.045 -401.499)">
    <g id="Group_228" data-name="Group 228" transform="translate(-7275.045 401.499)">
      <g id="Group_70" data-name="Group 70" transform="translate(0 3.313)">
        <path id="Path_38" data-name="Path 38" d="M966.045,1004.289a81.83,81.83,0,0,1-21.919,56.22c-13.546,14.379-32.254,23.279-52.923,23.279H0V397.66H785.414c7.181,0,13.007,6.174,13.007,13.806a14.213,14.213,0,0,1-3.807,9.774,12.582,12.582,0,0,1-9.2,4.042H771.071a8.709,8.709,0,1,0,0,17.416h43.771c17.439,0,31.581,15.023,31.581,33.555a34.546,34.546,0,0,1-9.248,23.721,30.625,30.625,0,0,1-22.332,9.824H749.767a12.792,12.792,0,1,0,0,25.581H883.185c13.863,0,25.1,11.936,25.1,26.657a27.422,27.422,0,0,1-7.355,18.854,24.294,24.294,0,0,1-17.747,7.813h-167.4c-10.969,0-19.871,9.462-19.871,21.137s8.9,21.137,19.871,21.137h16.66c32.235,0,58.374,27.753,58.374,62a63.78,63.78,0,0,1-17.1,43.832,56.533,56.533,0,0,1-41.271,18.16h-53.9c-11.7,0-21.188,7.5-21.188,16.763S666.84,788.5,678.54,788.5H812.381c15.026,0,27.216,12.952,27.216,28.91a29.753,29.753,0,0,1-7.97,20.443,26.4,26.4,0,0,1-19.246,8.467H745.537c-22.313,0-40.4,17.8-40.4,39.75A39.91,39.91,0,0,0,736.4,924.791H891.2C932.541,924.791,966.045,960.387,966.045,1004.289Z" transform="translate(0 -397.66)" fill="#d5d9ee"/>
      </g>
      <g id="Group_74" data-name="Group 74">
        <g id="Group_73" data-name="Group 73">
          <path id="Path_49" data-name="Path 49" d="M933.225,1007.555a80.821,80.821,0,0,1-22.859,56.6,76.837,76.837,0,0,1-55.184,23.447H0V396.66H757.736a13.74,13.74,0,0,1,13.566,13.9,14.084,14.084,0,0,1-3.975,9.847,13.406,13.406,0,0,1-9.6,4.076H744.871a8.775,8.775,0,0,0,0,17.545h39.852c18.193,0,32.94,15.124,32.94,33.778a34.172,34.172,0,0,1-9.648,23.891,32.421,32.421,0,0,1-23.291,9.9H724.3a12.883,12.883,0,0,0,0,25.758H851.245c14.449,0,26.171,12.026,26.171,26.847a27.1,27.1,0,0,1-7.661,18.988,25.768,25.768,0,0,1-18.51,7.87H691.473c-10.609,0-19.211,9.524-19.211,21.278s8.593,21.288,19.211,21.288H703.08c33.621,0,60.877,27.957,60.877,62.431a63.089,63.089,0,0,1-17.828,44.15,59.924,59.924,0,0,1-43.049,18.281H655.49c-11.3,0-20.459,7.557-20.459,16.879s9.159,16.889,20.459,16.889H782.7c15.678,0,28.389,13.035,28.389,29.117a29.437,29.437,0,0,1-8.3,20.582,27.984,27.984,0,0,1-20.075,8.525H720.236c-21.563,0-39.026,17.928-39.026,40.034,0,19,12.9,34.888,30.2,38.994H855.2C898.288,927.5,933.225,963.344,933.225,1007.555Z" transform="translate(0 -396.66)" fill="#a2a7d1"/>
        </g>
      </g>
    </g>
    <text transform="translate(-6930 478)" fill="#242c5b" font-size="95" font-family="Prompt-Bold, Prompt" font-weight="700"/>  </g>
</svg>
