<svg xmlns="http://www.w3.org/2000/svg" width="1004.87" height="690.942" viewBox="0 0 1004.87 690.942"><g transform="translate(7275.045 -401.499)"><g transform="translate(-7275.045 4.839)"><g transform="translate(0 399.973)"><path d="M1004.87,1004.289a80.133,80.133,0,0,1-22.8,56.22,76.834,76.834,0,0,1-55.05,23.279H0V397.66H816.98a13.667,13.667,0,0,1,13.53,13.806,13.918,13.918,0,0,1-3.96,9.774,13.333,13.333,0,0,1-9.57,4.042H802.06a8.722,8.722,0,1,0,0,17.416h45.53c18.14,0,32.85,15.023,32.85,33.555a33.83,33.83,0,0,1-9.62,23.721,32.453,32.453,0,0,1-23.23,9.824H779.9c-7.47,0-13.52,5.732-13.52,12.791s6.05,12.791,13.52,12.791H918.68c14.42,0,26.11,11.936,26.11,26.657a26.853,26.853,0,0,1-7.65,18.854,25.743,25.743,0,0,1-18.46,7.813H744.55a21.142,21.142,0,0,0,0,42.273h17.33c33.53,0,60.72,27.753,60.72,62a62.458,62.458,0,0,1-17.79,43.832,59.9,59.9,0,0,1-42.93,18.16H705.81c-12.17,0-22.04,7.5-22.04,16.763s9.87,16.763,22.04,16.763H845.03c15.63,0,28.31,12.952,28.31,28.91a29.136,29.136,0,0,1-8.29,20.443,27.971,27.971,0,0,1-20.02,8.467H775.5c-23.21,0-42.02,17.8-42.02,39.75,0,18.864,13.89,34.641,32.52,38.724H927.02C970.02,924.791,1004.87,960.387,1004.87,1004.289Z" transform="translate(0 -397.66)" fill="#d5d9ee"/></g><g transform="translate(0 396.66)"><path d="M972.05,1007.555a79.173,79.173,0,0,1-23.81,56.6,81.675,81.675,0,0,1-57.48,23.447H0V396.66H789.26a14.021,14.021,0,0,1,14.13,13.9,13.8,13.8,0,0,1-4.14,9.847,14.251,14.251,0,0,1-10,4.076H775.86a8.774,8.774,0,1,0,0,17.545h41.51c18.95,0,34.31,15.124,34.31,33.778A33.475,33.475,0,0,1,841.63,499.7a34.463,34.463,0,0,1-24.26,9.9H754.43a12.88,12.88,0,1,0,0,25.758H886.66A27.063,27.063,0,0,1,913.92,562.2a26.549,26.549,0,0,1-7.98,18.988,27.39,27.39,0,0,1-19.28,7.87H720.24c-11.05,0-20.01,9.524-20.01,21.278s8.95,21.288,20.01,21.288h12.09c35.02,0,63.41,27.957,63.41,62.431a61.8,61.8,0,0,1-18.57,44.15,63.7,63.7,0,0,1-44.84,18.281H682.76c-11.77,0-21.31,7.557-21.31,16.879s9.54,16.889,21.31,16.889h132.5a29.346,29.346,0,0,1,29.57,29.117,28.836,28.836,0,0,1-8.65,20.582,29.746,29.746,0,0,1-20.91,8.525H750.2c-22.46,0-40.65,17.928-40.65,40.034a40.179,40.179,0,0,0,31.46,38.994H890.78C935.66,927.5,972.05,963.344,972.05,1007.555Z" transform="translate(0 -396.66)" fill="#a2a7d1"/></g></g><ellipse cx="7.61" cy="2.58" rx="7.61" ry="2.58" transform="translate(-6694.665 898.429)" fill="#414871"/><ellipse cx="7.61" cy="2.58" rx="7.61" ry="2.58" transform="translate(-6585.755 1042.3)" fill="#6e7499"/><ellipse cx="7.61" cy="2.58" rx="7.61" ry="2.58" transform="translate(-7263.705 656.828)" fill="#414871"/><ellipse cx="7.61" cy="2.58" rx="7.61" ry="2.58" transform="translate(-7194.475 461.915)" fill="#6e7499"/><ellipse cx="15.22" cy="5.15" rx="15.22" ry="5.15" transform="translate(-6702.275 751.055)" fill="#414871"/><ellipse cx="20.53" cy="6.77" rx="20.53" ry="6.77" transform="translate(-7194.835 683.962)" fill="#6e7499"/><ellipse cx="20.53" cy="9.02" rx="20.53" ry="9.02" transform="translate(-6897.855 820.894)" fill="#6e7499"/><ellipse cx="30.64" cy="10.47" rx="30.64" ry="10.47" transform="translate(-6846.225 1013.05)" fill="#6e7499"/><ellipse cx="7.61" cy="2.58" rx="7.61" ry="2.58" transform="translate(-7001.385 545.399)" fill="#6e7499"/><ellipse cx="7.61" cy="2.58" rx="7.61" ry="2.58" transform="translate(-7107.145 527.087)" fill="#6e7499"/><ellipse cx="7.61" cy="2.58" rx="7.61" ry="2.58" transform="translate(-7087.195 766.649)" fill="#414871"/><ellipse cx="11.54" cy="3.38" rx="11.54" ry="3.38" transform="translate(-6676.315 559.626)" fill="#6e7499"/><text transform="translate(-6915 478)" fill="#242c5b" font-size="95" font-family="Prompt-Bold, Prompt" font-weight="700"/></g></svg>