<svg xmlns="http://www.w3.org/2000/svg" width="1925.153" height="626.084" viewBox="0 0 1925.153 626.084">
  <g id="Group_471" data-name="Group 471" transform="translate(5.153 -10334)">
    <rect id="Rectangle_178" data-name="Rectangle 178" width="1920" height="268" transform="translate(0 10334)" fill="#242c5b"/>
    <path id="Path_2001" data-name="Path 2001" d="M162.843,400.894c.307,10.257-2,22.389.174,32.2,2.368,10.616,13.294,18.918,17.781,28.762,3.324,7.267,4.653,16.937,4.985,24.975.615,15.394,6.032,27.763,10.8,42.166,5.816,17.41,6.954,33.636,6.954,51.94,0,13.588-.49,26.7,1.978,39.931,2.559,13.728.565,29.648.565,43.7,0,6,.3,12.08.058,18.067-.274,6.785-3.789,13.561-2.493,20.276,1.188,6.215,6.556,11.4,7.652,17.918,1.255,7.478-.058,16.717-.108,24.318-.058,7.294,1.072,11.948,2.559,18.865l-.291,4.1a6.923,6.923,0,0,0,4.8,6.031c.449.675,3.174,5.505,3.166,5.5,2.177,2.174.324,3.813,5.027,2.288,2.991-.964,4.412-6.136,4.985-8.836,1.712-7.995.091-18.094.1-26.3,0-15.578,2.966-30.217,5.093-45.357.773-5.54,2.493-9.994,2.6-15.85.125-8.1.075-16.279-.05-24.388-.116-7.425,1.62-11.536,4.52-18.129,3.008-6.838,3.149-12.615,3.108-19.987,0-5.023-1.072-11.4.374-16.191,1.23-4.1,4.52-4.515,5.866-7.7,1.737-4.094,1.429-7.793,1.388-12.606-.05-6-1.172-13.6-.125-19.382,1.113-6.136,2.725-9.573,2.684-16.06-.083-12.492-1.313-25.7,1.928-37.458,1.147-4.173,1.454-7.013,3.157-11.019,1.454-3.384,2.21-4.2,3.182-7.89,2.293-8.766,5.949-6.794,12.214-11.23,7.32-5.181,2.044-12.878,7.345-18.506,4.154-4.453,14.732-3.357,20.141-2.235,1.039,3.98-.349,7.995.582,11.922.648,2.718,2.343,5.479,3.606,7.951,1.587,3.077,4.62,6.136,5.891,9.266,1.6,3.927,1.878,9.3,3.049,13.491a71.721,71.721,0,0,1,2.493,21.565c-.091,7.977,2.534,14.692,2.559,22.924,0,7.3-2.651,12.825-2.559,20.049a71.467,71.467,0,0,0,2.883,20.373c2.26,7.942,2.326,15.06,2.243,23.336-.042,4.146-.723,7.811,1.363,11.4,2.883,4.944,6.647,6.277,8.591,12.15,1.1,3.279-.216,5.847,3.938,6.689,5.068,1.017,6.2-4.664,6.647-8.766.881-7.986-.183-16.823-.183-24.9V588.9c0-8.424-1.587-18.97.515-27.053,2.243-8.617,7.287-13.307,7.146-22.792-.166-10.406-.9-15.148,4.985-23.371,9.912-13.8,10.22-27.176,10.237-43.753,0-4.243-.723-8.968-.183-13.149.673-5.26,4.711-8.635,5.451-13.851.59-4.164-1.521-6.18,2.759-8.9,1.853-1.175,10.029-1.482,12.38-.657,8.01,2.788,4.6,14.28,4.985,21.74.2,3.752,1.662,6.075,2.385,9.643.98,4.8-.706,9.766.656,14.456,5.068-1.262,4.013-8.021,6.049-11.931,2.867-5.479,8.915-9.573,10.9-15.569.673-2.043-.042-4.743.831-6.733,1.147-2.542,4.5-4.19,5.816-7.013,2.044-4.313,1.329-8.232,1.338-13.009,0-6.215-.424-8.933,5.658-10.274,4.246-.929,9.14-2.051,13.485-2.63,10.037-1.42,19.318,1.482,24.619-10.379,7.769-.132,15.6,7.013,21.512,11.694,4.329,3.445,6.93,5.97,8.151,11.624,1.138,5.33-.366,10.037,1.919,15.139,3.639,8.109,10.993,14.745,13.294,23.669,1.113,4.313.324,8.7.415,13.088.116,5.663,2.285,10.318,2.7,15.779.623,8.118.233,16.656,2.3,24.388,1.338,5.032,6.29,7.784,8.666,12.676,1.986,4.094,2.268,10.371,8.068,8.442,12.264-4.068,4.911-41.018,8.209-51.406,4.911-15.437,4.586-37.853,19.027-47.89,4.013-2.788,8.666-5.26,12.779-7.995a109.488,109.488,0,0,1,10.8-6.426c6.464-3.13,20.365-8.766,22.957-1.552,33.235,92.046,38.221,0,57.331,0,7.694,0,13.618.815,20.174-2.682,7.727-4.129,16.792-2.63,25.467-2.682,9.971-.053,18.953,2.63,28.749,2.63,3.955,0,7.478.815,10.926-1.42,1.587-1.034,1.836-2.63,3.024-3.936,3.24-3.682,4.628-3.13,8.4-5.882,3-2.192,5.235-6.347,7.553-9.213,2.933-3.647,6.747-5.768,9.788-9.082,6.365-6.934,11.466-17.278,20.772-21.039,6.8-2.718,14.408-.184,21.6-3.13,7.411-3.016,19.11-5.812,21.537-15.034.931-3.507,1.82-62.285-.224-65.2-3.639-5.207-20.182-5.83-25.716-5.768-24.927.245-49.853,0-74.78,0-9.929,0-21.2,1.552-31.042.132-12.862-1.85-24.794-8.4-38.021-8.249-12.8.149-25.608.07-38.4.061-7.993,0-16.236.666-24.2.14-9.14-.6-17.656-3-26.962-2.884-11.632.14-23.215.053-34.822.061-15.995,0-30.261,2.428-46.039,5.076-9.422,1.578-18.8,3.507-28.25,5.128-9.239,1.56-18.678.114-27.984.4-10.569.324-20.4,2.928-31.034,2.849-8.051-.061-16.2-.456-24.237-.167-20.191.728-39.691,5.54-60.023,5.505-15.895,0-31.806-.149-47.693.07-7.893.105-14.956-2.516-22.683-2.849-7.436-.324-14.956.1-22.434.1-11.267,0-23.057-1.052-34.291-.114-13.46,1.122-23.547,57.314-32.646,66.764C167.147,358.526,162.561,392.522,162.843,400.894Z" transform="translate(-167.226 10177.559)" fill="#242c5b"/>
    <path id="Path_2001-2" data-name="Path 2001" d="M842.456,400.894c-.307,10.257,2,22.389-.174,32.2-2.368,10.616-13.294,18.918-17.781,28.762-3.323,7.267-4.653,16.937-4.985,24.975-.615,15.394-6.032,27.763-10.8,42.166-5.816,17.41-6.955,33.636-6.955,51.94,0,13.588.49,26.7-1.977,39.931-2.559,13.728-.565,29.648-.565,43.7,0,6-.3,12.08-.058,18.067.274,6.785,3.789,13.561,2.493,20.276-1.188,6.215-6.556,11.4-7.652,17.918-1.255,7.478.058,16.717.108,24.318.058,7.294-1.072,11.948-2.559,18.865l.291,4.1a6.923,6.923,0,0,1-4.8,6.031c-.449.675-3.174,5.505-3.166,5.5-2.177,2.174-.324,3.813-5.027,2.288-2.991-.964-4.412-6.136-4.985-8.836-1.712-7.995-.091-18.094-.1-26.3,0-15.578-2.966-30.217-5.093-45.357-.773-5.54-2.493-9.994-2.6-15.85-.125-8.1-.075-16.279.05-24.388.116-7.425-1.62-11.536-4.52-18.129-3.008-6.838-3.149-12.615-3.107-19.987,0-5.023,1.072-11.4-.374-16.191-1.23-4.1-4.52-4.515-5.866-7.7-1.737-4.094-1.429-7.793-1.388-12.606.05-6,1.172-13.6.125-19.382-1.113-6.136-2.725-9.573-2.684-16.06.083-12.492,1.313-25.7-1.928-37.458-1.147-4.173-1.454-7.013-3.157-11.019-1.454-3.384-2.21-4.2-3.182-7.89-2.293-8.766-5.949-6.794-12.214-11.23-7.32-5.181-2.044-12.878-7.345-18.506-4.154-4.453-14.732-3.357-20.141-2.235-1.039,3.98.349,7.995-.582,11.922-.648,2.718-2.343,5.479-3.606,7.951-1.587,3.077-4.62,6.136-5.891,9.266-1.6,3.927-1.878,9.3-3.049,13.491a71.724,71.724,0,0,0-2.493,21.565c.091,7.977-2.534,14.692-2.559,22.924,0,7.3,2.651,12.825,2.559,20.049a71.467,71.467,0,0,1-2.883,20.373c-2.26,7.942-2.326,15.06-2.243,23.336.042,4.146.723,7.811-1.363,11.4-2.883,4.944-6.647,6.277-8.591,12.15-1.1,3.279.216,5.847-3.938,6.689-5.068,1.017-6.2-4.664-6.647-8.766-.881-7.986.183-16.823.183-24.9V588.9c0-8.424,1.587-18.97-.515-27.053-2.243-8.617-7.287-13.307-7.146-22.792.166-10.406.9-15.148-4.985-23.371-9.912-13.8-10.22-27.176-10.237-43.753,0-4.243.723-8.968.183-13.149-.673-5.26-4.711-8.635-5.451-13.851-.59-4.164,1.521-6.18-2.759-8.9-1.853-1.175-10.029-1.482-12.38-.657-8.01,2.788-4.6,14.28-4.985,21.74-.2,3.752-1.662,6.075-2.385,9.643-.98,4.8.706,9.766-.656,14.456-5.068-1.262-4.013-8.021-6.049-11.931-2.867-5.479-8.915-9.573-10.9-15.569-.673-2.043.042-4.743-.831-6.733-1.147-2.542-4.5-4.19-5.816-7.013-2.044-4.313-1.329-8.232-1.338-13.009,0-6.215.424-8.933-5.658-10.274-4.246-.929-9.14-2.051-13.485-2.63-10.037-1.42-19.318,1.482-24.619-10.379-7.769-.132-15.6,7.013-21.512,11.694-4.329,3.445-6.93,5.97-8.151,11.624-1.138,5.33.366,10.037-1.919,15.139-3.639,8.109-10.993,14.745-13.294,23.669-1.113,4.313-.324,8.7-.415,13.088-.116,5.663-2.285,10.318-2.7,15.779-.623,8.118-.233,16.656-2.3,24.388-1.338,5.032-6.29,7.784-8.666,12.676-1.986,4.094-2.268,10.371-8.068,8.442-12.264-4.068-4.911-41.018-8.209-51.406-4.911-15.437-4.586-37.853-19.027-47.89-4.013-2.788-8.666-5.26-12.779-7.995a109.488,109.488,0,0,0-10.8-6.426c-6.464-3.13-20.365-8.766-22.957-1.552-33.235,92.046-38.221,0-57.331,0-7.694,0-13.618.815-20.174-2.682-7.727-4.129-16.792-2.63-25.467-2.682-9.971-.053-18.953,2.63-28.749,2.63-3.955,0-7.478.815-10.926-1.42-1.587-1.034-1.836-2.63-3.024-3.936-3.24-3.682-4.628-3.13-8.4-5.882-3-2.192-5.235-6.347-7.553-9.213-2.933-3.647-6.747-5.768-9.788-9.082-6.365-6.934-11.466-17.278-20.772-21.039-6.8-2.718-14.408-.184-21.6-3.13-7.411-3.016-19.11-5.812-21.537-15.034-.931-3.507-1.82-62.285.224-65.2,3.639-5.207,20.182-5.83,25.716-5.768,24.927.245,49.853,0,74.78,0,9.929,0,21.2,1.552,31.042.132,12.862-1.85,24.794-8.4,38.021-8.249,12.8.149,25.608.07,38.4.061,7.993,0,16.236.666,24.2.14,9.14-.6,17.656-3,26.962-2.884,11.632.14,23.215.053,34.822.061,15.995,0,30.261,2.428,46.039,5.076,9.422,1.578,18.8,3.507,28.25,5.128,9.239,1.56,18.678.114,27.984.4,10.569.324,20.4,2.928,31.034,2.849,8.051-.061,16.2-.456,24.237-.167,20.191.728,39.691,5.54,60.023,5.505,15.895,0,31.806-.149,47.693.07,7.893.105,14.956-2.516,22.683-2.849,7.436-.324,14.956.1,22.434.1,11.267,0,23.057-1.052,34.291-.114,13.46,1.122,23.547,57.314,32.646,66.764C838.152,358.526,842.738,392.522,842.456,400.894Z" transform="translate(1065.927 10146.559)" fill="#242c5b"/>
  </g>
</svg>
