<svg id="Group_341" data-name="Group 341" xmlns="http://www.w3.org/2000/svg" width="197.548" height="368.191" viewBox="0 0 197.548 368.191">
  <path id="Path_505" data-name="Path 505" d="M201.6,326.516c-3.2-21.963,40.214-26.892,39.968-53.551s11.351-41.214,11.351-41.214c-27.631,8.394-34.3,43.925-34.3,43.925-25.906,20.484-19.991,39.475-19.5,40.722Z" transform="translate(-87.365 -206.743)" fill="#242c5b"/>
  <path id="Path_506" data-name="Path 506" d="M295.607,305.6c1.725-22.122-41.939-24.137-43.476-50.739S238.04,214.5,238.04,214.5c28.138,6.509,37.17,41.519,37.17,41.519,27.225,18.686,22.6,38.054,22.18,39.315Z" transform="translate(-190.143 -214.5)" fill="#242c5b"/>
  <path id="Path_507" data-name="Path 507" d="M311.641,339.454c-4.538-21.731-47.013-11.424-55.958-36.532s-24.833-34.792-24.833-34.792c28.834-1.624,47.318,29.443,47.318,29.443,31.371,10.322,32.342,30.2,32.313,31.531Z" transform="translate(-193.419 -190.412)" fill="#242c5b"/>
  <path id="Path_508" data-name="Path 508" d="M301.908,386.356c-2.291-22.079-45.607-16.164-51.928-42.055S228.83,307.16,228.83,307.16c28.849,1.334,44.056,34.125,44.056,34.125,30.153,13.468,29.1,33.343,28.921,34.662Z" transform="translate(-180.759 -172.832)" fill="#242c5b"/>
  <path id="Path_509" data-name="Path 509" d="M306.588,427.886c-2.29-22.079-45.607-16.164-51.928-42.055S233.51,348.69,233.51,348.69c28.849,1.334,44.056,34.126,44.056,34.126,30.153,13.468,29.1,33.343,28.921,34.662Z" transform="translate(-192.223 -154.157)" fill="#242c5b"/>
  <path id="Path_510" data-name="Path 510" d="M301.231,471.351c2.609-22.035-40.939-25.8-41.4-52.45s-12.453-40.881-12.453-40.881C275.224,385.66,282.849,421,282.849,421c26.457,19.774,21.049,38.924,20.586,40.171Z" transform="translate(-209.93 -140.968)" fill="#242c5b"/>
  <path id="Path_511" data-name="Path 511" d="M339.349,484.436c-6.48-21.223-47.854-7.132-59.016-31.342s-27.863-32.415-27.863-32.415c28.573-4.219,49.767,25.065,49.767,25.065,32.168,7.451,34.937,27.167,35.01,28.486Z" transform="translate(-252.47 -121.972)" fill="#242c5b"/>
  <path id="Path_512" data-name="Path 512" d="M184.71,477.4c10.96-19.31,48.26,3.465,64.424-17.715s34.256-25.558,34.256-25.558c-26.964-10.351-54.044,13.613-54.044,13.613-33.024.261-40.011,18.889-40.388,20.165Z" transform="translate(-98.28 -116.905)" fill="#242c5b"/>
  <path id="Path_513" data-name="Path 513" d="M184.71,450.736c6.48-21.223,47.854-7.132,59.017-31.342s27.863-32.415,27.863-32.415c-28.573-4.219-49.782,25.065-49.782,25.065C189.639,419.5,186.87,439.2,186.783,440.53Z" transform="translate(-86.48 -137.126)" fill="#242c5b"/>
  <path id="Path_514" data-name="Path 514" d="M178.69,413.025c2.595-22.035,45.81-15.555,52.478-41.359S252.812,334.8,252.812,334.8c-28.863.942-44.505,33.531-44.505,33.531-30.327,13.062-29.53,32.951-29.385,34.271Z" transform="translate(-58.975 -160.403)" fill="#242c5b"/>
  <path id="Path_515" data-name="Path 515" d="M176.13,360.435c2.595-22.035,45.81-15.555,52.478-41.359s21.644-36.865,21.644-36.865c-28.863.942-44.505,33.531-44.505,33.531-30.327,13.062-29.53,32.951-29.385,34.271Z" transform="translate(-52.704 -184.052)" fill="#242c5b"/>
  <path id="Path_516" data-name="Path 516" d="M226.234,559.523h4.436c-1.116,0-7.77-23.688,13.323-58.48s30.342-115.395,12.395-193.156l-10.322-32.618-7.625-9.249s10.365,17.4,9.626,33.676c0,0,11.467,11.1,11.844,100.3S224.016,499.187,226.234,559.523Z" transform="translate(-140.862 -191.332)" fill="#242c5b"/>
</svg>
