<svg xmlns="http://www.w3.org/2000/svg" width="1416.56" height="180.181" viewBox="0 0 1416.56 180.181">
  <g id="Group_241" data-name="Group 241" transform="translate(-515.205 -247.218)">
    <g id="Group_233" data-name="Group 233" transform="translate(-61 14)">
      <path id="Path_50" data-name="Path 50" d="M1434.89,360.91c-.77-1.92-153.96-56.74-330.13-16.41s-177.7,39.16-314.04,38.59S576.25,397.5,576.25,397.5l980.94.16Z" transform="translate(-0.045 -1.848)" fill="#1a6665"/>
      <path id="Path_51" data-name="Path 51" d="M1870.51,313.38c-.77-4.81-153.96-141.98-330.13-41.06s-177.7,97.99-314.04,96.56-471.98,27.65-471.98,27.65l1238.45,8.82Z" transform="translate(-0.045 -2.133)" fill="#1a6665"/>
    </g>
    <g id="Group_240" data-name="Group 240">
      <path id="Path_62" data-name="Path 62" d="M1985.57,409.5c0,2.916-269.75,24.71-602.12,5.266-333.49-19.5-584.85-26.5-584.09-13.758.17,2.9,251.55,3.225,584.09,3.225S1985.57,406.589,1985.57,409.5Z" transform="translate(-54.045 4.639)" fill="#267272"/>
    </g>
  </g>
</svg>
