<svg id="Group_94" data-name="Group 94" xmlns="http://www.w3.org/2000/svg" xmlns:xlink="http://www.w3.org/1999/xlink" width="879.997" height="901.886" viewBox="0 0 879.997 901.886">
  <defs>
    <linearGradient id="linear-gradient" y1="0.5" x2="1" y2="0.5" gradientUnits="objectBoundingBox">
      <stop offset="0.045" stop-color="#171543"/>
      <stop offset="1" stop-color="#232c5a"/>
    </linearGradient>
    <linearGradient id="linear-gradient-2" x1="0.714" y1="0.841" x2="0.262" y2="-0.12" gradientUnits="objectBoundingBox">
      <stop offset="0.596" stop-color="#171543"/>
      <stop offset="1" stop-color="#a2a7d1"/>
    </linearGradient>
  </defs>
  <path id="Path_94" data-name="Path 94" d="M1867.67,56.74c-4.62-3.18-10.07-8.88-15.87-16.04A220.958,220.958,0,0,1,1867.67,56.74Z" transform="translate(-1209.193 142.436)" fill="url(#linear-gradient)"/>
  <g id="Group_93" data-name="Group 93">
    <path id="Path_95" data-name="Path 95" d="M1681,96.15a49.752,49.752,0,0,0,52.92,2.4c7.68,33.7,6.4,72.42,15.36,74.19,14.76,2.91,6.9-82.72,6.9-82.72s22.59,128.55,42.73,126.91c19.93-1.62-2.95-87.74-3.45-89.63.85,2.04,47.39,114.21,63.37,120.51,15.93,6.28-20.56-88.51-21.5-90.95,1.31,2.63,57.19,114.79,72.74,115.33,15.33.54-21.52-81.77-23.45-86.06,3.67,7.11,120.43,232.81,40.71-19.25-15.11-47.75-35.87-83.53-59.66-110.14-4.62-3.18-10.07-8.88-15.87-16.04a220.934,220.934,0,0,1,15.87,16.04c3.54,2.44,6.6,3.39,8.95,2.38,18.17-7.82-29.84-80.68-31.86-83.74,2.93,3.35,81.51,93.01,98.51,93.85,16.96.85-46.76-76.08-49.39-79.24,3.11,3.07,90.91,90.39,105.73,85.96,14.67-4.39-46.31-70.36-49.7-74.02,5.81,5.6,188.46,182.03,32.39-31.27-157.84-215.73-359.59-56.79-361.48-55.3,54.19-20.74,63.66,16.56,111.36,17.14,30.47.36,49.91,42.12,63.87,71.73-58.79-26.16-120.36-21.45-157.86-14.38A317.33,317.33,0,0,0,1581.05.71c6.59,2.68,10.23,4.48,10.23,4.48a96.009,96.009,0,0,0-20.94-1.15,258.572,258.572,0,0,0-39.43,16.71c10.75-8.31,21.61-15.57,39.43-16.71,3.61-1.21,7.18-2.31,10.71-3.33-46.01-18.69-235.81-79.93-331.52,134.63-107.5,241.03,33.34,31.08,38.25,23.76-2.64,4.43-48.25,81.62-33,82.82,15.36,1.2,82.36-101.84,85.24-106.27-2.12,4.08-47.94,92.24-31.58,87.84,16.5-4.42,74.75-109.27,76.56-112.53-1.15,2.98-33,84.78-13.53,88.62s55.48-116.86,56.76-121.15c-.62,3.06-13.26,65.07-6.59,79.76-6.73,23.96-10.85,51.29-11.57,82.46-6.04,262.44,42.24,18.42,44.42,7.3-.91,6.6-12.8,93.72,1.58,88.98,14.96-4.92,37.61-131.11,37.61-131.11s-8.94,104,4.78,93.39,27.16-133.46,27.16-133.46,1.94,91.11,21.74,87.05,5.55-133.79,5.55-133.79,16.39,84.41,29.75,77.5c10.81-5.6-14.22-69.21-3.59-107.98a49.717,49.717,0,0,0,84.56,26.34c85.96,180.6,266.26,534.18,408.86,644.58l16.7-63.96S1789.22,337.74,1681,96.15Zm-235.33,4.96c7.4-25.64,18.7-50.8,40.34-55.74a85.17,85.17,0,0,0,12.35-3.8A207.849,207.849,0,0,0,1445.67,101.11Zm177.22-70.43.87-1.56c.21.47.43.94.65,1.43C1623.9,30.58,1623.39,30.63,1622.89,30.68Z" transform="translate(-1209.193 142.436)" fill="url(#linear-gradient-2)"/>
    <path id="Path_96" data-name="Path 96" d="M1591.28,5.19a96.009,96.009,0,0,0-20.94-1.15c3.61-1.21,7.18-2.31,10.71-3.33C1587.64,3.39,1591.28,5.19,1591.28,5.19Z" transform="translate(-1209.193 142.436)" fill="url(#linear-gradient)"/>
    <path id="Path_97" data-name="Path 97" d="M1867.67,56.74c-4.62-3.18-10.07-8.88-15.87-16.04A220.958,220.958,0,0,1,1867.67,56.74Z" transform="translate(-1209.193 142.436)" fill="url(#linear-gradient)"/>
    <path id="Path_98" data-name="Path 98" d="M1591.28,5.19a96.009,96.009,0,0,0-20.94-1.15c3.61-1.21,7.18-2.31,10.71-3.33C1587.64,3.39,1591.28,5.19,1591.28,5.19Z" transform="translate(-1209.193 142.436)" fill="url(#linear-gradient)"/>
  </g>
</svg>
