<svg xmlns="http://www.w3.org/2000/svg" width="2066.854" height="212.665" viewBox="0 0 2066.854 212.665">
  <path id="Path_1971" data-name="Path 1971" d="M-95.5,1606.861c81.392-6.633,169.678,1.962,237.595,18.017,70.48,16.66,119.405,43.93,202.1,52.825,86.788,9.334,190.829-4.206,268.835,11.293,70.841,14.063,92.275,47.311,167.527,58.706,24.558,3.719,52.191,4.6,79.252,4.968,66.058.893,114.391-13.625,175.194-22.073,43.148-6,83.06,2.616,101.429-3.709,11.706-4.023,52.252-19.456,68.329-21.258,47.589-5.324,78.317-12.277,128.62-11.774,61.054.612,51.82,3.6,111.427-.742,80.93-5.887,140.909-27.492,212.765-40.973,89.913-16.866,229.616,36.767,288.761,9.01,39.7,7.415,20.418-34.321,19.765-19.423l-5.024,117.029c-.553,12.735-3.708,27.276-34.536,35.122-16.972,4.317-39.189,5.651-60.371,6.868-184.378,10.43-371.58,20.9-557.687,14.639-55.538-1.867-110.532-5.213-165.889-7.522-179.666-7.46-361.884-3.84-542.213,1.671-103.378,3.159-207.329,6.94-310.777,4.068-98.535-2.734-194.457-11.447-289.686-20.117-19.836-1.808-41.51-4.046-52.252-9.759-6.361-3.369-7.848-7.444-9.154-11.375A694.691,694.691,0,0,1-95.45,1606.74Z" transform="translate(95.5 -1604.606)" fill="#242c5b"/>
</svg>
