<svg xmlns="http://www.w3.org/2000/svg" width="2097.177" height="351.41" viewBox="0 0 2097.177 351.41">
  <path id="Path_1970" data-name="Path 1970" d="M-64,1416.969c82.76-11.086,174.32-1.586,243.35,25.279a1256.072,1256.072,0,0,0,234.94,65.583c88.2,15.627,164.41,15.678,243.7,41.591,72,23.528,36.24,90.113,112.72,109.164,25,6.214,143,27.885,170.55,28.5,67.14,1.5,175.22-31.824,207.32-63.428,13-12.764,203.21-23.647,219.57-26.658,48.37-8.9,130.32-69.711,180.77-73.539,90.89-6.894,147.75-41.462,208.33-48.719,82.26-9.854,66.89-18.844,139.92-41.366,91.38-28.2,136.66,12.115,136,37.018q-2.57,97.83-5.15,195.651c-.56,21.294-3.77,45.6-35.1,58.716-17.25,7.221-39.79,9.45-61.36,11.458-187.39,17.433-377.65,34.931-566.84,24.47-56.44-3.121-112.31-8.733-168.6-12.557-182.61-12.469-367.8-6.435-551.08,2.795-105.06,5.281-210.71,11.6-315.85,6.8-100.15-4.573-197.63-19.138-294.42-33.635-20.17-3-42.19-6.766-53.16-16.326-6.46-5.635-8-12.447-9.31-19.019C-46.72,1594.7-64,1416.969-64,1416.969Z" transform="translate(64 -1412.427)" fill="#4c5694"/>
</svg>
