<svg id="Group_76" data-name="Group 76" xmlns="http://www.w3.org/2000/svg" width="274.571" height="272.878" viewBox="0 0 274.571 272.878">
  <path id="Path_57" data-name="Path 57" d="M249.91,913.02c-36.9,73.92-54.75,139.87-39.87,147.3s56.85-46.48,93.75-120.4,39.87-147.3,39.87-147.3S286.81,839.1,249.91,913.02Z" transform="translate(-160.209 -792.62)" fill="#1a5654"/>
  <path id="Path_58" data-name="Path 58" d="M283.54,942.45c-49.89,49.73-80.82,99.59-69.08,111.37s61.7-18.99,111.59-68.72,69.08-111.37,69.08-111.37S333.43,892.73,283.54,942.45Z" transform="translate(-160.209 -792.62)" fill="#1a5654"/>
  <path id="Path_59" data-name="Path 59" d="M307.87,973.79c-62.36,32.77-106.64,71.26-98.9,85.98s64.56.09,126.91-32.67,98.9-85.98,98.9-85.98S370.22,941.02,307.87,973.79Z" transform="translate(-160.209 -792.62)" fill="#1a5654"/>
  <path id="Path_60" data-name="Path 60" d="M262.7,932.05c-9.75,69.76-31.01,124.45-47.48,122.15s-21.91-60.72-12.16-130.49,47.48-122.15,47.48-122.15S272.45,862.29,262.7,932.05Z" transform="translate(-160.209 -792.62)" fill="#1a5654"/>
  <path id="Path_61" data-name="Path 61" d="M223.04,931.44c11.3,69.53,7.15,128.06-9.26,130.72S174.9,1010.62,163.6,941.1s9.26-130.72,9.26-130.72S211.74,861.91,223.04,931.44Z" transform="translate(-160.209 -792.62)" fill="#1a5654"/>
</svg>
