<svg id="Group_75" data-name="Group 75" xmlns="http://www.w3.org/2000/svg" width="292.73" height="300.692" viewBox="0 0 292.73 300.692">
  <path id="Path_52" data-name="Path 52" d="M18.8,782.2c0,82.62,13.48,149.6,30.11,149.6s30.11-66.98,30.11-149.6S48.91,632.6,48.91,632.6,18.8,699.58,18.8,782.2Z" transform="translate(95.97 -632.6)" fill="#1a5654"/>
  <path id="Path_53" data-name="Path 53" d="M62.04,793.52C39.61,860.3,34.21,918.72,49.97,924.01s46.73-44.54,69.16-111.32S131.2,682.2,131.2,682.2,84.47,726.75,62.04,793.52Z" transform="translate(95.97 -632.6)" fill="#1a5654"/>
  <path id="Path_54" data-name="Path 54" d="M97.8,810.69c-41.16,57.16-63.59,111.38-50.09,121.1s57.8-28.75,98.96-85.91,50.09-121.1,50.09-121.1S138.96,753.53,97.8,810.69Z" transform="translate(95.97 -632.6)" fill="#1a5654"/>
  <path id="Path_55" data-name="Path 55" d="M38.74,793.52c22.43,66.78,27.83,125.2,12.07,130.49S4.08,879.47-18.35,812.69-30.41,682.2-30.41,682.2,16.31,726.75,38.74,793.52Z" transform="translate(95.97 -632.6)" fill="#1a5654"/>
  <path id="Path_56" data-name="Path 56" d="M2.99,810.69c41.16,57.16,63.59,111.38,50.09,121.1s-57.8-28.75-98.96-85.91-50.09-121.1-50.09-121.1S-38.17,753.53,2.99,810.69Z" transform="translate(95.97 -632.6)" fill="#1a5654"/>
</svg>
