<svg xmlns="http://www.w3.org/2000/svg" width="666.129" height="585.545" viewBox="0 0 666.129 585.545">
  <g id="Group_240" data-name="Group 240" transform="translate(-11.295 -454.915)">
    <ellipse id="Ellipse_42" data-name="Ellipse 42" cx="7.61" cy="2.58" rx="7.61" ry="2.58" transform="translate(557.565 891.429)" fill="#414871"/>
    <ellipse id="Ellipse_43" data-name="Ellipse 43" cx="7.61" cy="2.58" rx="7.61" ry="2.58" transform="translate(662.204 1035.3)" fill="#6e7499"/>
    <ellipse id="Ellipse_45" data-name="Ellipse 45" cx="7.61" cy="2.58" rx="7.61" ry="2.58" transform="translate(11.295 649.828)" fill="#414871"/>
    <ellipse id="Ellipse_46" data-name="Ellipse 46" cx="7.61" cy="2.58" rx="7.61" ry="2.58" transform="translate(80.525 454.915)" fill="#6e7499"/>
    <ellipse id="Ellipse_48" data-name="Ellipse 48" cx="15.22" cy="5.15" rx="15.22" ry="5.15" transform="translate(549.903 744.055)" fill="#414871"/>
    <ellipse id="Ellipse_49" data-name="Ellipse 49" cx="20.53" cy="6.77" rx="20.53" ry="6.77" transform="translate(80.165 676.962)" fill="#6e7499"/>
    <ellipse id="Ellipse_50" data-name="Ellipse 50" cx="20.53" cy="9.02" rx="20.53" ry="9.02" transform="translate(361.951 813.894)" fill="#6e7499"/>
    <ellipse id="Ellipse_51" data-name="Ellipse 51" cx="30.64" cy="10.47" rx="30.64" ry="10.47" transform="translate(411.13 1006.05)" fill="#6e7499"/>
    <ellipse id="Ellipse_38" data-name="Ellipse 38" cx="7.61" cy="2.58" rx="7.61" ry="2.58" transform="translate(262.878 538.399)" fill="#6e7499"/>
    <ellipse id="Ellipse_39" data-name="Ellipse 39" cx="7.61" cy="2.58" rx="7.61" ry="2.58" transform="translate(193.457 520.087)" fill="#6e7499"/>
    <ellipse id="Ellipse_47" data-name="Ellipse 47" cx="7.61" cy="2.58" rx="7.61" ry="2.58" transform="translate(180.436 759.649)" fill="#414871"/>
    <ellipse id="Ellipse_53" data-name="Ellipse 53" cx="11.54" cy="3.38" rx="11.54" ry="3.38" transform="translate(575.007 552.626)" fill="#6e7499"/>
    <ellipse id="Ellipse_41" data-name="Ellipse 41" cx="7.61" cy="2.58" rx="7.61" ry="2.58" transform="translate(25.675 792.847)" fill="#5c2d0f"/>
    <ellipse id="Ellipse_44" data-name="Ellipse 44" cx="7.61" cy="2.58" rx="7.61" ry="2.58" transform="translate(283.365 948.27)" fill="#5c2d0f"/>
    <ellipse id="Ellipse_52" data-name="Ellipse 52" cx="30.64" cy="10.47" rx="30.64" ry="10.47" transform="translate(91.395 940.38)" fill="#f89740"/>
  </g>
</svg>
