<svg xmlns="http://www.w3.org/2000/svg" width="486.703" height="336.7" viewBox="0 0 486.703 336.7">
  <g id="Group_230" data-name="Group 230" transform="translate(182.878 165.102)">
    <path id="Path_89" data-name="Path 89" d="M-13.4,100.96c-3.13,10.61-5.31,22.01-2.34,32.67s12.43,20.2,23.49,19.95a86.518,86.518,0,0,1,3.74-39.66c1.58-4.65,4.43-9.84,9.32-10.3,2.61-.25,5.14,1,7.28,2.51,10.58,7.43,15.49,21.57,27.01,27.44,8.4,4.28,18.4,3.16,27.7,4.7a48.649,48.649,0,0,1,23.31,10.86A139.226,139.226,0,0,1,79.7,99.01a63.122,63.122,0,0,0,11.19,15.41c.83.84,1.88,1.72,3.03,1.5a1.43,1.43,0,0,0,1.03-1.1c-9.51-5.37-7.58-19.6-11.65-29.83-5.09-12.8-19.58-18.66-32.6-23.17,10.27-.49,18.93-7.34,27.43-13.13s18.99-10.94,28.72-7.61c1.96-2.99-.89-6.79-3.75-8.94a51.467,51.467,0,0,0-50.03-6.12c-5.52,2.34-10.56,5.65-15.76,8.64-1.99,1.14-4.34,2.28-6.47,1.45-4.05-1.57-2.86-7.66-.52-11.32C45.64.75,77.21-8.12,105.64-6.08c1.72.12,3.79.12,4.74-1.32,1.16-1.76-.33-4.02-1.78-5.54C93.84-28.37,72.7-39.44,51.57-36.37,31.84-33.51,14.04-18.88-5.75-21.28a8.2,8.2,0,0,1-4.37-1.53c-2.25-1.89-2.15-5.57-.58-8.05s4.2-4.06,6.73-5.55c26.5-15.53,55.3-31.61,85.89-28.8C78.69-77.15,68.71-86.36,57.47-91.5s-23.74-6.76-36.04-7.93c-7.33-.7-14.84-1.25-21.95.66C-12.67-95.51-22.6-85.34-35.15-84.41a642.962,642.962,0,0,1,66.49-27.34c5.27-1.83,10.66-3.61,16.24-3.85,8.02-.34,15.79,2.54,23.3,5.37,3.08-4.6-1.77-10.31-6.22-13.6-18.1-13.43-37.85-25.68-59.98-29.91s-47.18.9-62.14,17.76C-70.19-121.63-75.18-99.9-92.07-90.81c-20.11,10.83-48.55-1.44-65.98,13.31-8.61,7.28-11.62,19.06-14.16,30.05q-2.625,11.37-5.26,22.73c-3.48,15.05-6.98,30.56-4.56,45.82s12.24,30.4,27.18,34.34a16.259,16.259,0,0,0,8.88.21c7.43-2.27,10.28-11.05,12.29-18.56,5.91-22.08,15.43-45.27,35.22-56.71a4.48,4.48,0,0,1,3.19-.85c2.57.62,2.22,4.38,1.26,6.84q-7.455,19.125-14.9,38.25c-5.63,14.47-11.37,29.68-9.49,45.09s14.17,30.75,29.69,30.3A114.105,114.105,0,0,1-50.72,24.24c2.3-2.02,5.43-4.06,8.2-2.77,3.56,1.67,2.96,6.87,1.64,10.58C-47.07,49.37-56.66,65.5-60.92,83.4s-1.88,39.14,12.26,50.9A148.791,148.791,0,0,1-5.31,68.83C-6.19,79.87-10.28,90.35-13.4,100.96Zm-4.36-219.23c-.29-1.88,2.36-3.84,5.91-4.38s6.67.53,6.96,2.41-2.36,3.84-5.91,4.38S-17.47-116.4-17.76-118.27ZM14.48,9.64c-.27-1.76,2.95-3.71,7.2-4.36s7.9.24,8.17,2-2.95,3.71-7.2,4.36S14.75,11.4,14.48,9.64ZM-85.85,35.75c-1.72,5.53-4,9.74-5.09,9.4s-.57-5.1,1.16-10.63,4-9.74,5.09-9.4S-84.13,30.22-85.85,35.75Z" transform="translate(-0.045 -4.161)" fill="#1a5654"/>
    <g id="Group_92" data-name="Group 92" transform="translate(11.99 -165.102)">
      <g id="Group_88" data-name="Group 88" transform="translate(249.715 325.38)">
        <path id="Path_90" data-name="Path 90" d="M261.75,164.44q2.8,5.8,6.14,11.32A48.285,48.285,0,0,0,261.75,164.44Z" transform="translate(-261.75 -164.44)" fill="#1a5654"/>
      </g>
      <g id="Group_89" data-name="Group 89" transform="translate(247.005 289.25)">
        <path id="Path_91" data-name="Path 91" d="M259.12,128.31a1.193,1.193,0,0,1-.08.16,1.448,1.448,0,0,0,.18.17Z" transform="translate(-259.04 -128.31)" fill="#1a5654"/>
      </g>
      <g id="Group_90" data-name="Group 90" transform="translate(246.705 287.95)">
        <path id="Path_92" data-name="Path 92" d="M258.74,127.01l.39,1.29A.92.92,0,0,0,258.74,127.01Z" transform="translate(-258.74 -127.01)" fill="#1a5654"/>
      </g>
      <g id="Group_91" data-name="Group 91">
        <path id="Path_93" data-name="Path 93" d="M157.07,89.29c-5.55,9.57-10.38,20.12-10.02,31.18s7.28,22.57,18.09,24.95a86.467,86.467,0,0,1,13.05-37.64c2.64-4.14,6.64-8.5,11.5-7.79,2.6.38,4.75,2.19,6.48,4.16,8.51,9.73,9.93,24.63,19.73,33.06,7.14,6.15,17.13,7.44,25.8,11.14a48.811,48.811,0,0,1,20.07,16.08,139.1,139.1,0,0,1-13.76-54.95,63.043,63.043,0,0,0,7.21,17.63c.6,1.01,1.42,2.11,2.59,2.18a1.423,1.423,0,0,0,1.26-.83c-7.97-7.47-2.72-20.84-4.24-31.75-1.91-13.65-14.59-22.77-26.17-30.24,10.09,1.96,20.13-2.64,29.76-6.25s21.04-6.12,29.7-.58c2.61-2.44.74-6.81-1.52-9.58a51.455,51.455,0,0,0-47.15-17.81c-5.92.97-11.6,2.98-17.36,4.66-2.2.64-4.75,1.18-6.63-.13-3.56-2.49-.96-8.12,2.18-11.12C238.22,5.95,271,4.82,298.13,13.55c1.64.53,3.66,1.02,4.92-.16,1.54-1.43.63-3.98-.42-5.8-10.68-18.5-28.58-34.26-49.84-36.3-19.84-1.9-40.6,8.08-59.25,1.06a8.216,8.216,0,0,1-3.89-2.52c-1.74-2.37-.77-5.92,1.34-7.96s5.04-2.95,7.86-3.79c29.43-8.8,61.22-17.59,90.27-7.6-.31-12.36-7.82-23.68-17.52-31.34s-21.46-12.2-33.13-16.26c-6.95-2.42-14.12-4.74-21.48-4.57-12.57.29-24.64,7.8-37.04,5.74a645.759,645.759,0,0,1,71.08-10.79c5.56-.53,11.21-.98,16.69.12,7.87,1.58,14.73,6.21,21.36,10.74,4.08-3.73.72-10.43-2.81-14.69-14.4-17.34-30.67-33.92-51.17-43.29s-46.05-10.32-64.57,2.51c-15.77,10.92-25.78,30.84-44.34,35.67-22.1,5.75-46.82-12.91-67.25-2.72C48.8-113.37,43.08-102.64,38-92.57Q32.75-82.145,27.5-71.73C20.55-57.94,13.47-43.7,12.2-28.3S16.88,4.14,30.46,11.51a16.368,16.368,0,0,0,8.58,2.31c7.76-.44,12.61-8.3,16.34-15.11,10.98-20.04,25.73-40.32,47.67-46.73a4.488,4.488,0,0,1,3.3-.07c2.35,1.22,1.11,4.78-.4,6.94L82.4-7.52C73.49,5.2,64.31,18.61,62.48,34.03s6.47,33.24,21.66,36.48A114.064,114.064,0,0,1,139.02,5.92c2.72-1.42,6.24-2.66,8.62-.74,3.07,2.46,1.25,7.38-.92,10.66C136.6,31.2,123.46,44.6,115.08,60.97s-11.12,37.57-.17,52.36a148.8,148.8,0,0,1,57.65-53.31C169.08,70.52,162.62,79.72,157.07,89.29Zm47.78-214c.17-1.89,3.2-3.17,6.78-2.86s6.35,2.1,6.19,3.99-3.2,3.17-6.78,2.86S204.69-122.82,204.85-124.71ZM205.82,7.2c.15-1.77,3.75-2.91,8.03-2.53s7.62,2.11,7.47,3.88-3.75,2.91-8.03,2.53S205.67,8.97,205.82,7.2ZM102.16,8.75c-2.99,4.96-6.2,8.51-7.17,7.93s.66-5.08,3.64-10.05,6.2-8.51,7.17-7.93S105.15,3.79,102.16,8.75Z" transform="translate(-12.035 160.94)" fill="#1a5654"/>
      </g>
    </g>
  </g>
</svg>
