<svg xmlns="http://www.w3.org/2000/svg" width="141.5" height="145.246" viewBox="0 0 141.5 145.246">
  <g id="ปะการัง-02" transform="translate(-253.194 -254.238)">
    <path id="Path_1995" data-name="Path 1995" d="M315.982,395.084c-.85-8.784-4.038-18.135-11.565-22.755-6.811-4.185-15.4-3.5-23.3-4.693-6.327-.954-12.611-3.294-17.272-7.678a21.116,21.116,0,0,1-5.914-9.759,1.656,1.656,0,0,1,2.975-1.354,35.657,35.657,0,0,0,4.956,5.912,19.448,19.448,0,0,0-1.362-14.5c-2.125-4.068-5.645-7.26-7.9-11.264-1.647-2.922-2.423-6.714-1.4-9.757a2.493,2.493,0,0,1,4.038-1.022l2.6,2.382-1.894-13.975c-.41-3.026.051-7.247,3.09-7.542,3.379-.332,4.308,4.527,3.9,7.9l-2.047,17.061c-.41,3.4,1.46,8.648,4.716,6.412l1.551-3c.083-3.141,3.738-2.637,3.672-.368a7.806,7.806,0,0,1-1.539,4.3c-1.862,2.425-4.59,4.769-4.293,7.812.168,1.7,1.286,3.143,1.673,4.8.88,3.757-1.792,8.671,1.235,11.066,1.957,1.549,4.888.6,7.249,1.407,3.235,1.107,5.141,5.385,8.556,5.232,3.133-.14,4.69-4.325,3.485-7.226s-4.059-4.693-6.722-6.348c-2.093-1.3-4.391-2.975-4.608-5.428s3.543-4.55,4.729-2.389c2.055-1.6-.064-4.729-1.881-6.588s-2.6-5.991,0-6.189a12.3,12.3,0,0,1,1.853,3.167,21.006,21.006,0,0,0,3.868,6.376,7.567,7.567,0,0,1,1.747,4.607c.051,2.888.748,6.911,3.636,6.8a6.326,6.326,0,0,1,4.5-4.35,2.338,2.338,0,0,1,2.75,3.213c-1.43,3.167-3.383,6.163-3.825,9.587-.591,4.495,3.917,9.94,7.8,7.608a4.264,4.264,0,0,0,1.666-5.175c-.425-1-1.237-1.794-1.668-2.788-1.887-4.357,4.163-8.849,3.058-13.468-1.024-4.272-7.455-6.1-9.808-9.138a2.338,2.338,0,0,1,1.7-3.743,22.451,22.451,0,0,1,5.024.225c2.125-3.3-2.1-6.837-5.179-9.268a23.43,23.43,0,0,1-8.571-15.425,2.225,2.225,0,0,1,3.511-2.078,15.172,15.172,0,0,1,2.79,2.595c.8-5.3-3.273-9.9-6.044-14.492-4.7-7.776-5.925-16.944-6.153-26.14a1.64,1.64,0,0,1,3.164-.638l1.377,3.543a1.4,1.4,0,0,0,2.676-.227,53.751,53.751,0,0,0,.408-6.2c.251-3.275,2.61-7.187,5.8-6.388,2.338,3.87-1.307,8.427-2.922,12.654-2.784,7.292.786,15.3,4.038,22.4,2.778,6.063,5.336,13.134,3.655,19.316a4.95,4.95,0,0,0,1.989,5.334l.837.582a3.109,3.109,0,0,0,4.618-1.341,5.526,5.526,0,0,1,1.957-2.406,3.165,3.165,0,0,1,3.706.032c2.125,1.647.7,5.054-1.209,6.909s-4.372,3.787-4.115,6.414c.23,2.35,2.691,4.212,2.385,6.554-.172,1.309-1.182,2.338-1.736,3.53-.882,1.913-.572,4.121-.244,6.2q2.317,14.6,4.631,29.2c.829,5.237,3.4,11.933,8.688,11.425a47.867,47.867,0,0,0-5.245-28.372.99.99,0,0,1,.967-1.462,9.764,9.764,0,0,1,2.45.608c1.19-2.176-.283-4.888-2.125-6.552s-4.148-2.956-5.279-5.164-.049-5.723,2.431-5.685c.771.013,1.5.372,2.276.412,2.125.111,3.66-2.306,3.5-4.431s-1.439-3.972-2.58-5.774c-.606-.956-1.2-2.1-.82-3.171a5.988,5.988,0,0,1,1.3-1.7c3.084-3.564.8-9.03-1.575-13.1a11.22,11.22,0,0,0-3.213-3.964c-1.736-1.143-3.97-1.243-5.808-2.212s-3.12-3.689-1.556-5.058l4.633-.134a4.11,4.11,0,0,0,3.993-4.41,32.055,32.055,0,0,1,.5-8.679,2.4,2.4,0,0,1,4.414-.769,14.5,14.5,0,0,1,1.473,8.314c-.172,1.87-.485,3.8-.627,5.7a4.134,4.134,0,0,0,6.267,3.813q1.275-.769,2.614-1.462a2.221,2.221,0,0,1,3.06,2.85,9.582,9.582,0,0,1-1.849,2.742c-1.806,1.887-4.117,3.556-4.773,6.082a12.7,12.7,0,0,0,.236,5.152,42.08,42.08,0,0,1-.818,17.391,1.832,1.832,0,0,0,3.1,1.734l7.33-7.678c1.543-1.615,3.209-3.726,2.5-5.842-.251-.75-.778-1.379-1.063-2.125-1.156-3.073,3.224-6.063,6.123-4.522s3.558,5.674,2.2,8.66-4.153,5.043-6.967,6.737-5.808,3.245-7.972,5.7c-4.833,5.515-4.14,13.793-3.167,21.059,1.1,8.218,1.005,17.253,2.106,25.469,8.99-6.216,13.57-20.158,8.7-29.942-.661-1.326-2.172-3.721-3.556-6.178a2.865,2.865,0,0,1,3.626-4.038l3.9,1.685a38.746,38.746,0,0,1,1.832-4.163,4.8,4.8,0,0,1,4.074-2.805c2.11-.157,3.4-1.534,3.944-4.463-.85-7.485-1.124-10.8-3.825-15.574-2.943-5.207-9.776-7.466-12.146-12.284a2.1,2.1,0,0,1,1.9-3.005h.657a2.6,2.6,0,0,0,2.591-2.858c-.92-8.828-4.346-15.739-10.084-23.014-1.035-1.311-2.285-2.654-3.938-2.895-1.989-.289-3.774,1.095-5.572,1.993s-4.474,1.077-5.358-.729c-1.15-2.351,2.159-4.463,4.777-4.484s5.772.482,7.372-1.59c2.455-3.173-1.275-9.481,2.389-11.109,3.233-1.432,5.113,3.577,5.787,7.047A22.232,22.232,0,0,0,347.688,277c3.158-2.057,1.371-7.863,4.463-10.01,2.3-1.6,5.759.425,6.405,3.162s-.716,5.549-2.465,7.742-3.925,4.059-5.364,6.467c-3.445,5.768-1.851,12.751-1.335,19.641a2.661,2.661,0,0,0,4.969,1.114c.374-.657.752-1.307,1.162-1.923,1.938-2.918,6.057-5.313,8.777-3.1,2.493,2.023,1.511,6.114-.4,8.694s-4.61,4.822-5.207,7.978c-1.082,5.7,5.268,11.079,3.677,16.664-1.645,5.759-10.888,8.106-10.135,14.048,3.09.742,6.053-1.335,8.89-2.763s6.984-1.93,8.594.81c-1.717,4.85-8.584,5.179-12.275,8.771-5.7,5.564-4.463,18.572-10.732,23.505,7.277-3.377,15.62-11.332,18.54-18.808.587-1.5,1.184-3.188,2.623-3.925s3.711.669,3,2.125c4.333.788,6.291-5.634,4.746-9.757-1.307-3.487-3.774-6.884-3.9-10.443a1.245,1.245,0,0,1,1.953-1.08c1.126.786,4.412,2.363,4.924,3.638,5.135-1.634,3.974-10.284-.459-13.346-1.677-1.158-3.806-1.59-5.349-2.922a3.756,3.756,0,0,1-.718-.85,2.327,2.327,0,0,1,2.895-3.328l4.61,1.881c.795-2.463,2.278-4.6,1.785-7.141-3.632-.695-7.921-4.529-8.22-8.214a8.8,8.8,0,0,1,2.933-7.1,1.679,1.679,0,0,1,2.763,1.016,13.4,13.4,0,0,0,3.086,6.622,3.012,3.012,0,0,0,5.084-.948,29.891,29.891,0,0,0,1.339-4.7,1.794,1.794,0,0,1,2.939-1.031c2.538,2.223,3.339,6.563,2.268,9.989-1.377,4.4-4.75,7.834-7.287,11.689-1.857,2.82-3.273,6.588-1.488,9.457s7.685,1.626,6.881-1.656c3.462-1.141,5.143,4.746,2.941,7.651s-6.038,4.4-7.751,7.619c-1.643,3.086-.882,6.884-1.741,10.271s-3.3,6.187-5.785,8.669A102.719,102.719,0,0,1,345.393,385.7c-3.337,1.343-7.077,2.831-8.582,6.1-.638,1.411-.81,3.054-1.738,4.3a8.1,8.1,0,0,1-3.87,2.391c-3.558,1.33-7.523,2.512-11.075,1.165a6.56,6.56,0,0,1-4.146-4.567Z" transform="translate(-1.217 -1.092)" fill="#242c5b"/>
    <path id="Path_1996" data-name="Path 1996" d="M315.084,393.991a37.717,37.717,0,0,0-4.786-15.869,20.541,20.541,0,0,0-13.327-9.77c-6.214-1.571-12.711-1.218-18.978-2.463-6.2-1.233-12.386-3.927-16.613-8.777a21.215,21.215,0,0,1-3.024-4.546,19.7,19.7,0,0,1-1.073-2.646c-.223-.7-.553-1.5,0-2.125a1.381,1.381,0,0,1,1.662-.308,2.852,2.852,0,0,1,.822.961c.268.389.546.771.831,1.148a36.577,36.577,0,0,0,3.819,4.3.323.323,0,0,0,.533-.14,20,20,0,0,0,.317-10.091,23.568,23.568,0,0,0-4.648-9.073c-2.112-2.744-4.557-5.4-5.825-8.656a13.315,13.315,0,0,1-.956-4.933c.017-1.441.187-3.572,1.8-4.1,1.207-.4,2.03.34,2.846,1.084l1.913,1.751a.321.321,0,0,0,.531-.31l-1.42-10.482c-.355-2.623-1-5.424-.244-8.04a3.525,3.525,0,0,1,1.775-2.387,2.58,2.58,0,0,1,2.805.461c1.549,1.462,1.741,4.168,1.626,6.163-.091,1.581-.355,3.164-.544,4.737l-.648,5.4-.638,5.26a21.121,21.121,0,0,0-.321,4.087c.128,1.764.65,4.008,2.163,5.118a2.363,2.363,0,0,0,2.125.368,2.408,2.408,0,0,0,1.063-.582,5.127,5.127,0,0,0,.542-1.05l.638-1.243a4.7,4.7,0,0,0,.4-.784c.074-.264.038-.553.119-.82a1.592,1.592,0,0,1,.786-1.01,1.528,1.528,0,0,1,1.913.512c.676,1.033-.062,2.865-.544,3.838a18.879,18.879,0,0,1-2.561,3.385c-1.583,1.913-3.033,4.146-2.31,6.739.385,1.375,1.211,2.586,1.517,3.989a11.756,11.756,0,0,1,.015,3.762c-.23,2.083-.8,4.648.5,6.51,1.566,2.255,4.42,1.768,6.788,2.034,2.578.291,4.142,2.2,6,3.785,1.469,1.25,3.36,2.276,5.313,1.473,1.9-.782,2.854-2.937,2.929-4.888a7.908,7.908,0,0,0-3.062-6.023c-2.015-1.792-4.529-2.875-6.556-4.635a5.44,5.44,0,0,1-2.112-3.492,2.851,2.851,0,0,1,1.545-2.574c.907-.525,2.008-.625,2.589.346a.325.325,0,0,0,.5.064c2.125-1.777.155-4.705-1.194-6.291a8.634,8.634,0,0,1-2.04-3.16c-.253-.861-.476-2.2.276-2.892.119-.108.463-.357.638-.315.3.068.638.786.786,1.009a16.659,16.659,0,0,1,1.173,2.4,22.2,22.2,0,0,0,2.436,4.4c.946,1.307,2.068,2.355,2.586,3.927a22.688,22.688,0,0,1,.531,4.189c.291,2.144,1.158,5.033,3.8,5.007a.325.325,0,0,0,.306-.236,5.842,5.842,0,0,1,2.835-3.532,4.07,4.07,0,0,1,2.125-.667,2.051,2.051,0,0,1,1.785,1.424,3.037,3.037,0,0,1-.5,2.3c-.378.784-.778,1.56-1.165,2.338a27.271,27.271,0,0,0-1.874,4.505,8.641,8.641,0,0,0,1.148,7.668c1.233,1.732,3.292,3.237,5.526,2.708a4.551,4.551,0,0,0,3.164-5.579c-.412-1.439-1.677-2.438-2.053-3.891a5.966,5.966,0,0,1,.446-3.632c.916-2.321,2.51-4.433,2.9-6.941a6.393,6.393,0,0,0-2.491-5.859c-2.023-1.772-4.537-2.886-6.541-4.675-1.035-.927-1.93-2.338-.742-3.564a3.508,3.508,0,0,1,2.691-.657,22.931,22.931,0,0,1,3.541.266.336.336,0,0,0,.361-.147c2.635-4.335-3.634-8.157-6.274-10.535a23.265,23.265,0,0,1-7.362-13.74,2.469,2.469,0,0,1,.278-2,1.945,1.945,0,0,1,1.547-.776,3.414,3.414,0,0,1,2.064,1.12,15.8,15.8,0,0,1,1.789,1.809.319.319,0,0,0,.531-.14c.523-3.779-1.235-7.19-3.2-10.286-1.082-1.7-2.249-3.351-3.254-5.1a35.992,35.992,0,0,1-2.665-5.812,52.583,52.583,0,0,1-2.652-12.522c-.213-2.157-.332-4.323-.4-6.488-.021-.788.057-1.566.941-1.815a1.322,1.322,0,0,1,1.588.765c.393.833.676,1.738,1.009,2.6.3.774.523,1.67,1.4,1.972,1.309.448,2.159-.587,2.338-1.758.327-2.106.074-4.25.4-6.361a8.022,8.022,0,0,1,2.125-4.463,3.681,3.681,0,0,1,2.115-1.111c.368-.042.82-.085,1.063.213a3.417,3.417,0,0,1,.478,1.392c.351,1.913-.425,3.87-1.2,5.574-.8,1.762-1.762,3.456-2.438,5.275-3.043,8.193,1.566,16.662,4.782,24.026,1.743,3.987,3.281,8.25,3.462,12.641a17.216,17.216,0,0,1-.162,3.29c-.138.895-.457,1.764-.514,2.669a5.3,5.3,0,0,0,1.815,4.289,5.46,5.46,0,0,0,3.043,1.551,3.547,3.547,0,0,0,3.381-2.144c.884-1.834,3.118-3.723,5.132-2.189,1.556,1.184.914,3.366.072,4.784-1.626,2.744-5.774,4.522-5.513,8.191.117,1.626,1.171,2.929,1.877,4.333a3.732,3.732,0,0,1,.41,2.763,13.728,13.728,0,0,1-1.386,2.531,9.06,9.06,0,0,0-.638,5.7c.315,2.319.725,4.631,1.09,6.943l2.27,14.316,1.148,7.226a41.473,41.473,0,0,0,1.046,5.22c.793,2.712,2.076,5.713,4.512,7.338a5.8,5.8,0,0,0,3.73.944.329.329,0,0,0,.319-.319,48.347,48.347,0,0,0-3.57-25.027c-.485-1.126-1.063-2.2-1.579-3.307-.149-.321-.291-.638-.04-.956.287-.363.757-.24,1.154-.17a10.214,10.214,0,0,1,1.826.514.321.321,0,0,0,.361-.147c1.014-1.991.176-4.187-1.133-5.825-1.537-1.925-3.836-3.048-5.415-4.935-1.324-1.585-1.874-4.121-.3-5.781.961-1.014,2.083-.6,3.288-.368a3.226,3.226,0,0,0,2.614-.574,5.1,5.1,0,0,0,1.5-5.606,14.071,14.071,0,0,0-1.675-3.373c-.74-1.182-2.142-2.833-1.3-4.278a12.008,12.008,0,0,1,1.2-1.411,6.163,6.163,0,0,0,.85-1.364,7.17,7.17,0,0,0,.6-2.975,15.448,15.448,0,0,0-1.857-6.643c-1.031-2.125-2.244-4.6-4.138-6.1a9.263,9.263,0,0,0-3.273-1.488,10.676,10.676,0,0,1-3.436-1.326,3.836,3.836,0,0,1-1.641-2.9,1.9,1.9,0,0,1,.155-.774c.043-.094.372-.572.234-.5a1.516,1.516,0,0,1,.451-.013c1.318-.038,2.635-.07,3.953-.115a4.584,4.584,0,0,0,3.983-2.27,5.176,5.176,0,0,0,.514-3.009,32.328,32.328,0,0,1,.051-4.627q.1-1.18.287-2.351a5.111,5.111,0,0,1,.444-1.762,2.125,2.125,0,0,1,2.457-.929c1.139.376,1.609,1.749,1.947,2.782a14.481,14.481,0,0,1,.665,3.959,25.926,25.926,0,0,1-.255,4.078,33.4,33.4,0,0,0-.446,4.331,4.463,4.463,0,0,0,5.489,4.229,13.813,13.813,0,0,0,3.16-1.6,2.886,2.886,0,0,1,1.938-.567,1.978,1.978,0,0,1,1.428,1.2c.5,1.256-.663,2.739-1.43,3.641-1.53,1.8-3.587,3.156-4.707,5.29-1.33,2.55-.459,5.313-.111,7.98a41.816,41.816,0,0,1-.491,13.695c-.134.663-.289,1.318-.451,1.974a2.671,2.671,0,0,0-.064,1.415,2.18,2.18,0,0,0,3.626.888c.54-.521,1.041-1.09,1.56-1.632l5.568-5.817a10.466,10.466,0,0,0,2.82-4.151,4.046,4.046,0,0,0-.448-3.164c-.578-1.048-1.078-2.008-.572-3.188a4.421,4.421,0,0,1,5.2-2.338c2.125.763,3.094,3.188,3.118,5.271.057,5.407-5.313,8.45-9.376,10.839a24.215,24.215,0,0,0-6.163,4.648,15.149,15.149,0,0,0-3.139,5.951c-1.313,4.722-.85,9.776-.213,14.564.761,5.885,1.02,11.8,1.409,17.714.187,2.848.425,5.691.8,8.52.028.213.257.425.48.276a26.483,26.483,0,0,0,10.6-17.975,22.145,22.145,0,0,0-.878-10.237,26.385,26.385,0,0,0-2.357-4.729c-.593-1.007-1.192-2.01-1.772-3.024a2.916,2.916,0,0,1-.372-3.018,2.55,2.55,0,0,1,2.725-1.322,7.164,7.164,0,0,1,1.343.519l3.056,1.32a.323.323,0,0,0,.468-.191,25.911,25.911,0,0,1,1.845-4.178,4.512,4.512,0,0,1,3.113-2.45,6.269,6.269,0,0,0,2.9-.912,5.067,5.067,0,0,0,1.594-2.414,4.36,4.36,0,0,0,.361-1.817c-.077-.833-.185-1.666-.283-2.5-.149-1.294-.3-2.589-.5-3.874a26.818,26.818,0,0,0-1.721-6.416,17.618,17.618,0,0,0-3.966-5.972c-1.817-1.747-3.925-3.147-5.857-4.758a17.739,17.739,0,0,1-2.531-2.489c-.74-.92-1.768-2.255-1.007-3.441.714-1.111,1.872-.638,2.924-.927a2.941,2.941,0,0,0,2.081-2.125,5.312,5.312,0,0,0-.04-1.913c-.094-.731-.213-1.46-.334-2.183a38.3,38.3,0,0,0-1-4.221,40.209,40.209,0,0,0-3.239-7.708,56.682,56.682,0,0,0-5-7.538c-1.624-2.1-3.6-4.282-6.522-3.458-2.453.691-4.739,3.232-7.487,2.338a1.974,1.974,0,0,1-1.182-2.916,5.04,5.04,0,0,1,3.16-2.013c2.453-.589,5.1.425,7.468-.746,1.976-.975,2.408-3.12,2.338-5.135-.032-1.082-.172-2.157-.213-3.237a5.157,5.157,0,0,1,.438-2.824,2.39,2.39,0,0,1,2.631-1.078,4.251,4.251,0,0,1,2.163,2.138c1.275,2.27,1.488,4.833,2.257,7.27a22.852,22.852,0,0,0,3.947,7.338,22.3,22.3,0,0,0,3.031,3.094.327.327,0,0,0,.385.049c1.454-.992,1.947-2.654,2.255-4.306.325-1.736.425-3.864,1.679-5.232,1.556-1.687,4.038-.967,5.426.559,1.913,2.1,1.243,5.164-.017,7.419-1.322,2.363-3.377,4.165-5.1,6.223a15.584,15.584,0,0,0-3.356,6.643,26.861,26.861,0,0,0-.378,7.64c.176,2.642.4,5.324.733,7.95a2.992,2.992,0,0,0,3,2.614c2.151-.019,2.763-2.11,3.825-3.6,1.275-1.817,3.426-3.541,5.738-3.641,2.457-.1,3.938,2.006,3.825,4.3-.251,4.888-5.188,7.379-6.76,11.689-1.551,4.25,1.288,8.288,2.746,12.1a8.742,8.742,0,0,1,.468,6.148,10.984,10.984,0,0,1-3.135,4.146c-2.338,2.125-5.706,4.091-6.68,7.3a5.549,5.549,0,0,0-.187,2.242.327.327,0,0,0,.234.306c4.888,1.063,8.465-3.687,13.176-3.91a5.234,5.234,0,0,1,2.905.6c.338.2.939.591,1.063.984s-.323.939-.536,1.26a10.561,10.561,0,0,1-4.367,3.269c-1.719.833-3.515,1.528-5.149,2.531a11.224,11.224,0,0,0-3.634,3.545c-2.025,3.169-2.816,7-3.76,10.588-1.014,3.864-2.112,8.3-5.377,10.922-.3.242.083.638.387.5a42.739,42.739,0,0,0,15.963-13.9,30.843,30.843,0,0,0,3.022-5.855c.455-1.129,1.063-2.55,2.293-3.018.969-.372,3,.425,2.446,1.724a.326.326,0,0,0,.189.47c3.968.638,5.7-3.838,5.672-7.081-.021-2.376-1.063-4.444-2.093-6.537a32.985,32.985,0,0,1-1.753-3.991c-.291-.867-1.275-3.566.157-3.857.525-.108.984.325,1.411.58.508.306,1.022.6,1.528.905.9.546,2.149,1.19,2.606,2.193a.323.323,0,0,0,.361.147c4.421-1.488,4.163-7.2,2.414-10.626a9.213,9.213,0,0,0-2.006-2.669,13.488,13.488,0,0,0-3.613-2.07c-1.362-.616-3.613-1.628-3.4-3.458a2.065,2.065,0,0,1,2.9-1.594c1.52.593,3.022,1.233,4.531,1.849a.323.323,0,0,0,.393-.213c.8-2.414,2.234-4.676,1.785-7.311a.317.317,0,0,0-.223-.223,11.107,11.107,0,0,1-7.321-5.685,6.8,6.8,0,0,1-.425-4.837,8.609,8.609,0,0,1,.933-2.221,6.154,6.154,0,0,1,1.889-2.193,1.377,1.377,0,0,1,1.811.468,2.979,2.979,0,0,1,.287,1.033,13.039,13.039,0,0,0,.389,1.5,13.826,13.826,0,0,0,2.225,4.231A3.605,3.605,0,0,0,383.1,306.4a3.4,3.4,0,0,0,2.722-1.63c.924-1.566,1.124-3.541,1.6-5.264a1.526,1.526,0,0,1,1.413-1.222c.85-.028,1.513.793,1.97,1.424a10.076,10.076,0,0,1,1.133,8.835c-1.118,3.39-3.434,6.2-5.526,9.032-1.932,2.616-4.038,5.613-4.006,9.017a5.206,5.206,0,0,0,1.556,3.9,4.513,4.513,0,0,0,3.1.961c1.993-.085,4.172-1.392,3.677-3.655l-.213.393c3.167-.963,3.932,3.719,3.273,5.829-.525,1.677-2.061,2.892-3.383,3.949a25.92,25.92,0,0,0-4.1,3.613c-2.763,3.375-1.745,7.7-2.7,11.646-1.063,4.35-4.622,7.64-7.755,10.607a102.415,102.415,0,0,1-21.31,15.5,124.6,124.6,0,0,1-11.812,5.526c-3.32,1.386-6.609,3.13-7.819,6.752a12.305,12.305,0,0,1-1.2,3.05,5.75,5.75,0,0,1-2.55,1.928,27.583,27.583,0,0,1-6.546,2.051c-3.613.616-7.982-.291-9.368-4.121a3.939,3.939,0,0,1-.179-.6c-.077-.4-.691-.232-.614.17a7.036,7.036,0,0,0,5.1,5.03,13.332,13.332,0,0,0,6.892-.213,36.912,36.912,0,0,0,3.613-1.182,13.044,13.044,0,0,0,2.674-1.252,5.281,5.281,0,0,0,1.913-2.181c.459-.98.672-2.044,1.063-3.05a9,9,0,0,1,4.27-4.382,57.834,57.834,0,0,1,5.706-2.527q3.22-1.364,6.342-2.946a103.168,103.168,0,0,0,22.823-15.776c3.26-2.975,6.962-6.2,8.726-10.343a18.7,18.7,0,0,0,1.146-6.376c.138-2.291.366-4.625,1.766-6.533a23.121,23.121,0,0,1,4.44-4.01,9.823,9.823,0,0,0,3.4-3.947c.788-2.176.351-6.034-2.238-6.864a2.9,2.9,0,0,0-1.743.03.327.327,0,0,0-.223.393c.533,2.436-2.744,3.2-4.512,2.684-3.481-1.016-2.71-5.653-1.571-8.146,2.763-6.027,9.408-10.56,9.047-17.8a10.7,10.7,0,0,0-1.026-4.136c-.519-1.063-1.43-2.55-2.665-2.863a2.138,2.138,0,0,0-2.487,1.292c-.315.812-.4,1.741-.638,2.582a12.092,12.092,0,0,1-1,2.865,2.737,2.737,0,0,1-3.613,1.01,5.371,5.371,0,0,1-1.7-1.879A13.3,13.3,0,0,1,378.637,301a14.15,14.15,0,0,1-.669-2.408,2.222,2.222,0,0,0-.85-1.532c-1.078-.759-2.161-.232-2.975.614-2.338,2.461-3.36,6.269-1.785,9.4a11.731,11.731,0,0,0,7.7,5.978l-.223-.223c.425,2.478-1.031,4.707-1.783,6.971l.391-.212-4.316-1.762a2.827,2.827,0,0,0-2.436-.032,2.684,2.684,0,0,0-1.471,2.729c.213,1.488,1.66,2.423,2.89,3.045a19.862,19.862,0,0,1,4.138,2.2,9.622,9.622,0,0,1,3.152,6.323c.242,2.465-.536,5.2-3.1,6.065l.361.147a4.984,4.984,0,0,0-1.87-1.8c-.888-.6-1.836-1.109-2.748-1.675-.723-.448-1.471-.814-2.244-.213-.85.667-.614,1.83-.425,2.763.521,2.844,2.144,5.36,3.283,7.987a9.714,9.714,0,0,1,.608,6.588c-.574,2.1-2.1,4.227-4.531,3.825l.191.47c.752-1.781-1.469-3.158-3.05-2.705-2.246.638-2.829,3.674-3.681,5.494a37.268,37.268,0,0,1-10.329,12.552,36.384,36.384,0,0,1-7.538,4.835l.387.5c2.909-2.338,4.14-6.121,5.1-9.583,1.063-3.825,1.766-7.927,3.749-11.421a10.873,10.873,0,0,1,3.942-4.038c1.721-1.031,3.613-1.738,5.4-2.635a10.454,10.454,0,0,0,4.193-3.3,6.3,6.3,0,0,0,.572-1.063c.213-.48.13-.638-.193-1.05a4.287,4.287,0,0,0-2.146-1.435,9.092,9.092,0,0,0-6.333.831c-2.782,1.316-5.628,3.568-8.892,2.858l.234.308c-.425-3.694,3.143-6.063,5.611-8.157a17.169,17.169,0,0,0,3.657-3.9,7.576,7.576,0,0,0,1.005-5.26c-.689-4.3-4.163-7.959-3.93-12.439.136-2.61,1.855-4.675,3.475-6.567a14.876,14.876,0,0,0,3.447-5.589c.5-1.847.425-4.025-1.009-5.447a4.708,4.708,0,0,0-5.26-.712,10.557,10.557,0,0,0-4.831,4.463c-.561.927-.982,1.974-2.146,2.225a2.421,2.421,0,0,1-2.325-.769c-.788-.927-.625-2.455-.735-3.592-.136-1.381-.289-2.763-.41-4.144a30.85,30.85,0,0,1,.111-8.148,15.451,15.451,0,0,1,3.649-7.438c1.732-2.006,3.726-3.825,4.99-6.189,1.063-2,1.7-4.55.676-6.694a5.331,5.331,0,0,0-4.408-3.02c-4.389-.155-4.108,5.466-5.03,8.331a4.213,4.213,0,0,1-1.568,2.285l.387.049a22.175,22.175,0,0,1-5.551-7.043,21.586,21.586,0,0,1-1.628-4.41c-.306-1.222-.51-2.457-.908-3.658-.582-1.766-1.532-4.163-3.458-4.837a3.062,3.062,0,0,0-3.868,2.338c-.476,2.085.189,4.272.074,6.376a4.286,4.286,0,0,1-1.182,3,5.7,5.7,0,0,1-3.906,1.112,27.68,27.68,0,0,0-3.685.03,6.588,6.588,0,0,0-3.269,1.449,3.076,3.076,0,0,0-1.228,2.476,2.665,2.665,0,0,0,1.641,2.227c2.487,1.063,4.805-.744,6.928-1.758a4.29,4.29,0,0,1,4.6.132,15.786,15.786,0,0,1,3.188,3.581,44.34,44.34,0,0,1,7.934,16.048,39.91,39.91,0,0,1,.839,4.741,2.834,2.834,0,0,1-.285,1.955,2.338,2.338,0,0,1-1.934,1.063,3.072,3.072,0,0,0-2.461.8,2.433,2.433,0,0,0-.372,2.693c1,2.155,2.986,3.781,4.814,5.213a39.059,39.059,0,0,1,5.951,5.122c3.269,3.806,4.178,8.973,4.752,13.791.187,1.571.593,3.224.1,4.758a4.07,4.07,0,0,1-2.183,2.7c-1.063.425-2.187.3-3.224.835a5.574,5.574,0,0,0-2.476,2.848,24.8,24.8,0,0,0-1.653,3.772l.468-.191L342,341.683a5.264,5.264,0,0,0-3.12-.74,3.245,3.245,0,0,0-2.55,3.328,6.4,6.4,0,0,0,1.158,2.659c.606,1.041,1.226,2.072,1.832,3.113a20.436,20.436,0,0,1,2.916,10.46,26.127,26.127,0,0,1-2.55,11.1,24.5,24.5,0,0,1-7.97,9.712l.48.276c-.793-5.98-.958-12.018-1.381-18.03-.213-2.933-.531-5.84-.895-8.756a56.913,56.913,0,0,1-.516-7.536c.047-5.1,1.352-10.159,5.4-13.561,3.957-3.326,9.321-4.9,12.416-9.247a8.49,8.49,0,0,0,1.624-6.057,6.048,6.048,0,0,0-2.975-4.705c-3.1-1.619-8.112,1.539-6.469,5.177.278.621.712,1.173.931,1.823a3.288,3.288,0,0,1-.049,2.1,9.769,9.769,0,0,1-2.372,3.428c-.546.576-1.095,1.145-1.641,1.719-1.84,1.928-3.668,3.868-5.526,5.785a1.691,1.691,0,0,1-1.384.652,1.585,1.585,0,0,1-1.192-.744,2.282,2.282,0,0,1,0-1.811,42.88,42.88,0,0,0,1.192-8.76,45.4,45.4,0,0,0-.652-8.958,9.078,9.078,0,0,1,.064-4.675,8.926,8.926,0,0,1,2.163-3.1c.888-.9,1.851-1.717,2.678-2.667a6.935,6.935,0,0,0,1.783-3.109,2.562,2.562,0,0,0-3.339-2.793c-1.275.455-2.314,1.424-3.568,1.913a3.851,3.851,0,0,1-3.092-.142,3.8,3.8,0,0,1-1.964-2.325,10.344,10.344,0,0,1,.138-3.955,25.2,25.2,0,0,0,.113-8.108c-.353-1.753-1.05-4.418-3.128-4.771a2.786,2.786,0,0,0-2.112.506,3.444,3.444,0,0,0-1.175,2.436,32.8,32.8,0,0,0-.448,4.42c-.023.725-.023,1.454,0,2.178a14.613,14.613,0,0,1,.064,2.1,3.9,3.9,0,0,1-3.989,3.36c-1.347.038-2.7.064-4.038.117-1.513.06-1.377,2.372-.963,3.339.946,2.2,3.118,2.81,5.232,3.426a8.03,8.03,0,0,1,3.6,1.866,15.482,15.482,0,0,1,2.338,3.371,20.838,20.838,0,0,1,2.763,7.013,7.576,7.576,0,0,1-.255,3.634,11.434,11.434,0,0,1-2.023,2.9c-1.619,2.206,1.009,4.8,2,6.686,1.131,2.144,1.679,5.455-.886,6.875-1.275.708-2.5-.189-3.825-.1a2.82,2.82,0,0,0-1.966,1.05,4.893,4.893,0,0,0-.567,4.956c.995,2.157,3.152,3.466,4.9,4.945,1.8,1.524,3.825,4.14,2.569,6.588l.359-.147a5.767,5.767,0,0,0-2.975-.587,1.326,1.326,0,0,0-.958,1.46,4.277,4.277,0,0,0,.557,1.235q.4.788.774,1.592.8,1.741,1.462,3.545a47.476,47.476,0,0,1,2.535,22.315l.319-.319c-3.288.268-5.411-2.382-6.643-5.1-1.588-3.513-1.951-7.421-2.55-11.185l-2.293-14.452-1.145-7.226c-.359-2.261-1.014-4.727-.584-7.013.353-1.879,2.025-3.226,2.2-5.13.153-1.636-.912-3.033-1.649-4.393a5.1,5.1,0,0,1-.759-2.572,4.651,4.651,0,0,1,.971-2.5c1.075-1.5,2.644-2.55,3.783-3.981a6.733,6.733,0,0,0,1.643-4.221,3.135,3.135,0,0,0-2.589-2.975,4.3,4.3,0,0,0-4.2,2.125c-.531.793-.763,1.69-1.6,2.24a2.786,2.786,0,0,1-2.421.3,5.891,5.891,0,0,1-3.122-2.92c-.85-1.913.085-3.862.251-5.817.359-4.212-.805-8.444-2.3-12.341-1.571-4.1-3.655-7.987-5.111-12.137-1.437-4.1-2.378-8.588-1.262-12.883.973-3.738,3.751-6.918,4.155-10.817a6.072,6.072,0,0,0-.213-2.4,5.347,5.347,0,0,0-.448-1.046c-.191-.338-.361-.37-.742-.425a4.193,4.193,0,0,0-3.63,1.549,8.851,8.851,0,0,0-1.989,4.206c-.38,2-.149,4.076-.376,6.1-.091.816-.2,2.008-1.307,1.928-.572-.04-.839-.468-1.024-.944l-1.122-2.886c-.323-.835-.795-1.547-1.772-1.639a1.966,1.966,0,0,0-2.159,1.821,27.715,27.715,0,0,0,.115,3.226c.057,1.058.128,2.125.213,3.177.185,2.083.451,4.163.831,6.221a42.776,42.776,0,0,0,3.923,11.874c1.851,3.579,4.556,6.686,6.163,10.394a10.9,10.9,0,0,1,.952,5.823l.533-.14c-1.3-1.534-3.66-4.231-5.844-2.6a2.615,2.615,0,0,0-.973,2.533,23,23,0,0,0,.861,3.944,24.015,24.015,0,0,0,3.789,7.389,23.022,23.022,0,0,0,2.62,2.914c1.014.95,2.144,1.764,3.188,2.674,1.979,1.7,5.03,4.556,3.307,7.387l.359-.145A23.612,23.612,0,0,0,301,328.8a10.8,10.8,0,0,0-2.684.1,2.68,2.68,0,0,0-2.021,2.159c-.374,2.251,2.314,3.794,3.893,4.833,2.051,1.349,4.5,2.642,5.8,4.822,1.488,2.491.223,5.156-.956,7.481-1.031,2.036-2.361,4.369-1.749,6.733.4,1.547,1.8,2.6,2.125,4.168a3.989,3.989,0,0,1-1.588,3.987c-2.482,1.687-5.213-.425-6.463-2.6a7.666,7.666,0,0,1-1.06-4.072,14.1,14.1,0,0,1,1.452-5.056c.408-.907.85-1.794,1.3-2.68a20.268,20.268,0,0,0,1.192-2.5,2.693,2.693,0,0,0-1.339-3.245c-1.318-.659-2.88.045-4,.81a6.4,6.4,0,0,0-2.6,3.589l.308-.234c-2.742.026-3.188-3.766-3.294-5.8a9.812,9.812,0,0,0-.878-4.038c-.729-1.473-2.015-2.605-2.892-4a45.093,45.093,0,0,1-2.259-4.58,12.361,12.361,0,0,0-1.205-2c-.385-.519-.58-.638-1.211-.425-1.981.71-1.381,3.5-.716,4.928.612,1.311,1.736,2.21,2.55,3.379.886,1.262,1.913,3.209.457,4.44l.5.064c-1.035-1.73-3.3-1.043-4.433.213-1.566,1.734-.763,4.017.663,5.564,1.913,2.068,4.641,3.162,6.8,4.928,2.051,1.675,3.785,4,3.3,6.779-.414,2.357-2.365,4.412-4.888,3.536-2.166-.75-3.577-2.9-5.419-4.163a6.9,6.9,0,0,0-3.311-1.18,20.363,20.363,0,0,1-4.3-.412c-2.884-.927-2.633-4.038-2.351-6.473a20.043,20.043,0,0,0,.227-3.906,11.975,11.975,0,0,0-1.214-3.8,5.434,5.434,0,0,1-.255-4.355,13.9,13.9,0,0,1,2.448-3.583,13.774,13.774,0,0,0,2.374-3.381,5.716,5.716,0,0,0,.555-3.53,2.15,2.15,0,0,0-3.245-1.082c-.8.574-.748,1.4-1.052,2.229a19.7,19.7,0,0,1-1.118,2.166,1.615,1.615,0,0,1-1.488.973c-2.153.049-2.85-3.377-2.975-4.96a22.25,22.25,0,0,1,.338-4.229l.665-5.545.665-5.545c.183-1.524.457-3.065.5-4.6.049-1.981-.24-4.357-1.588-5.914a3.243,3.243,0,0,0-4.69-.213c-1.488,1.439-1.653,3.921-1.545,5.853.085,1.524.368,3.043.572,4.554l.718,5.313.72,5.313.533-.31-1.768-1.617a4.871,4.871,0,0,0-2.049-1.443,2.841,2.841,0,0,0-3.016,1.114,7.574,7.574,0,0,0-.793,4.565c.523,7.717,7.685,12.15,10.465,18.887a19.28,19.28,0,0,1,.638,12.779l.533-.14a35.955,35.955,0,0,1-3.711-4.168c-.693-.916-1.292-2.408-2.582-2.567a2.042,2.042,0,0,0-2.125,1.25c-.444,1.145.366,2.676.8,3.715,2.514,6.031,7.683,10.316,13.627,12.766a39.076,39.076,0,0,0,9.527,2.5c3.275.455,6.588.621,9.872.958a35.628,35.628,0,0,1,9.878,2.159,19.34,19.34,0,0,1,7.347,5.285c4.423,5.1,6.293,12.054,6.943,18.651C314.485,394.4,315.125,394.4,315.084,393.991Z" transform="translate(0 0)" fill="#242c5b"/>
  </g>
</svg>
